%TF.GenerationSoftware,KiCad,Pcbnew,8.0.6*%
%TF.CreationDate,2024-11-11T19:58:29-07:00*%
%TF.ProjectId,NanoSprayLinear,4e616e6f-5370-4726-9179-4c696e656172,rev?*%
%TF.SameCoordinates,Original*%
%TF.FileFunction,Paste,Top*%
%TF.FilePolarity,Positive*%
%FSLAX46Y46*%
G04 Gerber Fmt 4.6, Leading zero omitted, Abs format (unit mm)*
G04 Created by KiCad (PCBNEW 8.0.6) date 2024-11-11 19:58:29*
%MOMM*%
%LPD*%
G01*
G04 APERTURE LIST*
G04 Aperture macros list*
%AMRoundRect*
0 Rectangle with rounded corners*
0 $1 Rounding radius*
0 $2 $3 $4 $5 $6 $7 $8 $9 X,Y pos of 4 corners*
0 Add a 4 corners polygon primitive as box body*
4,1,4,$2,$3,$4,$5,$6,$7,$8,$9,$2,$3,0*
0 Add four circle primitives for the rounded corners*
1,1,$1+$1,$2,$3*
1,1,$1+$1,$4,$5*
1,1,$1+$1,$6,$7*
1,1,$1+$1,$8,$9*
0 Add four rect primitives between the rounded corners*
20,1,$1+$1,$2,$3,$4,$5,0*
20,1,$1+$1,$4,$5,$6,$7,0*
20,1,$1+$1,$6,$7,$8,$9,0*
20,1,$1+$1,$8,$9,$2,$3,0*%
G04 Aperture macros list end*
%ADD10C,0.000000*%
%ADD11R,1.300000X1.500000*%
%ADD12RoundRect,0.250000X0.550000X-1.500000X0.550000X1.500000X-0.550000X1.500000X-0.550000X-1.500000X0*%
%ADD13RoundRect,0.250000X-1.950000X-1.000000X1.950000X-1.000000X1.950000X1.000000X-1.950000X1.000000X0*%
%ADD14R,0.558800X1.460500*%
%ADD15RoundRect,0.200000X-0.200000X-0.275000X0.200000X-0.275000X0.200000X0.275000X-0.200000X0.275000X0*%
%ADD16RoundRect,0.175000X0.175000X0.175000X-0.175000X0.175000X-0.175000X-0.175000X0.175000X-0.175000X0*%
%ADD17R,5.400000X2.900000*%
%ADD18RoundRect,0.225000X-0.250000X0.225000X-0.250000X-0.225000X0.250000X-0.225000X0.250000X0.225000X0*%
%ADD19R,1.500000X0.650000*%
%ADD20RoundRect,0.225000X0.225000X0.250000X-0.225000X0.250000X-0.225000X-0.250000X0.225000X-0.250000X0*%
%ADD21RoundRect,0.250000X1.000000X-1.950000X1.000000X1.950000X-1.000000X1.950000X-1.000000X-1.950000X0*%
%ADD22RoundRect,0.218750X0.218750X0.256250X-0.218750X0.256250X-0.218750X-0.256250X0.218750X-0.256250X0*%
%ADD23RoundRect,0.200000X-0.275000X0.200000X-0.275000X-0.200000X0.275000X-0.200000X0.275000X0.200000X0*%
%ADD24RoundRect,0.218750X-0.218750X-0.256250X0.218750X-0.256250X0.218750X0.256250X-0.218750X0.256250X0*%
%ADD25RoundRect,0.225000X-0.225000X-0.250000X0.225000X-0.250000X0.225000X0.250000X-0.225000X0.250000X0*%
%ADD26R,1.800000X1.800000*%
%ADD27RoundRect,0.218750X-0.256250X0.218750X-0.256250X-0.218750X0.256250X-0.218750X0.256250X0.218750X0*%
%ADD28RoundRect,0.175000X0.175000X-0.175000X0.175000X0.175000X-0.175000X0.175000X-0.175000X-0.175000X0*%
%ADD29RoundRect,0.250000X0.250000X0.475000X-0.250000X0.475000X-0.250000X-0.475000X0.250000X-0.475000X0*%
%ADD30RoundRect,0.150000X-0.875000X-0.150000X0.875000X-0.150000X0.875000X0.150000X-0.875000X0.150000X0*%
%ADD31RoundRect,0.250000X0.475000X-0.250000X0.475000X0.250000X-0.475000X0.250000X-0.475000X-0.250000X0*%
%ADD32RoundRect,0.250000X-0.550000X1.500000X-0.550000X-1.500000X0.550000X-1.500000X0.550000X1.500000X0*%
%ADD33R,0.650000X1.500000*%
G04 APERTURE END LIST*
D10*
%TO.C,U9*%
G36*
X112910000Y-95206450D02*
G01*
X111408200Y-95206450D01*
X111408200Y-94047550D01*
X112910000Y-94047550D01*
X112910000Y-95206450D01*
G37*
G36*
X112910000Y-96565350D02*
G01*
X111408200Y-96565350D01*
X111408200Y-95406450D01*
X112910000Y-95406450D01*
X112910000Y-96565350D01*
G37*
G36*
X114611800Y-95206450D02*
G01*
X113110000Y-95206450D01*
X113110000Y-94047550D01*
X114611800Y-94047550D01*
X114611800Y-95206450D01*
G37*
G36*
X114611800Y-96565350D02*
G01*
X113110000Y-96565350D01*
X113110000Y-95406450D01*
X114611800Y-95406450D01*
X114611800Y-96565350D01*
G37*
%TO.C,U12*%
G36*
X176232200Y-95238200D02*
G01*
X174730400Y-95238200D01*
X174730400Y-94079300D01*
X176232200Y-94079300D01*
X176232200Y-95238200D01*
G37*
G36*
X176232200Y-96597100D02*
G01*
X174730400Y-96597100D01*
X174730400Y-95438200D01*
X176232200Y-95438200D01*
X176232200Y-96597100D01*
G37*
G36*
X177934000Y-95238200D02*
G01*
X176432200Y-95238200D01*
X176432200Y-94079300D01*
X177934000Y-94079300D01*
X177934000Y-95238200D01*
G37*
G36*
X177934000Y-96597100D02*
G01*
X176432200Y-96597100D01*
X176432200Y-95438200D01*
X177934000Y-95438200D01*
X177934000Y-96597100D01*
G37*
%TO.C,U11*%
G36*
X163583000Y-95390600D02*
G01*
X162081200Y-95390600D01*
X162081200Y-94231700D01*
X163583000Y-94231700D01*
X163583000Y-95390600D01*
G37*
G36*
X163583000Y-96749500D02*
G01*
X162081200Y-96749500D01*
X162081200Y-95590600D01*
X163583000Y-95590600D01*
X163583000Y-96749500D01*
G37*
G36*
X165284800Y-95390600D02*
G01*
X163783000Y-95390600D01*
X163783000Y-94231700D01*
X165284800Y-94231700D01*
X165284800Y-95390600D01*
G37*
G36*
X165284800Y-96749500D02*
G01*
X163783000Y-96749500D01*
X163783000Y-95590600D01*
X165284800Y-95590600D01*
X165284800Y-96749500D01*
G37*
%TO.C,U17*%
G36*
X77959600Y-95155650D02*
G01*
X76457800Y-95155650D01*
X76457800Y-93996750D01*
X77959600Y-93996750D01*
X77959600Y-95155650D01*
G37*
G36*
X77959600Y-96514550D02*
G01*
X76457800Y-96514550D01*
X76457800Y-95355650D01*
X77959600Y-95355650D01*
X77959600Y-96514550D01*
G37*
G36*
X79661400Y-95155650D02*
G01*
X78159600Y-95155650D01*
X78159600Y-93996750D01*
X79661400Y-93996750D01*
X79661400Y-95155650D01*
G37*
G36*
X79661400Y-96514550D02*
G01*
X78159600Y-96514550D01*
X78159600Y-95355650D01*
X79661400Y-95355650D01*
X79661400Y-96514550D01*
G37*
%TO.C,U14*%
G36*
X150883000Y-95339800D02*
G01*
X149381200Y-95339800D01*
X149381200Y-94180900D01*
X150883000Y-94180900D01*
X150883000Y-95339800D01*
G37*
G36*
X150883000Y-96698700D02*
G01*
X149381200Y-96698700D01*
X149381200Y-95539800D01*
X150883000Y-95539800D01*
X150883000Y-96698700D01*
G37*
G36*
X152584800Y-95339800D02*
G01*
X151083000Y-95339800D01*
X151083000Y-94180900D01*
X152584800Y-94180900D01*
X152584800Y-95339800D01*
G37*
G36*
X152584800Y-96698700D02*
G01*
X151083000Y-96698700D01*
X151083000Y-95539800D01*
X152584800Y-95539800D01*
X152584800Y-96698700D01*
G37*
%TO.C,U13*%
G36*
X138183000Y-95289000D02*
G01*
X136681200Y-95289000D01*
X136681200Y-94130100D01*
X138183000Y-94130100D01*
X138183000Y-95289000D01*
G37*
G36*
X138183000Y-96647900D02*
G01*
X136681200Y-96647900D01*
X136681200Y-95489000D01*
X138183000Y-95489000D01*
X138183000Y-96647900D01*
G37*
G36*
X139884800Y-95289000D02*
G01*
X138383000Y-95289000D01*
X138383000Y-94130100D01*
X139884800Y-94130100D01*
X139884800Y-95289000D01*
G37*
G36*
X139884800Y-96647900D02*
G01*
X138383000Y-96647900D01*
X138383000Y-95489000D01*
X139884800Y-95489000D01*
X139884800Y-96647900D01*
G37*
%TO.C,U8*%
G36*
X101226000Y-95104850D02*
G01*
X99724200Y-95104850D01*
X99724200Y-93945950D01*
X101226000Y-93945950D01*
X101226000Y-95104850D01*
G37*
G36*
X101226000Y-96463750D02*
G01*
X99724200Y-96463750D01*
X99724200Y-95304850D01*
X101226000Y-95304850D01*
X101226000Y-96463750D01*
G37*
G36*
X102927800Y-95104850D02*
G01*
X101426000Y-95104850D01*
X101426000Y-93945950D01*
X102927800Y-93945950D01*
X102927800Y-95104850D01*
G37*
G36*
X102927800Y-96463750D02*
G01*
X101426000Y-96463750D01*
X101426000Y-95304850D01*
X102927800Y-95304850D01*
X102927800Y-96463750D01*
G37*
%TO.C,U4*%
G36*
X89694400Y-95155650D02*
G01*
X88192600Y-95155650D01*
X88192600Y-93996750D01*
X89694400Y-93996750D01*
X89694400Y-95155650D01*
G37*
G36*
X89694400Y-96514550D02*
G01*
X88192600Y-96514550D01*
X88192600Y-95355650D01*
X89694400Y-95355650D01*
X89694400Y-96514550D01*
G37*
G36*
X91396200Y-95155650D02*
G01*
X89894400Y-95155650D01*
X89894400Y-93996750D01*
X91396200Y-93996750D01*
X91396200Y-95155650D01*
G37*
G36*
X91396200Y-96514550D02*
G01*
X89894400Y-96514550D01*
X89894400Y-95355650D01*
X91396200Y-95355650D01*
X91396200Y-96514550D01*
G37*
%TO.C,U10*%
G36*
X125533800Y-95339800D02*
G01*
X124032000Y-95339800D01*
X124032000Y-94180900D01*
X125533800Y-94180900D01*
X125533800Y-95339800D01*
G37*
G36*
X125533800Y-96698700D02*
G01*
X124032000Y-96698700D01*
X124032000Y-95539800D01*
X125533800Y-95539800D01*
X125533800Y-96698700D01*
G37*
G36*
X127235600Y-95339800D02*
G01*
X125733800Y-95339800D01*
X125733800Y-94180900D01*
X127235600Y-94180900D01*
X127235600Y-95339800D01*
G37*
G36*
X127235600Y-96698700D02*
G01*
X125733800Y-96698700D01*
X125733800Y-95539800D01*
X127235600Y-95539800D01*
X127235600Y-96698700D01*
G37*
%TD*%
D11*
%TO.C,U15*%
X69850000Y-108230000D03*
X69850000Y-110770000D03*
X78850000Y-110770000D03*
X78850000Y-108230000D03*
%TD*%
D12*
%TO.C,C34*%
X155041600Y-85350000D03*
X155041600Y-79750000D03*
%TD*%
D13*
%TO.C,C2*%
X173981000Y-60502800D03*
X182381000Y-60502800D03*
%TD*%
D12*
%TO.C,C35*%
X165170800Y-85350000D03*
X165170800Y-79750000D03*
%TD*%
D14*
%TO.C,U9*%
X114915000Y-92582300D03*
X113645000Y-92582300D03*
X112375000Y-92582300D03*
X111105000Y-92582300D03*
X111105000Y-98030600D03*
X112375000Y-98030600D03*
X113645000Y-98030600D03*
X114915000Y-98030600D03*
%TD*%
D15*
%TO.C,R4*%
X41071800Y-111593250D03*
X42721800Y-111593250D03*
%TD*%
D16*
%TO.C,D10*%
X53272500Y-114650000D03*
X51122500Y-114650000D03*
%TD*%
D15*
%TO.C,R10*%
X181275000Y-89250000D03*
X182925000Y-89250000D03*
%TD*%
D17*
%TO.C,L1*%
X147828000Y-55502000D03*
X147828000Y-65402000D03*
%TD*%
D15*
%TO.C,R3*%
X178675000Y-50000000D03*
X180325000Y-50000000D03*
%TD*%
D18*
%TO.C,C27*%
X106685400Y-97103200D03*
X106685400Y-98653200D03*
%TD*%
%TO.C,C14*%
X54950000Y-110335800D03*
X54950000Y-111885800D03*
%TD*%
D19*
%TO.C,U7*%
X64656000Y-108343000D03*
X64656000Y-107073000D03*
X64656000Y-105803000D03*
X64656000Y-104533000D03*
X59256000Y-104533000D03*
X59256000Y-105803000D03*
X59256000Y-107073000D03*
X59256000Y-108343000D03*
%TD*%
D12*
%TO.C,C16*%
X85301800Y-85430566D03*
X85301800Y-79830566D03*
%TD*%
D18*
%TO.C,C32*%
X157282200Y-97204800D03*
X157282200Y-98754800D03*
%TD*%
D14*
%TO.C,U12*%
X178237200Y-92614050D03*
X176967200Y-92614050D03*
X175697200Y-92614050D03*
X174427200Y-92614050D03*
X174427200Y-98062350D03*
X175697200Y-98062350D03*
X176967200Y-98062350D03*
X178237200Y-98062350D03*
%TD*%
D18*
%TO.C,C24*%
X93980000Y-54089000D03*
X93980000Y-55639000D03*
%TD*%
%TO.C,C33*%
X169728200Y-97357200D03*
X169728200Y-98907200D03*
%TD*%
%TO.C,C37*%
X144531400Y-97306400D03*
X144531400Y-98856400D03*
%TD*%
D20*
%TO.C,R7*%
X54125000Y-116750000D03*
X52575000Y-116750000D03*
%TD*%
D18*
%TO.C,C36*%
X132339400Y-97408000D03*
X132339400Y-98958000D03*
%TD*%
D14*
%TO.C,U11*%
X165588000Y-92766450D03*
X164318000Y-92766450D03*
X163048000Y-92766450D03*
X161778000Y-92766450D03*
X161778000Y-98214750D03*
X163048000Y-98214750D03*
X164318000Y-98214750D03*
X165588000Y-98214750D03*
%TD*%
D18*
%TO.C,C25*%
X96322200Y-97306400D03*
X96322200Y-98856400D03*
%TD*%
D21*
%TO.C,C1*%
X75164000Y-80412000D03*
X75164000Y-72012000D03*
%TD*%
D22*
%TO.C,D5*%
X42684300Y-113640650D03*
X41109300Y-113640650D03*
%TD*%
D14*
%TO.C,U17*%
X79964600Y-92531500D03*
X78694600Y-92531500D03*
X77424600Y-92531500D03*
X76154600Y-92531500D03*
X76154600Y-97979800D03*
X77424600Y-97979800D03*
X78694600Y-97979800D03*
X79964600Y-97979800D03*
%TD*%
D16*
%TO.C,D9*%
X61985000Y-115250000D03*
X59835000Y-115250000D03*
%TD*%
D23*
%TO.C,R5*%
X103693000Y-68651000D03*
X103693000Y-70301000D03*
%TD*%
D24*
%TO.C,D8*%
X181312500Y-86900000D03*
X182887500Y-86900000D03*
%TD*%
D18*
%TO.C,R9*%
X67036000Y-106819000D03*
X67036000Y-108369000D03*
%TD*%
D20*
%TO.C,C19*%
X60531000Y-110213000D03*
X58981000Y-110213000D03*
%TD*%
D15*
%TO.C,R13*%
X77225000Y-113300000D03*
X78875000Y-113300000D03*
%TD*%
D23*
%TO.C,R6*%
X100868000Y-68651000D03*
X100868000Y-70301000D03*
%TD*%
D14*
%TO.C,U14*%
X152888000Y-92715650D03*
X151618000Y-92715650D03*
X150348000Y-92715650D03*
X149078000Y-92715650D03*
X149078000Y-98163950D03*
X150348000Y-98163950D03*
X151618000Y-98163950D03*
X152888000Y-98163950D03*
%TD*%
D12*
%TO.C,C39*%
X144094200Y-85731000D03*
X144094200Y-80131000D03*
%TD*%
D14*
%TO.C,U13*%
X140188000Y-92664850D03*
X138918000Y-92664850D03*
X137648000Y-92664850D03*
X136378000Y-92664850D03*
X136378000Y-98113150D03*
X137648000Y-98113150D03*
X138918000Y-98113150D03*
X140188000Y-98113150D03*
%TD*%
D25*
%TO.C,C9*%
X69837000Y-51308000D03*
X71387000Y-51308000D03*
%TD*%
D26*
%TO.C,D4*%
X76650000Y-103600000D03*
X72650000Y-103600000D03*
%TD*%
D18*
%TO.C,C15*%
X84562200Y-97276800D03*
X84562200Y-98826800D03*
%TD*%
D21*
%TO.C,C23*%
X89916000Y-51444000D03*
X89916000Y-43044000D03*
%TD*%
D27*
%TO.C,D1*%
X176300000Y-51212500D03*
X176300000Y-52787500D03*
%TD*%
D18*
%TO.C,C31*%
X106518000Y-68701000D03*
X106518000Y-70251000D03*
%TD*%
%TO.C,C40*%
X73309800Y-97966800D03*
X73309800Y-99516800D03*
%TD*%
D13*
%TO.C,C4*%
X189100000Y-60502800D03*
X197500000Y-60502800D03*
%TD*%
D28*
%TO.C,D12*%
X65766000Y-116194000D03*
X65766000Y-114044000D03*
%TD*%
D13*
%TO.C,C3*%
X158918800Y-60579000D03*
X167318800Y-60579000D03*
%TD*%
D12*
%TO.C,C30*%
X119995000Y-85393400D03*
X119995000Y-79793400D03*
%TD*%
%TO.C,C38*%
X131526600Y-85285800D03*
X131526600Y-79685800D03*
%TD*%
D26*
%TO.C,D2*%
X132150000Y-61600000D03*
X136150000Y-61600000D03*
%TD*%
D21*
%TO.C,C22*%
X103632000Y-51444000D03*
X103632000Y-43044000D03*
%TD*%
D12*
%TO.C,C26*%
X96576200Y-85430566D03*
X96576200Y-79830566D03*
%TD*%
%TO.C,C29*%
X108158600Y-85285800D03*
X108158600Y-79685800D03*
%TD*%
D18*
%TO.C,C28*%
X119487000Y-97357200D03*
X119487000Y-98907200D03*
%TD*%
D28*
%TO.C,D13*%
X71227000Y-116194000D03*
X71227000Y-114044000D03*
%TD*%
D26*
%TO.C,D3*%
X137300000Y-42100000D03*
X141300000Y-42100000D03*
%TD*%
%TO.C,D11*%
X157000000Y-70900000D03*
X161000000Y-70900000D03*
%TD*%
D14*
%TO.C,U8*%
X103231000Y-92480700D03*
X101961000Y-92480700D03*
X100691000Y-92480700D03*
X99421000Y-92480700D03*
X99421000Y-97929000D03*
X100691000Y-97929000D03*
X101961000Y-97929000D03*
X103231000Y-97929000D03*
%TD*%
D26*
%TO.C,D14*%
X147600000Y-72250000D03*
X143600000Y-72250000D03*
%TD*%
%TO.C,D7*%
X157750000Y-51100000D03*
X161750000Y-51100000D03*
%TD*%
D14*
%TO.C,U4*%
X91699400Y-92531500D03*
X90429400Y-92531500D03*
X89159400Y-92531500D03*
X87889400Y-92531500D03*
X87889400Y-97979800D03*
X89159400Y-97979800D03*
X90429400Y-97979800D03*
X91699400Y-97979800D03*
%TD*%
D25*
%TO.C,C20*%
X59042000Y-102374000D03*
X60592000Y-102374000D03*
%TD*%
D21*
%TO.C,C21*%
X117348000Y-51444000D03*
X117348000Y-43044000D03*
%TD*%
D29*
%TO.C,C18*%
X64910000Y-102374000D03*
X63010000Y-102374000D03*
%TD*%
D20*
%TO.C,R8*%
X57925000Y-116750000D03*
X56375000Y-116750000D03*
%TD*%
D17*
%TO.C,L2*%
X132080000Y-56258000D03*
X132080000Y-46358000D03*
%TD*%
D30*
%TO.C,U1*%
X110118000Y-58796000D03*
X110118000Y-60066000D03*
X110118000Y-61336000D03*
X110118000Y-62606000D03*
X110118000Y-63876000D03*
X110118000Y-65146000D03*
X110118000Y-66416000D03*
X110118000Y-67686000D03*
X110118000Y-68956000D03*
X110118000Y-70226000D03*
X110118000Y-71496000D03*
X110118000Y-72766000D03*
X110118000Y-74036000D03*
X110118000Y-75306000D03*
X119418000Y-75306000D03*
X119418000Y-74036000D03*
X119418000Y-72766000D03*
X119418000Y-71496000D03*
X119418000Y-70226000D03*
X119418000Y-68956000D03*
X119418000Y-67686000D03*
X119418000Y-66416000D03*
X119418000Y-65146000D03*
X119418000Y-63876000D03*
X119418000Y-62606000D03*
X119418000Y-61336000D03*
X119418000Y-60066000D03*
X119418000Y-58796000D03*
%TD*%
D20*
%TO.C,C17*%
X49325000Y-113550000D03*
X47775000Y-113550000D03*
%TD*%
D31*
%TO.C,C13*%
X50850000Y-103710800D03*
X50850000Y-101810800D03*
%TD*%
D14*
%TO.C,U10*%
X127538800Y-92715650D03*
X126268800Y-92715650D03*
X124998800Y-92715650D03*
X123728800Y-92715650D03*
X123728800Y-98163950D03*
X124998800Y-98163950D03*
X126268800Y-98163950D03*
X127538800Y-98163950D03*
%TD*%
D18*
%TO.C,R1*%
X53550000Y-102185800D03*
X53550000Y-103735800D03*
%TD*%
D15*
%TO.C,R2*%
X122043000Y-76751000D03*
X123693000Y-76751000D03*
%TD*%
D32*
%TO.C,C5*%
X88800000Y-70300000D03*
X88800000Y-75900000D03*
%TD*%
D33*
%TO.C,U6*%
X53030000Y-106185800D03*
X51760000Y-106185800D03*
X50490000Y-106185800D03*
X49220000Y-106185800D03*
X49220000Y-111585800D03*
X50490000Y-111585800D03*
X51760000Y-111585800D03*
X53030000Y-111585800D03*
%TD*%
M02*
