M48
; DRILL file {KiCad 8.0.6} date 2024-11-11T19:58:29-0700
; FORMAT={-:-/ absolute / inch / decimal}
; #@! TF.CreationDate,2024-11-11T19:58:29-07:00
; #@! TF.GenerationSoftware,Kicad,Pcbnew,8.0.6
; #@! TF.FileFunction,Plated,1,2,PTH
FMAT,2
INCH
; #@! TA.AperFunction,Plated,PTH,ViaDrill
T1C0.0157
; #@! TA.AperFunction,Plated,PTH,ViaDrill
T2C0.0197
; #@! TA.AperFunction,Plated,PTH,ComponentDrill
T3C0.0197
; #@! TA.AperFunction,Plated,PTH,ComponentDrill
T4C0.0394
; #@! TA.AperFunction,Plated,PTH,ComponentDrill
T5C0.0433
; #@! TA.AperFunction,Plated,PTH,ComponentDrill
T6C0.0472
; #@! TA.AperFunction,Plated,PTH,ComponentDrill
T7C0.0689
; #@! TA.AperFunction,Plated,PTH,ComponentDrill
T8C0.1154
; #@! TA.AperFunction,Plated,PTH,ComponentDrill
T9C0.1890
; #@! TA.AperFunction,Plated,PTH,ComponentDrill
T10C0.2087
%
G90
G05
T1
X1.7271Y-4.474
X1.8809Y-4.5433
X1.9378Y-4.1228
X1.9803Y-4.5236
X2.003Y-3.9364
X2.125Y-2.025
X2.1654Y-4.277
X2.3292Y-3.2305
X2.3563Y-4.5856
X2.3692Y-3.2205
X2.4305Y-4.0305
X2.4502Y-4.3428
X2.6942Y-3.6155
X2.7192Y-1.8255
X2.7342Y-3.3505
X2.8051Y-3.6496
X2.82Y-1.96
X2.8592Y-4.3705
X2.8792Y-4.6205
X2.9457Y-3.9584
X2.9521Y-3.6408
X3.0402Y-3.7255
X3.0422Y-3.7775
X3.0492Y-3.5905
X3.0732Y-3.7502
X3.0942Y-3.5855
X3.0965Y-2.8346
X3.1082Y-3.7775
X3.1102Y-3.7255
X3.1405Y-3.9213
X3.1482Y-3.5882
X3.1502Y-4.2042
X3.2662Y-3.8575
X3.2764Y-3.1429
X3.2933Y-2.5647
X3.2933Y-2.7697
X3.4282Y-3.6553
X3.4942Y-3.7235
X3.5002Y-3.7766
X3.5352Y-3.7502
X3.5594Y-3.5715
X3.5627Y-3.2117
X3.5736Y-3.9387
X3.5742Y-3.7235
X3.5742Y-3.7755
X3.58Y-2.2
X3.6001Y-3.5778
X3.64Y-1.7
X3.6574Y-3.5804
X3.8009Y-3.04
X3.8511Y-3.9597
X3.8721Y-3.6544
X3.9042Y-2.6541
X3.9042Y-2.7555
X3.9562Y-3.7235
X3.9562Y-3.7755
X3.9672Y-3.5581
X3.9842Y-2.6205
X3.9892Y-3.7482
X4.016Y-3.5763
X4.0262Y-3.7215
X4.0282Y-3.7755
X4.0292Y-2.7464
X4.0419Y-3.9259
X4.0625Y-3.5755
X4.1195Y-2.6505
X4.1651Y-2.6526
X4.1877Y-2.8278
X4.2Y-1.7
X4.2241Y-2.6516
X4.2527Y-3.938
X4.2645Y-2.6515
X4.3281Y-3.6505
X4.3295Y-3.0739
X4.3985Y-2.6657
X4.4162Y-3.7796
X4.418Y-3.564
X4.4182Y-3.7255
X4.4468Y-2.6653
X4.4492Y-3.7522
X4.4751Y-3.5601
X4.48Y-1.7
X4.4819Y-3.9339
X4.4842Y-3.7235
X4.4882Y-3.7775
X4.4948Y-2.6615
X4.5243Y-3.564
X4.5503Y-2.664
X4.6434Y-3.0798
X4.7003Y-3.9558
X4.7919Y-2.9129
X4.8186Y-3.6487
X4.9003Y-3.5699
X4.9102Y-3.7295
X4.9162Y-3.7855
X4.9357Y-3.2067
X4.9462Y-3.7575
X4.9633Y-3.564
X4.9653Y-3.9421
X4.98Y-1.66
X4.9822Y-3.7855
X4.9862Y-3.7315
X5.0069Y-3.1961
X5.0224Y-3.567
X5.167Y-3.0207
X5.2077Y-3.9595
X5.3157Y-3.6487
X5.3733Y-4.3185
X5.4072Y-3.5561
X5.4102Y-3.7275
X5.4102Y-3.7815
X5.4328Y-3.2126
X5.4442Y-3.7555
X5.4686Y-3.9373
X5.4712Y-3.5601
X5.4782Y-3.7835
X5.48Y-3.2195
X5.4802Y-3.7295
X5.5233Y-3.562
X5.5706Y-3.1006
X5.626Y-1.694
X5.6277Y-3.8918
X5.8176Y-3.6487
X5.86Y-3.192
X5.8856Y-3.5788
X5.9082Y-3.7315
X5.9082Y-3.7855
X5.917Y-3.0916
X5.923Y-3.1566
X5.9442Y-3.7575
X5.9515Y-3.5601
X5.9564Y-3.065
X5.9681Y-3.9333
X5.9762Y-3.7315
X5.9782Y-3.7845
X6.0233Y-3.5689
X6.1Y-3.04
X6.1784Y-1.6879
X6.1909Y-3.9515
X6.3167Y-3.6477
X6.3806Y-3.566
X6.4062Y-3.7335
X6.4082Y-3.7875
X6.4442Y-3.7595
X6.4618Y-3.5715
X6.463Y-3.9509
X6.4802Y-3.7355
X6.4802Y-3.7855
X6.505Y-3.031
X6.5764Y-3.6113
X6.5866Y-2.6378
X6.6247Y-4.2372
X6.6453Y-3.9565
X6.74Y-3.047
X6.74Y-3.48
X6.798Y-3.6496
X6.8228Y-1.687
X6.8767Y-3.5798
X6.892Y-3.724
X6.892Y-3.785
X6.9404Y-1.9442
X6.9422Y-3.7535
X6.9564Y-3.939
X6.9653Y-3.5768
X6.989Y-3.724
X6.989Y-3.782
X7.0194Y-3.5699
X7.1831Y-2.6319
X7.9174Y-2.372
T2
X6.4823Y-2.0118
T4
X1.9026Y-3.7774
X2.0011Y-3.7774
X2.0246Y-1.7255
X2.0246Y-1.8255
X2.0246Y-1.9255
X2.0246Y-2.0255
X2.0246Y-2.1255
X2.0246Y-2.2255
X2.0246Y-2.3255
X2.0246Y-2.4255
X2.0246Y-2.5255
X2.0246Y-2.6255
X2.0246Y-2.7255
X2.0246Y-2.8255
X2.0246Y-2.9255
X2.0246Y-3.0255
X2.0246Y-3.1255
X2.0995Y-3.7774
X2.41Y-3.7755
X2.5084Y-3.7755
X2.6069Y-3.7755
X2.6246Y-1.7255
X2.6246Y-1.8255
X2.6246Y-1.9255
X2.6246Y-2.0255
X2.6246Y-2.1255
X2.6246Y-2.2255
X2.6246Y-2.3255
X2.6246Y-2.4255
X2.6246Y-2.5255
X2.6246Y-2.6255
X2.6246Y-2.7255
X2.6246Y-2.8255
X2.6246Y-2.9255
X2.6246Y-3.0255
X2.6246Y-3.1255
T5
X3.48Y-2.3
X3.58Y-2.3
X3.68Y-2.3
X6.0776Y-1.7751
X6.1776Y-1.7751
X6.2776Y-1.7751
X6.7228Y-1.7774
X6.8228Y-1.7774
X6.9228Y-1.7774
T6
X1.9342Y-3.5105
X2.1592Y-3.5105
X2.4442Y-3.5155
X2.6292Y-3.5205
T7
X3.9151Y-4.2543
X3.9151Y-4.5692
X3.9938Y-4.4117
X4.0726Y-4.2543
X4.0726Y-4.5692
X4.1513Y-4.4117
X4.23Y-4.2543
X4.23Y-4.5692
X4.3088Y-4.4117
X4.3875Y-4.2543
X4.3875Y-4.5692
X4.4663Y-4.4117
X4.545Y-4.2543
X4.545Y-4.5692
X4.6237Y-4.4117
X4.7025Y-4.2543
X4.7025Y-4.5692
X4.7812Y-4.4117
X4.86Y-4.2543
X4.86Y-4.5692
X4.9387Y-4.4117
X5.0174Y-4.2543
X5.0174Y-4.5692
T8
X3.6592Y-4.4314
X5.2733Y-4.4314
T9
X7.5396Y-3.14
X7.58Y-4.1
T10
X1.605Y-1.665
X7.744Y-1.67
T3
G00X3.0524Y-1.6743
M15
G01X3.1076Y-1.6743
M16
G05
G00X3.0524Y-1.82
M15
G01X3.1076Y-1.82
M16
G05
G00X3.0524Y-1.9893
M15
G01X3.1076Y-1.9893
M16
G05
G00X3.0524Y-2.135
M15
G01X3.1076Y-2.135
M16
G05
G00X6.9676Y-2.9279
M15
G01X6.9124Y-2.9279
M16
G05
G00X6.9676Y-3.0736
M15
G01X6.9124Y-3.0736
M16
G05
G00X6.9676Y-3.2429
M15
G01X6.9124Y-3.2429
M16
G05
G00X6.9676Y-3.3885
M15
G01X6.9124Y-3.3885
M16
G05
M30
