%TF.GenerationSoftware,KiCad,Pcbnew,8.0.6*%
%TF.CreationDate,2024-11-11T19:58:29-07:00*%
%TF.ProjectId,NanoSprayLinear,4e616e6f-5370-4726-9179-4c696e656172,rev?*%
%TF.SameCoordinates,Original*%
%TF.FileFunction,Copper,L2,Bot*%
%TF.FilePolarity,Positive*%
%FSLAX46Y46*%
G04 Gerber Fmt 4.6, Leading zero omitted, Abs format (unit mm)*
G04 Created by KiCad (PCBNEW 8.0.6) date 2024-11-11 19:58:29*
%MOMM*%
%LPD*%
G01*
G04 APERTURE LIST*
%TA.AperFunction,ComponentPad*%
%ADD10R,1.905000X2.000000*%
%TD*%
%TA.AperFunction,ComponentPad*%
%ADD11O,1.905000X2.000000*%
%TD*%
%TA.AperFunction,ComponentPad*%
%ADD12C,9.200000*%
%TD*%
%TA.AperFunction,ComponentPad*%
%ADD13C,2.000000*%
%TD*%
%TA.AperFunction,ComponentPad*%
%ADD14C,2.625000*%
%TD*%
%TA.AperFunction,ComponentPad*%
%ADD15C,4.395000*%
%TD*%
%TA.AperFunction,ComponentPad*%
%ADD16R,1.600000X1.600000*%
%TD*%
%TA.AperFunction,ComponentPad*%
%ADD17O,1.600000X1.600000*%
%TD*%
%TA.AperFunction,ComponentPad*%
%ADD18C,2.500000*%
%TD*%
%TA.AperFunction,ComponentPad*%
%ADD19C,9.000000*%
%TD*%
%TA.AperFunction,ComponentPad*%
%ADD20R,3.000000X2.000000*%
%TD*%
%TA.AperFunction,ComponentPad*%
%ADD21O,3.000000X2.000000*%
%TD*%
%TA.AperFunction,ViaPad*%
%ADD22C,0.800000*%
%TD*%
%TA.AperFunction,ViaPad*%
%ADD23C,1.000000*%
%TD*%
%TA.AperFunction,ViaPad*%
%ADD24C,2.000000*%
%TD*%
%TA.AperFunction,ViaPad*%
%ADD25C,1.200000*%
%TD*%
%TA.AperFunction,Conductor*%
%ADD26C,1.016000*%
%TD*%
%TA.AperFunction,Conductor*%
%ADD27C,2.032000*%
%TD*%
%TA.AperFunction,Conductor*%
%ADD28C,0.762000*%
%TD*%
%TA.AperFunction,Conductor*%
%ADD29C,1.270000*%
%TD*%
%TA.AperFunction,Conductor*%
%ADD30C,0.508000*%
%TD*%
G04 APERTURE END LIST*
D10*
%TO.P,U2,1,VI*%
%TO.N,Net-(U2-VI)*%
X170760000Y-45145000D03*
D11*
%TO.P,U2,2,GND*%
%TO.N,GND*%
X173300000Y-45145000D03*
%TO.P,U2,3,VO*%
%TO.N,+5V*%
X175840000Y-45145000D03*
%TD*%
D12*
%TO.P,H2,1*%
%TO.N,N/C*%
X40767000Y-42291000D03*
%TD*%
D13*
%TO.P,RV3,1,1*%
%TO.N,Net-(U6B--)*%
X48327000Y-95947000D03*
%TO.P,RV3,2,2*%
X50827000Y-95947000D03*
%TO.P,RV3,3,3*%
%TO.N,Net-(U6A-+)*%
X53327000Y-95947000D03*
%TD*%
%TO.P,RV4,1,1*%
%TO.N,Net-(U7A-+)*%
X66214000Y-95897000D03*
%TO.P,RV4,2,2*%
%TO.N,Net-(U7B--)*%
X63714000Y-95897000D03*
%TO.P,RV4,3,3*%
X61214000Y-95897000D03*
%TD*%
D14*
%TO.P,J2,1,1*%
%TO.N,S2*%
X99443000Y-108058200D03*
%TO.P,J2,2,2*%
%TO.N,S3*%
X103443000Y-108058200D03*
%TO.P,J2,3,3*%
%TO.N,S4*%
X107443000Y-108058200D03*
%TO.P,J2,4,4*%
%TO.N,S5*%
X111443000Y-108058200D03*
%TO.P,J2,5,5*%
%TO.N,S6*%
X115443000Y-108058200D03*
%TO.P,J2,6,6*%
%TO.N,S7*%
X119443000Y-108058200D03*
%TO.P,J2,7,7*%
%TO.N,S8*%
X123443000Y-108058200D03*
%TO.P,J2,8,8*%
%TO.N,S9*%
X127443000Y-108058200D03*
%TO.P,J2,9,9*%
%TO.N,S1*%
X101443000Y-112058200D03*
%TO.P,J2,10,10*%
%TO.N,PressureSensor*%
X105443000Y-112058200D03*
%TO.P,J2,11,11*%
%TO.N,WorkSwitch*%
X109443000Y-112058200D03*
%TO.P,J2,12,12*%
%TO.N,GND*%
X113443000Y-112058200D03*
%TO.P,J2,13,13*%
%TO.N,S16*%
X117443000Y-112058200D03*
%TO.P,J2,14,14*%
%TO.N,S10*%
X121443000Y-112058200D03*
%TO.P,J2,15,15*%
%TO.N,S11*%
X125443000Y-112058200D03*
%TO.P,J2,16,16*%
%TO.N,M1B*%
X99443000Y-116058200D03*
%TO.P,J2,17,17*%
%TO.N,M1A*%
X103443000Y-116058200D03*
%TO.P,J2,18,18*%
%TO.N,+5VA*%
X107443000Y-116058200D03*
%TO.P,J2,19,19*%
%TO.N,FlowSensor*%
X111443000Y-116058200D03*
%TO.P,J2,20,20*%
%TO.N,S15*%
X115443000Y-116058200D03*
%TO.P,J2,21,21*%
%TO.N,S12*%
X119443000Y-116058200D03*
%TO.P,J2,22,22*%
%TO.N,S14*%
X123443000Y-116058200D03*
%TO.P,J2,23,23*%
%TO.N,S13*%
X127443000Y-116058200D03*
D15*
%TO.P,J2,MH1,MH1*%
%TO.N,unconnected-(J2-PadMH1)*%
X92943000Y-112558200D03*
%TO.P,J2,MH2,MH2*%
%TO.N,unconnected-(J2-PadMH2)*%
X133943000Y-112558200D03*
%TD*%
D12*
%TO.P,H1,1*%
%TO.N,N/C*%
X196697600Y-42418000D03*
%TD*%
D16*
%TO.P,A1,1,D1/TX*%
%TO.N,unconnected-(A1-D1{slash}TX-Pad1)*%
X51425000Y-43827000D03*
D17*
%TO.P,A1,2,D0/RX*%
%TO.N,unconnected-(A1-D0{slash}RX-Pad2)*%
X51425000Y-46367000D03*
%TO.P,A1,3,~{RESET}*%
%TO.N,unconnected-(A1-~{RESET}-Pad3)*%
X51425000Y-48907000D03*
%TO.P,A1,4,GND*%
%TO.N,GND*%
X51425000Y-51447000D03*
%TO.P,A1,5,D2*%
%TO.N,FlowPin*%
X51425000Y-53987000D03*
%TO.P,A1,6,D3*%
%TO.N,unconnected-(A1-D3-Pad6)*%
X51425000Y-56527000D03*
%TO.P,A1,7,D4*%
%TO.N,WorkSwitchPin*%
X51425000Y-59067000D03*
%TO.P,A1,8,D5*%
%TO.N,unconnected-(A1-D5-Pad8)*%
X51425000Y-61607000D03*
%TO.P,A1,9,D6*%
%TO.N,unconnected-(A1-D6-Pad9)*%
X51425000Y-64147000D03*
%TO.P,A1,10,D7*%
%TO.N,unconnected-(A1-D7-Pad10)*%
X51425000Y-66687000D03*
%TO.P,A1,11,D8*%
%TO.N,unconnected-(A1-D8-Pad11)*%
X51425000Y-69227000D03*
%TO.P,A1,12,D9*%
%TO.N,Net-(A1-D9)*%
X51425000Y-71767000D03*
%TO.P,A1,13,D10*%
%TO.N,Net-(A1-D10)*%
X51425000Y-74307000D03*
%TO.P,A1,14,D11*%
%TO.N,unconnected-(A1-D11-Pad14)*%
X51425000Y-76847000D03*
%TO.P,A1,15,D12*%
%TO.N,unconnected-(A1-D12-Pad15)*%
X51425000Y-79387000D03*
%TO.P,A1,16,D13*%
%TO.N,unconnected-(A1-D13-Pad16)*%
X66665000Y-79387000D03*
%TO.P,A1,17,3V3*%
%TO.N,unconnected-(A1-3V3-Pad17)*%
X66665000Y-76847000D03*
%TO.P,A1,18,AREF*%
%TO.N,unconnected-(A1-AREF-Pad18)*%
X66665000Y-74307000D03*
%TO.P,A1,19,A0*%
%TO.N,PressurePin*%
X66665000Y-71767000D03*
%TO.P,A1,20,A1*%
%TO.N,unconnected-(A1-A1-Pad20)*%
X66665000Y-69227000D03*
%TO.P,A1,21,A2*%
%TO.N,unconnected-(A1-A2-Pad21)*%
X66665000Y-66687000D03*
%TO.P,A1,22,A3*%
%TO.N,unconnected-(A1-A3-Pad22)*%
X66665000Y-64147000D03*
%TO.P,A1,23,A4*%
%TO.N,SDA*%
X66665000Y-61607000D03*
%TO.P,A1,24,A5*%
%TO.N,SCL*%
X66665000Y-59067000D03*
%TO.P,A1,25,A6*%
%TO.N,unconnected-(A1-A6-Pad25)*%
X66665000Y-56527000D03*
%TO.P,A1,26,A7*%
%TO.N,unconnected-(A1-A7-Pad26)*%
X66665000Y-53987000D03*
%TO.P,A1,27,+5V*%
%TO.N,+5V*%
X66665000Y-51447000D03*
%TO.P,A1,28,~{RESET}*%
%TO.N,unconnected-(A1-~{RESET}-Pad28)*%
X66665000Y-48907000D03*
%TO.P,A1,29,GND*%
%TO.N,GND*%
X66665000Y-46367000D03*
%TO.P,A1,30,VIN*%
%TO.N,unconnected-(A1-VIN-Pad30)*%
X66665000Y-43827000D03*
%TD*%
D18*
%TO.P,TP6,1,1*%
%TO.N,Net-(U7A-+)*%
X66782000Y-89420000D03*
%TD*%
D19*
%TO.P,J5,1,Pin_1*%
%TO.N,Net-(J5-Pin_1)*%
X191507000Y-79756000D03*
%TD*%
D18*
%TO.P,TP8,1,1*%
%TO.N,Net-(U6A-+)*%
X54844000Y-89166000D03*
%TD*%
%TO.P,TP7,1,1*%
%TO.N,Net-(U6B--)*%
X49129000Y-89166000D03*
%TD*%
D10*
%TO.P,U5,1,VI*%
%TO.N,Net-(D3-K)*%
X93472000Y-58420000D03*
D11*
%TO.P,U5,2,GND*%
%TO.N,GND*%
X90932000Y-58420000D03*
%TO.P,U5,3,VO*%
%TO.N,Net-(U5-VO)*%
X88392000Y-58420000D03*
%TD*%
D10*
%TO.P,U3,1,VI*%
%TO.N,Net-(D7-K)*%
X154370000Y-45088800D03*
D11*
%TO.P,U3,2,GND*%
%TO.N,GND*%
X156910000Y-45088800D03*
%TO.P,U3,3,VO*%
%TO.N,Net-(U2-VI)*%
X159450000Y-45088800D03*
%TD*%
D20*
%TO.P,F2,1*%
%TO.N,+5VA*%
X78232000Y-42528000D03*
D21*
X78232000Y-46228000D03*
%TO.P,F2,2*%
%TO.N,Net-(U5-VO)*%
X78232000Y-50528000D03*
X78232000Y-54228000D03*
%TD*%
D18*
%TO.P,TP5,1,1*%
%TO.N,Net-(U7B--)*%
X62083000Y-89293000D03*
%TD*%
D19*
%TO.P,J6,1,Pin_1*%
%TO.N,GND*%
X192532000Y-104140000D03*
%TD*%
D20*
%TO.P,F1,1*%
%TO.N,+12V*%
X176276000Y-86069000D03*
D21*
X176276000Y-82369000D03*
%TO.P,F1,2*%
%TO.N,Net-(J5-Pin_1)*%
X176276000Y-78069000D03*
X176276000Y-74369000D03*
%TD*%
D22*
%TO.N,GND*%
X71628000Y-49784000D03*
X89794400Y-95255650D03*
X132274381Y-100570776D03*
X88753000Y-94576200D03*
X101326000Y-95204850D03*
X100487800Y-94576200D03*
X55000000Y-108635800D03*
X163683000Y-95490600D03*
X43867200Y-113640650D03*
X49220000Y-104719000D03*
X106368000Y-71826000D03*
D23*
X167300000Y-67000000D03*
D22*
X78948600Y-95947800D03*
X74819705Y-100544133D03*
X112222600Y-94627000D03*
X53975000Y-51435000D03*
X157248391Y-100369091D03*
X72624000Y-111010000D03*
X90770632Y-100043712D03*
X137419400Y-96049400D03*
X142943000Y-98851000D03*
X113010000Y-95306450D03*
X151846600Y-96126000D03*
X100487800Y-95897000D03*
X176332200Y-95338200D03*
X162717800Y-94830200D03*
X90785000Y-95897000D03*
X125633800Y-95439800D03*
X127568000Y-90601000D03*
X151795800Y-94779400D03*
X62234370Y-110307081D03*
X97818000Y-100576000D03*
X112171800Y-96001000D03*
X176693000Y-100051000D03*
X77272200Y-95947800D03*
X96542732Y-77216000D03*
X154940000Y-77216000D03*
X102316600Y-95897000D03*
X50875000Y-99985800D03*
X109969021Y-78076874D03*
X92456000Y-43180000D03*
X177520600Y-94589600D03*
X77221400Y-94627000D03*
X164597400Y-96151000D03*
X102265800Y-94525400D03*
X126649800Y-94779400D03*
X78999400Y-94627000D03*
X177520600Y-96062800D03*
D24*
X164650000Y-51100000D03*
D22*
X137419400Y-94677800D03*
X175056800Y-94589600D03*
X138283002Y-95389000D03*
X83219434Y-79830566D03*
X126492000Y-42164000D03*
X114000600Y-95947800D03*
X92897422Y-90942301D03*
X79767580Y-99600045D03*
X201101300Y-60248800D03*
X152993000Y-90651000D03*
X88905400Y-95926000D03*
X113899000Y-94576200D03*
X165227000Y-76987400D03*
X178293000Y-90676000D03*
X167040000Y-91726000D03*
X82962377Y-97981542D03*
X164159545Y-100353373D03*
X162768600Y-96201800D03*
X103188004Y-90817196D03*
X114918000Y-90526000D03*
X47775000Y-115398629D03*
X78059600Y-95255650D03*
X126548200Y-96151000D03*
X113792000Y-43180000D03*
X106680000Y-43180000D03*
X102663837Y-99717918D03*
X138903000Y-100007802D03*
X150983000Y-95439800D03*
X124719400Y-94728600D03*
X119388534Y-100476947D03*
X131243000Y-76726000D03*
X90785000Y-94576200D03*
X151588598Y-99904738D03*
X61735000Y-102374000D03*
X175056800Y-96139000D03*
D25*
X69068000Y-46367000D03*
D22*
X139146600Y-96100200D03*
X142900400Y-43027600D03*
X113839503Y-99919934D03*
D23*
X182450000Y-66850000D03*
D22*
X126117571Y-100128105D03*
X124871800Y-96151000D03*
X50300000Y-114900000D03*
X140293000Y-90476000D03*
X79964600Y-91140600D03*
X150068600Y-96151000D03*
X141493000Y-78756000D03*
X150068600Y-94779400D03*
X164597400Y-94881000D03*
X78650000Y-72000000D03*
X168789356Y-100494197D03*
X108018000Y-100026000D03*
X139197400Y-94728600D03*
X176285400Y-49383800D03*
X121714903Y-73988763D03*
X90932000Y-55880000D03*
D23*
X173300000Y-42850000D03*
D22*
X117943000Y-78226000D03*
D23*
X156930400Y-42873800D03*
D22*
%TO.N,+5V*%
X109932600Y-92723478D03*
X172668000Y-92701000D03*
X71250000Y-92700000D03*
X160443000Y-92651000D03*
X83650000Y-70350000D03*
X83650000Y-65143000D03*
X171196000Y-77393800D03*
X98350200Y-92822765D03*
X135018000Y-92676000D03*
X90493000Y-81576000D03*
X171196000Y-88392000D03*
X87075800Y-92844786D03*
X74982200Y-92475323D03*
X147768000Y-92676000D03*
X122393000Y-92676000D03*
%TO.N,WorkSwitch*%
X80015735Y-106787816D03*
%TO.N,SCL*%
X101199000Y-66560000D03*
X102342000Y-69759000D03*
%TO.N,SDA*%
X99167000Y-67414000D03*
X99167000Y-69989000D03*
%TO.N,FlowSensor*%
X59850000Y-116473000D03*
%TO.N,S12*%
X136482400Y-109690100D03*
%TO.N,PressureSensor*%
X73132000Y-117360000D03*
%TO.N,S16*%
X168268000Y-107626000D03*
%TO.N,PressurePin*%
X69449000Y-85102000D03*
X68433000Y-91833000D03*
%TO.N,Net-(U1-GPB0)*%
X90408374Y-90716374D03*
X104634437Y-67321719D03*
%TO.N,Net-(U1-GPB1)*%
X91443000Y-90876000D03*
X105793000Y-67376000D03*
%TO.N,Net-(U1-GPB2)*%
X107293000Y-67351000D03*
X100768000Y-90376000D03*
%TO.N,Net-(U1-GPB3)*%
X102006400Y-90837600D03*
X108317657Y-67349086D03*
%TO.N,Net-(U1-GPB4)*%
X115576615Y-67666217D03*
X126068000Y-90526000D03*
%TO.N,Net-(U1-GPB5)*%
X114168000Y-67601000D03*
X124468000Y-90676000D03*
%TO.N,Net-(U1-GPB6)*%
X113668000Y-90426000D03*
X112949672Y-67699558D03*
%TO.N,Net-(U1-GPB7)*%
X112218000Y-90526000D03*
X111720950Y-67708665D03*
%TO.N,Net-(U1-GPA7)*%
X176918000Y-90851000D03*
X151293000Y-77851000D03*
%TO.N,Net-(A1-D9)*%
X78593000Y-91071000D03*
X60178000Y-81800000D03*
%TO.N,Net-(A1-D10)*%
X77450000Y-91198000D03*
X59162000Y-82054000D03*
%TO.N,Net-(U1-GPA6)*%
X150293000Y-78526000D03*
X174668000Y-90926000D03*
%TO.N,Net-(U1-GPA5)*%
X150443000Y-80178449D03*
X164128775Y-90715225D03*
%TO.N,Net-(U1-GPA4)*%
X162068000Y-90576000D03*
X148843000Y-81076000D03*
%TO.N,Net-(U1-GPA3)*%
X151168000Y-90426000D03*
X139193000Y-81776000D03*
%TO.N,Net-(U1-GPA2)*%
X137993000Y-81601000D03*
X149493000Y-90901000D03*
%TO.N,Net-(U1-GPA1)*%
X127175528Y-81180078D03*
X138968000Y-90426000D03*
%TO.N,Net-(U1-GPA0)*%
X125368000Y-81451000D03*
X137343000Y-90326000D03*
%TD*%
D26*
%TO.N,+5V*%
X134993000Y-92701000D02*
X122418000Y-92701000D01*
D27*
X171196000Y-77749400D02*
X171196000Y-88392000D01*
D26*
X147768000Y-92676000D02*
X147743000Y-92701000D01*
X160626000Y-92834000D02*
X160493000Y-92701000D01*
X86894388Y-85174612D02*
X86894388Y-92663374D01*
D28*
X71249000Y-92701000D02*
X71250000Y-92700000D01*
D26*
X172535000Y-92834000D02*
X160626000Y-92834000D01*
X98471965Y-92701000D02*
X109910122Y-92701000D01*
D29*
X83650000Y-70350000D02*
X83650000Y-65143000D01*
D26*
X98228435Y-92701000D02*
X87219586Y-92701000D01*
X122393000Y-92676000D02*
X122368000Y-92701000D01*
X109955078Y-92701000D02*
X109932600Y-92723478D01*
X135043000Y-92701000D02*
X160493000Y-92701000D01*
D28*
X71201000Y-92701000D02*
X71249000Y-92701000D01*
D26*
X98350200Y-92822765D02*
X98471965Y-92701000D01*
X135043000Y-92701000D02*
X135018000Y-92676000D01*
X87219586Y-92701000D02*
X87075800Y-92844786D01*
X172668000Y-92701000D02*
X172535000Y-92834000D01*
X147743000Y-92701000D02*
X135043000Y-92701000D01*
X86894388Y-92663374D02*
X87075800Y-92844786D01*
X160493000Y-92701000D02*
X160443000Y-92651000D01*
X122368000Y-92701000D02*
X109955078Y-92701000D01*
X147793000Y-92701000D02*
X147768000Y-92676000D01*
X86932014Y-92701000D02*
X87075800Y-92844786D01*
X135018000Y-92676000D02*
X134993000Y-92701000D01*
X90493000Y-81576000D02*
X86894388Y-85174612D01*
X122418000Y-92701000D02*
X122393000Y-92676000D01*
X98350200Y-92822765D02*
X98228435Y-92701000D01*
X109910122Y-92701000D02*
X109932600Y-92723478D01*
X71201000Y-92701000D02*
X86932014Y-92701000D01*
D30*
%TO.N,WorkSwitch*%
X107505800Y-110121000D02*
X95230000Y-110121000D01*
X90912000Y-109486000D02*
X90277000Y-110121000D01*
X83348919Y-110121000D02*
X80015735Y-106787816D01*
X94595000Y-109486000D02*
X90912000Y-109486000D01*
X90277000Y-110121000D02*
X83348919Y-110121000D01*
X95230000Y-110121000D02*
X94595000Y-109486000D01*
X109443000Y-112058200D02*
X107505800Y-110121000D01*
%TO.N,SCL*%
X102342000Y-69759000D02*
X102239000Y-69759000D01*
X101580000Y-69100000D02*
X101580000Y-66941000D01*
X101580000Y-66941000D02*
X101199000Y-66560000D01*
X102239000Y-69759000D02*
X101580000Y-69100000D01*
%TO.N,SDA*%
X99167000Y-69989000D02*
X99167000Y-67414000D01*
%TO.N,FlowSensor*%
X61591000Y-118214000D02*
X62350000Y-118214000D01*
X109676500Y-114291700D02*
X106711291Y-114291700D01*
X59850000Y-116473000D02*
X61488500Y-118111500D01*
X105676500Y-115326491D02*
X105676500Y-116322909D01*
X111443000Y-116058200D02*
X109676500Y-114291700D01*
X103785409Y-118214000D02*
X61591000Y-118214000D01*
X105676500Y-116322909D02*
X103785409Y-118214000D01*
X61591000Y-118214000D02*
X61488500Y-118111500D01*
X106711291Y-114291700D02*
X105676500Y-115326491D01*
D29*
%TO.N,S12*%
X126128088Y-114336088D02*
X126553476Y-113910700D01*
X132686897Y-109525700D02*
X136318000Y-109525700D01*
X136318000Y-109525700D02*
X136482400Y-109690100D01*
X124332524Y-113910700D02*
X124757912Y-114336088D01*
X126553476Y-113910700D02*
X128301897Y-113910700D01*
X122553476Y-113910700D02*
X124332524Y-113910700D01*
X119443000Y-116058200D02*
X120405976Y-116058200D01*
X128301897Y-113910700D02*
X132686897Y-109525700D01*
X120405976Y-116058200D02*
X122553476Y-113910700D01*
X124757912Y-114336088D02*
X126128088Y-114336088D01*
D30*
%TO.N,PressureSensor*%
X103676500Y-113824700D02*
X105443000Y-112058200D01*
X95642991Y-117360000D02*
X99178291Y-113824700D01*
X73132000Y-117360000D02*
X95642991Y-117360000D01*
X99178291Y-113824700D02*
X103676500Y-113824700D01*
D26*
%TO.N,S16*%
X132712308Y-107601000D02*
X140018000Y-107601000D01*
X120817781Y-109826000D02*
X122353381Y-109826000D01*
X122353381Y-109826000D02*
X122606081Y-110078700D01*
X130234608Y-110078700D02*
X132712308Y-107601000D01*
X126410691Y-109883310D02*
X126606081Y-110078700D01*
X126606081Y-110078700D02*
X130234608Y-110078700D01*
D27*
X140018000Y-107601000D02*
X168393000Y-107601000D01*
D26*
X118585581Y-112058200D02*
X120817781Y-109826000D01*
X117443000Y-112058200D02*
X118585581Y-112058200D01*
X124475309Y-109883310D02*
X126410691Y-109883310D01*
X122606081Y-110078700D02*
X124279919Y-110078700D01*
X124279919Y-110078700D02*
X124475309Y-109883310D01*
D30*
%TO.N,PressurePin*%
X68433000Y-91833000D02*
X69449000Y-90817000D01*
X69449000Y-90817000D02*
X69449000Y-85102000D01*
%TO.N,Net-(U1-GPB0)*%
X90318000Y-90626000D02*
X90408374Y-90716374D01*
X104693000Y-67380282D02*
X104693000Y-76226000D01*
X90408374Y-90510626D02*
X90408374Y-90716374D01*
X104693000Y-76226000D02*
X90408374Y-90510626D01*
X104634437Y-67321719D02*
X104693000Y-67380282D01*
%TO.N,Net-(U1-GPB1)*%
X91393000Y-90876000D02*
X91418000Y-90851000D01*
X91443000Y-90876000D02*
X91393000Y-90876000D01*
X105443000Y-67726000D02*
X105443000Y-76826000D01*
X91443000Y-90826000D02*
X91443000Y-90876000D01*
X105443000Y-76826000D02*
X91443000Y-90826000D01*
X105793000Y-67376000D02*
X105443000Y-67726000D01*
%TO.N,Net-(U1-GPB2)*%
X100768000Y-90376000D02*
X100768000Y-90451000D01*
X107293000Y-82191000D02*
X100768000Y-88716000D01*
X100768000Y-88716000D02*
X100768000Y-90376000D01*
X100768000Y-90451000D02*
X100818000Y-90401000D01*
X107293000Y-67351000D02*
X107293000Y-82191000D01*
%TO.N,Net-(U1-GPB3)*%
X108317657Y-67349086D02*
X108317657Y-82182343D01*
X108317657Y-82182343D02*
X102006400Y-88493600D01*
X102006400Y-88493600D02*
X102006400Y-90830400D01*
%TO.N,Net-(U1-GPB4)*%
X115593000Y-67682602D02*
X115576615Y-67666217D01*
X125800000Y-90526000D02*
X115593000Y-80319000D01*
X126068000Y-90526000D02*
X125800000Y-90526000D01*
X126143000Y-90526000D02*
X126093000Y-90476000D01*
X126068000Y-90526000D02*
X126143000Y-90526000D01*
X115593000Y-80319000D02*
X115593000Y-67682602D01*
%TO.N,Net-(U1-GPB5)*%
X114168000Y-67601000D02*
X114268000Y-67701000D01*
X114268000Y-67701000D02*
X114268000Y-80518000D01*
X119131400Y-85381400D02*
X119173400Y-85381400D01*
X119173400Y-85381400D02*
X124468000Y-90676000D01*
X114268000Y-80518000D02*
X119131400Y-85381400D01*
%TO.N,Net-(U1-GPB6)*%
X112949672Y-89707672D02*
X112949672Y-67699558D01*
X113668000Y-90426000D02*
X112949672Y-89707672D01*
%TO.N,Net-(U1-GPB7)*%
X112218000Y-68205715D02*
X112218000Y-90526000D01*
X111720950Y-67708665D02*
X112218000Y-68205715D01*
%TO.N,Net-(U1-GPA7)*%
X151293000Y-78101000D02*
X151293000Y-77851000D01*
X165933000Y-89916000D02*
X163843000Y-87826000D01*
X161018000Y-87826000D02*
X151293000Y-78101000D01*
X176918000Y-90851000D02*
X175983000Y-89916000D01*
X175983000Y-89916000D02*
X165933000Y-89916000D01*
X163843000Y-87826000D02*
X161018000Y-87826000D01*
%TO.N,Net-(A1-D9)*%
X61067000Y-82689000D02*
X70211000Y-82689000D01*
X70211000Y-82689000D02*
X78593000Y-91071000D01*
X60178000Y-81800000D02*
X61067000Y-82689000D01*
%TO.N,Net-(A1-D10)*%
X60940000Y-83832000D02*
X70084000Y-83832000D01*
X70084000Y-83832000D02*
X77450000Y-91198000D01*
X59162000Y-82054000D02*
X60940000Y-83832000D01*
%TO.N,Net-(U1-GPA6)*%
X174481528Y-90714528D02*
X174668000Y-90901000D01*
X174668000Y-90901000D02*
X174668000Y-90926000D01*
X174668000Y-90926000D02*
X174693000Y-90926000D01*
X160368000Y-88601000D02*
X163293000Y-88601000D01*
X163293000Y-88601000D02*
X165406528Y-90714528D01*
X174693000Y-90926000D02*
X174668000Y-90901000D01*
X150293000Y-78526000D02*
X160368000Y-88601000D01*
X165406528Y-90714528D02*
X174481528Y-90714528D01*
%TO.N,Net-(U1-GPA5)*%
X159690551Y-89426000D02*
X162839550Y-89426000D01*
X150443000Y-80178449D02*
X159690551Y-89426000D01*
X162839550Y-89426000D02*
X164128775Y-90715225D01*
%TO.N,Net-(U1-GPA4)*%
X158343000Y-90576000D02*
X162068000Y-90576000D01*
X148843000Y-81076000D02*
X158343000Y-90576000D01*
%TO.N,Net-(U1-GPA3)*%
X145693000Y-88276000D02*
X149068000Y-88276000D01*
X151093000Y-90301000D02*
X151168000Y-90426000D01*
X149068000Y-88276000D02*
X151093000Y-90301000D01*
X139193000Y-81776000D02*
X145693000Y-88276000D01*
%TO.N,Net-(U1-GPA2)*%
X147868000Y-89276000D02*
X149493000Y-90901000D01*
X137993000Y-81601000D02*
X137993000Y-82326000D01*
X144943000Y-89276000D02*
X147868000Y-89276000D01*
X137993000Y-82326000D02*
X144943000Y-89276000D01*
%TO.N,Net-(U1-GPA1)*%
X138443000Y-89276000D02*
X138968000Y-89801000D01*
X134718000Y-89276000D02*
X138443000Y-89276000D01*
X138968000Y-89801000D02*
X138968000Y-90426000D01*
X127175528Y-81733528D02*
X134718000Y-89276000D01*
X127175528Y-81180078D02*
X127175528Y-81733528D01*
%TO.N,Net-(U1-GPA0)*%
X125368000Y-81451000D02*
X134243000Y-90326000D01*
X134243000Y-90326000D02*
X137343000Y-90326000D01*
%TD*%
%TA.AperFunction,Conductor*%
%TO.N,GND*%
G36*
X164915338Y-91309465D02*
G01*
X164947547Y-91324898D01*
X165021849Y-91374544D01*
X165021848Y-91374544D01*
X165045345Y-91390244D01*
X165045347Y-91390245D01*
X165045349Y-91390246D01*
X165184115Y-91447725D01*
X165331428Y-91477028D01*
X172334795Y-91477028D01*
X172402916Y-91497030D01*
X172449409Y-91550686D01*
X172459513Y-91620960D01*
X172430019Y-91685540D01*
X172376764Y-91720101D01*
X172377217Y-91721195D01*
X172186510Y-91800188D01*
X172181958Y-91802622D01*
X172122561Y-91817500D01*
X164479440Y-91817500D01*
X164411319Y-91797498D01*
X164364826Y-91743842D01*
X164354722Y-91673568D01*
X164384216Y-91608988D01*
X164428191Y-91576393D01*
X164585527Y-91506343D01*
X164740028Y-91394091D01*
X164783909Y-91345354D01*
X164844354Y-91308114D01*
X164915338Y-91309465D01*
G37*
%TD.AperFunction*%
%TA.AperFunction,Conductor*%
G36*
X106466458Y-68100717D02*
G01*
X106515938Y-68151631D01*
X106530500Y-68210431D01*
X106530500Y-81822971D01*
X106510498Y-81891092D01*
X106493595Y-81912066D01*
X100175730Y-88229930D01*
X100175727Y-88229933D01*
X100115227Y-88320482D01*
X100115226Y-88320483D01*
X100092283Y-88354819D01*
X100034804Y-88493584D01*
X100034803Y-88493585D01*
X100005500Y-88640896D01*
X100005500Y-89845927D01*
X99988619Y-89908926D01*
X99933475Y-90004437D01*
X99874457Y-90186072D01*
X99854496Y-90376000D01*
X99874457Y-90565927D01*
X99901018Y-90647672D01*
X99933473Y-90747556D01*
X99933476Y-90747561D01*
X100028958Y-90912941D01*
X100028965Y-90912951D01*
X100156744Y-91054864D01*
X100202262Y-91087935D01*
X100311248Y-91167118D01*
X100485712Y-91244794D01*
X100672513Y-91284500D01*
X100863487Y-91284500D01*
X101050288Y-91244794D01*
X101059731Y-91240589D01*
X101130093Y-91231151D01*
X101194393Y-91261253D01*
X101220103Y-91292693D01*
X101267358Y-91374541D01*
X101267365Y-91374551D01*
X101357081Y-91474190D01*
X101387798Y-91538197D01*
X101379034Y-91608651D01*
X101333572Y-91663182D01*
X101265844Y-91684477D01*
X101263445Y-91684500D01*
X98572082Y-91684500D01*
X98371849Y-91684500D01*
X98371846Y-91684500D01*
X98365687Y-91685107D01*
X98365570Y-91683920D01*
X98334830Y-91683920D01*
X98334713Y-91685107D01*
X98328553Y-91684500D01*
X98328551Y-91684500D01*
X98328548Y-91684500D01*
X92220531Y-91684500D01*
X92152410Y-91664498D01*
X92105917Y-91610842D01*
X92095813Y-91540568D01*
X92125307Y-91475988D01*
X92126894Y-91474190D01*
X92133262Y-91467118D01*
X92182040Y-91412944D01*
X92277527Y-91247556D01*
X92336542Y-91065928D01*
X92338353Y-91048695D01*
X92365364Y-90983038D01*
X92374559Y-90972777D01*
X106035273Y-77312065D01*
X106118718Y-77187179D01*
X106176197Y-77048413D01*
X106176197Y-77048408D01*
X106176199Y-77048406D01*
X106181402Y-77022247D01*
X106181402Y-77022244D01*
X106189366Y-76982206D01*
X106205500Y-76901100D01*
X106205500Y-68263469D01*
X106225502Y-68195348D01*
X106257439Y-68161533D01*
X106271068Y-68151631D01*
X106330439Y-68108494D01*
X106397306Y-68084637D01*
X106466458Y-68100717D01*
G37*
%TD.AperFunction*%
%TA.AperFunction,Conductor*%
G36*
X202929584Y-36240383D02*
G01*
X202958485Y-36265862D01*
X203018368Y-36337721D01*
X203046612Y-36402858D01*
X203047572Y-36418460D01*
X202996814Y-121260773D01*
X202987802Y-121307494D01*
X202977707Y-121332731D01*
X202933836Y-121388551D01*
X202866750Y-121411791D01*
X202860623Y-121411935D01*
X35516893Y-121285025D01*
X35454990Y-121268716D01*
X34963736Y-120991051D01*
X34914275Y-120940119D01*
X34899735Y-120881130D01*
X34907843Y-116473000D01*
X58936496Y-116473000D01*
X58956457Y-116662927D01*
X58986526Y-116755470D01*
X59015473Y-116844556D01*
X59015476Y-116844561D01*
X59110958Y-117009941D01*
X59110965Y-117009951D01*
X59238744Y-117151864D01*
X59238747Y-117151866D01*
X59393248Y-117264118D01*
X59567712Y-117341794D01*
X59623585Y-117353670D01*
X59686059Y-117387398D01*
X59686484Y-117387822D01*
X61520935Y-119222273D01*
X61645821Y-119305719D01*
X61743943Y-119346362D01*
X61784587Y-119363197D01*
X61931900Y-119392500D01*
X103444509Y-119392500D01*
X103591822Y-119363197D01*
X103730588Y-119305718D01*
X103855474Y-119222273D01*
X105859644Y-117218100D01*
X105921953Y-117184078D01*
X105992768Y-117189142D01*
X106047246Y-117228638D01*
X106075540Y-117264117D01*
X106104370Y-117300268D01*
X106304442Y-117485907D01*
X106304448Y-117485911D01*
X106529944Y-117639652D01*
X106529952Y-117639657D01*
X106775840Y-117758070D01*
X106775841Y-117758070D01*
X106775849Y-117758074D01*
X106997912Y-117826572D01*
X107036646Y-117838520D01*
X107036653Y-117838522D01*
X107306535Y-117879200D01*
X107306539Y-117879200D01*
X107579461Y-117879200D01*
X107579465Y-117879200D01*
X107849347Y-117838522D01*
X108110151Y-117758074D01*
X108250666Y-117690405D01*
X108356047Y-117639657D01*
X108356047Y-117639656D01*
X108356053Y-117639654D01*
X108581558Y-117485907D01*
X108781630Y-117300268D01*
X108951800Y-117086882D01*
X109088265Y-116850518D01*
X109187977Y-116596454D01*
X109248710Y-116330367D01*
X109269106Y-116058200D01*
X109248710Y-115786033D01*
X109187977Y-115519946D01*
X109088265Y-115265882D01*
X109075168Y-115243197D01*
X109058431Y-115174205D01*
X109081651Y-115107113D01*
X109137458Y-115063226D01*
X109184288Y-115054200D01*
X109308472Y-115054200D01*
X109376593Y-115074202D01*
X109397567Y-115091105D01*
X109675873Y-115369411D01*
X109709899Y-115431723D01*
X109704834Y-115502538D01*
X109704071Y-115504532D01*
X109698024Y-115519941D01*
X109698023Y-115519944D01*
X109637290Y-115786029D01*
X109616894Y-116058200D01*
X109637290Y-116330370D01*
X109698023Y-116596455D01*
X109698024Y-116596457D01*
X109797735Y-116850520D01*
X109934197Y-117086878D01*
X109934199Y-117086881D01*
X109934200Y-117086882D01*
X110104370Y-117300268D01*
X110304442Y-117485907D01*
X110304448Y-117485911D01*
X110529944Y-117639652D01*
X110529952Y-117639657D01*
X110775840Y-117758070D01*
X110775841Y-117758070D01*
X110775849Y-117758074D01*
X110997912Y-117826572D01*
X111036646Y-117838520D01*
X111036653Y-117838522D01*
X111306535Y-117879200D01*
X111306539Y-117879200D01*
X111579461Y-117879200D01*
X111579465Y-117879200D01*
X111849347Y-117838522D01*
X112110151Y-117758074D01*
X112250666Y-117690405D01*
X112356047Y-117639657D01*
X112356047Y-117639656D01*
X112356053Y-117639654D01*
X112581558Y-117485907D01*
X112781630Y-117300268D01*
X112951800Y-117086882D01*
X113088265Y-116850518D01*
X113187977Y-116596454D01*
X113248710Y-116330367D01*
X113269106Y-116058200D01*
X113616894Y-116058200D01*
X113637290Y-116330370D01*
X113698023Y-116596455D01*
X113698024Y-116596457D01*
X113797735Y-116850520D01*
X113934197Y-117086878D01*
X113934199Y-117086881D01*
X113934200Y-117086882D01*
X114104370Y-117300268D01*
X114304442Y-117485907D01*
X114304448Y-117485911D01*
X114529944Y-117639652D01*
X114529952Y-117639657D01*
X114775840Y-117758070D01*
X114775841Y-117758070D01*
X114775849Y-117758074D01*
X114997912Y-117826572D01*
X115036646Y-117838520D01*
X115036653Y-117838522D01*
X115306535Y-117879200D01*
X115306539Y-117879200D01*
X115579461Y-117879200D01*
X115579465Y-117879200D01*
X115849347Y-117838522D01*
X116110151Y-117758074D01*
X116250666Y-117690405D01*
X116356047Y-117639657D01*
X116356047Y-117639656D01*
X116356053Y-117639654D01*
X116581558Y-117485907D01*
X116781630Y-117300268D01*
X116951800Y-117086882D01*
X117088265Y-116850518D01*
X117187977Y-116596454D01*
X117248710Y-116330367D01*
X117269106Y-116058200D01*
X117248710Y-115786033D01*
X117187977Y-115519946D01*
X117088265Y-115265882D01*
X117088264Y-115265879D01*
X116951802Y-115029521D01*
X116951801Y-115029519D01*
X116951800Y-115029518D01*
X116781630Y-114816132D01*
X116581558Y-114630493D01*
X116581551Y-114630488D01*
X116356055Y-114476747D01*
X116356047Y-114476742D01*
X116110159Y-114358329D01*
X116110154Y-114358327D01*
X116110151Y-114358326D01*
X116002737Y-114325193D01*
X115849353Y-114277879D01*
X115849348Y-114277878D01*
X115849347Y-114277878D01*
X115579465Y-114237200D01*
X115306535Y-114237200D01*
X115036653Y-114277878D01*
X115036652Y-114277878D01*
X115036646Y-114277879D01*
X114818050Y-114345308D01*
X114775849Y-114358326D01*
X114775847Y-114358326D01*
X114775840Y-114358329D01*
X114529952Y-114476742D01*
X114529944Y-114476747D01*
X114304448Y-114630488D01*
X114304443Y-114630492D01*
X114104370Y-114816131D01*
X113934197Y-115029521D01*
X113797735Y-115265879D01*
X113698024Y-115519942D01*
X113698023Y-115519944D01*
X113637290Y-115786029D01*
X113616894Y-116058200D01*
X113269106Y-116058200D01*
X113248710Y-115786033D01*
X113187977Y-115519946D01*
X113088265Y-115265882D01*
X113088264Y-115265879D01*
X112951802Y-115029521D01*
X112951801Y-115029519D01*
X112951800Y-115029518D01*
X112781630Y-114816132D01*
X112581558Y-114630493D01*
X112581551Y-114630488D01*
X112356055Y-114476747D01*
X112356047Y-114476742D01*
X112110159Y-114358329D01*
X112110154Y-114358327D01*
X112110151Y-114358326D01*
X112002737Y-114325193D01*
X111849353Y-114277879D01*
X111849348Y-114277878D01*
X111849347Y-114277878D01*
X111579465Y-114237200D01*
X111306535Y-114237200D01*
X111036653Y-114277878D01*
X111036651Y-114277878D01*
X111036642Y-114277880D01*
X110883258Y-114325193D01*
X110812268Y-114326159D01*
X110757024Y-114293886D01*
X110310680Y-113847542D01*
X110276654Y-113785230D01*
X110281719Y-113714415D01*
X110324266Y-113657579D01*
X110345103Y-113644926D01*
X110356053Y-113639654D01*
X110581558Y-113485907D01*
X110781630Y-113300268D01*
X110951800Y-113086882D01*
X111049149Y-112918268D01*
X111088264Y-112850520D01*
X111088352Y-112850296D01*
X111187977Y-112596454D01*
X111248710Y-112330367D01*
X111269106Y-112058200D01*
X111617395Y-112058200D01*
X111637785Y-112330295D01*
X111698501Y-112596303D01*
X111798185Y-112850296D01*
X111798188Y-112850304D01*
X111934611Y-113086596D01*
X111988197Y-113153790D01*
X111988198Y-113153790D01*
X112668280Y-112473708D01*
X112763343Y-112615980D01*
X112885220Y-112737857D01*
X113027489Y-112832918D01*
X112346460Y-113513948D01*
X112346460Y-113513950D01*
X112530188Y-113639214D01*
X112530196Y-113639218D01*
X112776028Y-113757606D01*
X112776040Y-113757611D01*
X113036754Y-113838030D01*
X113036766Y-113838032D01*
X113306577Y-113878700D01*
X113579423Y-113878700D01*
X113849233Y-113838032D01*
X113849245Y-113838030D01*
X114109959Y-113757611D01*
X114109972Y-113757606D01*
X114355805Y-113639218D01*
X114355805Y-113639217D01*
X114539539Y-113513949D01*
X113858509Y-112832919D01*
X114000780Y-112737857D01*
X114122657Y-112615980D01*
X114217719Y-112473709D01*
X114897801Y-113153791D01*
X114897802Y-113153790D01*
X114951383Y-113086604D01*
X114951388Y-113086596D01*
X115087811Y-112850304D01*
X115087814Y-112850296D01*
X115187498Y-112596303D01*
X115248214Y-112330295D01*
X115268604Y-112058200D01*
X115616894Y-112058200D01*
X115637290Y-112330370D01*
X115698023Y-112596455D01*
X115698024Y-112596457D01*
X115797735Y-112850520D01*
X115934197Y-113086878D01*
X115934199Y-113086881D01*
X115934200Y-113086882D01*
X116104370Y-113300268D01*
X116304442Y-113485907D01*
X116353736Y-113519515D01*
X116529944Y-113639652D01*
X116529952Y-113639657D01*
X116775840Y-113758070D01*
X116775841Y-113758070D01*
X116775849Y-113758074D01*
X117006619Y-113829257D01*
X117036646Y-113838520D01*
X117036653Y-113838522D01*
X117306535Y-113879200D01*
X117306539Y-113879200D01*
X117579461Y-113879200D01*
X117579465Y-113879200D01*
X117849347Y-113838522D01*
X118110151Y-113758074D01*
X118356053Y-113639654D01*
X118581558Y-113485907D01*
X118781630Y-113300268D01*
X118951800Y-113086882D01*
X118991214Y-113018613D01*
X119042593Y-112969622D01*
X119052089Y-112965216D01*
X119067074Y-112959010D01*
X119233562Y-112847767D01*
X119501870Y-112579458D01*
X119564180Y-112545435D01*
X119634995Y-112550499D01*
X119691831Y-112593046D01*
X119708253Y-112622522D01*
X119797735Y-112850520D01*
X119934197Y-113086878D01*
X119934199Y-113086881D01*
X119934200Y-113086882D01*
X120104370Y-113300268D01*
X120304442Y-113485907D01*
X120353736Y-113519515D01*
X120529944Y-113639652D01*
X120529952Y-113639657D01*
X120775839Y-113758070D01*
X120775843Y-113758071D01*
X120775849Y-113758074D01*
X120815322Y-113770250D01*
X120874517Y-113809439D01*
X120903131Y-113874414D01*
X120892073Y-113944544D01*
X120867276Y-113979745D01*
X120428869Y-114418152D01*
X120366557Y-114452178D01*
X120295742Y-114447113D01*
X120285104Y-114442579D01*
X120110156Y-114358328D01*
X120110153Y-114358327D01*
X120110151Y-114358326D01*
X120005869Y-114326159D01*
X119849353Y-114277879D01*
X119849348Y-114277878D01*
X119849347Y-114277878D01*
X119579465Y-114237200D01*
X119306535Y-114237200D01*
X119036653Y-114277878D01*
X119036652Y-114277878D01*
X119036646Y-114277879D01*
X118818050Y-114345308D01*
X118775849Y-114358326D01*
X118775847Y-114358326D01*
X118775840Y-114358329D01*
X118529952Y-114476742D01*
X118529944Y-114476747D01*
X118304448Y-114630488D01*
X118304443Y-114630492D01*
X118104370Y-114816131D01*
X117934197Y-115029521D01*
X117797735Y-115265879D01*
X117698024Y-115519942D01*
X117698023Y-115519944D01*
X117637290Y-115786029D01*
X117616894Y-116058200D01*
X117637290Y-116330370D01*
X117698023Y-116596455D01*
X117698024Y-116596457D01*
X117797735Y-116850520D01*
X117934197Y-117086878D01*
X117934199Y-117086881D01*
X117934200Y-117086882D01*
X118104370Y-117300268D01*
X118304442Y-117485907D01*
X118304448Y-117485911D01*
X118529944Y-117639652D01*
X118529952Y-117639657D01*
X118775840Y-117758070D01*
X118775841Y-117758070D01*
X118775849Y-117758074D01*
X118997912Y-117826572D01*
X119036646Y-117838520D01*
X119036653Y-117838522D01*
X119306535Y-117879200D01*
X119306539Y-117879200D01*
X119579461Y-117879200D01*
X119579465Y-117879200D01*
X119849347Y-117838522D01*
X120110151Y-117758074D01*
X120250666Y-117690405D01*
X120356047Y-117639657D01*
X120356047Y-117639656D01*
X120356053Y-117639654D01*
X120581558Y-117485907D01*
X120781630Y-117300268D01*
X120951800Y-117086882D01*
X120952283Y-117086044D01*
X120952532Y-117085807D01*
X120954453Y-117082990D01*
X120955055Y-117083400D01*
X121001353Y-117039243D01*
X121001079Y-117038796D01*
X121003160Y-117037520D01*
X121003656Y-117037048D01*
X121003879Y-117036933D01*
X121005301Y-117036209D01*
X121016152Y-117028325D01*
X121150917Y-116930413D01*
X121501870Y-116579458D01*
X121564179Y-116545435D01*
X121634995Y-116550499D01*
X121691831Y-116593046D01*
X121708253Y-116622522D01*
X121797735Y-116850520D01*
X121934197Y-117086878D01*
X121934199Y-117086881D01*
X121934200Y-117086882D01*
X122104370Y-117300268D01*
X122304442Y-117485907D01*
X122304448Y-117485911D01*
X122529944Y-117639652D01*
X122529952Y-117639657D01*
X122775840Y-117758070D01*
X122775841Y-117758070D01*
X122775849Y-117758074D01*
X122997912Y-117826572D01*
X123036646Y-117838520D01*
X123036653Y-117838522D01*
X123306535Y-117879200D01*
X123306539Y-117879200D01*
X123579461Y-117879200D01*
X123579465Y-117879200D01*
X123849347Y-117838522D01*
X124110151Y-117758074D01*
X124250666Y-117690405D01*
X124356047Y-117639657D01*
X124356047Y-117639656D01*
X124356053Y-117639654D01*
X124581558Y-117485907D01*
X124781630Y-117300268D01*
X124951800Y-117086882D01*
X125088265Y-116850518D01*
X125187977Y-116596454D01*
X125248710Y-116330367D01*
X125269106Y-116058200D01*
X125248710Y-115786033D01*
X125213924Y-115633626D01*
X125218266Y-115562762D01*
X125260231Y-115505495D01*
X125326495Y-115480007D01*
X125336765Y-115479588D01*
X125549235Y-115479588D01*
X125617356Y-115499590D01*
X125663849Y-115553246D01*
X125673953Y-115623520D01*
X125672076Y-115633626D01*
X125637290Y-115786029D01*
X125616894Y-116058200D01*
X125637290Y-116330370D01*
X125698023Y-116596455D01*
X125698024Y-116596457D01*
X125797735Y-116850520D01*
X125934197Y-117086878D01*
X125934199Y-117086881D01*
X125934200Y-117086882D01*
X126104370Y-117300268D01*
X126304442Y-117485907D01*
X126304448Y-117485911D01*
X126529944Y-117639652D01*
X126529952Y-117639657D01*
X126775840Y-117758070D01*
X126775841Y-117758070D01*
X126775849Y-117758074D01*
X126997912Y-117826572D01*
X127036646Y-117838520D01*
X127036653Y-117838522D01*
X127306535Y-117879200D01*
X127306539Y-117879200D01*
X127579461Y-117879200D01*
X127579465Y-117879200D01*
X127849347Y-117838522D01*
X128110151Y-117758074D01*
X128250666Y-117690405D01*
X128356047Y-117639657D01*
X128356047Y-117639656D01*
X128356053Y-117639654D01*
X128581558Y-117485907D01*
X128781630Y-117300268D01*
X128951800Y-117086882D01*
X129088265Y-116850518D01*
X129187977Y-116596454D01*
X129248710Y-116330367D01*
X129269106Y-116058200D01*
X129248710Y-115786033D01*
X129187977Y-115519946D01*
X129088265Y-115265882D01*
X129088264Y-115265879D01*
X128951802Y-115029521D01*
X128951801Y-115029519D01*
X128944316Y-115020134D01*
X128917480Y-114954404D01*
X128930441Y-114884601D01*
X128968762Y-114839638D01*
X129046838Y-114782913D01*
X131036348Y-112793400D01*
X131098657Y-112759378D01*
X131169472Y-112764442D01*
X131226308Y-112806989D01*
X131251119Y-112873509D01*
X131251210Y-112874885D01*
X131251820Y-112884967D01*
X131251820Y-112884968D01*
X131310828Y-113206972D01*
X131408222Y-113519519D01*
X131542571Y-113818028D01*
X131542574Y-113818034D01*
X131542576Y-113818038D01*
X131542577Y-113818039D01*
X131711935Y-114098193D01*
X131889778Y-114325193D01*
X131913829Y-114355891D01*
X131913834Y-114355897D01*
X132145302Y-114587365D01*
X132145308Y-114587370D01*
X132145310Y-114587372D01*
X132403007Y-114789265D01*
X132683161Y-114958623D01*
X132683163Y-114958624D01*
X132683165Y-114958625D01*
X132683171Y-114958628D01*
X132981680Y-115092977D01*
X132981681Y-115092977D01*
X132981685Y-115092979D01*
X133164981Y-115150096D01*
X133294227Y-115190371D01*
X133353236Y-115201184D01*
X133616232Y-115249380D01*
X133834077Y-115262557D01*
X133942999Y-115269146D01*
X133943000Y-115269146D01*
X133943001Y-115269146D01*
X134024692Y-115264204D01*
X134269768Y-115249380D01*
X134591772Y-115190371D01*
X134904315Y-115092979D01*
X135202839Y-114958623D01*
X135482993Y-114789265D01*
X135740690Y-114587372D01*
X135972172Y-114355890D01*
X136174065Y-114098193D01*
X136343423Y-113818039D01*
X136477779Y-113519515D01*
X136575171Y-113206972D01*
X136634180Y-112884968D01*
X136651359Y-112600961D01*
X136653946Y-112558201D01*
X136653946Y-112558198D01*
X136640165Y-112330370D01*
X136634180Y-112231432D01*
X136575171Y-111909428D01*
X136477779Y-111596885D01*
X136443219Y-111520096D01*
X136343428Y-111298371D01*
X136343425Y-111298365D01*
X136324605Y-111267233D01*
X136174065Y-111018207D01*
X136174059Y-111018197D01*
X136171904Y-111015075D01*
X136173247Y-111014147D01*
X136149410Y-110954335D01*
X136162955Y-110884643D01*
X136212028Y-110833336D01*
X136281049Y-110816705D01*
X136294555Y-110818102D01*
X136392405Y-110833600D01*
X136392408Y-110833600D01*
X136572394Y-110833600D01*
X136572396Y-110833600D01*
X136750170Y-110805444D01*
X136921352Y-110749823D01*
X137081725Y-110668109D01*
X137227341Y-110562313D01*
X137354613Y-110435041D01*
X137460409Y-110289425D01*
X137542123Y-110129052D01*
X137597744Y-109957870D01*
X137625900Y-109780096D01*
X137625900Y-109600105D01*
X137597744Y-109422330D01*
X137542123Y-109251149D01*
X137460409Y-109090776D01*
X137354613Y-108945160D01*
X137354609Y-108945156D01*
X137354608Y-108945154D01*
X137242049Y-108832595D01*
X137208023Y-108770283D01*
X137213088Y-108699468D01*
X137255635Y-108642632D01*
X137322155Y-108617821D01*
X137331144Y-108617500D01*
X138826342Y-108617500D01*
X138894463Y-108637502D01*
X138915432Y-108654400D01*
X139024855Y-108763823D01*
X139034827Y-108771068D01*
X139218984Y-108904867D01*
X139218988Y-108904869D01*
X139432795Y-109013810D01*
X139661012Y-109087962D01*
X139898019Y-109125500D01*
X139898022Y-109125500D01*
X168512978Y-109125500D01*
X168512981Y-109125500D01*
X168749988Y-109087962D01*
X168978205Y-109013810D01*
X169192012Y-108904869D01*
X169386145Y-108763823D01*
X169555823Y-108594145D01*
X169696869Y-108400012D01*
X169805810Y-108186205D01*
X169879962Y-107957988D01*
X169917500Y-107720981D01*
X169917500Y-107481019D01*
X169879962Y-107244012D01*
X169805810Y-107015795D01*
X169696869Y-106801988D01*
X169696867Y-106801984D01*
X169572270Y-106630493D01*
X169555823Y-106607855D01*
X169555820Y-106607852D01*
X169555818Y-106607849D01*
X169386150Y-106438181D01*
X169386147Y-106438179D01*
X169386145Y-106438177D01*
X169276240Y-106358326D01*
X169192015Y-106297132D01*
X169074392Y-106237200D01*
X168978205Y-106188190D01*
X168978202Y-106188189D01*
X168978200Y-106188188D01*
X168749993Y-106114039D01*
X168749989Y-106114038D01*
X168749988Y-106114038D01*
X168512981Y-106076500D01*
X139898019Y-106076500D01*
X139661012Y-106114038D01*
X139661006Y-106114039D01*
X139432799Y-106188188D01*
X139432793Y-106188191D01*
X139218984Y-106297132D01*
X139024854Y-106438177D01*
X138986290Y-106476742D01*
X138915435Y-106547596D01*
X138853126Y-106581620D01*
X138826342Y-106584500D01*
X132612188Y-106584500D01*
X132415805Y-106623564D01*
X132415802Y-106623565D01*
X132230815Y-106700190D01*
X132064325Y-106811434D01*
X132064319Y-106811439D01*
X129850465Y-109025295D01*
X129788153Y-109059320D01*
X129761370Y-109062200D01*
X129184288Y-109062200D01*
X129116167Y-109042198D01*
X129069674Y-108988542D01*
X129059570Y-108918268D01*
X129075167Y-108873203D01*
X129088265Y-108850518D01*
X129187977Y-108596454D01*
X129248710Y-108330367D01*
X129269106Y-108058200D01*
X129248710Y-107786033D01*
X129187977Y-107519946D01*
X129117380Y-107340067D01*
X129088264Y-107265879D01*
X128951802Y-107029521D01*
X128940854Y-107015793D01*
X128781630Y-106816132D01*
X128581558Y-106630493D01*
X128581551Y-106630488D01*
X128356055Y-106476747D01*
X128356047Y-106476742D01*
X128110159Y-106358329D01*
X128110154Y-106358327D01*
X128110151Y-106358326D01*
X128009782Y-106327366D01*
X127849353Y-106277879D01*
X127849348Y-106277878D01*
X127849347Y-106277878D01*
X127579465Y-106237200D01*
X127306535Y-106237200D01*
X127036653Y-106277878D01*
X127036652Y-106277878D01*
X127036646Y-106277879D01*
X126818050Y-106345308D01*
X126775849Y-106358326D01*
X126775847Y-106358326D01*
X126775840Y-106358329D01*
X126529952Y-106476742D01*
X126529944Y-106476747D01*
X126304448Y-106630488D01*
X126304443Y-106630492D01*
X126104370Y-106816131D01*
X125934197Y-107029521D01*
X125797735Y-107265879D01*
X125698024Y-107519942D01*
X125698023Y-107519944D01*
X125637290Y-107786029D01*
X125616894Y-108058200D01*
X125637290Y-108330370D01*
X125698023Y-108596455D01*
X125698025Y-108596462D01*
X125736611Y-108694778D01*
X125742879Y-108765497D01*
X125709918Y-108828378D01*
X125648193Y-108863458D01*
X125619321Y-108866810D01*
X125266679Y-108866810D01*
X125198558Y-108846808D01*
X125152065Y-108793152D01*
X125141961Y-108722878D01*
X125149389Y-108694778D01*
X125187974Y-108596462D01*
X125187974Y-108596460D01*
X125187977Y-108596454D01*
X125248710Y-108330367D01*
X125269106Y-108058200D01*
X125248710Y-107786033D01*
X125187977Y-107519946D01*
X125117380Y-107340067D01*
X125088264Y-107265879D01*
X124951802Y-107029521D01*
X124940854Y-107015793D01*
X124781630Y-106816132D01*
X124581558Y-106630493D01*
X124581551Y-106630488D01*
X124356055Y-106476747D01*
X124356047Y-106476742D01*
X124110159Y-106358329D01*
X124110154Y-106358327D01*
X124110151Y-106358326D01*
X124009782Y-106327366D01*
X123849353Y-106277879D01*
X123849348Y-106277878D01*
X123849347Y-106277878D01*
X123579465Y-106237200D01*
X123306535Y-106237200D01*
X123036653Y-106277878D01*
X123036652Y-106277878D01*
X123036646Y-106277879D01*
X122818050Y-106345308D01*
X122775849Y-106358326D01*
X122775847Y-106358326D01*
X122775840Y-106358329D01*
X122529952Y-106476742D01*
X122529944Y-106476747D01*
X122304448Y-106630488D01*
X122304443Y-106630492D01*
X122104370Y-106816131D01*
X121934197Y-107029521D01*
X121797735Y-107265879D01*
X121698024Y-107519942D01*
X121698023Y-107519944D01*
X121637290Y-107786029D01*
X121616894Y-108058200D01*
X121637290Y-108330370D01*
X121698023Y-108596455D01*
X121698024Y-108596457D01*
X121714119Y-108637467D01*
X121720387Y-108708186D01*
X121687426Y-108771068D01*
X121625701Y-108806147D01*
X121596829Y-108809500D01*
X121289171Y-108809500D01*
X121221050Y-108789498D01*
X121174557Y-108735842D01*
X121164453Y-108665568D01*
X121171881Y-108637467D01*
X121179717Y-108617500D01*
X121187977Y-108596454D01*
X121248710Y-108330367D01*
X121269106Y-108058200D01*
X121248710Y-107786033D01*
X121187977Y-107519946D01*
X121117380Y-107340067D01*
X121088264Y-107265879D01*
X120951802Y-107029521D01*
X120940854Y-107015793D01*
X120781630Y-106816132D01*
X120581558Y-106630493D01*
X120581551Y-106630488D01*
X120356055Y-106476747D01*
X120356047Y-106476742D01*
X120110159Y-106358329D01*
X120110154Y-106358327D01*
X120110151Y-106358326D01*
X120009782Y-106327366D01*
X119849353Y-106277879D01*
X119849348Y-106277878D01*
X119849347Y-106277878D01*
X119579465Y-106237200D01*
X119306535Y-106237200D01*
X119036653Y-106277878D01*
X119036652Y-106277878D01*
X119036646Y-106277879D01*
X118818050Y-106345308D01*
X118775849Y-106358326D01*
X118775847Y-106358326D01*
X118775840Y-106358329D01*
X118529952Y-106476742D01*
X118529944Y-106476747D01*
X118304448Y-106630488D01*
X118304443Y-106630492D01*
X118104370Y-106816131D01*
X117934197Y-107029521D01*
X117797735Y-107265879D01*
X117698024Y-107519942D01*
X117698023Y-107519944D01*
X117637290Y-107786029D01*
X117616894Y-108058200D01*
X117637290Y-108330370D01*
X117698023Y-108596455D01*
X117698024Y-108596457D01*
X117797735Y-108850520D01*
X117934197Y-109086878D01*
X117934199Y-109086881D01*
X117934200Y-109086882D01*
X118104370Y-109300268D01*
X118304442Y-109485907D01*
X118304448Y-109485911D01*
X118529944Y-109639652D01*
X118529952Y-109639657D01*
X118775840Y-109758070D01*
X118775841Y-109758070D01*
X118775849Y-109758074D01*
X119006619Y-109829257D01*
X119036646Y-109838520D01*
X119036647Y-109838520D01*
X119036653Y-109838522D01*
X119077542Y-109844685D01*
X119141920Y-109874615D01*
X119179897Y-109934600D01*
X119179415Y-110005595D01*
X119147859Y-110058372D01*
X118651917Y-110554315D01*
X118589604Y-110588340D01*
X118518789Y-110583276D01*
X118491844Y-110569327D01*
X118356053Y-110476746D01*
X118356050Y-110476745D01*
X118356048Y-110476743D01*
X118356047Y-110476742D01*
X118110159Y-110358329D01*
X118110154Y-110358327D01*
X118110151Y-110358326D01*
X118002737Y-110325193D01*
X117849353Y-110277879D01*
X117849348Y-110277878D01*
X117849347Y-110277878D01*
X117579465Y-110237200D01*
X117306535Y-110237200D01*
X117036653Y-110277878D01*
X117036652Y-110277878D01*
X117036646Y-110277879D01*
X116818050Y-110345308D01*
X116775849Y-110358326D01*
X116775847Y-110358326D01*
X116775840Y-110358329D01*
X116529952Y-110476742D01*
X116529944Y-110476747D01*
X116304448Y-110630488D01*
X116304443Y-110630492D01*
X116104370Y-110816131D01*
X115934197Y-111029521D01*
X115797735Y-111265879D01*
X115698024Y-111519942D01*
X115698023Y-111519944D01*
X115637290Y-111786029D01*
X115616894Y-112058200D01*
X115268604Y-112058200D01*
X115248214Y-111786104D01*
X115187498Y-111520096D01*
X115087814Y-111266103D01*
X115087811Y-111266095D01*
X114951388Y-111029803D01*
X114897801Y-110962607D01*
X114217718Y-111642689D01*
X114122657Y-111500420D01*
X114000780Y-111378543D01*
X113858508Y-111283480D01*
X114539538Y-110602450D01*
X114539538Y-110602448D01*
X114355812Y-110477185D01*
X114355805Y-110477181D01*
X114109972Y-110358793D01*
X114109959Y-110358788D01*
X113849245Y-110278369D01*
X113849233Y-110278367D01*
X113579423Y-110237700D01*
X113306577Y-110237700D01*
X113036766Y-110278367D01*
X113036754Y-110278369D01*
X112776040Y-110358788D01*
X112776028Y-110358793D01*
X112530196Y-110477181D01*
X112530188Y-110477186D01*
X112346460Y-110602448D01*
X112346460Y-110602450D01*
X113027490Y-111283480D01*
X112885220Y-111378543D01*
X112763343Y-111500420D01*
X112668280Y-111642690D01*
X111988198Y-110962608D01*
X111988196Y-110962608D01*
X111934615Y-111029796D01*
X111934612Y-111029801D01*
X111798188Y-111266095D01*
X111798185Y-111266103D01*
X111698501Y-111520096D01*
X111637785Y-111786104D01*
X111617395Y-112058200D01*
X111269106Y-112058200D01*
X111248710Y-111786033D01*
X111187977Y-111519946D01*
X111088265Y-111265882D01*
X111088264Y-111265879D01*
X110951802Y-111029521D01*
X110942779Y-111018207D01*
X110781630Y-110816132D01*
X110581558Y-110630493D01*
X110491843Y-110569326D01*
X110356055Y-110476747D01*
X110356047Y-110476742D01*
X110110159Y-110358329D01*
X110110154Y-110358327D01*
X110110151Y-110358326D01*
X110002737Y-110325193D01*
X109849353Y-110277879D01*
X109849348Y-110277878D01*
X109849347Y-110277878D01*
X109579465Y-110237200D01*
X109306535Y-110237200D01*
X109036653Y-110277878D01*
X109036651Y-110277878D01*
X109036642Y-110277880D01*
X108883258Y-110325193D01*
X108812268Y-110326159D01*
X108757024Y-110293886D01*
X108310680Y-109847542D01*
X108276654Y-109785230D01*
X108281719Y-109714415D01*
X108324266Y-109657579D01*
X108345103Y-109644926D01*
X108356053Y-109639654D01*
X108581558Y-109485907D01*
X108781630Y-109300268D01*
X108951800Y-109086882D01*
X109088265Y-108850518D01*
X109187977Y-108596454D01*
X109248710Y-108330367D01*
X109269106Y-108058200D01*
X109616894Y-108058200D01*
X109637290Y-108330370D01*
X109698023Y-108596455D01*
X109698024Y-108596457D01*
X109797735Y-108850520D01*
X109934197Y-109086878D01*
X109934199Y-109086881D01*
X109934200Y-109086882D01*
X110104370Y-109300268D01*
X110304442Y-109485907D01*
X110304448Y-109485911D01*
X110529944Y-109639652D01*
X110529952Y-109639657D01*
X110775840Y-109758070D01*
X110775841Y-109758070D01*
X110775849Y-109758074D01*
X111006619Y-109829257D01*
X111036646Y-109838520D01*
X111036653Y-109838522D01*
X111306535Y-109879200D01*
X111306539Y-109879200D01*
X111579461Y-109879200D01*
X111579465Y-109879200D01*
X111849347Y-109838522D01*
X112110151Y-109758074D01*
X112356053Y-109639654D01*
X112581558Y-109485907D01*
X112781630Y-109300268D01*
X112951800Y-109086882D01*
X113088265Y-108850518D01*
X113187977Y-108596454D01*
X113248710Y-108330367D01*
X113269106Y-108058200D01*
X113616894Y-108058200D01*
X113637290Y-108330370D01*
X113698023Y-108596455D01*
X113698024Y-108596457D01*
X113797735Y-108850520D01*
X113934197Y-109086878D01*
X113934199Y-109086881D01*
X113934200Y-109086882D01*
X114104370Y-109300268D01*
X114304442Y-109485907D01*
X114304448Y-109485911D01*
X114529944Y-109639652D01*
X114529952Y-109639657D01*
X114775840Y-109758070D01*
X114775841Y-109758070D01*
X114775849Y-109758074D01*
X115006619Y-109829257D01*
X115036646Y-109838520D01*
X115036653Y-109838522D01*
X115306535Y-109879200D01*
X115306539Y-109879200D01*
X115579461Y-109879200D01*
X115579465Y-109879200D01*
X115849347Y-109838522D01*
X116110151Y-109758074D01*
X116356053Y-109639654D01*
X116581558Y-109485907D01*
X116781630Y-109300268D01*
X116951800Y-109086882D01*
X117088265Y-108850518D01*
X117187977Y-108596454D01*
X117248710Y-108330367D01*
X117269106Y-108058200D01*
X117248710Y-107786033D01*
X117187977Y-107519946D01*
X117117380Y-107340067D01*
X117088264Y-107265879D01*
X116951802Y-107029521D01*
X116940854Y-107015793D01*
X116781630Y-106816132D01*
X116581558Y-106630493D01*
X116581551Y-106630488D01*
X116356055Y-106476747D01*
X116356047Y-106476742D01*
X116110159Y-106358329D01*
X116110154Y-106358327D01*
X116110151Y-106358326D01*
X116009782Y-106327366D01*
X115849353Y-106277879D01*
X115849348Y-106277878D01*
X115849347Y-106277878D01*
X115579465Y-106237200D01*
X115306535Y-106237200D01*
X115036653Y-106277878D01*
X115036652Y-106277878D01*
X115036646Y-106277879D01*
X114818050Y-106345308D01*
X114775849Y-106358326D01*
X114775847Y-106358326D01*
X114775840Y-106358329D01*
X114529952Y-106476742D01*
X114529944Y-106476747D01*
X114304448Y-106630488D01*
X114304443Y-106630492D01*
X114104370Y-106816131D01*
X113934197Y-107029521D01*
X113797735Y-107265879D01*
X113698024Y-107519942D01*
X113698023Y-107519944D01*
X113637290Y-107786029D01*
X113616894Y-108058200D01*
X113269106Y-108058200D01*
X113248710Y-107786033D01*
X113187977Y-107519946D01*
X113117380Y-107340067D01*
X113088264Y-107265879D01*
X112951802Y-107029521D01*
X112940854Y-107015793D01*
X112781630Y-106816132D01*
X112581558Y-106630493D01*
X112581551Y-106630488D01*
X112356055Y-106476747D01*
X112356047Y-106476742D01*
X112110159Y-106358329D01*
X112110154Y-106358327D01*
X112110151Y-106358326D01*
X112009782Y-106327366D01*
X111849353Y-106277879D01*
X111849348Y-106277878D01*
X111849347Y-106277878D01*
X111579465Y-106237200D01*
X111306535Y-106237200D01*
X111036653Y-106277878D01*
X111036652Y-106277878D01*
X111036646Y-106277879D01*
X110818050Y-106345308D01*
X110775849Y-106358326D01*
X110775847Y-106358326D01*
X110775840Y-106358329D01*
X110529952Y-106476742D01*
X110529944Y-106476747D01*
X110304448Y-106630488D01*
X110304443Y-106630492D01*
X110104370Y-106816131D01*
X109934197Y-107029521D01*
X109797735Y-107265879D01*
X109698024Y-107519942D01*
X109698023Y-107519944D01*
X109637290Y-107786029D01*
X109616894Y-108058200D01*
X109269106Y-108058200D01*
X109248710Y-107786033D01*
X109187977Y-107519946D01*
X109117380Y-107340067D01*
X109088264Y-107265879D01*
X108951802Y-107029521D01*
X108940854Y-107015793D01*
X108781630Y-106816132D01*
X108581558Y-106630493D01*
X108581551Y-106630488D01*
X108356055Y-106476747D01*
X108356047Y-106476742D01*
X108110159Y-106358329D01*
X108110154Y-106358327D01*
X108110151Y-106358326D01*
X108009782Y-106327366D01*
X107849353Y-106277879D01*
X107849348Y-106277878D01*
X107849347Y-106277878D01*
X107579465Y-106237200D01*
X107306535Y-106237200D01*
X107036653Y-106277878D01*
X107036652Y-106277878D01*
X107036646Y-106277879D01*
X106818050Y-106345308D01*
X106775849Y-106358326D01*
X106775847Y-106358326D01*
X106775840Y-106358329D01*
X106529952Y-106476742D01*
X106529944Y-106476747D01*
X106304448Y-106630488D01*
X106304443Y-106630492D01*
X106104370Y-106816131D01*
X105934197Y-107029521D01*
X105797735Y-107265879D01*
X105698024Y-107519942D01*
X105698023Y-107519944D01*
X105637290Y-107786029D01*
X105616894Y-108058200D01*
X105637290Y-108330370D01*
X105698023Y-108596455D01*
X105698024Y-108596457D01*
X105797735Y-108850520D01*
X105934197Y-109086878D01*
X105934203Y-109086886D01*
X105987677Y-109153940D01*
X106014512Y-109219670D01*
X106001551Y-109289473D01*
X105952908Y-109341188D01*
X105889167Y-109358500D01*
X104996833Y-109358500D01*
X104928712Y-109338498D01*
X104882219Y-109284842D01*
X104872115Y-109214568D01*
X104898323Y-109153940D01*
X104921003Y-109125500D01*
X104951800Y-109086882D01*
X105088265Y-108850518D01*
X105187977Y-108596454D01*
X105248710Y-108330367D01*
X105269106Y-108058200D01*
X105248710Y-107786033D01*
X105187977Y-107519946D01*
X105117380Y-107340067D01*
X105088264Y-107265879D01*
X104951802Y-107029521D01*
X104940854Y-107015793D01*
X104781630Y-106816132D01*
X104581558Y-106630493D01*
X104581551Y-106630488D01*
X104356055Y-106476747D01*
X104356047Y-106476742D01*
X104110159Y-106358329D01*
X104110154Y-106358327D01*
X104110151Y-106358326D01*
X104009782Y-106327366D01*
X103849353Y-106277879D01*
X103849348Y-106277878D01*
X103849347Y-106277878D01*
X103579465Y-106237200D01*
X103306535Y-106237200D01*
X103036653Y-106277878D01*
X103036652Y-106277878D01*
X103036646Y-106277879D01*
X102818050Y-106345308D01*
X102775849Y-106358326D01*
X102775847Y-106358326D01*
X102775840Y-106358329D01*
X102529952Y-106476742D01*
X102529944Y-106476747D01*
X102304448Y-106630488D01*
X102304443Y-106630492D01*
X102104370Y-106816131D01*
X101934197Y-107029521D01*
X101797735Y-107265879D01*
X101698024Y-107519942D01*
X101698023Y-107519944D01*
X101637290Y-107786029D01*
X101616894Y-108058200D01*
X101637290Y-108330370D01*
X101698023Y-108596455D01*
X101698024Y-108596457D01*
X101797735Y-108850520D01*
X101934197Y-109086878D01*
X101934203Y-109086886D01*
X101987677Y-109153940D01*
X102014512Y-109219670D01*
X102001551Y-109289473D01*
X101952908Y-109341188D01*
X101889167Y-109358500D01*
X100996833Y-109358500D01*
X100928712Y-109338498D01*
X100882219Y-109284842D01*
X100872115Y-109214568D01*
X100898323Y-109153940D01*
X100921003Y-109125500D01*
X100951800Y-109086882D01*
X101088265Y-108850518D01*
X101187977Y-108596454D01*
X101248710Y-108330367D01*
X101269106Y-108058200D01*
X101248710Y-107786033D01*
X101187977Y-107519946D01*
X101117380Y-107340067D01*
X101088264Y-107265879D01*
X100951802Y-107029521D01*
X100940854Y-107015793D01*
X100781630Y-106816132D01*
X100581558Y-106630493D01*
X100581551Y-106630488D01*
X100356055Y-106476747D01*
X100356047Y-106476742D01*
X100110159Y-106358329D01*
X100110154Y-106358327D01*
X100110151Y-106358326D01*
X100009782Y-106327366D01*
X99849353Y-106277879D01*
X99849348Y-106277878D01*
X99849347Y-106277878D01*
X99579465Y-106237200D01*
X99306535Y-106237200D01*
X99036653Y-106277878D01*
X99036652Y-106277878D01*
X99036646Y-106277879D01*
X98818050Y-106345308D01*
X98775849Y-106358326D01*
X98775847Y-106358326D01*
X98775840Y-106358329D01*
X98529952Y-106476742D01*
X98529944Y-106476747D01*
X98304448Y-106630488D01*
X98304443Y-106630492D01*
X98104370Y-106816131D01*
X97934197Y-107029521D01*
X97797735Y-107265879D01*
X97698024Y-107519942D01*
X97698023Y-107519944D01*
X97637290Y-107786029D01*
X97616894Y-108058200D01*
X97637290Y-108330370D01*
X97698023Y-108596455D01*
X97698024Y-108596457D01*
X97797735Y-108850520D01*
X97934197Y-109086878D01*
X97934203Y-109086886D01*
X97987677Y-109153940D01*
X98014512Y-109219670D01*
X98001551Y-109289473D01*
X97952908Y-109341188D01*
X97889167Y-109358500D01*
X95598028Y-109358500D01*
X95529907Y-109338498D01*
X95508937Y-109321599D01*
X95081065Y-108893727D01*
X95050342Y-108873199D01*
X94956179Y-108810282D01*
X94859613Y-108770283D01*
X94817414Y-108752803D01*
X94670103Y-108723500D01*
X94670100Y-108723500D01*
X90836900Y-108723500D01*
X90836898Y-108723500D01*
X90689586Y-108752803D01*
X90689583Y-108752804D01*
X90648943Y-108769636D01*
X90648943Y-108769637D01*
X90600995Y-108789498D01*
X90550821Y-108810281D01*
X90425939Y-108893724D01*
X90425932Y-108893729D01*
X89998067Y-109321595D01*
X89935755Y-109355621D01*
X89908972Y-109358500D01*
X83716947Y-109358500D01*
X83648826Y-109338498D01*
X83627852Y-109321595D01*
X80933138Y-106626881D01*
X80902400Y-106576723D01*
X80850262Y-106416260D01*
X80754775Y-106250872D01*
X80754773Y-106250870D01*
X80754769Y-106250864D01*
X80626990Y-106108951D01*
X80472487Y-105996698D01*
X80298023Y-105919022D01*
X80111222Y-105879316D01*
X79920248Y-105879316D01*
X79733446Y-105919022D01*
X79558982Y-105996698D01*
X79404479Y-106108951D01*
X79276700Y-106250864D01*
X79276693Y-106250874D01*
X79181211Y-106416254D01*
X79181208Y-106416260D01*
X79170298Y-106449836D01*
X79122192Y-106597888D01*
X79102231Y-106787816D01*
X79122192Y-106977743D01*
X79152261Y-107070286D01*
X79181208Y-107159372D01*
X79181211Y-107159377D01*
X79276693Y-107324757D01*
X79276700Y-107324767D01*
X79404479Y-107466680D01*
X79404482Y-107466682D01*
X79558983Y-107578934D01*
X79733447Y-107656610D01*
X79789320Y-107668486D01*
X79851794Y-107702214D01*
X79852219Y-107702638D01*
X82862849Y-110713269D01*
X82862853Y-110713272D01*
X82862854Y-110713273D01*
X82987740Y-110796718D01*
X83126506Y-110854197D01*
X83273819Y-110883500D01*
X90352100Y-110883500D01*
X90499413Y-110854197D01*
X90561110Y-110828640D01*
X90631700Y-110821051D01*
X90695188Y-110852829D01*
X90731416Y-110913887D01*
X90728883Y-110984838D01*
X90713873Y-111014928D01*
X90713905Y-111014948D01*
X90713667Y-111015340D01*
X90713031Y-111016617D01*
X90711943Y-111018192D01*
X90542574Y-111298365D01*
X90542571Y-111298371D01*
X90408222Y-111596880D01*
X90310828Y-111909427D01*
X90251820Y-112231431D01*
X90251819Y-112231434D01*
X90232054Y-112558198D01*
X90232054Y-112558201D01*
X90251819Y-112884965D01*
X90251820Y-112884968D01*
X90310828Y-113206972D01*
X90408222Y-113519519D01*
X90542571Y-113818028D01*
X90542574Y-113818034D01*
X90542576Y-113818038D01*
X90542577Y-113818039D01*
X90711935Y-114098193D01*
X90889778Y-114325193D01*
X90913829Y-114355891D01*
X90913834Y-114355897D01*
X91145302Y-114587365D01*
X91145308Y-114587370D01*
X91145310Y-114587372D01*
X91403007Y-114789265D01*
X91683161Y-114958623D01*
X91683163Y-114958624D01*
X91683165Y-114958625D01*
X91683171Y-114958628D01*
X91981680Y-115092977D01*
X91981681Y-115092977D01*
X91981685Y-115092979D01*
X92164981Y-115150096D01*
X92294227Y-115190371D01*
X92353236Y-115201184D01*
X92616232Y-115249380D01*
X92834077Y-115262557D01*
X92942999Y-115269146D01*
X92943000Y-115269146D01*
X92943001Y-115269146D01*
X93024692Y-115264204D01*
X93269768Y-115249380D01*
X93591772Y-115190371D01*
X93904315Y-115092979D01*
X94202839Y-114958623D01*
X94482993Y-114789265D01*
X94740690Y-114587372D01*
X94972172Y-114355890D01*
X95174065Y-114098193D01*
X95343423Y-113818039D01*
X95477779Y-113519515D01*
X95575171Y-113206972D01*
X95634180Y-112884968D01*
X95651359Y-112600961D01*
X95653946Y-112558201D01*
X95653946Y-112558198D01*
X95640165Y-112330370D01*
X95634180Y-112231432D01*
X95575171Y-111909428D01*
X95477779Y-111596885D01*
X95443219Y-111520096D01*
X95343428Y-111298371D01*
X95343425Y-111298365D01*
X95324605Y-111267233D01*
X95208205Y-111074683D01*
X95190083Y-111006040D01*
X95211948Y-110938494D01*
X95266860Y-110893492D01*
X95316035Y-110883500D01*
X99800265Y-110883500D01*
X99868386Y-110903502D01*
X99914879Y-110957158D01*
X99924983Y-111027432D01*
X99909384Y-111072500D01*
X99797735Y-111265879D01*
X99698024Y-111519942D01*
X99698023Y-111519944D01*
X99637290Y-111786029D01*
X99616894Y-112058200D01*
X99637290Y-112330370D01*
X99698023Y-112596455D01*
X99698024Y-112596457D01*
X99797732Y-112850512D01*
X99797734Y-112850515D01*
X99797735Y-112850518D01*
X99810831Y-112873202D01*
X99827569Y-112942195D01*
X99804349Y-113009287D01*
X99748542Y-113053174D01*
X99701712Y-113062200D01*
X99103187Y-113062200D01*
X98955876Y-113091503D01*
X98955875Y-113091504D01*
X98817110Y-113148983D01*
X98692230Y-113232425D01*
X98692223Y-113232430D01*
X95364058Y-116560595D01*
X95301746Y-116594621D01*
X95274963Y-116597500D01*
X73669081Y-116597500D01*
X73600960Y-116577498D01*
X73595021Y-116573437D01*
X73588752Y-116568882D01*
X73414288Y-116491206D01*
X73227487Y-116451500D01*
X73036513Y-116451500D01*
X72849711Y-116491206D01*
X72675247Y-116568882D01*
X72520744Y-116681135D01*
X72392965Y-116823048D01*
X72392958Y-116823058D01*
X72297476Y-116988438D01*
X72297473Y-116988445D01*
X72238457Y-117170072D01*
X72218496Y-117360000D01*
X72238457Y-117549927D01*
X72288053Y-117702563D01*
X72290081Y-117773531D01*
X72253419Y-117834329D01*
X72189707Y-117865654D01*
X72168220Y-117867500D01*
X62375028Y-117867500D01*
X62306907Y-117847498D01*
X62285933Y-117830595D01*
X60767403Y-116312065D01*
X60736665Y-116261907D01*
X60684527Y-116101444D01*
X60589040Y-115936056D01*
X60589038Y-115936054D01*
X60589034Y-115936048D01*
X60461255Y-115794135D01*
X60306752Y-115681882D01*
X60132288Y-115604206D01*
X59945487Y-115564500D01*
X59754513Y-115564500D01*
X59567711Y-115604206D01*
X59393247Y-115681882D01*
X59238744Y-115794135D01*
X59110965Y-115936048D01*
X59110958Y-115936058D01*
X59015476Y-116101438D01*
X59015473Y-116101445D01*
X58956457Y-116283072D01*
X58936496Y-116473000D01*
X34907843Y-116473000D01*
X34930528Y-104139997D01*
X187518952Y-104139997D01*
X187518952Y-104140002D01*
X187539132Y-104589356D01*
X187539133Y-104589365D01*
X187599514Y-105035114D01*
X187599515Y-105035119D01*
X187699607Y-105473652D01*
X187838612Y-105901465D01*
X188015397Y-106315073D01*
X188015401Y-106315082D01*
X188228548Y-106711178D01*
X188228558Y-106711194D01*
X188476358Y-107086595D01*
X188756815Y-107438275D01*
X188756824Y-107438286D01*
X188814342Y-107498445D01*
X188814343Y-107498446D01*
X190664836Y-105647953D01*
X190739639Y-105741752D01*
X190930248Y-105932361D01*
X191024045Y-106007162D01*
X189174484Y-107856723D01*
X189174484Y-107856724D01*
X189406416Y-108059358D01*
X189406432Y-108059371D01*
X189770317Y-108323748D01*
X189770336Y-108323761D01*
X190156466Y-108554463D01*
X190156483Y-108554472D01*
X190561745Y-108749636D01*
X190982890Y-108907694D01*
X191416485Y-109027358D01*
X191859075Y-109107677D01*
X192307093Y-109147999D01*
X192307096Y-109148000D01*
X192756904Y-109148000D01*
X192756906Y-109147999D01*
X193204924Y-109107677D01*
X193647514Y-109027358D01*
X194081109Y-108907694D01*
X194502254Y-108749636D01*
X194907516Y-108554472D01*
X194907533Y-108554463D01*
X195293663Y-108323761D01*
X195293682Y-108323748D01*
X195657567Y-108059371D01*
X195657583Y-108059358D01*
X195889514Y-107856724D01*
X195889514Y-107856723D01*
X194039953Y-106007162D01*
X194133752Y-105932361D01*
X194324361Y-105741752D01*
X194399162Y-105647953D01*
X196249655Y-107498446D01*
X196249655Y-107498445D01*
X196307175Y-107438285D01*
X196307183Y-107438275D01*
X196587641Y-107086595D01*
X196835441Y-106711194D01*
X196835451Y-106711178D01*
X197048598Y-106315082D01*
X197048602Y-106315073D01*
X197225387Y-105901465D01*
X197364392Y-105473652D01*
X197464484Y-105035119D01*
X197464485Y-105035114D01*
X197524866Y-104589365D01*
X197524867Y-104589356D01*
X197545048Y-104140002D01*
X197545048Y-104139997D01*
X197524867Y-103690643D01*
X197524866Y-103690634D01*
X197464485Y-103244885D01*
X197464484Y-103244880D01*
X197364392Y-102806347D01*
X197225387Y-102378534D01*
X197048602Y-101964926D01*
X197048598Y-101964917D01*
X196835451Y-101568821D01*
X196835441Y-101568805D01*
X196587641Y-101193404D01*
X196307184Y-100841724D01*
X196307175Y-100841713D01*
X196249656Y-100781553D01*
X196249655Y-100781552D01*
X194399162Y-102632045D01*
X194324361Y-102538248D01*
X194133752Y-102347639D01*
X194039953Y-102272836D01*
X195889514Y-100423275D01*
X195889514Y-100423273D01*
X195657594Y-100220650D01*
X195657567Y-100220628D01*
X195293682Y-99956251D01*
X195293663Y-99956238D01*
X194907533Y-99725536D01*
X194907516Y-99725527D01*
X194502254Y-99530363D01*
X194081109Y-99372305D01*
X193647514Y-99252641D01*
X193204924Y-99172322D01*
X192756906Y-99132000D01*
X192307093Y-99132000D01*
X191859075Y-99172322D01*
X191416485Y-99252641D01*
X190982890Y-99372305D01*
X190561745Y-99530363D01*
X190156483Y-99725527D01*
X190156466Y-99725536D01*
X189770336Y-99956238D01*
X189770317Y-99956251D01*
X189406417Y-100220639D01*
X189174484Y-100423274D01*
X189174484Y-100423275D01*
X191024046Y-102272837D01*
X190930248Y-102347639D01*
X190739639Y-102538248D01*
X190664837Y-102632046D01*
X188814343Y-100781552D01*
X188814342Y-100781552D01*
X188756823Y-100841715D01*
X188756815Y-100841725D01*
X188476358Y-101193404D01*
X188228558Y-101568805D01*
X188228548Y-101568821D01*
X188015401Y-101964917D01*
X188015397Y-101964926D01*
X187838612Y-102378534D01*
X187699607Y-102806347D01*
X187599515Y-103244880D01*
X187599514Y-103244885D01*
X187539133Y-103690634D01*
X187539132Y-103690643D01*
X187518952Y-104139997D01*
X34930528Y-104139997D01*
X34945598Y-95947000D01*
X46813835Y-95947000D01*
X46832465Y-96183710D01*
X46887894Y-96414592D01*
X46958049Y-96583961D01*
X46978760Y-96633963D01*
X47072184Y-96786417D01*
X47102825Y-96836417D01*
X47102826Y-96836419D01*
X47257030Y-97016969D01*
X47437580Y-97171173D01*
X47437584Y-97171176D01*
X47640037Y-97295240D01*
X47859406Y-97386105D01*
X48090289Y-97441535D01*
X48327000Y-97460165D01*
X48563711Y-97441535D01*
X48794594Y-97386105D01*
X49013963Y-97295240D01*
X49216416Y-97171176D01*
X49396969Y-97016969D01*
X49481189Y-96918359D01*
X49540639Y-96879551D01*
X49611634Y-96879043D01*
X49671633Y-96916999D01*
X49672811Y-96918360D01*
X49757030Y-97016969D01*
X49937580Y-97171173D01*
X49937584Y-97171176D01*
X50140037Y-97295240D01*
X50359406Y-97386105D01*
X50590289Y-97441535D01*
X50827000Y-97460165D01*
X51063711Y-97441535D01*
X51294594Y-97386105D01*
X51513963Y-97295240D01*
X51716416Y-97171176D01*
X51896969Y-97016969D01*
X51981189Y-96918359D01*
X52040639Y-96879551D01*
X52111634Y-96879043D01*
X52171633Y-96916999D01*
X52172811Y-96918360D01*
X52257030Y-97016969D01*
X52437580Y-97171173D01*
X52437584Y-97171176D01*
X52640037Y-97295240D01*
X52859406Y-97386105D01*
X53090289Y-97441535D01*
X53327000Y-97460165D01*
X53563711Y-97441535D01*
X53794594Y-97386105D01*
X54013963Y-97295240D01*
X54216416Y-97171176D01*
X54396969Y-97016969D01*
X54551176Y-96836416D01*
X54675240Y-96633963D01*
X54766105Y-96414594D01*
X54821535Y-96183711D01*
X54840165Y-95947000D01*
X54836230Y-95897000D01*
X59700835Y-95897000D01*
X59719465Y-96133710D01*
X59774894Y-96364592D01*
X59865759Y-96583961D01*
X59989825Y-96786417D01*
X59989826Y-96786419D01*
X60144030Y-96966969D01*
X60202573Y-97016969D01*
X60324584Y-97121176D01*
X60527037Y-97245240D01*
X60746406Y-97336105D01*
X60977289Y-97391535D01*
X61214000Y-97410165D01*
X61450711Y-97391535D01*
X61681594Y-97336105D01*
X61900963Y-97245240D01*
X62103416Y-97121176D01*
X62283969Y-96966969D01*
X62368189Y-96868359D01*
X62427639Y-96829551D01*
X62498634Y-96829043D01*
X62558633Y-96866999D01*
X62559811Y-96868360D01*
X62644030Y-96966969D01*
X62702573Y-97016969D01*
X62824584Y-97121176D01*
X63027037Y-97245240D01*
X63246406Y-97336105D01*
X63477289Y-97391535D01*
X63714000Y-97410165D01*
X63950711Y-97391535D01*
X64181594Y-97336105D01*
X64400963Y-97245240D01*
X64603416Y-97121176D01*
X64783969Y-96966969D01*
X64868189Y-96868359D01*
X64927639Y-96829551D01*
X64998634Y-96829043D01*
X65058633Y-96866999D01*
X65059811Y-96868360D01*
X65144030Y-96966969D01*
X65202573Y-97016969D01*
X65324584Y-97121176D01*
X65527037Y-97245240D01*
X65746406Y-97336105D01*
X65977289Y-97391535D01*
X66214000Y-97410165D01*
X66450711Y-97391535D01*
X66681594Y-97336105D01*
X66900963Y-97245240D01*
X67103416Y-97121176D01*
X67283969Y-96966969D01*
X67438176Y-96786416D01*
X67562240Y-96583963D01*
X67653105Y-96364594D01*
X67708535Y-96133711D01*
X67727165Y-95897000D01*
X67708535Y-95660289D01*
X67653105Y-95429406D01*
X67562240Y-95210037D01*
X67438176Y-95007584D01*
X67412054Y-94976999D01*
X67283969Y-94827030D01*
X67103419Y-94672826D01*
X67103417Y-94672825D01*
X67103416Y-94672824D01*
X66900963Y-94548760D01*
X66802306Y-94507895D01*
X66681592Y-94457894D01*
X66523651Y-94419976D01*
X66450711Y-94402465D01*
X66214000Y-94383835D01*
X65977289Y-94402465D01*
X65746407Y-94457894D01*
X65527038Y-94548759D01*
X65324582Y-94672825D01*
X65324580Y-94672826D01*
X65144033Y-94827028D01*
X65059811Y-94925640D01*
X65000360Y-94964449D01*
X64929366Y-94964955D01*
X64869367Y-94926999D01*
X64868189Y-94925640D01*
X64826672Y-94877030D01*
X64783969Y-94827031D01*
X64783967Y-94827029D01*
X64783966Y-94827028D01*
X64603419Y-94672826D01*
X64603417Y-94672825D01*
X64603416Y-94672824D01*
X64400963Y-94548760D01*
X64302306Y-94507895D01*
X64181592Y-94457894D01*
X64023651Y-94419976D01*
X63950711Y-94402465D01*
X63714000Y-94383835D01*
X63477289Y-94402465D01*
X63246407Y-94457894D01*
X63027038Y-94548759D01*
X62824582Y-94672825D01*
X62824580Y-94672826D01*
X62644033Y-94827028D01*
X62559811Y-94925640D01*
X62500360Y-94964449D01*
X62429366Y-94964955D01*
X62369367Y-94926999D01*
X62368189Y-94925640D01*
X62326672Y-94877030D01*
X62283969Y-94827031D01*
X62283967Y-94827029D01*
X62283966Y-94827028D01*
X62103419Y-94672826D01*
X62103417Y-94672825D01*
X62103416Y-94672824D01*
X61900963Y-94548760D01*
X61802306Y-94507895D01*
X61681592Y-94457894D01*
X61523651Y-94419976D01*
X61450711Y-94402465D01*
X61214000Y-94383835D01*
X60977289Y-94402465D01*
X60746407Y-94457894D01*
X60527038Y-94548759D01*
X60324582Y-94672825D01*
X60324580Y-94672826D01*
X60144030Y-94827030D01*
X59989826Y-95007580D01*
X59989825Y-95007582D01*
X59865759Y-95210038D01*
X59774894Y-95429407D01*
X59719465Y-95660289D01*
X59700835Y-95897000D01*
X54836230Y-95897000D01*
X54821535Y-95710289D01*
X54766105Y-95479406D01*
X54675240Y-95260037D01*
X54551176Y-95057584D01*
X54544463Y-95049724D01*
X54396969Y-94877030D01*
X54216419Y-94722826D01*
X54216417Y-94722825D01*
X54216416Y-94722824D01*
X54013963Y-94598760D01*
X53893250Y-94548759D01*
X53794592Y-94507894D01*
X53636651Y-94469976D01*
X53563711Y-94452465D01*
X53327000Y-94433835D01*
X53090289Y-94452465D01*
X52859407Y-94507894D01*
X52640038Y-94598759D01*
X52437582Y-94722825D01*
X52437580Y-94722826D01*
X52257033Y-94877028D01*
X52172811Y-94975640D01*
X52113360Y-95014449D01*
X52042366Y-95014955D01*
X51982367Y-94976999D01*
X51981189Y-94975640D01*
X51971631Y-94964449D01*
X51896969Y-94877031D01*
X51896967Y-94877029D01*
X51896966Y-94877028D01*
X51716419Y-94722826D01*
X51716417Y-94722825D01*
X51716416Y-94722824D01*
X51513963Y-94598760D01*
X51393250Y-94548759D01*
X51294592Y-94507894D01*
X51136651Y-94469976D01*
X51063711Y-94452465D01*
X50827000Y-94433835D01*
X50590289Y-94452465D01*
X50359407Y-94507894D01*
X50140038Y-94598759D01*
X49937582Y-94722825D01*
X49937580Y-94722826D01*
X49757033Y-94877028D01*
X49672811Y-94975640D01*
X49613360Y-95014449D01*
X49542366Y-95014955D01*
X49482367Y-94976999D01*
X49481189Y-94975640D01*
X49471631Y-94964449D01*
X49396969Y-94877031D01*
X49396967Y-94877029D01*
X49396966Y-94877028D01*
X49216419Y-94722826D01*
X49216417Y-94722825D01*
X49216416Y-94722824D01*
X49013963Y-94598760D01*
X48893250Y-94548759D01*
X48794592Y-94507894D01*
X48636651Y-94469976D01*
X48563711Y-94452465D01*
X48327000Y-94433835D01*
X48090289Y-94452465D01*
X47859407Y-94507894D01*
X47640038Y-94598759D01*
X47437582Y-94722825D01*
X47437580Y-94722826D01*
X47257030Y-94877030D01*
X47102826Y-95057580D01*
X47102825Y-95057582D01*
X46978759Y-95260038D01*
X46887894Y-95479407D01*
X46832465Y-95710289D01*
X46813835Y-95947000D01*
X34945598Y-95947000D01*
X34958071Y-89166000D01*
X47365569Y-89166000D01*
X47385265Y-89428826D01*
X47385266Y-89428830D01*
X47443911Y-89685775D01*
X47540202Y-89931120D01*
X47540205Y-89931128D01*
X47671982Y-90159372D01*
X47671984Y-90159375D01*
X47671985Y-90159376D01*
X47836314Y-90365438D01*
X48029519Y-90544706D01*
X48029525Y-90544710D01*
X48247275Y-90693170D01*
X48247279Y-90693172D01*
X48247285Y-90693176D01*
X48484746Y-90807532D01*
X48484749Y-90807532D01*
X48484754Y-90807535D01*
X48736589Y-90885215D01*
X48736591Y-90885215D01*
X48736600Y-90885218D01*
X48997219Y-90924500D01*
X48997223Y-90924500D01*
X49260777Y-90924500D01*
X49260781Y-90924500D01*
X49521400Y-90885218D01*
X49550766Y-90876160D01*
X49773245Y-90807535D01*
X49773247Y-90807534D01*
X49773254Y-90807532D01*
X50010716Y-90693176D01*
X50228481Y-90544706D01*
X50421686Y-90365438D01*
X50586015Y-90159376D01*
X50705907Y-89951716D01*
X50717794Y-89931128D01*
X50717796Y-89931124D01*
X50814087Y-89685780D01*
X50872735Y-89428826D01*
X50892431Y-89166000D01*
X53080569Y-89166000D01*
X53100265Y-89428826D01*
X53100266Y-89428830D01*
X53158911Y-89685775D01*
X53255202Y-89931120D01*
X53255205Y-89931128D01*
X53386982Y-90159372D01*
X53386984Y-90159375D01*
X53386985Y-90159376D01*
X53551314Y-90365438D01*
X53744519Y-90544706D01*
X53744525Y-90544710D01*
X53962275Y-90693170D01*
X53962279Y-90693172D01*
X53962285Y-90693176D01*
X54199746Y-90807532D01*
X54199749Y-90807532D01*
X54199754Y-90807535D01*
X54451589Y-90885215D01*
X54451591Y-90885215D01*
X54451600Y-90885218D01*
X54712219Y-90924500D01*
X54712223Y-90924500D01*
X54975777Y-90924500D01*
X54975781Y-90924500D01*
X55236400Y-90885218D01*
X55265766Y-90876160D01*
X55488245Y-90807535D01*
X55488247Y-90807534D01*
X55488254Y-90807532D01*
X55725716Y-90693176D01*
X55943481Y-90544706D01*
X56136686Y-90365438D01*
X56301015Y-90159376D01*
X56420907Y-89951716D01*
X56432794Y-89931128D01*
X56432796Y-89931124D01*
X56529087Y-89685780D01*
X56587735Y-89428826D01*
X56597914Y-89293000D01*
X60319569Y-89293000D01*
X60339265Y-89555826D01*
X60339266Y-89555830D01*
X60397911Y-89812775D01*
X60494202Y-90058120D01*
X60494205Y-90058128D01*
X60625982Y-90286372D01*
X60625984Y-90286375D01*
X60625985Y-90286376D01*
X60790314Y-90492438D01*
X60983519Y-90671706D01*
X60983525Y-90671710D01*
X61201275Y-90820170D01*
X61201279Y-90820172D01*
X61201285Y-90820176D01*
X61438746Y-90934532D01*
X61438749Y-90934532D01*
X61438754Y-90934535D01*
X61690589Y-91012215D01*
X61690591Y-91012215D01*
X61690600Y-91012218D01*
X61951219Y-91051500D01*
X61951223Y-91051500D01*
X62214777Y-91051500D01*
X62214781Y-91051500D01*
X62475400Y-91012218D01*
X62475410Y-91012215D01*
X62727245Y-90934535D01*
X62727247Y-90934534D01*
X62727254Y-90934532D01*
X62964716Y-90820176D01*
X63182481Y-90671706D01*
X63375686Y-90492438D01*
X63540015Y-90286376D01*
X63671796Y-90058124D01*
X63768087Y-89812780D01*
X63826735Y-89555826D01*
X63846431Y-89293000D01*
X63826735Y-89030174D01*
X63768087Y-88773220D01*
X63671796Y-88527876D01*
X63671795Y-88527875D01*
X63671794Y-88527871D01*
X63540017Y-88299627D01*
X63540015Y-88299624D01*
X63375686Y-88093562D01*
X63182481Y-87914294D01*
X63150992Y-87892825D01*
X62964725Y-87765829D01*
X62964718Y-87765825D01*
X62727257Y-87651469D01*
X62727245Y-87651464D01*
X62475410Y-87573784D01*
X62475402Y-87573782D01*
X62475400Y-87573782D01*
X62214781Y-87534500D01*
X61951219Y-87534500D01*
X61690600Y-87573782D01*
X61690598Y-87573782D01*
X61690589Y-87573784D01*
X61438754Y-87651464D01*
X61438742Y-87651469D01*
X61201283Y-87765825D01*
X61201275Y-87765829D01*
X60983525Y-87914289D01*
X60983520Y-87914293D01*
X60790315Y-88093561D01*
X60625982Y-88299627D01*
X60494205Y-88527871D01*
X60494202Y-88527879D01*
X60397911Y-88773224D01*
X60343968Y-89009568D01*
X60339265Y-89030174D01*
X60319569Y-89293000D01*
X56597914Y-89293000D01*
X56607431Y-89166000D01*
X56587735Y-88903174D01*
X56529087Y-88646220D01*
X56432796Y-88400876D01*
X56432795Y-88400875D01*
X56432794Y-88400871D01*
X56301017Y-88172627D01*
X56301015Y-88172624D01*
X56136686Y-87966562D01*
X55943481Y-87787294D01*
X55943474Y-87787289D01*
X55725725Y-87638829D01*
X55725718Y-87638825D01*
X55488257Y-87524469D01*
X55488245Y-87524464D01*
X55236410Y-87446784D01*
X55236402Y-87446782D01*
X55236400Y-87446782D01*
X54975781Y-87407500D01*
X54712219Y-87407500D01*
X54451600Y-87446782D01*
X54451598Y-87446782D01*
X54451589Y-87446784D01*
X54199754Y-87524464D01*
X54199742Y-87524469D01*
X53962283Y-87638825D01*
X53962275Y-87638829D01*
X53744525Y-87787289D01*
X53744520Y-87787293D01*
X53551315Y-87966561D01*
X53386982Y-88172627D01*
X53255205Y-88400871D01*
X53255202Y-88400879D01*
X53158911Y-88646224D01*
X53109783Y-88861471D01*
X53100265Y-88903174D01*
X53080569Y-89166000D01*
X50892431Y-89166000D01*
X50872735Y-88903174D01*
X50814087Y-88646220D01*
X50717796Y-88400876D01*
X50717795Y-88400875D01*
X50717794Y-88400871D01*
X50586017Y-88172627D01*
X50586015Y-88172624D01*
X50421686Y-87966562D01*
X50228481Y-87787294D01*
X50228474Y-87787289D01*
X50010725Y-87638829D01*
X50010718Y-87638825D01*
X49773257Y-87524469D01*
X49773245Y-87524464D01*
X49521410Y-87446784D01*
X49521402Y-87446782D01*
X49521400Y-87446782D01*
X49260781Y-87407500D01*
X48997219Y-87407500D01*
X48736600Y-87446782D01*
X48736598Y-87446782D01*
X48736589Y-87446784D01*
X48484754Y-87524464D01*
X48484742Y-87524469D01*
X48247283Y-87638825D01*
X48247275Y-87638829D01*
X48029525Y-87787289D01*
X48029520Y-87787293D01*
X47836315Y-87966561D01*
X47671982Y-88172627D01*
X47540205Y-88400871D01*
X47540202Y-88400879D01*
X47443911Y-88646224D01*
X47394783Y-88861471D01*
X47385265Y-88903174D01*
X47365569Y-89166000D01*
X34958071Y-89166000D01*
X34971153Y-82054000D01*
X58248496Y-82054000D01*
X58268457Y-82243927D01*
X58295596Y-82327450D01*
X58327473Y-82425556D01*
X58327476Y-82425561D01*
X58422958Y-82590941D01*
X58422965Y-82590951D01*
X58550744Y-82732864D01*
X58550747Y-82732866D01*
X58705248Y-82845118D01*
X58879712Y-82922794D01*
X58935585Y-82934670D01*
X58998059Y-82968398D01*
X58998484Y-82968822D01*
X60453935Y-84424273D01*
X60578821Y-84507719D01*
X60676943Y-84548362D01*
X60717587Y-84565197D01*
X60864900Y-84594500D01*
X60864901Y-84594500D01*
X61015100Y-84594500D01*
X68485220Y-84594500D01*
X68553341Y-84614502D01*
X68599834Y-84668158D01*
X68609938Y-84738432D01*
X68605054Y-84759431D01*
X68589098Y-84808537D01*
X68555457Y-84912072D01*
X68535496Y-85102000D01*
X68555457Y-85291927D01*
X68572522Y-85344446D01*
X68614473Y-85473556D01*
X68614476Y-85473561D01*
X68669619Y-85569071D01*
X68686500Y-85632071D01*
X68686500Y-88793350D01*
X68666498Y-88861471D01*
X68612842Y-88907964D01*
X68542568Y-88918068D01*
X68477988Y-88888574D01*
X68443210Y-88839383D01*
X68431457Y-88809437D01*
X68370796Y-88654876D01*
X68370795Y-88654875D01*
X68370794Y-88654871D01*
X68239017Y-88426627D01*
X68218484Y-88400879D01*
X68074686Y-88220562D01*
X67881481Y-88041294D01*
X67881474Y-88041289D01*
X67663725Y-87892829D01*
X67663718Y-87892825D01*
X67426257Y-87778469D01*
X67426245Y-87778464D01*
X67174410Y-87700784D01*
X67174402Y-87700782D01*
X67174400Y-87700782D01*
X66913781Y-87661500D01*
X66650219Y-87661500D01*
X66389600Y-87700782D01*
X66389598Y-87700782D01*
X66389589Y-87700784D01*
X66137754Y-87778464D01*
X66137742Y-87778469D01*
X65900283Y-87892825D01*
X65900275Y-87892829D01*
X65682525Y-88041289D01*
X65682520Y-88041293D01*
X65489315Y-88220561D01*
X65324982Y-88426627D01*
X65193205Y-88654871D01*
X65193202Y-88654879D01*
X65096911Y-88900224D01*
X65038266Y-89157169D01*
X65038265Y-89157174D01*
X65018569Y-89420000D01*
X65038265Y-89682826D01*
X65038266Y-89682830D01*
X65096911Y-89939775D01*
X65193202Y-90185120D01*
X65193205Y-90185128D01*
X65324982Y-90413372D01*
X65324984Y-90413375D01*
X65324985Y-90413376D01*
X65489314Y-90619438D01*
X65682519Y-90798706D01*
X65695464Y-90807532D01*
X65900275Y-90947170D01*
X65900279Y-90947172D01*
X65900285Y-90947176D01*
X66137746Y-91061532D01*
X66137749Y-91061532D01*
X66137754Y-91061535D01*
X66389589Y-91139215D01*
X66389591Y-91139215D01*
X66389600Y-91139218D01*
X66650219Y-91178500D01*
X66650223Y-91178500D01*
X66913777Y-91178500D01*
X66913781Y-91178500D01*
X67174400Y-91139218D01*
X67174410Y-91139215D01*
X67426245Y-91061535D01*
X67426247Y-91061534D01*
X67426254Y-91061532D01*
X67663716Y-90947176D01*
X67686750Y-90931472D01*
X67733764Y-90899418D01*
X67881481Y-90798706D01*
X68074686Y-90619438D01*
X68239015Y-90413376D01*
X68360934Y-90202206D01*
X68370794Y-90185128D01*
X68370796Y-90185124D01*
X68443210Y-90000614D01*
X68486716Y-89944512D01*
X68553649Y-89920835D01*
X68622756Y-89937104D01*
X68672098Y-89988152D01*
X68686500Y-90046649D01*
X68686500Y-90448970D01*
X68666498Y-90517091D01*
X68649595Y-90538066D01*
X68269481Y-90918179D01*
X68207169Y-90952204D01*
X68206585Y-90952329D01*
X68150713Y-90964205D01*
X67976249Y-91041881D01*
X67976248Y-91041882D01*
X67821744Y-91154135D01*
X67693965Y-91296048D01*
X67693958Y-91296058D01*
X67601290Y-91456564D01*
X67598473Y-91461444D01*
X67587106Y-91496428D01*
X67539457Y-91643072D01*
X67519496Y-91833000D01*
X67539457Y-92022927D01*
X67549235Y-92053019D01*
X67598473Y-92204556D01*
X67598476Y-92204561D01*
X67693958Y-92369941D01*
X67693965Y-92369951D01*
X67821744Y-92511864D01*
X67821747Y-92511866D01*
X67976248Y-92624118D01*
X68150712Y-92701794D01*
X68337513Y-92741500D01*
X68528487Y-92741500D01*
X68715288Y-92701794D01*
X68889752Y-92624118D01*
X69044253Y-92511866D01*
X69044255Y-92511864D01*
X69172034Y-92369951D01*
X69172035Y-92369949D01*
X69172040Y-92369944D01*
X69267527Y-92204556D01*
X69319665Y-92044091D01*
X69350400Y-91993936D01*
X70041273Y-91303065D01*
X70124718Y-91178179D01*
X70182197Y-91039413D01*
X70184561Y-91027528D01*
X70187607Y-91012218D01*
X70199544Y-90952204D01*
X70211500Y-90892100D01*
X70211500Y-85632071D01*
X70228381Y-85569071D01*
X70234337Y-85558755D01*
X70283527Y-85473556D01*
X70309180Y-85394603D01*
X70349254Y-85335999D01*
X70414651Y-85308362D01*
X70484607Y-85320469D01*
X70518108Y-85344446D01*
X76532597Y-91358935D01*
X76563334Y-91409092D01*
X76599230Y-91519565D01*
X76601258Y-91590530D01*
X76564596Y-91651329D01*
X76500884Y-91682654D01*
X76479397Y-91684500D01*
X75466396Y-91684500D01*
X75415149Y-91673607D01*
X75264488Y-91606529D01*
X75077687Y-91566823D01*
X74886713Y-91566823D01*
X74699911Y-91606529D01*
X74661289Y-91623725D01*
X74549250Y-91673607D01*
X74498004Y-91684500D01*
X71100880Y-91684500D01*
X70904497Y-91723564D01*
X70904494Y-91723565D01*
X70719507Y-91800190D01*
X70553017Y-91911434D01*
X70553011Y-91911439D01*
X70411439Y-92053011D01*
X70411434Y-92053017D01*
X70300190Y-92219507D01*
X70223565Y-92404494D01*
X70223564Y-92404497D01*
X70184500Y-92600880D01*
X70184500Y-92801119D01*
X70223564Y-92997502D01*
X70300190Y-93182493D01*
X70411432Y-93348979D01*
X70411434Y-93348982D01*
X70411439Y-93348988D01*
X70553011Y-93490560D01*
X70553017Y-93490565D01*
X70553019Y-93490567D01*
X70719507Y-93601810D01*
X70904498Y-93678436D01*
X71100884Y-93717500D01*
X86514037Y-93717500D01*
X86582158Y-93737502D01*
X86584023Y-93738724D01*
X86594307Y-93745596D01*
X86779298Y-93822222D01*
X86975683Y-93861286D01*
X87175916Y-93861286D01*
X87372302Y-93822222D01*
X87557293Y-93745596D01*
X87567561Y-93738734D01*
X87635314Y-93717520D01*
X87637563Y-93717500D01*
X97828978Y-93717500D01*
X97877194Y-93727090D01*
X98053698Y-93800201D01*
X98250084Y-93839265D01*
X98450317Y-93839265D01*
X98646702Y-93800201D01*
X98823205Y-93727090D01*
X98871422Y-93717500D01*
X109707070Y-93717500D01*
X109731652Y-93719921D01*
X109832484Y-93739978D01*
X110032717Y-93739978D01*
X110133549Y-93719921D01*
X110158131Y-93717500D01*
X122267884Y-93717500D01*
X122317883Y-93717500D01*
X122317884Y-93717500D01*
X134892884Y-93717500D01*
X134942883Y-93717500D01*
X134942884Y-93717500D01*
X147642884Y-93717500D01*
X147692883Y-93717500D01*
X147893116Y-93717500D01*
X160080561Y-93717500D01*
X160139958Y-93732378D01*
X160144502Y-93734806D01*
X160144507Y-93734810D01*
X160329498Y-93811436D01*
X160525883Y-93850500D01*
X172635116Y-93850500D01*
X172831502Y-93811436D01*
X173016493Y-93734810D01*
X173182981Y-93623567D01*
X173457566Y-93348982D01*
X173568810Y-93182493D01*
X173645436Y-92997502D01*
X173684500Y-92801117D01*
X173684500Y-92600884D01*
X173645436Y-92404498D01*
X173568810Y-92219507D01*
X173457566Y-92053019D01*
X173457564Y-92053017D01*
X173457561Y-92053013D01*
X173315986Y-91911438D01*
X173315980Y-91911433D01*
X173200841Y-91834500D01*
X173149493Y-91800190D01*
X172997604Y-91737275D01*
X172958783Y-91721195D01*
X172959247Y-91720074D01*
X172905250Y-91684690D01*
X172876333Y-91619850D01*
X172887061Y-91549668D01*
X172934030Y-91496428D01*
X173001205Y-91477028D01*
X173885542Y-91477028D01*
X173953663Y-91497030D01*
X173979178Y-91518718D01*
X174056744Y-91604864D01*
X174108018Y-91642117D01*
X174211248Y-91717118D01*
X174385712Y-91794794D01*
X174572513Y-91834500D01*
X174763487Y-91834500D01*
X174950288Y-91794794D01*
X175124752Y-91717118D01*
X175279253Y-91604866D01*
X175328037Y-91550686D01*
X175407034Y-91462951D01*
X175407035Y-91462949D01*
X175407040Y-91462944D01*
X175502527Y-91297556D01*
X175561542Y-91115928D01*
X175581504Y-90926000D01*
X175579567Y-90907574D01*
X175592339Y-90837738D01*
X175640840Y-90785891D01*
X175709673Y-90768496D01*
X175776983Y-90791077D01*
X175793972Y-90805310D01*
X176000597Y-91011935D01*
X176031334Y-91062092D01*
X176083473Y-91222556D01*
X176101238Y-91253325D01*
X176178958Y-91387941D01*
X176178965Y-91387951D01*
X176306744Y-91529864D01*
X176334002Y-91549668D01*
X176461248Y-91642118D01*
X176635712Y-91719794D01*
X176822513Y-91759500D01*
X177013487Y-91759500D01*
X177200288Y-91719794D01*
X177374752Y-91642118D01*
X177529253Y-91529866D01*
X177529255Y-91529864D01*
X177657034Y-91387951D01*
X177657035Y-91387949D01*
X177657040Y-91387944D01*
X177752527Y-91222556D01*
X177811542Y-91040928D01*
X177831504Y-90851000D01*
X177811542Y-90661072D01*
X177752527Y-90479444D01*
X177657040Y-90314056D01*
X177657038Y-90314054D01*
X177657034Y-90314048D01*
X177529255Y-90172135D01*
X177374752Y-90059882D01*
X177200288Y-89982206D01*
X177144411Y-89970328D01*
X177081938Y-89936599D01*
X177081726Y-89936388D01*
X176469065Y-89323727D01*
X176455905Y-89314934D01*
X176344179Y-89240282D01*
X176205415Y-89182804D01*
X176205414Y-89182803D01*
X176058103Y-89153500D01*
X176058100Y-89153500D01*
X172724358Y-89153500D01*
X172656237Y-89133498D01*
X172609744Y-89079842D01*
X172599640Y-89009568D01*
X172607950Y-88979281D01*
X172608809Y-88977207D01*
X172608810Y-88977205D01*
X172682962Y-88748988D01*
X172720500Y-88511981D01*
X172720500Y-85020350D01*
X174267500Y-85020350D01*
X174267500Y-87117649D01*
X174274009Y-87178196D01*
X174274011Y-87178204D01*
X174325110Y-87315202D01*
X174325112Y-87315207D01*
X174412738Y-87432261D01*
X174529792Y-87519887D01*
X174529794Y-87519888D01*
X174529796Y-87519889D01*
X174588875Y-87541924D01*
X174666795Y-87570988D01*
X174666803Y-87570990D01*
X174727350Y-87577499D01*
X174727355Y-87577499D01*
X174727362Y-87577500D01*
X174727368Y-87577500D01*
X177824632Y-87577500D01*
X177824638Y-87577500D01*
X177824645Y-87577499D01*
X177824649Y-87577499D01*
X177885196Y-87570990D01*
X177885199Y-87570989D01*
X177885201Y-87570989D01*
X178022204Y-87519889D01*
X178139261Y-87432261D01*
X178226889Y-87315204D01*
X178277989Y-87178201D01*
X178284500Y-87117638D01*
X178284500Y-85020362D01*
X178284499Y-85020350D01*
X178277990Y-84959803D01*
X178277988Y-84959795D01*
X178226889Y-84822797D01*
X178226887Y-84822792D01*
X178139261Y-84705738D01*
X178022207Y-84618112D01*
X178022202Y-84618110D01*
X177885204Y-84567011D01*
X177885196Y-84567009D01*
X177824649Y-84560500D01*
X177824638Y-84560500D01*
X174727362Y-84560500D01*
X174727350Y-84560500D01*
X174666803Y-84567009D01*
X174666795Y-84567011D01*
X174529797Y-84618110D01*
X174529792Y-84618112D01*
X174412738Y-84705738D01*
X174325112Y-84822792D01*
X174325110Y-84822797D01*
X174274011Y-84959795D01*
X174274009Y-84959803D01*
X174267500Y-85020350D01*
X172720500Y-85020350D01*
X172720500Y-82250278D01*
X174267500Y-82250278D01*
X174267500Y-82487722D01*
X174299091Y-82687179D01*
X174304645Y-82722246D01*
X174378016Y-82948058D01*
X174378018Y-82948063D01*
X174485815Y-83159627D01*
X174625380Y-83351722D01*
X174625382Y-83351724D01*
X174625384Y-83351727D01*
X174793272Y-83519615D01*
X174793275Y-83519617D01*
X174793278Y-83519620D01*
X174985373Y-83659185D01*
X175196937Y-83766982D01*
X175422759Y-83840356D01*
X175657278Y-83877500D01*
X175657281Y-83877500D01*
X176894719Y-83877500D01*
X176894722Y-83877500D01*
X177129241Y-83840356D01*
X177355063Y-83766982D01*
X177566627Y-83659185D01*
X177758722Y-83519620D01*
X177926620Y-83351722D01*
X178066185Y-83159627D01*
X178173982Y-82948063D01*
X178247356Y-82722241D01*
X178284500Y-82487722D01*
X178284500Y-82250278D01*
X178247356Y-82015759D01*
X178173982Y-81789937D01*
X178066185Y-81578373D01*
X177926620Y-81386278D01*
X177926617Y-81386275D01*
X177926615Y-81386272D01*
X177758727Y-81218384D01*
X177758724Y-81218382D01*
X177758722Y-81218380D01*
X177567493Y-81079444D01*
X177566630Y-81078817D01*
X177566629Y-81078816D01*
X177566627Y-81078815D01*
X177355063Y-80971018D01*
X177355060Y-80971017D01*
X177355058Y-80971016D01*
X177129246Y-80897645D01*
X177129242Y-80897644D01*
X177129241Y-80897644D01*
X176894722Y-80860500D01*
X175657278Y-80860500D01*
X175422759Y-80897644D01*
X175422753Y-80897645D01*
X175196941Y-80971016D01*
X175196935Y-80971019D01*
X174985369Y-81078817D01*
X174793275Y-81218382D01*
X174793272Y-81218384D01*
X174625384Y-81386272D01*
X174625382Y-81386275D01*
X174485817Y-81578369D01*
X174378019Y-81789935D01*
X174378016Y-81789941D01*
X174304645Y-82015753D01*
X174304644Y-82015758D01*
X174304644Y-82015759D01*
X174267500Y-82250278D01*
X172720500Y-82250278D01*
X172720500Y-79755997D01*
X186493452Y-79755997D01*
X186493452Y-79756002D01*
X186513634Y-80205401D01*
X186513634Y-80205409D01*
X186513635Y-80205411D01*
X186539072Y-80393195D01*
X186574022Y-80651204D01*
X186674125Y-81089788D01*
X186813140Y-81517631D01*
X186853879Y-81612944D01*
X186979349Y-81906498D01*
X186989950Y-81931299D01*
X187057858Y-82057492D01*
X187147449Y-82223981D01*
X187203125Y-82327443D01*
X187203129Y-82327450D01*
X187280647Y-82444886D01*
X187450954Y-82702890D01*
X187610150Y-82902515D01*
X187731437Y-83054604D01*
X187731440Y-83054607D01*
X188042324Y-83379767D01*
X188161992Y-83484318D01*
X188381099Y-83675747D01*
X188506674Y-83766982D01*
X188745052Y-83940173D01*
X188745064Y-83940180D01*
X188745077Y-83940189D01*
X189131212Y-84170894D01*
X189131227Y-84170902D01*
X189131237Y-84170908D01*
X189536550Y-84366097D01*
X189957728Y-84524167D01*
X190391381Y-84643848D01*
X190834015Y-84724174D01*
X191282068Y-84764500D01*
X191282074Y-84764500D01*
X191731926Y-84764500D01*
X191731932Y-84764500D01*
X192179985Y-84724174D01*
X192622619Y-84643848D01*
X193056272Y-84524167D01*
X193477450Y-84366097D01*
X193882763Y-84170908D01*
X193882781Y-84170897D01*
X193882787Y-84170894D01*
X194268922Y-83940189D01*
X194268927Y-83940185D01*
X194268948Y-83940173D01*
X194632896Y-83675750D01*
X194632896Y-83675749D01*
X194632900Y-83675747D01*
X194811601Y-83519620D01*
X194971676Y-83379767D01*
X195282560Y-83054607D01*
X195563046Y-82702890D01*
X195810874Y-82327445D01*
X196024051Y-81931297D01*
X196200858Y-81517635D01*
X196339874Y-81089788D01*
X196439978Y-80651204D01*
X196500365Y-80205411D01*
X196520548Y-79756000D01*
X196500365Y-79306589D01*
X196439978Y-78860796D01*
X196339874Y-78422212D01*
X196311885Y-78336072D01*
X196200859Y-77994368D01*
X196200858Y-77994365D01*
X196024051Y-77580703D01*
X195810874Y-77184555D01*
X195563046Y-76809110D01*
X195282560Y-76457393D01*
X195225542Y-76397757D01*
X194971681Y-76132238D01*
X194971679Y-76132236D01*
X194971676Y-76132233D01*
X194823417Y-76002703D01*
X194632900Y-75836252D01*
X194325227Y-75612716D01*
X194268948Y-75571827D01*
X194268938Y-75571821D01*
X194268922Y-75571810D01*
X193882787Y-75341105D01*
X193882761Y-75341091D01*
X193477454Y-75145905D01*
X193477448Y-75145902D01*
X193056264Y-74987830D01*
X192622625Y-74868153D01*
X192179992Y-74787827D01*
X192179989Y-74787826D01*
X192179985Y-74787826D01*
X191731932Y-74747500D01*
X191282068Y-74747500D01*
X190834015Y-74787826D01*
X190834011Y-74787826D01*
X190834007Y-74787827D01*
X190391374Y-74868153D01*
X189957735Y-74987830D01*
X189536551Y-75145902D01*
X189536545Y-75145905D01*
X189131238Y-75341091D01*
X189131212Y-75341105D01*
X188745077Y-75571810D01*
X188745042Y-75571834D01*
X188381099Y-75836252D01*
X188042326Y-76132231D01*
X188042318Y-76132238D01*
X187731437Y-76457395D01*
X187450954Y-76809110D01*
X187203129Y-77184549D01*
X187203125Y-77184556D01*
X186989950Y-77580700D01*
X186813140Y-77994368D01*
X186674125Y-78422211D01*
X186574022Y-78860795D01*
X186513635Y-79306589D01*
X186513634Y-79306598D01*
X186493452Y-79755997D01*
X172720500Y-79755997D01*
X172720500Y-77950278D01*
X174267500Y-77950278D01*
X174267500Y-78187722D01*
X174304644Y-78422241D01*
X174304645Y-78422246D01*
X174343783Y-78542700D01*
X174378018Y-78648063D01*
X174419895Y-78730251D01*
X174485817Y-78859630D01*
X174486664Y-78860796D01*
X174625380Y-79051722D01*
X174625382Y-79051724D01*
X174625384Y-79051727D01*
X174793272Y-79219615D01*
X174793275Y-79219617D01*
X174793278Y-79219620D01*
X174985373Y-79359185D01*
X175196937Y-79466982D01*
X175422759Y-79540356D01*
X175657278Y-79577500D01*
X175657281Y-79577500D01*
X176894719Y-79577500D01*
X176894722Y-79577500D01*
X177129241Y-79540356D01*
X177355063Y-79466982D01*
X177566627Y-79359185D01*
X177758722Y-79219620D01*
X177926620Y-79051722D01*
X178066185Y-78859627D01*
X178173982Y-78648063D01*
X178247356Y-78422241D01*
X178284500Y-78187722D01*
X178284500Y-77950278D01*
X178247356Y-77715759D01*
X178173982Y-77489937D01*
X178066185Y-77278373D01*
X177926620Y-77086278D01*
X177926617Y-77086275D01*
X177926615Y-77086272D01*
X177758727Y-76918384D01*
X177758724Y-76918382D01*
X177758722Y-76918380D01*
X177566627Y-76778815D01*
X177355063Y-76671018D01*
X177355060Y-76671017D01*
X177355058Y-76671016D01*
X177129246Y-76597645D01*
X177129242Y-76597644D01*
X177129241Y-76597644D01*
X176894722Y-76560500D01*
X175657278Y-76560500D01*
X175422759Y-76597644D01*
X175422753Y-76597645D01*
X175196941Y-76671016D01*
X175196935Y-76671019D01*
X174985369Y-76778817D01*
X174793275Y-76918382D01*
X174793272Y-76918384D01*
X174625384Y-77086272D01*
X174625382Y-77086275D01*
X174485817Y-77278369D01*
X174378019Y-77489935D01*
X174378016Y-77489941D01*
X174304645Y-77715753D01*
X174304644Y-77715758D01*
X174304644Y-77715759D01*
X174267500Y-77950278D01*
X172720500Y-77950278D01*
X172720500Y-77629419D01*
X172682962Y-77392412D01*
X172608810Y-77164195D01*
X172499869Y-76950388D01*
X172499867Y-76950384D01*
X172375215Y-76778817D01*
X172358823Y-76756255D01*
X172358820Y-76756252D01*
X172358818Y-76756249D01*
X172189150Y-76586581D01*
X172189147Y-76586579D01*
X172189145Y-76586577D01*
X172127652Y-76541899D01*
X171995015Y-76445532D01*
X171884111Y-76389024D01*
X171781205Y-76336590D01*
X171781202Y-76336589D01*
X171781200Y-76336588D01*
X171552993Y-76262439D01*
X171552989Y-76262438D01*
X171552988Y-76262438D01*
X171315981Y-76224900D01*
X171076019Y-76224900D01*
X170839012Y-76262438D01*
X170839006Y-76262439D01*
X170610799Y-76336588D01*
X170610793Y-76336591D01*
X170396984Y-76445532D01*
X170202852Y-76586579D01*
X170202849Y-76586581D01*
X170033181Y-76756249D01*
X170033179Y-76756252D01*
X169892132Y-76950384D01*
X169783191Y-77164193D01*
X169783188Y-77164199D01*
X169709039Y-77392406D01*
X169709038Y-77392411D01*
X169709038Y-77392412D01*
X169671500Y-77629419D01*
X169671500Y-88511981D01*
X169709038Y-88748988D01*
X169709039Y-88748993D01*
X169783190Y-88977207D01*
X169784050Y-88979281D01*
X169784141Y-88980132D01*
X169784720Y-88981913D01*
X169784346Y-88982034D01*
X169791640Y-89049871D01*
X169759861Y-89113358D01*
X169698804Y-89149586D01*
X169667642Y-89153500D01*
X166301027Y-89153500D01*
X166232906Y-89133498D01*
X166211936Y-89116599D01*
X164329065Y-87233727D01*
X164204179Y-87150282D01*
X164065414Y-87092803D01*
X163918103Y-87063500D01*
X163918100Y-87063500D01*
X161386028Y-87063500D01*
X161317907Y-87043498D01*
X161296933Y-87026595D01*
X152240900Y-77970562D01*
X152206874Y-77908250D01*
X152204686Y-77868295D01*
X152206504Y-77851000D01*
X152186542Y-77661072D01*
X152127527Y-77479444D01*
X152032040Y-77314056D01*
X152032038Y-77314054D01*
X152032034Y-77314048D01*
X151904255Y-77172135D01*
X151749752Y-77059882D01*
X151575288Y-76982206D01*
X151388487Y-76942500D01*
X151197513Y-76942500D01*
X151010711Y-76982206D01*
X150836247Y-77059882D01*
X150681744Y-77172135D01*
X150553965Y-77314048D01*
X150553958Y-77314058D01*
X150458476Y-77479438D01*
X150458473Y-77479444D01*
X150450576Y-77503749D01*
X150441904Y-77530438D01*
X150401829Y-77589043D01*
X150336432Y-77616679D01*
X150322071Y-77617500D01*
X150197513Y-77617500D01*
X150010711Y-77657206D01*
X149836247Y-77734882D01*
X149681744Y-77847135D01*
X149553965Y-77989048D01*
X149553958Y-77989058D01*
X149458476Y-78154438D01*
X149458473Y-78154445D01*
X149399457Y-78336072D01*
X149379496Y-78526000D01*
X149399457Y-78715927D01*
X149429526Y-78808470D01*
X149458473Y-78897556D01*
X149458476Y-78897561D01*
X149553958Y-79062941D01*
X149553965Y-79062951D01*
X149681744Y-79204864D01*
X149681747Y-79204866D01*
X149820028Y-79305333D01*
X149863382Y-79361555D01*
X149869457Y-79432291D01*
X149836326Y-79495083D01*
X149832357Y-79498903D01*
X149703965Y-79641497D01*
X149703958Y-79641507D01*
X149608476Y-79806887D01*
X149608473Y-79806894D01*
X149549457Y-79988521D01*
X149529496Y-80178449D01*
X149531020Y-80192951D01*
X149518247Y-80262790D01*
X149469744Y-80314636D01*
X149400911Y-80332029D01*
X149333602Y-80309447D01*
X149331650Y-80308057D01*
X149299752Y-80284882D01*
X149125288Y-80207206D01*
X148938487Y-80167500D01*
X148747513Y-80167500D01*
X148560711Y-80207206D01*
X148386247Y-80284882D01*
X148231744Y-80397135D01*
X148103965Y-80539048D01*
X148103958Y-80539058D01*
X148010751Y-80700498D01*
X148008473Y-80704444D01*
X147999453Y-80732206D01*
X147949457Y-80886072D01*
X147929496Y-81076000D01*
X147949457Y-81265927D01*
X147953867Y-81279498D01*
X148008473Y-81447556D01*
X148024826Y-81475880D01*
X148103958Y-81612941D01*
X148103965Y-81612951D01*
X148231744Y-81754864D01*
X148281382Y-81790928D01*
X148386248Y-81867118D01*
X148560712Y-81944794D01*
X148616585Y-81956670D01*
X148679059Y-81990398D01*
X148679484Y-81990822D01*
X157856930Y-91168269D01*
X157856934Y-91168272D01*
X157856935Y-91168273D01*
X157981821Y-91251718D01*
X158120587Y-91309197D01*
X158267900Y-91338500D01*
X158418100Y-91338500D01*
X161530919Y-91338500D01*
X161599040Y-91358502D01*
X161604972Y-91362558D01*
X161611248Y-91367118D01*
X161785712Y-91444794D01*
X161972513Y-91484500D01*
X162163487Y-91484500D01*
X162350288Y-91444794D01*
X162524752Y-91367118D01*
X162679253Y-91254866D01*
X162681675Y-91252176D01*
X162807034Y-91112951D01*
X162807035Y-91112949D01*
X162807040Y-91112944D01*
X162902527Y-90947556D01*
X162932239Y-90856110D01*
X162972311Y-90797507D01*
X163037708Y-90769870D01*
X163107664Y-90781977D01*
X163141166Y-90805954D01*
X163211372Y-90876160D01*
X163242109Y-90926317D01*
X163294248Y-91086781D01*
X163311076Y-91115928D01*
X163389733Y-91252166D01*
X163389740Y-91252176D01*
X163517519Y-91394089D01*
X163519103Y-91395240D01*
X163672023Y-91506343D01*
X163829359Y-91576393D01*
X163883455Y-91622373D01*
X163904104Y-91690300D01*
X163884752Y-91758609D01*
X163831541Y-91805610D01*
X163778110Y-91817500D01*
X161063451Y-91817500D01*
X160995330Y-91797498D01*
X160993449Y-91796265D01*
X160924493Y-91750190D01*
X160779906Y-91690300D01*
X160739505Y-91673565D01*
X160739502Y-91673564D01*
X160543119Y-91634500D01*
X160543116Y-91634500D01*
X160342884Y-91634500D01*
X160342880Y-91634500D01*
X160146497Y-91673564D01*
X160146493Y-91673565D01*
X160143253Y-91674908D01*
X160095033Y-91684500D01*
X150293041Y-91684500D01*
X150224920Y-91664498D01*
X150178427Y-91610842D01*
X150168323Y-91540568D01*
X150197817Y-91475988D01*
X150199404Y-91474190D01*
X150204093Y-91468982D01*
X150232040Y-91437944D01*
X150327527Y-91272556D01*
X150361793Y-91167095D01*
X150401867Y-91108490D01*
X150467263Y-91080853D01*
X150537220Y-91092960D01*
X150555687Y-91104096D01*
X150565436Y-91111179D01*
X150711248Y-91217118D01*
X150885712Y-91294794D01*
X151072513Y-91334500D01*
X151263487Y-91334500D01*
X151450288Y-91294794D01*
X151624752Y-91217118D01*
X151779253Y-91104866D01*
X151779255Y-91104864D01*
X151907034Y-90962951D01*
X151907035Y-90962949D01*
X151907040Y-90962944D01*
X152002527Y-90797556D01*
X152061542Y-90615928D01*
X152081504Y-90426000D01*
X152061542Y-90236072D01*
X152002527Y-90054444D01*
X151907040Y-89889056D01*
X151907038Y-89889054D01*
X151907034Y-89889048D01*
X151779255Y-89747135D01*
X151655478Y-89657206D01*
X151624752Y-89634882D01*
X151624750Y-89634881D01*
X151450284Y-89557204D01*
X151445359Y-89555604D01*
X151395206Y-89524868D01*
X149554069Y-87683730D01*
X149554065Y-87683727D01*
X149429179Y-87600282D01*
X149290414Y-87542803D01*
X149143103Y-87513500D01*
X149143100Y-87513500D01*
X146061028Y-87513500D01*
X145992907Y-87493498D01*
X145971933Y-87476595D01*
X140110403Y-81615065D01*
X140079665Y-81564907D01*
X140064304Y-81517631D01*
X140027527Y-81404444D01*
X139932040Y-81239056D01*
X139932038Y-81239054D01*
X139932034Y-81239048D01*
X139804255Y-81097135D01*
X139649752Y-80984882D01*
X139475288Y-80907206D01*
X139288487Y-80867500D01*
X139097513Y-80867500D01*
X138910711Y-80907206D01*
X138835159Y-80940844D01*
X138767388Y-80971018D01*
X138765986Y-80971642D01*
X138695619Y-80981076D01*
X138631322Y-80950970D01*
X138621104Y-80940849D01*
X138604253Y-80922134D01*
X138594194Y-80914826D01*
X138449752Y-80809882D01*
X138275288Y-80732206D01*
X138088487Y-80692500D01*
X137897513Y-80692500D01*
X137710711Y-80732206D01*
X137536247Y-80809882D01*
X137381744Y-80922135D01*
X137253965Y-81064048D01*
X137253958Y-81064058D01*
X137163936Y-81219981D01*
X137158473Y-81229444D01*
X137149973Y-81255604D01*
X137099457Y-81411072D01*
X137079496Y-81601000D01*
X137099457Y-81790927D01*
X137129526Y-81883470D01*
X137158473Y-81972556D01*
X137183416Y-82015759D01*
X137213619Y-82068071D01*
X137230500Y-82131071D01*
X137230500Y-82401103D01*
X137258829Y-82543520D01*
X137259801Y-82548407D01*
X137259801Y-82548408D01*
X137309507Y-82668410D01*
X137317282Y-82687179D01*
X137347809Y-82732866D01*
X137400727Y-82812065D01*
X137400730Y-82812069D01*
X142629952Y-88041289D01*
X144350728Y-89762065D01*
X144456935Y-89868272D01*
X144581821Y-89951718D01*
X144720587Y-90009197D01*
X144867900Y-90038500D01*
X147499972Y-90038500D01*
X147568093Y-90058502D01*
X147589067Y-90075405D01*
X148575597Y-91061935D01*
X148606334Y-91112092D01*
X148658473Y-91272556D01*
X148658476Y-91272561D01*
X148753763Y-91437604D01*
X148753960Y-91437944D01*
X148775120Y-91461445D01*
X148786596Y-91474190D01*
X148817313Y-91538198D01*
X148808548Y-91608651D01*
X148763085Y-91663182D01*
X148695357Y-91684477D01*
X148692959Y-91684500D01*
X148006209Y-91684500D01*
X147981627Y-91682079D01*
X147868119Y-91659500D01*
X147868116Y-91659500D01*
X147667883Y-91659500D01*
X147667879Y-91659500D01*
X147554372Y-91682079D01*
X147529790Y-91684500D01*
X135256209Y-91684500D01*
X135231627Y-91682079D01*
X135118119Y-91659500D01*
X135118116Y-91659500D01*
X134917883Y-91659500D01*
X134917879Y-91659500D01*
X134804372Y-91682079D01*
X134779790Y-91684500D01*
X126186142Y-91684500D01*
X126118021Y-91664498D01*
X126071528Y-91610842D01*
X126068797Y-91591850D01*
X126068122Y-91601970D01*
X126025846Y-91659008D01*
X125959445Y-91684135D01*
X125949858Y-91684500D01*
X125013339Y-91684500D01*
X124945218Y-91664498D01*
X124898725Y-91610842D01*
X124888621Y-91540568D01*
X124918115Y-91475988D01*
X124939278Y-91456564D01*
X124955478Y-91444794D01*
X125079253Y-91354866D01*
X125097591Y-91334500D01*
X125207036Y-91212949D01*
X125207037Y-91212947D01*
X125207040Y-91212944D01*
X125208975Y-91209591D01*
X125210603Y-91208039D01*
X125210921Y-91207602D01*
X125211001Y-91207660D01*
X125260357Y-91160598D01*
X125330071Y-91147161D01*
X125388096Y-91167825D01*
X125403589Y-91178177D01*
X125410321Y-91182675D01*
X125438821Y-91201718D01*
X125438822Y-91201718D01*
X125438826Y-91201721D01*
X125456659Y-91209107D01*
X125482506Y-91223581D01*
X125523431Y-91253315D01*
X125611248Y-91317118D01*
X125785712Y-91394794D01*
X125972513Y-91434500D01*
X125976055Y-91435253D01*
X126038529Y-91468982D01*
X126068955Y-91524077D01*
X126090918Y-91475988D01*
X126150644Y-91437604D01*
X126159945Y-91435253D01*
X126163487Y-91434500D01*
X126350288Y-91394794D01*
X126524752Y-91317118D01*
X126679253Y-91204866D01*
X126682085Y-91201721D01*
X126807034Y-91062951D01*
X126807035Y-91062949D01*
X126807040Y-91062944D01*
X126902527Y-90897556D01*
X126961542Y-90715928D01*
X126981504Y-90526000D01*
X126961542Y-90336072D01*
X126902527Y-90154444D01*
X126807040Y-89989056D01*
X126807038Y-89989054D01*
X126807034Y-89989048D01*
X126679255Y-89847135D01*
X126524752Y-89734882D01*
X126350288Y-89657206D01*
X126163487Y-89617500D01*
X126022028Y-89617500D01*
X125953907Y-89597498D01*
X125932933Y-89580595D01*
X117803338Y-81451000D01*
X124454496Y-81451000D01*
X124474457Y-81640927D01*
X124504526Y-81733470D01*
X124533473Y-81822556D01*
X124533476Y-81822561D01*
X124628958Y-81987941D01*
X124628965Y-81987951D01*
X124756744Y-82129864D01*
X124817999Y-82174368D01*
X124911248Y-82242118D01*
X125085712Y-82319794D01*
X125141585Y-82331670D01*
X125204059Y-82365398D01*
X125204484Y-82365822D01*
X133650728Y-90812065D01*
X133756935Y-90918272D01*
X133881821Y-91001718D01*
X134020587Y-91059197D01*
X134167900Y-91088500D01*
X136805919Y-91088500D01*
X136874040Y-91108502D01*
X136879972Y-91112558D01*
X136886248Y-91117118D01*
X137060712Y-91194794D01*
X137247513Y-91234500D01*
X137438487Y-91234500D01*
X137625288Y-91194794D01*
X137799752Y-91117118D01*
X137954253Y-91004866D01*
X138020337Y-90931471D01*
X138080783Y-90894232D01*
X138151767Y-90895584D01*
X138210752Y-90935097D01*
X138223089Y-90952775D01*
X138228960Y-90962944D01*
X138228962Y-90962947D01*
X138228965Y-90962951D01*
X138356744Y-91104864D01*
X138365436Y-91111179D01*
X138511248Y-91217118D01*
X138685712Y-91294794D01*
X138872513Y-91334500D01*
X139063487Y-91334500D01*
X139250288Y-91294794D01*
X139424752Y-91217118D01*
X139579253Y-91104866D01*
X139579255Y-91104864D01*
X139707034Y-90962951D01*
X139707035Y-90962949D01*
X139707040Y-90962944D01*
X139802527Y-90797556D01*
X139861542Y-90615928D01*
X139881504Y-90426000D01*
X139861542Y-90236072D01*
X139802527Y-90054444D01*
X139802524Y-90054438D01*
X139802524Y-90054437D01*
X139747381Y-89958926D01*
X139730500Y-89895927D01*
X139730500Y-89725899D01*
X139730499Y-89725896D01*
X139722518Y-89685775D01*
X139701197Y-89578587D01*
X139643718Y-89439821D01*
X139643718Y-89439820D01*
X139636371Y-89428825D01*
X139636369Y-89428823D01*
X139594678Y-89366427D01*
X139560273Y-89314935D01*
X139560272Y-89314934D01*
X139560269Y-89314930D01*
X138929069Y-88683730D01*
X138929065Y-88683727D01*
X138804179Y-88600282D01*
X138665415Y-88542804D01*
X138665414Y-88542803D01*
X138518103Y-88513500D01*
X138518100Y-88513500D01*
X135086028Y-88513500D01*
X135017907Y-88493498D01*
X134996933Y-88476595D01*
X128079837Y-81559499D01*
X128045811Y-81497187D01*
X128049100Y-81431465D01*
X128069070Y-81370006D01*
X128089032Y-81180078D01*
X128069070Y-80990150D01*
X128010055Y-80808522D01*
X127914568Y-80643134D01*
X127914566Y-80643132D01*
X127914562Y-80643126D01*
X127786783Y-80501213D01*
X127632280Y-80388960D01*
X127457816Y-80311284D01*
X127271015Y-80271578D01*
X127080041Y-80271578D01*
X126893239Y-80311284D01*
X126718775Y-80388960D01*
X126564272Y-80501213D01*
X126436493Y-80643126D01*
X126436486Y-80643136D01*
X126341004Y-80808516D01*
X126341000Y-80808523D01*
X126321203Y-80869453D01*
X126281128Y-80928059D01*
X126215732Y-80955695D01*
X126145775Y-80943588D01*
X126107734Y-80914826D01*
X125979255Y-80772135D01*
X125824752Y-80659882D01*
X125650288Y-80582206D01*
X125463487Y-80542500D01*
X125272513Y-80542500D01*
X125085711Y-80582206D01*
X124911247Y-80659882D01*
X124756744Y-80772135D01*
X124628965Y-80914048D01*
X124628958Y-80914058D01*
X124533476Y-81079438D01*
X124533473Y-81079445D01*
X124474457Y-81261072D01*
X124454496Y-81451000D01*
X117803338Y-81451000D01*
X116392405Y-80040067D01*
X116358379Y-79977755D01*
X116355500Y-79950972D01*
X116355500Y-74250278D01*
X174267500Y-74250278D01*
X174267500Y-74487722D01*
X174275002Y-74535086D01*
X174304645Y-74722246D01*
X174378016Y-74948058D01*
X174378018Y-74948063D01*
X174485815Y-75159627D01*
X174625380Y-75351722D01*
X174625382Y-75351724D01*
X174625384Y-75351727D01*
X174793272Y-75519615D01*
X174793275Y-75519617D01*
X174793278Y-75519620D01*
X174985373Y-75659185D01*
X175196937Y-75766982D01*
X175422759Y-75840356D01*
X175657278Y-75877500D01*
X175657281Y-75877500D01*
X176894719Y-75877500D01*
X176894722Y-75877500D01*
X177129241Y-75840356D01*
X177355063Y-75766982D01*
X177566627Y-75659185D01*
X177758722Y-75519620D01*
X177926620Y-75351722D01*
X178066185Y-75159627D01*
X178173982Y-74948063D01*
X178247356Y-74722241D01*
X178284500Y-74487722D01*
X178284500Y-74250278D01*
X178247356Y-74015759D01*
X178173982Y-73789937D01*
X178066185Y-73578373D01*
X177926620Y-73386278D01*
X177926617Y-73386275D01*
X177926615Y-73386272D01*
X177758727Y-73218384D01*
X177758724Y-73218382D01*
X177758722Y-73218380D01*
X177566627Y-73078815D01*
X177355063Y-72971018D01*
X177355060Y-72971017D01*
X177355058Y-72971016D01*
X177129246Y-72897645D01*
X177129242Y-72897644D01*
X177129241Y-72897644D01*
X176894722Y-72860500D01*
X175657278Y-72860500D01*
X175422759Y-72897644D01*
X175422753Y-72897645D01*
X175196941Y-72971016D01*
X175196935Y-72971019D01*
X174985369Y-73078817D01*
X174793275Y-73218382D01*
X174793272Y-73218384D01*
X174625384Y-73386272D01*
X174625382Y-73386275D01*
X174485817Y-73578369D01*
X174378019Y-73789935D01*
X174378016Y-73789941D01*
X174304645Y-74015753D01*
X174304644Y-74015758D01*
X174304644Y-74015759D01*
X174267500Y-74250278D01*
X116355500Y-74250278D01*
X116355500Y-68167908D01*
X116372382Y-68104907D01*
X116411139Y-68037778D01*
X116411138Y-68037778D01*
X116411142Y-68037773D01*
X116470157Y-67856145D01*
X116490119Y-67666217D01*
X116470157Y-67476289D01*
X116411142Y-67294661D01*
X116315655Y-67129273D01*
X116315653Y-67129271D01*
X116315649Y-67129265D01*
X116187870Y-66987352D01*
X116033367Y-66875099D01*
X115858903Y-66797423D01*
X115672102Y-66757717D01*
X115481128Y-66757717D01*
X115294326Y-66797423D01*
X115119862Y-66875099D01*
X114980136Y-66976616D01*
X114913268Y-67000475D01*
X114844116Y-66984394D01*
X114812438Y-66958990D01*
X114787736Y-66931556D01*
X114779253Y-66922134D01*
X114769552Y-66915086D01*
X114624752Y-66809882D01*
X114450288Y-66732206D01*
X114263487Y-66692500D01*
X114072513Y-66692500D01*
X113885711Y-66732206D01*
X113711247Y-66809882D01*
X113565070Y-66916086D01*
X113498202Y-66939945D01*
X113429050Y-66923864D01*
X113416948Y-66916086D01*
X113406426Y-66908441D01*
X113406425Y-66908440D01*
X113231960Y-66830764D01*
X113045159Y-66791058D01*
X112854185Y-66791058D01*
X112667383Y-66830764D01*
X112492919Y-66908440D01*
X112403104Y-66973695D01*
X112336236Y-66997554D01*
X112267084Y-66981473D01*
X112254989Y-66973699D01*
X112177702Y-66917547D01*
X112003238Y-66839871D01*
X111816437Y-66800165D01*
X111625463Y-66800165D01*
X111438661Y-66839871D01*
X111264197Y-66917547D01*
X111109694Y-67029800D01*
X110981915Y-67171713D01*
X110981908Y-67171723D01*
X110895308Y-67321719D01*
X110886423Y-67337109D01*
X110880798Y-67354421D01*
X110827407Y-67518737D01*
X110807446Y-67708665D01*
X110827407Y-67898592D01*
X110846710Y-67957999D01*
X110886423Y-68080221D01*
X110902747Y-68108495D01*
X110981908Y-68245606D01*
X110981915Y-68245616D01*
X111109694Y-68387529D01*
X111109697Y-68387531D01*
X111264198Y-68499783D01*
X111380748Y-68551674D01*
X111434844Y-68597654D01*
X111455494Y-68665581D01*
X111455500Y-68666781D01*
X111455500Y-89995927D01*
X111438619Y-90058926D01*
X111383475Y-90154437D01*
X111324457Y-90336072D01*
X111304496Y-90526000D01*
X111324457Y-90715927D01*
X111350965Y-90797507D01*
X111383473Y-90897556D01*
X111383476Y-90897561D01*
X111478958Y-91062941D01*
X111478965Y-91062951D01*
X111606744Y-91204864D01*
X111665511Y-91247561D01*
X111761248Y-91317118D01*
X111935712Y-91394794D01*
X112122513Y-91434500D01*
X112126055Y-91435253D01*
X112188529Y-91468982D01*
X112218955Y-91524077D01*
X112240918Y-91475988D01*
X112300644Y-91437604D01*
X112309945Y-91435253D01*
X112313487Y-91434500D01*
X112500288Y-91394794D01*
X112674752Y-91317118D01*
X112829253Y-91204866D01*
X112897739Y-91128804D01*
X112958184Y-91091565D01*
X113029168Y-91092916D01*
X113065436Y-91111179D01*
X113211248Y-91217118D01*
X113385712Y-91294794D01*
X113572513Y-91334500D01*
X113763487Y-91334500D01*
X113950288Y-91294794D01*
X114124752Y-91217118D01*
X114279253Y-91104866D01*
X114279255Y-91104864D01*
X114407034Y-90962951D01*
X114407035Y-90962949D01*
X114407040Y-90962944D01*
X114502527Y-90797556D01*
X114561542Y-90615928D01*
X114581504Y-90426000D01*
X114561542Y-90236072D01*
X114502527Y-90054444D01*
X114407040Y-89889056D01*
X114407038Y-89889054D01*
X114407034Y-89889048D01*
X114279255Y-89747135D01*
X114124752Y-89634882D01*
X113950288Y-89557206D01*
X113894411Y-89545328D01*
X113831938Y-89511599D01*
X113831515Y-89511177D01*
X113749077Y-89428739D01*
X113715051Y-89366427D01*
X113712172Y-89339644D01*
X113712172Y-81344699D01*
X113732174Y-81276578D01*
X113785830Y-81230085D01*
X113856104Y-81219981D01*
X113920684Y-81249475D01*
X113927267Y-81255604D01*
X118539128Y-85867465D01*
X118645335Y-85973672D01*
X118755227Y-86047099D01*
X118761590Y-86051351D01*
X118780683Y-86067021D01*
X123550597Y-90836935D01*
X123581334Y-90887092D01*
X123633473Y-91047556D01*
X123656782Y-91087928D01*
X123728958Y-91212941D01*
X123728965Y-91212951D01*
X123856744Y-91354864D01*
X123862347Y-91358935D01*
X123980520Y-91444793D01*
X123996722Y-91456564D01*
X124040076Y-91512786D01*
X124046151Y-91583522D01*
X124013020Y-91646314D01*
X123951200Y-91681226D01*
X123922661Y-91684500D01*
X122631209Y-91684500D01*
X122606627Y-91682079D01*
X122493119Y-91659500D01*
X122493116Y-91659500D01*
X122292883Y-91659500D01*
X122292879Y-91659500D01*
X122179372Y-91682079D01*
X122154790Y-91684500D01*
X112336142Y-91684500D01*
X112268021Y-91664498D01*
X112221528Y-91610842D01*
X112218797Y-91591850D01*
X112218122Y-91601970D01*
X112175846Y-91659008D01*
X112109445Y-91684135D01*
X112099858Y-91684500D01*
X102749355Y-91684500D01*
X102681234Y-91664498D01*
X102634741Y-91610842D01*
X102624637Y-91540568D01*
X102654131Y-91475988D01*
X102655719Y-91474190D01*
X102745434Y-91374551D01*
X102745435Y-91374549D01*
X102745440Y-91374544D01*
X102840927Y-91209156D01*
X102899942Y-91027528D01*
X102899941Y-91027528D01*
X102899943Y-91027525D01*
X102910613Y-90926000D01*
X102919904Y-90837600D01*
X102899942Y-90647672D01*
X102840927Y-90466044D01*
X102840925Y-90466041D01*
X102840924Y-90466037D01*
X102785781Y-90370526D01*
X102768900Y-90307527D01*
X102768900Y-88861627D01*
X102788902Y-88793506D01*
X102805805Y-88772532D01*
X105710872Y-85867465D01*
X108909929Y-82668408D01*
X108993375Y-82543522D01*
X109050854Y-82404756D01*
X109054313Y-82387367D01*
X109080157Y-82257443D01*
X109080157Y-67879157D01*
X109097038Y-67816157D01*
X109152184Y-67720642D01*
X109211199Y-67539014D01*
X109231161Y-67349086D01*
X109211199Y-67159158D01*
X109152184Y-66977530D01*
X109056697Y-66812142D01*
X109056695Y-66812140D01*
X109056691Y-66812134D01*
X108928912Y-66670221D01*
X108774409Y-66557968D01*
X108599945Y-66480292D01*
X108413144Y-66440586D01*
X108222170Y-66440586D01*
X108035368Y-66480292D01*
X107974919Y-66507206D01*
X107860905Y-66557968D01*
X107860903Y-66557968D01*
X107854873Y-66560654D01*
X107853682Y-66557979D01*
X107796994Y-66571615D01*
X107751987Y-66560877D01*
X107575288Y-66482206D01*
X107388487Y-66442500D01*
X107197513Y-66442500D01*
X107010711Y-66482206D01*
X106836247Y-66559882D01*
X106681746Y-66672134D01*
X106625379Y-66734735D01*
X106564933Y-66771973D01*
X106493949Y-66770621D01*
X106438107Y-66734733D01*
X106423567Y-66718585D01*
X106404253Y-66697134D01*
X106249752Y-66584882D01*
X106075288Y-66507206D01*
X105888487Y-66467500D01*
X105697513Y-66467500D01*
X105510711Y-66507206D01*
X105336246Y-66584882D01*
X105336246Y-66584883D01*
X105325135Y-66592956D01*
X105258267Y-66616815D01*
X105189116Y-66600734D01*
X105177013Y-66592956D01*
X105091189Y-66530601D01*
X104916725Y-66452925D01*
X104729924Y-66413219D01*
X104538950Y-66413219D01*
X104352148Y-66452925D01*
X104177684Y-66530601D01*
X104023181Y-66642854D01*
X103895402Y-66784767D01*
X103895395Y-66784777D01*
X103805809Y-66939945D01*
X103799910Y-66950163D01*
X103785436Y-66994705D01*
X103740894Y-67131791D01*
X103720933Y-67321719D01*
X103740894Y-67511646D01*
X103749787Y-67539014D01*
X103799910Y-67693275D01*
X103799913Y-67693280D01*
X103895395Y-67858661D01*
X103895397Y-67858663D01*
X103898133Y-67861702D01*
X103899161Y-67863843D01*
X103899280Y-67864007D01*
X103899250Y-67864028D01*
X103928853Y-67925707D01*
X103930500Y-67946015D01*
X103930500Y-75857971D01*
X103910498Y-75926092D01*
X103893595Y-75947066D01*
X89826196Y-90014464D01*
X89811169Y-90027300D01*
X89797124Y-90037505D01*
X89797122Y-90037507D01*
X89669336Y-90179427D01*
X89669332Y-90179432D01*
X89573850Y-90344812D01*
X89573847Y-90344819D01*
X89514831Y-90526446D01*
X89494870Y-90716374D01*
X89514831Y-90906301D01*
X89533646Y-90964205D01*
X89573847Y-91087930D01*
X89583624Y-91104864D01*
X89669332Y-91253315D01*
X89669339Y-91253325D01*
X89797118Y-91395238D01*
X89881526Y-91456564D01*
X89924880Y-91512786D01*
X89930955Y-91583522D01*
X89897824Y-91646314D01*
X89836004Y-91681225D01*
X89807465Y-91684500D01*
X88036888Y-91684500D01*
X87968767Y-91664498D01*
X87922274Y-91610842D01*
X87910888Y-91558500D01*
X87910888Y-85647850D01*
X87930890Y-85579729D01*
X87947793Y-85558755D01*
X91282560Y-82223988D01*
X91282567Y-82223981D01*
X91393810Y-82057493D01*
X91470436Y-81872502D01*
X91509500Y-81676116D01*
X91509500Y-81475884D01*
X91470436Y-81279498D01*
X91393810Y-81094507D01*
X91282567Y-80928019D01*
X91282565Y-80928017D01*
X91282560Y-80928011D01*
X91140988Y-80786439D01*
X91140982Y-80786434D01*
X91119582Y-80772135D01*
X90974493Y-80675190D01*
X90844348Y-80621282D01*
X90789505Y-80598565D01*
X90789502Y-80598564D01*
X90593119Y-80559500D01*
X90593116Y-80559500D01*
X90392884Y-80559500D01*
X90392880Y-80559500D01*
X90196497Y-80598564D01*
X90196494Y-80598565D01*
X90011507Y-80675190D01*
X89845017Y-80786434D01*
X89845011Y-80786439D01*
X87111837Y-83519615D01*
X86246407Y-84385045D01*
X86207182Y-84424270D01*
X86104823Y-84526628D01*
X86104822Y-84526629D01*
X85993578Y-84693119D01*
X85916953Y-84878106D01*
X85916952Y-84878109D01*
X85877888Y-85074492D01*
X85877888Y-91558500D01*
X85857886Y-91626621D01*
X85804230Y-91673114D01*
X85751888Y-91684500D01*
X79506079Y-91684500D01*
X79437958Y-91664498D01*
X79391465Y-91610842D01*
X79381361Y-91540568D01*
X79396960Y-91495500D01*
X79403356Y-91484420D01*
X79427527Y-91442556D01*
X79486542Y-91260928D01*
X79506504Y-91071000D01*
X79486542Y-90881072D01*
X79427527Y-90699444D01*
X79332040Y-90534056D01*
X79332038Y-90534054D01*
X79332034Y-90534048D01*
X79204255Y-90392135D01*
X79049752Y-90279882D01*
X78875288Y-90202206D01*
X78819411Y-90190328D01*
X78756938Y-90156599D01*
X78756515Y-90156177D01*
X70697069Y-82096730D01*
X70697065Y-82096727D01*
X70572179Y-82013282D01*
X70511008Y-81987944D01*
X70433414Y-81955803D01*
X70286103Y-81926500D01*
X70286100Y-81926500D01*
X61435028Y-81926500D01*
X61366907Y-81906498D01*
X61345933Y-81889595D01*
X61095403Y-81639065D01*
X61064665Y-81588907D01*
X61056867Y-81564907D01*
X61012527Y-81428444D01*
X60917040Y-81263056D01*
X60917038Y-81263054D01*
X60917034Y-81263048D01*
X60789255Y-81121135D01*
X60634752Y-81008882D01*
X60460288Y-80931206D01*
X60273487Y-80891500D01*
X60082513Y-80891500D01*
X59895711Y-80931206D01*
X59721247Y-81008882D01*
X59566749Y-81121132D01*
X59566746Y-81121134D01*
X59547325Y-81142703D01*
X59486878Y-81179940D01*
X59427495Y-81181636D01*
X59257487Y-81145500D01*
X59066513Y-81145500D01*
X58879711Y-81185206D01*
X58705247Y-81262882D01*
X58550744Y-81375135D01*
X58422965Y-81517048D01*
X58422958Y-81517058D01*
X58327476Y-81682438D01*
X58327473Y-81682445D01*
X58268457Y-81864072D01*
X58248496Y-82054000D01*
X34971153Y-82054000D01*
X35044291Y-42290998D01*
X35653633Y-42290998D01*
X35653633Y-42291001D01*
X35673091Y-42736660D01*
X35673091Y-42736663D01*
X35731316Y-43178922D01*
X35731318Y-43178932D01*
X35827863Y-43614422D01*
X35827872Y-43614456D01*
X35962000Y-44039855D01*
X35962008Y-44039877D01*
X36132712Y-44451994D01*
X36132715Y-44452000D01*
X36132716Y-44452002D01*
X36331154Y-44833200D01*
X36338697Y-44847689D01*
X36338700Y-44847695D01*
X36578372Y-45223904D01*
X36578377Y-45223910D01*
X36849918Y-45577789D01*
X36849925Y-45577797D01*
X36849934Y-45577809D01*
X37151304Y-45906696D01*
X37480191Y-46208066D01*
X37480204Y-46208076D01*
X37480210Y-46208081D01*
X37834089Y-46479622D01*
X37834095Y-46479627D01*
X38210304Y-46719299D01*
X38210308Y-46719301D01*
X38210316Y-46719306D01*
X38605998Y-46925284D01*
X39018125Y-47095993D01*
X39018143Y-47095998D01*
X39018144Y-47095999D01*
X39443543Y-47230127D01*
X39443549Y-47230128D01*
X39443563Y-47230133D01*
X39879073Y-47326683D01*
X40321341Y-47384909D01*
X40744608Y-47403389D01*
X40766999Y-47404367D01*
X40767000Y-47404367D01*
X40767001Y-47404367D01*
X40786459Y-47403517D01*
X41212659Y-47384909D01*
X41654927Y-47326683D01*
X42090437Y-47230133D01*
X42515875Y-47095993D01*
X42928002Y-46925284D01*
X43323684Y-46719306D01*
X43515196Y-46597299D01*
X43699904Y-46479627D01*
X43699904Y-46479626D01*
X43699907Y-46479625D01*
X43846683Y-46367000D01*
X50111502Y-46367000D01*
X50131457Y-46595087D01*
X50147109Y-46653499D01*
X50190715Y-46816240D01*
X50190717Y-46816246D01*
X50287477Y-47023749D01*
X50418398Y-47210724D01*
X50418802Y-47211300D01*
X50580700Y-47373198D01*
X50768251Y-47504523D01*
X50803359Y-47520894D01*
X50807457Y-47522805D01*
X50860742Y-47569722D01*
X50880203Y-47637999D01*
X50859661Y-47705959D01*
X50807457Y-47751195D01*
X50768250Y-47769477D01*
X50580703Y-47900799D01*
X50580697Y-47900804D01*
X50418804Y-48062697D01*
X50418799Y-48062703D01*
X50287477Y-48250250D01*
X50190717Y-48457753D01*
X50190716Y-48457757D01*
X50131457Y-48678913D01*
X50111502Y-48907000D01*
X50131457Y-49135087D01*
X50190716Y-49356243D01*
X50287477Y-49563749D01*
X50418802Y-49751300D01*
X50580700Y-49913198D01*
X50768251Y-50044523D01*
X50807457Y-50062805D01*
X50808047Y-50063080D01*
X50861332Y-50109996D01*
X50880794Y-50178273D01*
X50860253Y-50246233D01*
X50808051Y-50291468D01*
X50768504Y-50309910D01*
X50581025Y-50441184D01*
X50581019Y-50441189D01*
X50419189Y-50603019D01*
X50419184Y-50603025D01*
X50287912Y-50790501D01*
X50191188Y-50997926D01*
X50191186Y-50997931D01*
X50138917Y-51193000D01*
X50994297Y-51193000D01*
X50959075Y-51254007D01*
X50925000Y-51381174D01*
X50925000Y-51512826D01*
X50959075Y-51639993D01*
X50994297Y-51701000D01*
X50138918Y-51701000D01*
X50191186Y-51896068D01*
X50191188Y-51896073D01*
X50287912Y-52103498D01*
X50419184Y-52290974D01*
X50419189Y-52290980D01*
X50581019Y-52452810D01*
X50581025Y-52452815D01*
X50768503Y-52584089D01*
X50808049Y-52602530D01*
X50861334Y-52649447D01*
X50880794Y-52717724D01*
X50860252Y-52785684D01*
X50808049Y-52830918D01*
X50768252Y-52849475D01*
X50580703Y-52980799D01*
X50580697Y-52980804D01*
X50418804Y-53142697D01*
X50418799Y-53142703D01*
X50287477Y-53330250D01*
X50190717Y-53537753D01*
X50190715Y-53537759D01*
X50131457Y-53758913D01*
X50111502Y-53987000D01*
X50131457Y-54215086D01*
X50190715Y-54436240D01*
X50190717Y-54436246D01*
X50287477Y-54643749D01*
X50401827Y-54807058D01*
X50418802Y-54831300D01*
X50580700Y-54993198D01*
X50768251Y-55124523D01*
X50803359Y-55140894D01*
X50807457Y-55142805D01*
X50860742Y-55189722D01*
X50880203Y-55257999D01*
X50859661Y-55325959D01*
X50807457Y-55371195D01*
X50768250Y-55389477D01*
X50580703Y-55520799D01*
X50580697Y-55520804D01*
X50418804Y-55682697D01*
X50418799Y-55682703D01*
X50287477Y-55870250D01*
X50190717Y-56077753D01*
X50190715Y-56077759D01*
X50131457Y-56298913D01*
X50111502Y-56527000D01*
X50131457Y-56755086D01*
X50190715Y-56976240D01*
X50190717Y-56976246D01*
X50287477Y-57183749D01*
X50376438Y-57310799D01*
X50418802Y-57371300D01*
X50580700Y-57533198D01*
X50768251Y-57664523D01*
X50803359Y-57680894D01*
X50807457Y-57682805D01*
X50860742Y-57729722D01*
X50880203Y-57797999D01*
X50859661Y-57865959D01*
X50807457Y-57911195D01*
X50768250Y-57929477D01*
X50580703Y-58060799D01*
X50580697Y-58060804D01*
X50418804Y-58222697D01*
X50418799Y-58222703D01*
X50287477Y-58410250D01*
X50190717Y-58617753D01*
X50190716Y-58617757D01*
X50131457Y-58838913D01*
X50111502Y-59067000D01*
X50131457Y-59295087D01*
X50133208Y-59301620D01*
X50190715Y-59516240D01*
X50190717Y-59516246D01*
X50287477Y-59723749D01*
X50415072Y-59905974D01*
X50418802Y-59911300D01*
X50580700Y-60073198D01*
X50768251Y-60204523D01*
X50803359Y-60220894D01*
X50807457Y-60222805D01*
X50860742Y-60269722D01*
X50880203Y-60337999D01*
X50859661Y-60405959D01*
X50807457Y-60451195D01*
X50768250Y-60469477D01*
X50580703Y-60600799D01*
X50580697Y-60600804D01*
X50418804Y-60762697D01*
X50418799Y-60762703D01*
X50287477Y-60950250D01*
X50190717Y-61157753D01*
X50190716Y-61157757D01*
X50131457Y-61378913D01*
X50111502Y-61607000D01*
X50131457Y-61835087D01*
X50190716Y-62056243D01*
X50287477Y-62263749D01*
X50418802Y-62451300D01*
X50580700Y-62613198D01*
X50768251Y-62744523D01*
X50803359Y-62760894D01*
X50807457Y-62762805D01*
X50860742Y-62809722D01*
X50880203Y-62877999D01*
X50859661Y-62945959D01*
X50807457Y-62991195D01*
X50768250Y-63009477D01*
X50580703Y-63140799D01*
X50580697Y-63140804D01*
X50418804Y-63302697D01*
X50418799Y-63302703D01*
X50287477Y-63490250D01*
X50190717Y-63697753D01*
X50190716Y-63697757D01*
X50131457Y-63918913D01*
X50111502Y-64147000D01*
X50131457Y-64375087D01*
X50190716Y-64596243D01*
X50287477Y-64803749D01*
X50418802Y-64991300D01*
X50580700Y-65153198D01*
X50768251Y-65284523D01*
X50803359Y-65300894D01*
X50807457Y-65302805D01*
X50860742Y-65349722D01*
X50880203Y-65417999D01*
X50859661Y-65485959D01*
X50807457Y-65531195D01*
X50768250Y-65549477D01*
X50580703Y-65680799D01*
X50580697Y-65680804D01*
X50418804Y-65842697D01*
X50418799Y-65842703D01*
X50287477Y-66030250D01*
X50190717Y-66237753D01*
X50190716Y-66237757D01*
X50131457Y-66458913D01*
X50111502Y-66687000D01*
X50131457Y-66915087D01*
X50165581Y-67042438D01*
X50190715Y-67136240D01*
X50190717Y-67136246D01*
X50277204Y-67321719D01*
X50287477Y-67343749D01*
X50418802Y-67531300D01*
X50580700Y-67693198D01*
X50768251Y-67824523D01*
X50803359Y-67840894D01*
X50807457Y-67842805D01*
X50860742Y-67889722D01*
X50880203Y-67957999D01*
X50859661Y-68025959D01*
X50807457Y-68071195D01*
X50768250Y-68089477D01*
X50580703Y-68220799D01*
X50580697Y-68220804D01*
X50418804Y-68382697D01*
X50418799Y-68382703D01*
X50287477Y-68570250D01*
X50190717Y-68777753D01*
X50190715Y-68777759D01*
X50160585Y-68890206D01*
X50131457Y-68998913D01*
X50111502Y-69227000D01*
X50131457Y-69455087D01*
X50190716Y-69676243D01*
X50287477Y-69883749D01*
X50418802Y-70071300D01*
X50580700Y-70233198D01*
X50768251Y-70364523D01*
X50803359Y-70380894D01*
X50807457Y-70382805D01*
X50860742Y-70429722D01*
X50880203Y-70497999D01*
X50859661Y-70565959D01*
X50807457Y-70611195D01*
X50768250Y-70629477D01*
X50580703Y-70760799D01*
X50580697Y-70760804D01*
X50418804Y-70922697D01*
X50418799Y-70922703D01*
X50287477Y-71110250D01*
X50190717Y-71317753D01*
X50190716Y-71317757D01*
X50131457Y-71538913D01*
X50111502Y-71767000D01*
X50131457Y-71995087D01*
X50190716Y-72216243D01*
X50287477Y-72423749D01*
X50418802Y-72611300D01*
X50580700Y-72773198D01*
X50768251Y-72904523D01*
X50803359Y-72920894D01*
X50807457Y-72922805D01*
X50860742Y-72969722D01*
X50880203Y-73037999D01*
X50859661Y-73105959D01*
X50807457Y-73151195D01*
X50768250Y-73169477D01*
X50580703Y-73300799D01*
X50580697Y-73300804D01*
X50418804Y-73462697D01*
X50418799Y-73462703D01*
X50287477Y-73650250D01*
X50190717Y-73857753D01*
X50190715Y-73857759D01*
X50131457Y-74078913D01*
X50111502Y-74307000D01*
X50131457Y-74535086D01*
X50190715Y-74756240D01*
X50190717Y-74756246D01*
X50242900Y-74868153D01*
X50287477Y-74963749D01*
X50418802Y-75151300D01*
X50580700Y-75313198D01*
X50768251Y-75444523D01*
X50803359Y-75460894D01*
X50807457Y-75462805D01*
X50860742Y-75509722D01*
X50880203Y-75577999D01*
X50859661Y-75645959D01*
X50807457Y-75691195D01*
X50768250Y-75709477D01*
X50580703Y-75840799D01*
X50580697Y-75840804D01*
X50418804Y-76002697D01*
X50418799Y-76002703D01*
X50287477Y-76190250D01*
X50190717Y-76397753D01*
X50190715Y-76397759D01*
X50174736Y-76457393D01*
X50131457Y-76618913D01*
X50111502Y-76847000D01*
X50131457Y-77075087D01*
X50160789Y-77184555D01*
X50190715Y-77296240D01*
X50190717Y-77296246D01*
X50287477Y-77503749D01*
X50367126Y-77617500D01*
X50418802Y-77691300D01*
X50580700Y-77853198D01*
X50768251Y-77984523D01*
X50789364Y-77994368D01*
X50807457Y-78002805D01*
X50860742Y-78049722D01*
X50880203Y-78117999D01*
X50859661Y-78185959D01*
X50807457Y-78231195D01*
X50768250Y-78249477D01*
X50580703Y-78380799D01*
X50580697Y-78380804D01*
X50418804Y-78542697D01*
X50418799Y-78542703D01*
X50287477Y-78730250D01*
X50190717Y-78937753D01*
X50190715Y-78937759D01*
X50131457Y-79158913D01*
X50111502Y-79387000D01*
X50131457Y-79615086D01*
X50190715Y-79836240D01*
X50190717Y-79836246D01*
X50287477Y-80043749D01*
X50400673Y-80205410D01*
X50418802Y-80231300D01*
X50580700Y-80393198D01*
X50768251Y-80524523D01*
X50975757Y-80621284D01*
X51196913Y-80680543D01*
X51425000Y-80700498D01*
X51653087Y-80680543D01*
X51874243Y-80621284D01*
X52081749Y-80524523D01*
X52269300Y-80393198D01*
X52431198Y-80231300D01*
X52562523Y-80043749D01*
X52659284Y-79836243D01*
X52718543Y-79615087D01*
X52738498Y-79387000D01*
X52718543Y-79158913D01*
X52659284Y-78937757D01*
X52562523Y-78730251D01*
X52431198Y-78542700D01*
X52269300Y-78380802D01*
X52081749Y-78249477D01*
X52042543Y-78231195D01*
X51989258Y-78184279D01*
X51969796Y-78116002D01*
X51990337Y-78048042D01*
X52042543Y-78002805D01*
X52044997Y-78001660D01*
X52081749Y-77984523D01*
X52269300Y-77853198D01*
X52431198Y-77691300D01*
X52562523Y-77503749D01*
X52659284Y-77296243D01*
X52718543Y-77075087D01*
X52738498Y-76847000D01*
X52718543Y-76618913D01*
X52659284Y-76397757D01*
X52562523Y-76190251D01*
X52431198Y-76002700D01*
X52269300Y-75840802D01*
X52081749Y-75709477D01*
X52042543Y-75691195D01*
X51989258Y-75644279D01*
X51969796Y-75576002D01*
X51990337Y-75508042D01*
X52042543Y-75462805D01*
X52044997Y-75461660D01*
X52081749Y-75444523D01*
X52269300Y-75313198D01*
X52431198Y-75151300D01*
X52562523Y-74963749D01*
X52659284Y-74756243D01*
X52718543Y-74535087D01*
X52738498Y-74307000D01*
X52718543Y-74078913D01*
X52659284Y-73857757D01*
X52562523Y-73650251D01*
X52431198Y-73462700D01*
X52269300Y-73300802D01*
X52081749Y-73169477D01*
X52042543Y-73151195D01*
X51989258Y-73104279D01*
X51969796Y-73036002D01*
X51990337Y-72968042D01*
X52042543Y-72922805D01*
X52044997Y-72921660D01*
X52081749Y-72904523D01*
X52269300Y-72773198D01*
X52431198Y-72611300D01*
X52562523Y-72423749D01*
X52659284Y-72216243D01*
X52718543Y-71995087D01*
X52738498Y-71767000D01*
X52718543Y-71538913D01*
X52659284Y-71317757D01*
X52562523Y-71110251D01*
X52431198Y-70922700D01*
X52269300Y-70760802D01*
X52081749Y-70629477D01*
X52042543Y-70611195D01*
X51989258Y-70564279D01*
X51969796Y-70496002D01*
X51990337Y-70428042D01*
X52042543Y-70382805D01*
X52044997Y-70381660D01*
X52081749Y-70364523D01*
X52269300Y-70233198D01*
X52431198Y-70071300D01*
X52562523Y-69883749D01*
X52659284Y-69676243D01*
X52718543Y-69455087D01*
X52738498Y-69227000D01*
X52718543Y-68998913D01*
X52659284Y-68777757D01*
X52562523Y-68570251D01*
X52431198Y-68382700D01*
X52269300Y-68220802D01*
X52081749Y-68089477D01*
X52042543Y-68071195D01*
X51989258Y-68024279D01*
X51969796Y-67956002D01*
X51990337Y-67888042D01*
X52042543Y-67842805D01*
X52044997Y-67841660D01*
X52081749Y-67824523D01*
X52269300Y-67693198D01*
X52431198Y-67531300D01*
X52562523Y-67343749D01*
X52659284Y-67136243D01*
X52718543Y-66915087D01*
X52738498Y-66687000D01*
X52718543Y-66458913D01*
X52659284Y-66237757D01*
X52562523Y-66030251D01*
X52431198Y-65842700D01*
X52269300Y-65680802D01*
X52081749Y-65549477D01*
X52042543Y-65531195D01*
X51989258Y-65484279D01*
X51969796Y-65416002D01*
X51990337Y-65348042D01*
X52042543Y-65302805D01*
X52044997Y-65301660D01*
X52081749Y-65284523D01*
X52269300Y-65153198D01*
X52431198Y-64991300D01*
X52562523Y-64803749D01*
X52659284Y-64596243D01*
X52718543Y-64375087D01*
X52738498Y-64147000D01*
X52718543Y-63918913D01*
X52659284Y-63697757D01*
X52562523Y-63490251D01*
X52431198Y-63302700D01*
X52269300Y-63140802D01*
X52081749Y-63009477D01*
X52042543Y-62991195D01*
X51989258Y-62944279D01*
X51969796Y-62876002D01*
X51990337Y-62808042D01*
X52042543Y-62762805D01*
X52044997Y-62761660D01*
X52081749Y-62744523D01*
X52269300Y-62613198D01*
X52431198Y-62451300D01*
X52562523Y-62263749D01*
X52659284Y-62056243D01*
X52718543Y-61835087D01*
X52738498Y-61607000D01*
X52718543Y-61378913D01*
X52659284Y-61157757D01*
X52562523Y-60950251D01*
X52431198Y-60762700D01*
X52269300Y-60600802D01*
X52081749Y-60469477D01*
X52042543Y-60451195D01*
X51989258Y-60404279D01*
X51969796Y-60336002D01*
X51990337Y-60268042D01*
X52042543Y-60222805D01*
X52044997Y-60221660D01*
X52081749Y-60204523D01*
X52269300Y-60073198D01*
X52431198Y-59911300D01*
X52562523Y-59723749D01*
X52659284Y-59516243D01*
X52718543Y-59295087D01*
X52738498Y-59067000D01*
X52718543Y-58838913D01*
X52659284Y-58617757D01*
X52562523Y-58410251D01*
X52431198Y-58222700D01*
X52269300Y-58060802D01*
X52081749Y-57929477D01*
X52042543Y-57911195D01*
X51989258Y-57864279D01*
X51969796Y-57796002D01*
X51990337Y-57728042D01*
X52042543Y-57682805D01*
X52044997Y-57681660D01*
X52081749Y-57664523D01*
X52269300Y-57533198D01*
X52431198Y-57371300D01*
X52562523Y-57183749D01*
X52659284Y-56976243D01*
X52718543Y-56755087D01*
X52738498Y-56527000D01*
X52718543Y-56298913D01*
X52659284Y-56077757D01*
X52562523Y-55870251D01*
X52431198Y-55682700D01*
X52269300Y-55520802D01*
X52265558Y-55518182D01*
X52206998Y-55477177D01*
X52081749Y-55389477D01*
X52042543Y-55371195D01*
X51989258Y-55324279D01*
X51969796Y-55256002D01*
X51990337Y-55188042D01*
X52042543Y-55142805D01*
X52044997Y-55141660D01*
X52081749Y-55124523D01*
X52269300Y-54993198D01*
X52431198Y-54831300D01*
X52562523Y-54643749D01*
X52659284Y-54436243D01*
X52718543Y-54215087D01*
X52738498Y-53987000D01*
X52718543Y-53758913D01*
X52659284Y-53537757D01*
X52562523Y-53330251D01*
X52431198Y-53142700D01*
X52269300Y-52980802D01*
X52207908Y-52937815D01*
X52081749Y-52849477D01*
X52041951Y-52830919D01*
X51988666Y-52784002D01*
X51969205Y-52715725D01*
X51989747Y-52647765D01*
X52041951Y-52602529D01*
X52081498Y-52584087D01*
X52268974Y-52452815D01*
X52268980Y-52452810D01*
X52430810Y-52290980D01*
X52430815Y-52290974D01*
X52562087Y-52103498D01*
X52658811Y-51896073D01*
X52658813Y-51896068D01*
X52711082Y-51701000D01*
X51855703Y-51701000D01*
X51890925Y-51639993D01*
X51925000Y-51512826D01*
X51925000Y-51381174D01*
X51890925Y-51254007D01*
X51855703Y-51193000D01*
X52711082Y-51193000D01*
X52658813Y-50997931D01*
X52658811Y-50997926D01*
X52562087Y-50790501D01*
X52430815Y-50603025D01*
X52430810Y-50603019D01*
X52268980Y-50441189D01*
X52268974Y-50441184D01*
X52081497Y-50309911D01*
X52041949Y-50291469D01*
X51988665Y-50244551D01*
X51969205Y-50176273D01*
X51989748Y-50108314D01*
X52041950Y-50063081D01*
X52081749Y-50044523D01*
X52269300Y-49913198D01*
X52431198Y-49751300D01*
X52562523Y-49563749D01*
X52659284Y-49356243D01*
X52718543Y-49135087D01*
X52738498Y-48907000D01*
X52718543Y-48678913D01*
X52659284Y-48457757D01*
X52562523Y-48250251D01*
X52431198Y-48062700D01*
X52269300Y-47900802D01*
X52081749Y-47769477D01*
X52042543Y-47751195D01*
X51989258Y-47704279D01*
X51969796Y-47636002D01*
X51990337Y-47568042D01*
X52042543Y-47522805D01*
X52044997Y-47521660D01*
X52081749Y-47504523D01*
X52269300Y-47373198D01*
X52431198Y-47211300D01*
X52562523Y-47023749D01*
X52659284Y-46816243D01*
X52718543Y-46595087D01*
X52738498Y-46367000D01*
X52718543Y-46138913D01*
X52659284Y-45917757D01*
X52562523Y-45710251D01*
X52431198Y-45522700D01*
X52269300Y-45360802D01*
X52269295Y-45360799D01*
X52269292Y-45360796D01*
X52265995Y-45358487D01*
X52221669Y-45303028D01*
X52214363Y-45232409D01*
X52246396Y-45169049D01*
X52307599Y-45133067D01*
X52324801Y-45129999D01*
X52334201Y-45128989D01*
X52471204Y-45077889D01*
X52471882Y-45077382D01*
X52588261Y-44990261D01*
X52675887Y-44873207D01*
X52675887Y-44873206D01*
X52675889Y-44873204D01*
X52726989Y-44736201D01*
X52728785Y-44719500D01*
X52733499Y-44675649D01*
X52733500Y-44675632D01*
X52733500Y-43827000D01*
X65351502Y-43827000D01*
X65371457Y-44055087D01*
X65400594Y-44163826D01*
X65430715Y-44276240D01*
X65430717Y-44276246D01*
X65456608Y-44331769D01*
X65527477Y-44483749D01*
X65658802Y-44671300D01*
X65820700Y-44833198D01*
X66008251Y-44964523D01*
X66046840Y-44982517D01*
X66048047Y-44983080D01*
X66101332Y-45029996D01*
X66120794Y-45098273D01*
X66100253Y-45166233D01*
X66048051Y-45211468D01*
X66008504Y-45229910D01*
X65821025Y-45361184D01*
X65821019Y-45361189D01*
X65659189Y-45523019D01*
X65659184Y-45523025D01*
X65527912Y-45710501D01*
X65431188Y-45917926D01*
X65431186Y-45917931D01*
X65378917Y-46113000D01*
X66234297Y-46113000D01*
X66199075Y-46174007D01*
X66165000Y-46301174D01*
X66165000Y-46432826D01*
X66199075Y-46559993D01*
X66234297Y-46621000D01*
X65378918Y-46621000D01*
X65431186Y-46816068D01*
X65431188Y-46816073D01*
X65527912Y-47023498D01*
X65659184Y-47210974D01*
X65659189Y-47210980D01*
X65821019Y-47372810D01*
X65821025Y-47372815D01*
X66008503Y-47504089D01*
X66048049Y-47522530D01*
X66101334Y-47569447D01*
X66120794Y-47637724D01*
X66100252Y-47705684D01*
X66048049Y-47750918D01*
X66008252Y-47769475D01*
X65820703Y-47900799D01*
X65820697Y-47900804D01*
X65658804Y-48062697D01*
X65658799Y-48062703D01*
X65527477Y-48250250D01*
X65430717Y-48457753D01*
X65430716Y-48457757D01*
X65371457Y-48678913D01*
X65351502Y-48907000D01*
X65371457Y-49135087D01*
X65430716Y-49356243D01*
X65527477Y-49563749D01*
X65658802Y-49751300D01*
X65820700Y-49913198D01*
X66008251Y-50044523D01*
X66043359Y-50060894D01*
X66047457Y-50062805D01*
X66100742Y-50109722D01*
X66120203Y-50177999D01*
X66099661Y-50245959D01*
X66047457Y-50291195D01*
X66008250Y-50309477D01*
X65820703Y-50440799D01*
X65820697Y-50440804D01*
X65658804Y-50602697D01*
X65658799Y-50602703D01*
X65527477Y-50790250D01*
X65430717Y-50997753D01*
X65430715Y-50997759D01*
X65401427Y-51107063D01*
X65371457Y-51218913D01*
X65351502Y-51447000D01*
X65371457Y-51675087D01*
X65430716Y-51896243D01*
X65527477Y-52103749D01*
X65658802Y-52291300D01*
X65820700Y-52453198D01*
X66008251Y-52584523D01*
X66043359Y-52600894D01*
X66047457Y-52602805D01*
X66100742Y-52649722D01*
X66120203Y-52717999D01*
X66099661Y-52785959D01*
X66047457Y-52831195D01*
X66008250Y-52849477D01*
X65820703Y-52980799D01*
X65820697Y-52980804D01*
X65658804Y-53142697D01*
X65658799Y-53142703D01*
X65527477Y-53330250D01*
X65430717Y-53537753D01*
X65430715Y-53537759D01*
X65371457Y-53758913D01*
X65351502Y-53987000D01*
X65371457Y-54215086D01*
X65430715Y-54436240D01*
X65430717Y-54436246D01*
X65527477Y-54643749D01*
X65641827Y-54807058D01*
X65658802Y-54831300D01*
X65820700Y-54993198D01*
X66008251Y-55124523D01*
X66043359Y-55140894D01*
X66047457Y-55142805D01*
X66100742Y-55189722D01*
X66120203Y-55257999D01*
X66099661Y-55325959D01*
X66047457Y-55371195D01*
X66008250Y-55389477D01*
X65820703Y-55520799D01*
X65820697Y-55520804D01*
X65658804Y-55682697D01*
X65658799Y-55682703D01*
X65527477Y-55870250D01*
X65430717Y-56077753D01*
X65430715Y-56077759D01*
X65371457Y-56298913D01*
X65351502Y-56527000D01*
X65371457Y-56755086D01*
X65430715Y-56976240D01*
X65430717Y-56976246D01*
X65527477Y-57183749D01*
X65616438Y-57310799D01*
X65658802Y-57371300D01*
X65820700Y-57533198D01*
X66008251Y-57664523D01*
X66043359Y-57680894D01*
X66047457Y-57682805D01*
X66100742Y-57729722D01*
X66120203Y-57797999D01*
X66099661Y-57865959D01*
X66047457Y-57911195D01*
X66008250Y-57929477D01*
X65820703Y-58060799D01*
X65820697Y-58060804D01*
X65658804Y-58222697D01*
X65658799Y-58222703D01*
X65527477Y-58410250D01*
X65430717Y-58617753D01*
X65430716Y-58617757D01*
X65371457Y-58838913D01*
X65351502Y-59067000D01*
X65371457Y-59295087D01*
X65373208Y-59301620D01*
X65430715Y-59516240D01*
X65430717Y-59516246D01*
X65527477Y-59723749D01*
X65655072Y-59905974D01*
X65658802Y-59911300D01*
X65820700Y-60073198D01*
X66008251Y-60204523D01*
X66043359Y-60220894D01*
X66047457Y-60222805D01*
X66100742Y-60269722D01*
X66120203Y-60337999D01*
X66099661Y-60405959D01*
X66047457Y-60451195D01*
X66008250Y-60469477D01*
X65820703Y-60600799D01*
X65820697Y-60600804D01*
X65658804Y-60762697D01*
X65658799Y-60762703D01*
X65527477Y-60950250D01*
X65430717Y-61157753D01*
X65430716Y-61157757D01*
X65371457Y-61378913D01*
X65351502Y-61607000D01*
X65371457Y-61835087D01*
X65430716Y-62056243D01*
X65527477Y-62263749D01*
X65658802Y-62451300D01*
X65820700Y-62613198D01*
X66008251Y-62744523D01*
X66043359Y-62760894D01*
X66047457Y-62762805D01*
X66100742Y-62809722D01*
X66120203Y-62877999D01*
X66099661Y-62945959D01*
X66047457Y-62991195D01*
X66008250Y-63009477D01*
X65820703Y-63140799D01*
X65820697Y-63140804D01*
X65658804Y-63302697D01*
X65658799Y-63302703D01*
X65527477Y-63490250D01*
X65430717Y-63697753D01*
X65430716Y-63697757D01*
X65371457Y-63918913D01*
X65351502Y-64147000D01*
X65371457Y-64375087D01*
X65430716Y-64596243D01*
X65527477Y-64803749D01*
X65658802Y-64991300D01*
X65820700Y-65153198D01*
X66008251Y-65284523D01*
X66043359Y-65300894D01*
X66047457Y-65302805D01*
X66100742Y-65349722D01*
X66120203Y-65417999D01*
X66099661Y-65485959D01*
X66047457Y-65531195D01*
X66008250Y-65549477D01*
X65820703Y-65680799D01*
X65820697Y-65680804D01*
X65658804Y-65842697D01*
X65658799Y-65842703D01*
X65527477Y-66030250D01*
X65430717Y-66237753D01*
X65430716Y-66237757D01*
X65371457Y-66458913D01*
X65351502Y-66687000D01*
X65371457Y-66915087D01*
X65405581Y-67042438D01*
X65430715Y-67136240D01*
X65430717Y-67136246D01*
X65517204Y-67321719D01*
X65527477Y-67343749D01*
X65658802Y-67531300D01*
X65820700Y-67693198D01*
X66008251Y-67824523D01*
X66043359Y-67840894D01*
X66047457Y-67842805D01*
X66100742Y-67889722D01*
X66120203Y-67957999D01*
X66099661Y-68025959D01*
X66047457Y-68071195D01*
X66008250Y-68089477D01*
X65820703Y-68220799D01*
X65820697Y-68220804D01*
X65658804Y-68382697D01*
X65658799Y-68382703D01*
X65527477Y-68570250D01*
X65430717Y-68777753D01*
X65430715Y-68777759D01*
X65400585Y-68890206D01*
X65371457Y-68998913D01*
X65351502Y-69227000D01*
X65371457Y-69455087D01*
X65430716Y-69676243D01*
X65527477Y-69883749D01*
X65658802Y-70071300D01*
X65820700Y-70233198D01*
X66008251Y-70364523D01*
X66043359Y-70380894D01*
X66047457Y-70382805D01*
X66100742Y-70429722D01*
X66120203Y-70497999D01*
X66099661Y-70565959D01*
X66047457Y-70611195D01*
X66008250Y-70629477D01*
X65820703Y-70760799D01*
X65820697Y-70760804D01*
X65658804Y-70922697D01*
X65658799Y-70922703D01*
X65527477Y-71110250D01*
X65430717Y-71317753D01*
X65430716Y-71317757D01*
X65371457Y-71538913D01*
X65351502Y-71767000D01*
X65371457Y-71995087D01*
X65430716Y-72216243D01*
X65527477Y-72423749D01*
X65658802Y-72611300D01*
X65820700Y-72773198D01*
X66008251Y-72904523D01*
X66043359Y-72920894D01*
X66047457Y-72922805D01*
X66100742Y-72969722D01*
X66120203Y-73037999D01*
X66099661Y-73105959D01*
X66047457Y-73151195D01*
X66008250Y-73169477D01*
X65820703Y-73300799D01*
X65820697Y-73300804D01*
X65658804Y-73462697D01*
X65658799Y-73462703D01*
X65527477Y-73650250D01*
X65430717Y-73857753D01*
X65430715Y-73857759D01*
X65371457Y-74078913D01*
X65351502Y-74307000D01*
X65371457Y-74535086D01*
X65430715Y-74756240D01*
X65430717Y-74756246D01*
X65482900Y-74868153D01*
X65527477Y-74963749D01*
X65658802Y-75151300D01*
X65820700Y-75313198D01*
X66008251Y-75444523D01*
X66043359Y-75460894D01*
X66047457Y-75462805D01*
X66100742Y-75509722D01*
X66120203Y-75577999D01*
X66099661Y-75645959D01*
X66047457Y-75691195D01*
X66008250Y-75709477D01*
X65820703Y-75840799D01*
X65820697Y-75840804D01*
X65658804Y-76002697D01*
X65658799Y-76002703D01*
X65527477Y-76190250D01*
X65430717Y-76397753D01*
X65430715Y-76397759D01*
X65414736Y-76457393D01*
X65371457Y-76618913D01*
X65351502Y-76847000D01*
X65371457Y-77075087D01*
X65400789Y-77184555D01*
X65430715Y-77296240D01*
X65430717Y-77296246D01*
X65527477Y-77503749D01*
X65607126Y-77617500D01*
X65658802Y-77691300D01*
X65820700Y-77853198D01*
X66008251Y-77984523D01*
X66029364Y-77994368D01*
X66047457Y-78002805D01*
X66100742Y-78049722D01*
X66120203Y-78117999D01*
X66099661Y-78185959D01*
X66047457Y-78231195D01*
X66008250Y-78249477D01*
X65820703Y-78380799D01*
X65820697Y-78380804D01*
X65658804Y-78542697D01*
X65658799Y-78542703D01*
X65527477Y-78730250D01*
X65430717Y-78937753D01*
X65430715Y-78937759D01*
X65371457Y-79158913D01*
X65351502Y-79387000D01*
X65371457Y-79615086D01*
X65430715Y-79836240D01*
X65430717Y-79836246D01*
X65527477Y-80043749D01*
X65640673Y-80205410D01*
X65658802Y-80231300D01*
X65820700Y-80393198D01*
X66008251Y-80524523D01*
X66215757Y-80621284D01*
X66436913Y-80680543D01*
X66665000Y-80700498D01*
X66893087Y-80680543D01*
X67114243Y-80621284D01*
X67321749Y-80524523D01*
X67509300Y-80393198D01*
X67671198Y-80231300D01*
X67802523Y-80043749D01*
X67899284Y-79836243D01*
X67958543Y-79615087D01*
X67978498Y-79387000D01*
X67958543Y-79158913D01*
X67899284Y-78937757D01*
X67802523Y-78730251D01*
X67671198Y-78542700D01*
X67509300Y-78380802D01*
X67321749Y-78249477D01*
X67282543Y-78231195D01*
X67229258Y-78184279D01*
X67209796Y-78116002D01*
X67230337Y-78048042D01*
X67282543Y-78002805D01*
X67284997Y-78001660D01*
X67321749Y-77984523D01*
X67509300Y-77853198D01*
X67671198Y-77691300D01*
X67802523Y-77503749D01*
X67899284Y-77296243D01*
X67958543Y-77075087D01*
X67978498Y-76847000D01*
X67958543Y-76618913D01*
X67899284Y-76397757D01*
X67802523Y-76190251D01*
X67671198Y-76002700D01*
X67509300Y-75840802D01*
X67321749Y-75709477D01*
X67282543Y-75691195D01*
X67229258Y-75644279D01*
X67209796Y-75576002D01*
X67230337Y-75508042D01*
X67282543Y-75462805D01*
X67284997Y-75461660D01*
X67321749Y-75444523D01*
X67509300Y-75313198D01*
X67671198Y-75151300D01*
X67802523Y-74963749D01*
X67899284Y-74756243D01*
X67958543Y-74535087D01*
X67978498Y-74307000D01*
X67958543Y-74078913D01*
X67899284Y-73857757D01*
X67802523Y-73650251D01*
X67671198Y-73462700D01*
X67509300Y-73300802D01*
X67321749Y-73169477D01*
X67282543Y-73151195D01*
X67229258Y-73104279D01*
X67209796Y-73036002D01*
X67230337Y-72968042D01*
X67282543Y-72922805D01*
X67284997Y-72921660D01*
X67321749Y-72904523D01*
X67509300Y-72773198D01*
X67671198Y-72611300D01*
X67802523Y-72423749D01*
X67899284Y-72216243D01*
X67958543Y-71995087D01*
X67978498Y-71767000D01*
X67958543Y-71538913D01*
X67899284Y-71317757D01*
X67802523Y-71110251D01*
X67671198Y-70922700D01*
X67509300Y-70760802D01*
X67321749Y-70629477D01*
X67282543Y-70611195D01*
X67229258Y-70564279D01*
X67209796Y-70496002D01*
X67230337Y-70428042D01*
X67282543Y-70382805D01*
X67284997Y-70381660D01*
X67321749Y-70364523D01*
X67509300Y-70233198D01*
X67671198Y-70071300D01*
X67802523Y-69883749D01*
X67899284Y-69676243D01*
X67958543Y-69455087D01*
X67978498Y-69227000D01*
X67958543Y-68998913D01*
X67899284Y-68777757D01*
X67802523Y-68570251D01*
X67671198Y-68382700D01*
X67509300Y-68220802D01*
X67321749Y-68089477D01*
X67282543Y-68071195D01*
X67229258Y-68024279D01*
X67209796Y-67956002D01*
X67230337Y-67888042D01*
X67282543Y-67842805D01*
X67284997Y-67841660D01*
X67321749Y-67824523D01*
X67509300Y-67693198D01*
X67671198Y-67531300D01*
X67753333Y-67414000D01*
X98253496Y-67414000D01*
X98273457Y-67603927D01*
X98293697Y-67666217D01*
X98332473Y-67785556D01*
X98376435Y-67861701D01*
X98387619Y-67881071D01*
X98404500Y-67944071D01*
X98404500Y-69458927D01*
X98387619Y-69521926D01*
X98332475Y-69617437D01*
X98273457Y-69799072D01*
X98253496Y-69989000D01*
X98273457Y-70178927D01*
X98291092Y-70233200D01*
X98332473Y-70360556D01*
X98360841Y-70409691D01*
X98427958Y-70525941D01*
X98427965Y-70525951D01*
X98555744Y-70667864D01*
X98555747Y-70667866D01*
X98710248Y-70780118D01*
X98884712Y-70857794D01*
X99071513Y-70897500D01*
X99262487Y-70897500D01*
X99449288Y-70857794D01*
X99623752Y-70780118D01*
X99778253Y-70667866D01*
X99812819Y-70629477D01*
X99906034Y-70525951D01*
X99906035Y-70525949D01*
X99906040Y-70525944D01*
X100001527Y-70360556D01*
X100060542Y-70178928D01*
X100080504Y-69989000D01*
X100060542Y-69799072D01*
X100001527Y-69617444D01*
X100001525Y-69617441D01*
X100001524Y-69617437D01*
X99946381Y-69521926D01*
X99929500Y-69458927D01*
X99929500Y-67944071D01*
X99946381Y-67881071D01*
X99956233Y-67864007D01*
X100001527Y-67785556D01*
X100060542Y-67603928D01*
X100080504Y-67414000D01*
X100060542Y-67224072D01*
X100001527Y-67042444D01*
X99906040Y-66877056D01*
X99906038Y-66877054D01*
X99906034Y-66877048D01*
X99778255Y-66735135D01*
X99623752Y-66622882D01*
X99482516Y-66560000D01*
X100285496Y-66560000D01*
X100305457Y-66749927D01*
X100331723Y-66830764D01*
X100364473Y-66931556D01*
X100364476Y-66931561D01*
X100459958Y-67096941D01*
X100459965Y-67096951D01*
X100587744Y-67238864D01*
X100587747Y-67238866D01*
X100742248Y-67351118D01*
X100742740Y-67351337D01*
X100742978Y-67351539D01*
X100747969Y-67354421D01*
X100747442Y-67355333D01*
X100796839Y-67397311D01*
X100817494Y-67465237D01*
X100817500Y-67466447D01*
X100817500Y-69175100D01*
X100827824Y-69227000D01*
X100846803Y-69322413D01*
X100846804Y-69322416D01*
X100903349Y-69458927D01*
X100904282Y-69461179D01*
X100987727Y-69586065D01*
X101474173Y-70072511D01*
X101504909Y-70122665D01*
X101507473Y-70130556D01*
X101507474Y-70130558D01*
X101507476Y-70130562D01*
X101602958Y-70295941D01*
X101602965Y-70295951D01*
X101730744Y-70437864D01*
X101730747Y-70437866D01*
X101885248Y-70550118D01*
X102059712Y-70627794D01*
X102246513Y-70667500D01*
X102437487Y-70667500D01*
X102624288Y-70627794D01*
X102798752Y-70550118D01*
X102953253Y-70437866D01*
X103002830Y-70382805D01*
X103081034Y-70295951D01*
X103081035Y-70295949D01*
X103081040Y-70295944D01*
X103176527Y-70130556D01*
X103235542Y-69948928D01*
X103255504Y-69759000D01*
X103235542Y-69569072D01*
X103176527Y-69387444D01*
X103081040Y-69222056D01*
X103081038Y-69222054D01*
X103081034Y-69222048D01*
X102953255Y-69080135D01*
X102798752Y-68967882D01*
X102624288Y-68890206D01*
X102624287Y-68890205D01*
X102624283Y-68890204D01*
X102442303Y-68851522D01*
X102379829Y-68817794D01*
X102345508Y-68755644D01*
X102342500Y-68728276D01*
X102342500Y-66865899D01*
X102342499Y-66865896D01*
X102331807Y-66812144D01*
X102313197Y-66718587D01*
X102255718Y-66579821D01*
X102172272Y-66454935D01*
X102116403Y-66399066D01*
X102085665Y-66348908D01*
X102033527Y-66188444D01*
X101938040Y-66023056D01*
X101938038Y-66023054D01*
X101938034Y-66023048D01*
X101810255Y-65881135D01*
X101655752Y-65768882D01*
X101481288Y-65691206D01*
X101294487Y-65651500D01*
X101103513Y-65651500D01*
X100916711Y-65691206D01*
X100742247Y-65768882D01*
X100587744Y-65881135D01*
X100459965Y-66023048D01*
X100459958Y-66023058D01*
X100364476Y-66188438D01*
X100364473Y-66188445D01*
X100305457Y-66370072D01*
X100285496Y-66560000D01*
X99482516Y-66560000D01*
X99449288Y-66545206D01*
X99262487Y-66505500D01*
X99071513Y-66505500D01*
X98884711Y-66545206D01*
X98710247Y-66622882D01*
X98555744Y-66735135D01*
X98427965Y-66877048D01*
X98427958Y-66877058D01*
X98332476Y-67042438D01*
X98332473Y-67042445D01*
X98273457Y-67224072D01*
X98253496Y-67414000D01*
X67753333Y-67414000D01*
X67802523Y-67343749D01*
X67899284Y-67136243D01*
X67958543Y-66915087D01*
X67978498Y-66687000D01*
X67958543Y-66458913D01*
X67899284Y-66237757D01*
X67802523Y-66030251D01*
X67671198Y-65842700D01*
X67509300Y-65680802D01*
X67321749Y-65549477D01*
X67282543Y-65531195D01*
X67229258Y-65484279D01*
X67209796Y-65416002D01*
X67230337Y-65348042D01*
X67282543Y-65302805D01*
X67284997Y-65301660D01*
X67321749Y-65284523D01*
X67509300Y-65153198D01*
X67671198Y-64991300D01*
X67802523Y-64803749D01*
X67899284Y-64596243D01*
X67958543Y-64375087D01*
X67978498Y-64147000D01*
X67958543Y-63918913D01*
X67899284Y-63697757D01*
X67802523Y-63490251D01*
X67671198Y-63302700D01*
X67509300Y-63140802D01*
X67321749Y-63009477D01*
X67282543Y-62991195D01*
X67229258Y-62944279D01*
X67209796Y-62876002D01*
X67230337Y-62808042D01*
X67282543Y-62762805D01*
X67284997Y-62761660D01*
X67321749Y-62744523D01*
X67509300Y-62613198D01*
X67671198Y-62451300D01*
X67802523Y-62263749D01*
X67899284Y-62056243D01*
X67958543Y-61835087D01*
X67978498Y-61607000D01*
X67958543Y-61378913D01*
X67899284Y-61157757D01*
X67802523Y-60950251D01*
X67671198Y-60762700D01*
X67509300Y-60600802D01*
X67321749Y-60469477D01*
X67282543Y-60451195D01*
X67229258Y-60404279D01*
X67209796Y-60336002D01*
X67230337Y-60268042D01*
X67282543Y-60222805D01*
X67284997Y-60221660D01*
X67321749Y-60204523D01*
X67509300Y-60073198D01*
X67671198Y-59911300D01*
X67802523Y-59723749D01*
X67899284Y-59516243D01*
X67958543Y-59295087D01*
X67978498Y-59067000D01*
X67958543Y-58838913D01*
X67899284Y-58617757D01*
X67802523Y-58410251D01*
X67695579Y-58257519D01*
X86931000Y-58257519D01*
X86931000Y-58582480D01*
X86966974Y-58809620D01*
X86983380Y-58860110D01*
X87038038Y-59028329D01*
X87038039Y-59028332D01*
X87038041Y-59028336D01*
X87142440Y-59233231D01*
X87277611Y-59419278D01*
X87277613Y-59419280D01*
X87277615Y-59419283D01*
X87440216Y-59581884D01*
X87440219Y-59581886D01*
X87440222Y-59581889D01*
X87626269Y-59717060D01*
X87831171Y-59821462D01*
X88049882Y-59892526D01*
X88277017Y-59928500D01*
X88277019Y-59928500D01*
X88506981Y-59928500D01*
X88506983Y-59928500D01*
X88734118Y-59892526D01*
X88952829Y-59821462D01*
X89157731Y-59717060D01*
X89343778Y-59581889D01*
X89506389Y-59419278D01*
X89560374Y-59344972D01*
X89616594Y-59301620D01*
X89687331Y-59295544D01*
X89750123Y-59328676D01*
X89764245Y-59344974D01*
X89817995Y-59418954D01*
X89817997Y-59418957D01*
X89980542Y-59581502D01*
X89980545Y-59581504D01*
X90166527Y-59716628D01*
X90371361Y-59820996D01*
X90371367Y-59820999D01*
X90589993Y-59892035D01*
X90678000Y-59905974D01*
X90678000Y-58908438D01*
X90719708Y-58932518D01*
X90859591Y-58970000D01*
X91004409Y-58970000D01*
X91144292Y-58932518D01*
X91186000Y-58908438D01*
X91186000Y-59905974D01*
X91274006Y-59892035D01*
X91492632Y-59820999D01*
X91492638Y-59820996D01*
X91697472Y-59716628D01*
X91870115Y-59591196D01*
X91936983Y-59567338D01*
X92006134Y-59583418D01*
X92055614Y-59634332D01*
X92062226Y-59649087D01*
X92068611Y-59666204D01*
X92068612Y-59666205D01*
X92068613Y-59666208D01*
X92156238Y-59783261D01*
X92273292Y-59870887D01*
X92273294Y-59870888D01*
X92273296Y-59870889D01*
X92329990Y-59892035D01*
X92410295Y-59921988D01*
X92410303Y-59921990D01*
X92470850Y-59928499D01*
X92470855Y-59928499D01*
X92470862Y-59928500D01*
X92470868Y-59928500D01*
X94473132Y-59928500D01*
X94473138Y-59928500D01*
X94473145Y-59928499D01*
X94473149Y-59928499D01*
X94533696Y-59921990D01*
X94533699Y-59921989D01*
X94533701Y-59921989D01*
X94670704Y-59870889D01*
X94787761Y-59783261D01*
X94875389Y-59666204D01*
X94926489Y-59529201D01*
X94927883Y-59516240D01*
X94932999Y-59468649D01*
X94933000Y-59468632D01*
X94933000Y-57371367D01*
X94932999Y-57371350D01*
X94926490Y-57310803D01*
X94926488Y-57310795D01*
X94875389Y-57173797D01*
X94875387Y-57173792D01*
X94787761Y-57056738D01*
X94670707Y-56969112D01*
X94670702Y-56969110D01*
X94533704Y-56918011D01*
X94533696Y-56918009D01*
X94473149Y-56911500D01*
X94473138Y-56911500D01*
X92470862Y-56911500D01*
X92470850Y-56911500D01*
X92410303Y-56918009D01*
X92410295Y-56918011D01*
X92273297Y-56969110D01*
X92273292Y-56969112D01*
X92156238Y-57056738D01*
X92068612Y-57173792D01*
X92068611Y-57173795D01*
X92062231Y-57190901D01*
X92019683Y-57247736D01*
X91953163Y-57272546D01*
X91883789Y-57257454D01*
X91870115Y-57248803D01*
X91697472Y-57123371D01*
X91492638Y-57019003D01*
X91492632Y-57019000D01*
X91274000Y-56947962D01*
X91186000Y-56934023D01*
X91186000Y-57931561D01*
X91144292Y-57907482D01*
X91004409Y-57870000D01*
X90859591Y-57870000D01*
X90719708Y-57907482D01*
X90678000Y-57931561D01*
X90678000Y-56934023D01*
X90589999Y-56947962D01*
X90371367Y-57019000D01*
X90371361Y-57019003D01*
X90166527Y-57123371D01*
X89980545Y-57258495D01*
X89980542Y-57258497D01*
X89817998Y-57421041D01*
X89764245Y-57495026D01*
X89708022Y-57538379D01*
X89637286Y-57544454D01*
X89574494Y-57511322D01*
X89560373Y-57495025D01*
X89506389Y-57420722D01*
X89506386Y-57420719D01*
X89506384Y-57420716D01*
X89343783Y-57258115D01*
X89343780Y-57258113D01*
X89343778Y-57258111D01*
X89157731Y-57122940D01*
X88952836Y-57018541D01*
X88952832Y-57018539D01*
X88952829Y-57018538D01*
X88822669Y-56976246D01*
X88734120Y-56947474D01*
X88620550Y-56929487D01*
X88506983Y-56911500D01*
X88277017Y-56911500D01*
X88186163Y-56925889D01*
X88049879Y-56947474D01*
X87885848Y-57000772D01*
X87831171Y-57018538D01*
X87831169Y-57018538D01*
X87831163Y-57018541D01*
X87626268Y-57122940D01*
X87440219Y-57258113D01*
X87440216Y-57258115D01*
X87277615Y-57420716D01*
X87277613Y-57420719D01*
X87142440Y-57606768D01*
X87038041Y-57811663D01*
X87038038Y-57811672D01*
X86966974Y-58030379D01*
X86958752Y-58082292D01*
X86936515Y-58222700D01*
X86931000Y-58257519D01*
X67695579Y-58257519D01*
X67671198Y-58222700D01*
X67509300Y-58060802D01*
X67321749Y-57929477D01*
X67282543Y-57911195D01*
X67229258Y-57864279D01*
X67209796Y-57796002D01*
X67230337Y-57728042D01*
X67282543Y-57682805D01*
X67284997Y-57681660D01*
X67321749Y-57664523D01*
X67509300Y-57533198D01*
X67671198Y-57371300D01*
X67802523Y-57183749D01*
X67899284Y-56976243D01*
X67958543Y-56755087D01*
X67978498Y-56527000D01*
X67958543Y-56298913D01*
X67899284Y-56077757D01*
X67802523Y-55870251D01*
X67671198Y-55682700D01*
X67509300Y-55520802D01*
X67505558Y-55518182D01*
X67446998Y-55477177D01*
X67321749Y-55389477D01*
X67282543Y-55371195D01*
X67229258Y-55324279D01*
X67209796Y-55256002D01*
X67230337Y-55188042D01*
X67282543Y-55142805D01*
X67284997Y-55141660D01*
X67321749Y-55124523D01*
X67509300Y-54993198D01*
X67671198Y-54831300D01*
X67802523Y-54643749D01*
X67899284Y-54436243D01*
X67958543Y-54215087D01*
X67967800Y-54109278D01*
X76223500Y-54109278D01*
X76223500Y-54346722D01*
X76260644Y-54581241D01*
X76260645Y-54581246D01*
X76280954Y-54643749D01*
X76334018Y-54807063D01*
X76441815Y-55018627D01*
X76581380Y-55210722D01*
X76581382Y-55210724D01*
X76581384Y-55210727D01*
X76749272Y-55378615D01*
X76749275Y-55378617D01*
X76749278Y-55378620D01*
X76941373Y-55518185D01*
X77152937Y-55625982D01*
X77378759Y-55699356D01*
X77613278Y-55736500D01*
X77613281Y-55736500D01*
X78850719Y-55736500D01*
X78850722Y-55736500D01*
X79085241Y-55699356D01*
X79311063Y-55625982D01*
X79522627Y-55518185D01*
X79714722Y-55378620D01*
X79882620Y-55210722D01*
X80022185Y-55018627D01*
X80129982Y-54807063D01*
X80203356Y-54581241D01*
X80240500Y-54346722D01*
X80240500Y-54109278D01*
X80203356Y-53874759D01*
X80129982Y-53648937D01*
X80022185Y-53437373D01*
X79882620Y-53245278D01*
X79882617Y-53245275D01*
X79882615Y-53245272D01*
X79714727Y-53077384D01*
X79714724Y-53077382D01*
X79714722Y-53077380D01*
X79522627Y-52937815D01*
X79311063Y-52830018D01*
X79311060Y-52830017D01*
X79311058Y-52830016D01*
X79085246Y-52756645D01*
X79085242Y-52756644D01*
X79085241Y-52756644D01*
X78850722Y-52719500D01*
X77613278Y-52719500D01*
X77403560Y-52752716D01*
X77378753Y-52756645D01*
X77152941Y-52830016D01*
X77152935Y-52830019D01*
X76941369Y-52937817D01*
X76749275Y-53077382D01*
X76749272Y-53077384D01*
X76581384Y-53245272D01*
X76581382Y-53245275D01*
X76441817Y-53437369D01*
X76334019Y-53648935D01*
X76334016Y-53648941D01*
X76260645Y-53874753D01*
X76260644Y-53874758D01*
X76260644Y-53874759D01*
X76223500Y-54109278D01*
X67967800Y-54109278D01*
X67978498Y-53987000D01*
X67958543Y-53758913D01*
X67899284Y-53537757D01*
X67802523Y-53330251D01*
X67671198Y-53142700D01*
X67509300Y-52980802D01*
X67321749Y-52849477D01*
X67282543Y-52831195D01*
X67229258Y-52784279D01*
X67209796Y-52716002D01*
X67230337Y-52648042D01*
X67282543Y-52602805D01*
X67284997Y-52601660D01*
X67321749Y-52584523D01*
X67509300Y-52453198D01*
X67671198Y-52291300D01*
X67802523Y-52103749D01*
X67899284Y-51896243D01*
X67958543Y-51675087D01*
X67978498Y-51447000D01*
X67958543Y-51218913D01*
X67899284Y-50997757D01*
X67802523Y-50790251D01*
X67671198Y-50602700D01*
X67509300Y-50440802D01*
X67464283Y-50409281D01*
X67464279Y-50409278D01*
X76223500Y-50409278D01*
X76223500Y-50646722D01*
X76260644Y-50881241D01*
X76260645Y-50881246D01*
X76314470Y-51046901D01*
X76334018Y-51107063D01*
X76441815Y-51318627D01*
X76581380Y-51510722D01*
X76581382Y-51510724D01*
X76581384Y-51510727D01*
X76749272Y-51678615D01*
X76749275Y-51678617D01*
X76749278Y-51678620D01*
X76941373Y-51818185D01*
X77152937Y-51925982D01*
X77378759Y-51999356D01*
X77613278Y-52036500D01*
X77613281Y-52036500D01*
X78850719Y-52036500D01*
X78850722Y-52036500D01*
X79085241Y-51999356D01*
X79311063Y-51925982D01*
X79522627Y-51818185D01*
X79714722Y-51678620D01*
X79882620Y-51510722D01*
X80022185Y-51318627D01*
X80129982Y-51107063D01*
X80203356Y-50881241D01*
X80240500Y-50646722D01*
X80240500Y-50409278D01*
X80203356Y-50174759D01*
X80129982Y-49948937D01*
X80022185Y-49737373D01*
X79882620Y-49545278D01*
X79882617Y-49545275D01*
X79882615Y-49545272D01*
X79714727Y-49377384D01*
X79714724Y-49377382D01*
X79714722Y-49377380D01*
X79522627Y-49237815D01*
X79311063Y-49130018D01*
X79311060Y-49130017D01*
X79311058Y-49130016D01*
X79085246Y-49056645D01*
X79085242Y-49056644D01*
X79085241Y-49056644D01*
X78850722Y-49019500D01*
X77613278Y-49019500D01*
X77378759Y-49056644D01*
X77378753Y-49056645D01*
X77152941Y-49130016D01*
X77152935Y-49130019D01*
X76941369Y-49237817D01*
X76749275Y-49377382D01*
X76749272Y-49377384D01*
X76581384Y-49545272D01*
X76581382Y-49545275D01*
X76441817Y-49737369D01*
X76334019Y-49948935D01*
X76334016Y-49948941D01*
X76260645Y-50174753D01*
X76260644Y-50174758D01*
X76260644Y-50174759D01*
X76223500Y-50409278D01*
X67464279Y-50409278D01*
X67446998Y-50397177D01*
X67321749Y-50309477D01*
X67283130Y-50291469D01*
X67282543Y-50291195D01*
X67229258Y-50244279D01*
X67209796Y-50176002D01*
X67230337Y-50108042D01*
X67282543Y-50062805D01*
X67284997Y-50061660D01*
X67321749Y-50044523D01*
X67509300Y-49913198D01*
X67671198Y-49751300D01*
X67802523Y-49563749D01*
X67899284Y-49356243D01*
X67958543Y-49135087D01*
X67978498Y-48907000D01*
X67958543Y-48678913D01*
X67899284Y-48457757D01*
X67802523Y-48250251D01*
X67671198Y-48062700D01*
X67509300Y-47900802D01*
X67321749Y-47769477D01*
X67281951Y-47750919D01*
X67228666Y-47704002D01*
X67209205Y-47635725D01*
X67229747Y-47567765D01*
X67281951Y-47522529D01*
X67321498Y-47504087D01*
X67508974Y-47372815D01*
X67508980Y-47372810D01*
X67670810Y-47210980D01*
X67670815Y-47210974D01*
X67802087Y-47023498D01*
X67898811Y-46816073D01*
X67898813Y-46816068D01*
X67951082Y-46621000D01*
X67095703Y-46621000D01*
X67130925Y-46559993D01*
X67165000Y-46432826D01*
X67165000Y-46301174D01*
X67130925Y-46174007D01*
X67095703Y-46113000D01*
X67951082Y-46113000D01*
X67950085Y-46109278D01*
X76223500Y-46109278D01*
X76223500Y-46346722D01*
X76255136Y-46546462D01*
X76260645Y-46581246D01*
X76334016Y-46807058D01*
X76334018Y-46807063D01*
X76441815Y-47018627D01*
X76581380Y-47210722D01*
X76581382Y-47210724D01*
X76581384Y-47210727D01*
X76749272Y-47378615D01*
X76749275Y-47378617D01*
X76749278Y-47378620D01*
X76941373Y-47518185D01*
X77152937Y-47625982D01*
X77378759Y-47699356D01*
X77613278Y-47736500D01*
X77613281Y-47736500D01*
X78850719Y-47736500D01*
X78850722Y-47736500D01*
X79085241Y-47699356D01*
X79311063Y-47625982D01*
X79522627Y-47518185D01*
X79714722Y-47378620D01*
X79882620Y-47210722D01*
X80022185Y-47018627D01*
X80129982Y-46807063D01*
X80203356Y-46581241D01*
X80240500Y-46346722D01*
X80240500Y-46109278D01*
X80203356Y-45874759D01*
X80129982Y-45648937D01*
X80022185Y-45437373D01*
X79882620Y-45245278D01*
X79882617Y-45245275D01*
X79882615Y-45245272D01*
X79714727Y-45077384D01*
X79714724Y-45077382D01*
X79714722Y-45077380D01*
X79570121Y-44972322D01*
X79522630Y-44937817D01*
X79522629Y-44937816D01*
X79522627Y-44937815D01*
X79311063Y-44830018D01*
X79311060Y-44830017D01*
X79311058Y-44830016D01*
X79085246Y-44756645D01*
X79085242Y-44756644D01*
X79085241Y-44756644D01*
X78850722Y-44719500D01*
X77613278Y-44719500D01*
X77386746Y-44755379D01*
X77378753Y-44756645D01*
X77152941Y-44830016D01*
X77152935Y-44830019D01*
X76941369Y-44937817D01*
X76749275Y-45077382D01*
X76749272Y-45077384D01*
X76581384Y-45245272D01*
X76581382Y-45245275D01*
X76441817Y-45437369D01*
X76334019Y-45648935D01*
X76334016Y-45648941D01*
X76260645Y-45874753D01*
X76260644Y-45874758D01*
X76260644Y-45874759D01*
X76223500Y-46109278D01*
X67950085Y-46109278D01*
X67898813Y-45917931D01*
X67898811Y-45917926D01*
X67802087Y-45710501D01*
X67670815Y-45523025D01*
X67670810Y-45523019D01*
X67508980Y-45361189D01*
X67508974Y-45361184D01*
X67321497Y-45229911D01*
X67281949Y-45211469D01*
X67228665Y-45164551D01*
X67209205Y-45096273D01*
X67229748Y-45028314D01*
X67281950Y-44983081D01*
X67321749Y-44964523D01*
X67509300Y-44833198D01*
X67671198Y-44671300D01*
X67802523Y-44483749D01*
X67899284Y-44276243D01*
X67958543Y-44055087D01*
X67959850Y-44040150D01*
X152909000Y-44040150D01*
X152909000Y-46137449D01*
X152915509Y-46197996D01*
X152915511Y-46198004D01*
X152966610Y-46335002D01*
X152966612Y-46335007D01*
X153054238Y-46452061D01*
X153171292Y-46539687D01*
X153171294Y-46539688D01*
X153171296Y-46539689D01*
X153225733Y-46559993D01*
X153308295Y-46590788D01*
X153308303Y-46590790D01*
X153368850Y-46597299D01*
X153368855Y-46597299D01*
X153368862Y-46597300D01*
X153368868Y-46597300D01*
X155371132Y-46597300D01*
X155371138Y-46597300D01*
X155371145Y-46597299D01*
X155371149Y-46597299D01*
X155431696Y-46590790D01*
X155431699Y-46590789D01*
X155431701Y-46590789D01*
X155568704Y-46539689D01*
X155685761Y-46452061D01*
X155773389Y-46335004D01*
X155779768Y-46317899D01*
X155822311Y-46261066D01*
X155888830Y-46236253D01*
X155958205Y-46251343D01*
X155971884Y-46259996D01*
X156144527Y-46385428D01*
X156349361Y-46489796D01*
X156349367Y-46489799D01*
X156567993Y-46560835D01*
X156656000Y-46574774D01*
X156656000Y-45577238D01*
X156697708Y-45601318D01*
X156837591Y-45638800D01*
X156982409Y-45638800D01*
X157122292Y-45601318D01*
X157164000Y-45577238D01*
X157164000Y-46574774D01*
X157252006Y-46560835D01*
X157470632Y-46489799D01*
X157470638Y-46489796D01*
X157675472Y-46385428D01*
X157861454Y-46250304D01*
X157861457Y-46250302D01*
X158024002Y-46087757D01*
X158077753Y-46013775D01*
X158133975Y-45970421D01*
X158204711Y-45964344D01*
X158267503Y-45997476D01*
X158281626Y-46013774D01*
X158335611Y-46088078D01*
X158335613Y-46088080D01*
X158335615Y-46088083D01*
X158498216Y-46250684D01*
X158498219Y-46250686D01*
X158498222Y-46250689D01*
X158684269Y-46385860D01*
X158889171Y-46490262D01*
X159107882Y-46561326D01*
X159335017Y-46597300D01*
X159335019Y-46597300D01*
X159564981Y-46597300D01*
X159564983Y-46597300D01*
X159792118Y-46561326D01*
X160010829Y-46490262D01*
X160215731Y-46385860D01*
X160401778Y-46250689D01*
X160564389Y-46088078D01*
X160699560Y-45902031D01*
X160803962Y-45697129D01*
X160875026Y-45478418D01*
X160911000Y-45251283D01*
X160911000Y-44926317D01*
X160875026Y-44699182D01*
X160803962Y-44480471D01*
X160699560Y-44275569D01*
X160569350Y-44096350D01*
X169299000Y-44096350D01*
X169299000Y-46193649D01*
X169305509Y-46254196D01*
X169305511Y-46254204D01*
X169356610Y-46391202D01*
X169356612Y-46391207D01*
X169444238Y-46508261D01*
X169561292Y-46595887D01*
X169561294Y-46595888D01*
X169561296Y-46595889D01*
X169617990Y-46617035D01*
X169698295Y-46646988D01*
X169698303Y-46646990D01*
X169758850Y-46653499D01*
X169758855Y-46653499D01*
X169758862Y-46653500D01*
X169758868Y-46653500D01*
X171761132Y-46653500D01*
X171761138Y-46653500D01*
X171761145Y-46653499D01*
X171761149Y-46653499D01*
X171821696Y-46646990D01*
X171821699Y-46646989D01*
X171821701Y-46646989D01*
X171958704Y-46595889D01*
X171959776Y-46595087D01*
X172075761Y-46508261D01*
X172089238Y-46490258D01*
X172163389Y-46391204D01*
X172169768Y-46374099D01*
X172212311Y-46317266D01*
X172278830Y-46292453D01*
X172348205Y-46307543D01*
X172361884Y-46316196D01*
X172534527Y-46441628D01*
X172739361Y-46545996D01*
X172739367Y-46545999D01*
X172957993Y-46617035D01*
X173046000Y-46630974D01*
X173046000Y-45633438D01*
X173087708Y-45657518D01*
X173227591Y-45695000D01*
X173372409Y-45695000D01*
X173512292Y-45657518D01*
X173554000Y-45633438D01*
X173554000Y-46630974D01*
X173642006Y-46617035D01*
X173860632Y-46545999D01*
X173860638Y-46545996D01*
X174065472Y-46441628D01*
X174251454Y-46306504D01*
X174251457Y-46306502D01*
X174414002Y-46143957D01*
X174467753Y-46069975D01*
X174523975Y-46026621D01*
X174594711Y-46020544D01*
X174657503Y-46053676D01*
X174671626Y-46069974D01*
X174725611Y-46144278D01*
X174725613Y-46144280D01*
X174725615Y-46144283D01*
X174888216Y-46306884D01*
X174888219Y-46306886D01*
X174888222Y-46306889D01*
X175074269Y-46442060D01*
X175279171Y-46546462D01*
X175497882Y-46617526D01*
X175725017Y-46653500D01*
X175725019Y-46653500D01*
X175954981Y-46653500D01*
X175954983Y-46653500D01*
X176182118Y-46617526D01*
X176400829Y-46546462D01*
X176605731Y-46442060D01*
X176791778Y-46306889D01*
X176954389Y-46144278D01*
X177089560Y-45958231D01*
X177193962Y-45753329D01*
X177265026Y-45534618D01*
X177301000Y-45307483D01*
X177301000Y-44982517D01*
X177265026Y-44755382D01*
X177193962Y-44536671D01*
X177089560Y-44331769D01*
X176954389Y-44145722D01*
X176954386Y-44145719D01*
X176954384Y-44145716D01*
X176791783Y-43983115D01*
X176791780Y-43983113D01*
X176791778Y-43983111D01*
X176605731Y-43847940D01*
X176564634Y-43827000D01*
X176400836Y-43743541D01*
X176400832Y-43743539D01*
X176400829Y-43743538D01*
X176291473Y-43708006D01*
X176182120Y-43672474D01*
X176068550Y-43654487D01*
X175954983Y-43636500D01*
X175725017Y-43636500D01*
X175634163Y-43650889D01*
X175497879Y-43672474D01*
X175334569Y-43725538D01*
X175279171Y-43743538D01*
X175279169Y-43743538D01*
X175279163Y-43743541D01*
X175074268Y-43847940D01*
X174888219Y-43983113D01*
X174888216Y-43983115D01*
X174725616Y-44145715D01*
X174671626Y-44220026D01*
X174615403Y-44263379D01*
X174544667Y-44269454D01*
X174481875Y-44236322D01*
X174467754Y-44220025D01*
X174414004Y-44146045D01*
X174414002Y-44146042D01*
X174251457Y-43983497D01*
X174251454Y-43983495D01*
X174065472Y-43848371D01*
X173860638Y-43744003D01*
X173860632Y-43744000D01*
X173642000Y-43672962D01*
X173554000Y-43659023D01*
X173554000Y-44656561D01*
X173512292Y-44632482D01*
X173372409Y-44595000D01*
X173227591Y-44595000D01*
X173087708Y-44632482D01*
X173046000Y-44656561D01*
X173046000Y-43659023D01*
X172957999Y-43672962D01*
X172739367Y-43744000D01*
X172739361Y-43744003D01*
X172534524Y-43848372D01*
X172361883Y-43973803D01*
X172295016Y-43997662D01*
X172225864Y-43981581D01*
X172176384Y-43930667D01*
X172169767Y-43915897D01*
X172163389Y-43898796D01*
X172163387Y-43898792D01*
X172075761Y-43781738D01*
X171958707Y-43694112D01*
X171958702Y-43694110D01*
X171821704Y-43643011D01*
X171821696Y-43643009D01*
X171761149Y-43636500D01*
X171761138Y-43636500D01*
X169758862Y-43636500D01*
X169758850Y-43636500D01*
X169698303Y-43643009D01*
X169698295Y-43643011D01*
X169561297Y-43694110D01*
X169561292Y-43694112D01*
X169444238Y-43781738D01*
X169356612Y-43898792D01*
X169356610Y-43898797D01*
X169305511Y-44035795D01*
X169305509Y-44035803D01*
X169299000Y-44096350D01*
X160569350Y-44096350D01*
X160564389Y-44089522D01*
X160564386Y-44089519D01*
X160564384Y-44089516D01*
X160401783Y-43926915D01*
X160401780Y-43926913D01*
X160401778Y-43926911D01*
X160215731Y-43791740D01*
X160181320Y-43774207D01*
X160010836Y-43687341D01*
X160010832Y-43687339D01*
X160010829Y-43687338D01*
X159901473Y-43651806D01*
X159792120Y-43616274D01*
X159678550Y-43598287D01*
X159564983Y-43580300D01*
X159335017Y-43580300D01*
X159244163Y-43594689D01*
X159107879Y-43616274D01*
X158943848Y-43669572D01*
X158889171Y-43687338D01*
X158889169Y-43687338D01*
X158889163Y-43687341D01*
X158684268Y-43791740D01*
X158498219Y-43926913D01*
X158498216Y-43926915D01*
X158335616Y-44089515D01*
X158281626Y-44163826D01*
X158225403Y-44207179D01*
X158154667Y-44213254D01*
X158091875Y-44180122D01*
X158077754Y-44163825D01*
X158024004Y-44089845D01*
X158024002Y-44089842D01*
X157861457Y-43927297D01*
X157861454Y-43927295D01*
X157675472Y-43792171D01*
X157470638Y-43687803D01*
X157470632Y-43687800D01*
X157252000Y-43616762D01*
X157164000Y-43602823D01*
X157164000Y-44600361D01*
X157122292Y-44576282D01*
X156982409Y-44538800D01*
X156837591Y-44538800D01*
X156697708Y-44576282D01*
X156656000Y-44600361D01*
X156656000Y-43602823D01*
X156567999Y-43616762D01*
X156349367Y-43687800D01*
X156349361Y-43687803D01*
X156144524Y-43792172D01*
X155971883Y-43917603D01*
X155905016Y-43941462D01*
X155835864Y-43925381D01*
X155786384Y-43874467D01*
X155779767Y-43859697D01*
X155773389Y-43842596D01*
X155773387Y-43842592D01*
X155685761Y-43725538D01*
X155568707Y-43637912D01*
X155568702Y-43637910D01*
X155431704Y-43586811D01*
X155431696Y-43586809D01*
X155371149Y-43580300D01*
X155371138Y-43580300D01*
X153368862Y-43580300D01*
X153368850Y-43580300D01*
X153308303Y-43586809D01*
X153308295Y-43586811D01*
X153171297Y-43637910D01*
X153171292Y-43637912D01*
X153054238Y-43725538D01*
X152966612Y-43842592D01*
X152966610Y-43842597D01*
X152915511Y-43979595D01*
X152915509Y-43979603D01*
X152909000Y-44040150D01*
X67959850Y-44040150D01*
X67978498Y-43827000D01*
X67958543Y-43598913D01*
X67899284Y-43377757D01*
X67802523Y-43170251D01*
X67671198Y-42982700D01*
X67509300Y-42820802D01*
X67389137Y-42736663D01*
X67321749Y-42689477D01*
X67114246Y-42592717D01*
X67114240Y-42592715D01*
X67020771Y-42567670D01*
X66893087Y-42533457D01*
X66665000Y-42513502D01*
X66436913Y-42533457D01*
X66215759Y-42592715D01*
X66215753Y-42592717D01*
X66008250Y-42689477D01*
X65820703Y-42820799D01*
X65820697Y-42820804D01*
X65658804Y-42982697D01*
X65658799Y-42982703D01*
X65527477Y-43170250D01*
X65430717Y-43377753D01*
X65430716Y-43377757D01*
X65371457Y-43598913D01*
X65351502Y-43827000D01*
X52733500Y-43827000D01*
X52733500Y-42978367D01*
X52733499Y-42978350D01*
X52726990Y-42917803D01*
X52726988Y-42917795D01*
X52690811Y-42820804D01*
X52675889Y-42780796D01*
X52675888Y-42780794D01*
X52675887Y-42780792D01*
X52588261Y-42663738D01*
X52471207Y-42576112D01*
X52471202Y-42576110D01*
X52334204Y-42525011D01*
X52334196Y-42525009D01*
X52273649Y-42518500D01*
X52273638Y-42518500D01*
X50576362Y-42518500D01*
X50576350Y-42518500D01*
X50515803Y-42525009D01*
X50515795Y-42525011D01*
X50378797Y-42576110D01*
X50378792Y-42576112D01*
X50261738Y-42663738D01*
X50174112Y-42780792D01*
X50174110Y-42780797D01*
X50123011Y-42917795D01*
X50123009Y-42917803D01*
X50116500Y-42978350D01*
X50116500Y-44675649D01*
X50123009Y-44736196D01*
X50123011Y-44736204D01*
X50174110Y-44873202D01*
X50174112Y-44873207D01*
X50261738Y-44990261D01*
X50378792Y-45077887D01*
X50378794Y-45077888D01*
X50378796Y-45077889D01*
X50515799Y-45128989D01*
X50525191Y-45129998D01*
X50590784Y-45157163D01*
X50631279Y-45215479D01*
X50633817Y-45286430D01*
X50597593Y-45347490D01*
X50584010Y-45358483D01*
X50580708Y-45360795D01*
X50580697Y-45360804D01*
X50418804Y-45522697D01*
X50418799Y-45522703D01*
X50287477Y-45710250D01*
X50190717Y-45917753D01*
X50190715Y-45917759D01*
X50169355Y-45997476D01*
X50131457Y-46138913D01*
X50111502Y-46367000D01*
X43846683Y-46367000D01*
X44053809Y-46208066D01*
X44382696Y-45906696D01*
X44684066Y-45577809D01*
X44955625Y-45223907D01*
X44990574Y-45169049D01*
X45195299Y-44847695D01*
X45195299Y-44847694D01*
X45195306Y-44847684D01*
X45401284Y-44452002D01*
X45571993Y-44039875D01*
X45706133Y-43614437D01*
X45802683Y-43178927D01*
X45860909Y-42736659D01*
X45880367Y-42291000D01*
X45860909Y-41845341D01*
X45812725Y-41479350D01*
X76223500Y-41479350D01*
X76223500Y-43576649D01*
X76230009Y-43637196D01*
X76230011Y-43637204D01*
X76281110Y-43774202D01*
X76281112Y-43774207D01*
X76368738Y-43891261D01*
X76485792Y-43978887D01*
X76485794Y-43978888D01*
X76485796Y-43978889D01*
X76536128Y-43997662D01*
X76622795Y-44029988D01*
X76622803Y-44029990D01*
X76683350Y-44036499D01*
X76683355Y-44036499D01*
X76683362Y-44036500D01*
X76683368Y-44036500D01*
X79780632Y-44036500D01*
X79780638Y-44036500D01*
X79780645Y-44036499D01*
X79780649Y-44036499D01*
X79841196Y-44029990D01*
X79841199Y-44029989D01*
X79841201Y-44029989D01*
X79978204Y-43978889D01*
X80028201Y-43941462D01*
X80095261Y-43891261D01*
X80182887Y-43774207D01*
X80182887Y-43774206D01*
X80182889Y-43774204D01*
X80233989Y-43637201D01*
X80234065Y-43636500D01*
X80240499Y-43576649D01*
X80240500Y-43576632D01*
X80240500Y-42417998D01*
X191584233Y-42417998D01*
X191584233Y-42418001D01*
X191603691Y-42863660D01*
X191603691Y-42863663D01*
X191661916Y-43305922D01*
X191661918Y-43305932D01*
X191758463Y-43741422D01*
X191758472Y-43741456D01*
X191892600Y-44166855D01*
X191892608Y-44166877D01*
X192063312Y-44578994D01*
X192063315Y-44579000D01*
X192063316Y-44579002D01*
X192250102Y-44937817D01*
X192269297Y-44974689D01*
X192269300Y-44974695D01*
X192508972Y-45350904D01*
X192508977Y-45350910D01*
X192780518Y-45704789D01*
X192780525Y-45704797D01*
X192780534Y-45704809D01*
X193081904Y-46033696D01*
X193410791Y-46335066D01*
X193410804Y-46335076D01*
X193410810Y-46335081D01*
X193764689Y-46606622D01*
X193764695Y-46606627D01*
X194140904Y-46846299D01*
X194140908Y-46846301D01*
X194140916Y-46846306D01*
X194536598Y-47052284D01*
X194948725Y-47222993D01*
X194948743Y-47222998D01*
X194948744Y-47222999D01*
X195374143Y-47357127D01*
X195374149Y-47357128D01*
X195374163Y-47357133D01*
X195809673Y-47453683D01*
X196251941Y-47511909D01*
X196675208Y-47530389D01*
X196697599Y-47531367D01*
X196697600Y-47531367D01*
X196697601Y-47531367D01*
X196717059Y-47530517D01*
X197143259Y-47511909D01*
X197585527Y-47453683D01*
X198021037Y-47357133D01*
X198446475Y-47222993D01*
X198858602Y-47052284D01*
X199254284Y-46846306D01*
X199301748Y-46816068D01*
X199630504Y-46606627D01*
X199630504Y-46606626D01*
X199630507Y-46606625D01*
X199984409Y-46335066D01*
X200313296Y-46033696D01*
X200614666Y-45704809D01*
X200886225Y-45350907D01*
X200927302Y-45286430D01*
X201125899Y-44974695D01*
X201125899Y-44974694D01*
X201125906Y-44974684D01*
X201331884Y-44579002D01*
X201502593Y-44166875D01*
X201636733Y-43741437D01*
X201733283Y-43305927D01*
X201791509Y-42863659D01*
X201810967Y-42418000D01*
X201791509Y-41972341D01*
X201733283Y-41530073D01*
X201636733Y-41094563D01*
X201631230Y-41077111D01*
X201502599Y-40669144D01*
X201502598Y-40669143D01*
X201502593Y-40669125D01*
X201331884Y-40256998D01*
X201331881Y-40256990D01*
X201125913Y-39861329D01*
X201125899Y-39861305D01*
X200886227Y-39485095D01*
X200886222Y-39485089D01*
X200614681Y-39131210D01*
X200614676Y-39131204D01*
X200614666Y-39131191D01*
X200313296Y-38802304D01*
X199984409Y-38500934D01*
X199984397Y-38500925D01*
X199984389Y-38500918D01*
X199630510Y-38229377D01*
X199630504Y-38229372D01*
X199254295Y-37989700D01*
X199254289Y-37989697D01*
X199254287Y-37989696D01*
X199254284Y-37989694D01*
X198858602Y-37783716D01*
X198858600Y-37783715D01*
X198858594Y-37783712D01*
X198446477Y-37613008D01*
X198446475Y-37613007D01*
X198446469Y-37613005D01*
X198446455Y-37613000D01*
X198021056Y-37478872D01*
X198021022Y-37478863D01*
X197585532Y-37382318D01*
X197585522Y-37382316D01*
X197143262Y-37324091D01*
X196697601Y-37304633D01*
X196697599Y-37304633D01*
X196251939Y-37324091D01*
X196251936Y-37324091D01*
X195809677Y-37382316D01*
X195809667Y-37382318D01*
X195374177Y-37478863D01*
X195374143Y-37478872D01*
X194948744Y-37613000D01*
X194948722Y-37613008D01*
X194536590Y-37783718D01*
X194140929Y-37989686D01*
X194140905Y-37989700D01*
X193764695Y-38229372D01*
X193764689Y-38229377D01*
X193410810Y-38500918D01*
X193410784Y-38500940D01*
X193081904Y-38802304D01*
X192780540Y-39131184D01*
X192780518Y-39131210D01*
X192508977Y-39485089D01*
X192508972Y-39485095D01*
X192269300Y-39861305D01*
X192269286Y-39861329D01*
X192063318Y-40256990D01*
X191892608Y-40669122D01*
X191892600Y-40669144D01*
X191758472Y-41094543D01*
X191758463Y-41094577D01*
X191661918Y-41530067D01*
X191661916Y-41530077D01*
X191603691Y-41972336D01*
X191603691Y-41972339D01*
X191584233Y-42417998D01*
X80240500Y-42417998D01*
X80240500Y-41479367D01*
X80240499Y-41479350D01*
X80233990Y-41418803D01*
X80233988Y-41418795D01*
X80182889Y-41281797D01*
X80182887Y-41281792D01*
X80095261Y-41164738D01*
X79978207Y-41077112D01*
X79978202Y-41077110D01*
X79841204Y-41026011D01*
X79841196Y-41026009D01*
X79780649Y-41019500D01*
X79780638Y-41019500D01*
X76683362Y-41019500D01*
X76683350Y-41019500D01*
X76622803Y-41026009D01*
X76622795Y-41026011D01*
X76485797Y-41077110D01*
X76485792Y-41077112D01*
X76368738Y-41164738D01*
X76281112Y-41281792D01*
X76281110Y-41281797D01*
X76230011Y-41418795D01*
X76230009Y-41418803D01*
X76223500Y-41479350D01*
X45812725Y-41479350D01*
X45802683Y-41403073D01*
X45706133Y-40967563D01*
X45571993Y-40542125D01*
X45401284Y-40129998D01*
X45401281Y-40129990D01*
X45195313Y-39734329D01*
X45195299Y-39734305D01*
X44955627Y-39358095D01*
X44955622Y-39358089D01*
X44684081Y-39004210D01*
X44684076Y-39004204D01*
X44684066Y-39004191D01*
X44382696Y-38675304D01*
X44053809Y-38373934D01*
X44053797Y-38373925D01*
X44053789Y-38373918D01*
X43699910Y-38102377D01*
X43699904Y-38102372D01*
X43323695Y-37862700D01*
X43323689Y-37862697D01*
X43323687Y-37862696D01*
X43323684Y-37862694D01*
X42928002Y-37656716D01*
X42928000Y-37656715D01*
X42927994Y-37656712D01*
X42515877Y-37486008D01*
X42515875Y-37486007D01*
X42515869Y-37486005D01*
X42515855Y-37486000D01*
X42090456Y-37351872D01*
X42090422Y-37351863D01*
X41654932Y-37255318D01*
X41654922Y-37255316D01*
X41212662Y-37197091D01*
X40767001Y-37177633D01*
X40766999Y-37177633D01*
X40321339Y-37197091D01*
X40321336Y-37197091D01*
X39879077Y-37255316D01*
X39879067Y-37255318D01*
X39443577Y-37351863D01*
X39443543Y-37351872D01*
X39018144Y-37486000D01*
X39018122Y-37486008D01*
X38605990Y-37656718D01*
X38210329Y-37862686D01*
X38210305Y-37862700D01*
X37834095Y-38102372D01*
X37834089Y-38102377D01*
X37480210Y-38373918D01*
X37480184Y-38373940D01*
X37151304Y-38675304D01*
X36849940Y-39004184D01*
X36849918Y-39004210D01*
X36578377Y-39358089D01*
X36578372Y-39358095D01*
X36338700Y-39734305D01*
X36338686Y-39734329D01*
X36132718Y-40129990D01*
X35962008Y-40542122D01*
X35962000Y-40542144D01*
X35827872Y-40967543D01*
X35827863Y-40967577D01*
X35731318Y-41403067D01*
X35731316Y-41403077D01*
X35673091Y-41845336D01*
X35673091Y-41845339D01*
X35653633Y-42290998D01*
X35044291Y-42290998D01*
X35051930Y-38138020D01*
X35072058Y-38069937D01*
X35073050Y-38068424D01*
X36030691Y-36631962D01*
X36085119Y-36586379D01*
X36135255Y-36575856D01*
X202861420Y-36220526D01*
X202929584Y-36240383D01*
G37*
%TD.AperFunction*%
%TD*%
M02*
