M48
; DRILL file {KiCad 8.0.6} date 2025-04-01T16:25:00-0600
; FORMAT={-:-/ absolute / inch / decimal}
; #@! TF.CreationDate,2025-04-01T16:25:00-06:00
; #@! TF.GenerationSoftware,Kicad,Pcbnew,8.0.6
; #@! TF.FileFunction,Plated,1,2,PTH
FMAT,2
INCH
; #@! TA.AperFunction,Plated,PTH,ViaDrill
T1C0.0157
; #@! TA.AperFunction,Plated,PTH,ViaDrill
T2C0.0197
; #@! TA.AperFunction,Plated,PTH,ComponentDrill
T3C0.0197
; #@! TA.AperFunction,Plated,PTH,ViaDrill
T4C0.0236
; #@! TA.AperFunction,Plated,PTH,ComponentDrill
T5C0.0315
; #@! TA.AperFunction,Plated,PTH,ComponentDrill
T6C0.0394
; #@! TA.AperFunction,Plated,PTH,ComponentDrill
T7C0.0433
; #@! TA.AperFunction,Plated,PTH,ComponentDrill
T8C0.0472
; #@! TA.AperFunction,Plated,PTH,ComponentDrill
T9C0.0512
; #@! TA.AperFunction,Plated,PTH,ComponentDrill
T10C0.0787
; #@! TA.AperFunction,Plated,PTH,ComponentDrill
T11C0.0984
; #@! TA.AperFunction,Plated,PTH,ComponentDrill
T12C0.1181
; #@! TA.AperFunction,Plated,PTH,ComponentDrill
T13C0.2087
%
G90
G05
T1
X1.422Y-2.404
X1.5432Y-3.911
X1.6398Y-3.0374
X1.742Y-3.7023
X1.744Y-4.155
X1.9408Y-3.909
X1.9587Y-1.7165
X2.063Y-4.422
X2.128Y-1.7165
X2.1358Y-2.6555
X2.448Y-2.255
X2.4685Y-2.5433
X2.4843Y-1.6752
X2.6693Y-2.5098
X2.6752Y-1.6752
X2.687Y-2.685
X2.77Y-4.713
X2.7736Y-2.1693
X2.8602Y-2.5433
X2.8819Y-1.4547
X2.8957Y-2.4154
X2.9154Y-2.6791
X2.9409Y-2.1693
X3.085Y-2.229
X3.1417Y-2.4213
X3.206Y-2.513
X3.2677Y-1.811
X3.3287Y-2.3071
X3.474Y-4.429
X3.502Y-3.3976
X3.8521Y-2.0998
X3.8996Y-4.5276
X3.9121Y-1.5998
X3.926Y-3.542
X3.966Y-3.45
X4.033Y-3.885
X4.033Y-4.39
X4.138Y-3.364
X4.2402Y-2.3957
X4.4721Y-1.5998
X4.5335Y-2.7933
X4.573Y-4.39
X4.575Y-3.885
X4.6796Y-3.3654
X4.7521Y-1.5998
X5.05Y-2.061
X5.082Y-3.885
X5.084Y-4.389
X5.189Y-3.37
X5.211Y-2.655
X5.3085Y-1.6222
X5.3661Y-1.4547
X5.4016Y-3.0059
X5.5236Y-4.7461
X5.591Y-3.887
X5.5937Y-4.3863
X5.695Y-3.37
X5.7894Y-1.9291
X6.133Y-4.394
X6.134Y-3.887
X6.175Y-3.286
X6.4744Y-1.8189
X6.513Y-3.044
X6.5317Y-3.4413
X6.6417Y-2.7933
X6.66Y-4.746
X7.0237Y-3.4413
X7.047Y-4.741
X7.062Y-3.009
X7.092Y-4.055
X7.101Y-4.351
X7.4272Y-1.4488
X7.4705Y-4.7461
X7.478Y-4.41
X7.9291Y-3.1181
X7.9508Y-4.2697
T2
X6.3012Y-2.1043
X6.3012Y-2.6909
X6.8386Y-1.7717
X6.8386Y-2.4606
X7.9016Y-2.2283
T4
X7.15Y-3.866
T5
X2.218Y-3.042
X2.618Y-3.042
X2.827Y-3.2088
X2.827Y-3.6088
T6
X2.1727Y-2.072
X2.2711Y-2.072
X2.3696Y-2.072
X2.751Y-2.07
X2.8494Y-2.07
X2.9478Y-2.07
X4.25Y-2.5336
X4.25Y-3.1336
X4.35Y-2.5336
X4.35Y-3.1336
X4.45Y-2.5336
X4.45Y-3.1336
X4.55Y-2.5336
X4.55Y-3.1336
X4.65Y-2.5336
X4.65Y-3.1336
X4.75Y-2.5336
X4.75Y-3.1336
X4.85Y-2.5336
X4.85Y-3.1336
X4.95Y-2.5336
X4.95Y-3.1336
X5.05Y-2.5336
X5.05Y-3.1336
X5.15Y-2.5336
X5.15Y-3.1336
X5.25Y-2.5336
X5.25Y-3.1336
X5.35Y-2.5336
X5.35Y-3.1336
X5.45Y-2.5336
X5.45Y-3.1336
X5.55Y-2.5336
X5.55Y-3.1336
X5.65Y-2.5336
X5.65Y-3.1336
T7
X3.7521Y-2.1998
X3.8521Y-2.1998
X3.9521Y-2.1998
X6.951Y-1.6717
X6.951Y-1.7717
X6.951Y-1.8717
X6.951Y-2.3606
X6.951Y-2.4606
X6.951Y-2.5606
T8
X2.2043Y-1.805
X2.4293Y-1.805
X2.7852Y-1.81
X2.9702Y-1.815
T9
X1.743Y-3.908
X2.2177Y-3.9057
X2.823Y-4.424
X2.827Y-3.897
X3.26Y-4.424
X3.263Y-3.896
X4.309Y-4.521
X4.832Y-4.521
X5.331Y-4.521
X5.873Y-4.521
X6.481Y-4.521
X6.84Y-4.521
T10
X6.786Y-3.082
X6.786Y-3.556
X7.866Y-3.669
T11
X7.27Y-4.595
T12
X7.558Y-3.487
T13
X1.583Y-4.608
X1.602Y-1.608
X7.789Y-4.611
X7.803Y-1.61
T3
G00X3.3246Y-1.5742
M15
G01X3.3797Y-1.5742
M16
G05
G00X3.3246Y-1.7198
M15
G01X3.3797Y-1.7198
M16
G05
G00X3.3246Y-1.8891
M15
G01X3.3797Y-1.8891
M16
G05
G00X3.3246Y-2.0348
M15
G01X3.3797Y-2.0348
M16
G05
G00X7.2559Y-3.9843
M15
G01X7.2559Y-3.9291
M16
G05
G00X7.4016Y-3.9843
M15
G01X7.4016Y-3.9291
M16
G05
G00X7.5709Y-3.9843
M15
G01X7.5709Y-3.9291
M16
G05
G00X7.7165Y-3.9843
M15
G01X7.7165Y-3.9291
M16
G05
M30
