%TF.GenerationSoftware,KiCad,Pcbnew,8.0.6*%
%TF.CreationDate,2025-04-01T16:25:00-06:00*%
%TF.ProjectId,SRX160,53525831-3630-42e6-9b69-6361645f7063,rev?*%
%TF.SameCoordinates,Original*%
%TF.FileFunction,Soldermask,Top*%
%TF.FilePolarity,Negative*%
%FSLAX46Y46*%
G04 Gerber Fmt 4.6, Leading zero omitted, Abs format (unit mm)*
G04 Created by KiCad (PCBNEW 8.0.6) date 2025-04-01 16:25:00*
%MOMM*%
%LPD*%
G01*
G04 APERTURE LIST*
G04 Aperture macros list*
%AMRoundRect*
0 Rectangle with rounded corners*
0 $1 Rounding radius*
0 $2 $3 $4 $5 $6 $7 $8 $9 X,Y pos of 4 corners*
0 Add a 4 corners polygon primitive as box body*
4,1,4,$2,$3,$4,$5,$6,$7,$8,$9,$2,$3,0*
0 Add four circle primitives for the rounded corners*
1,1,$1+$1,$2,$3*
1,1,$1+$1,$4,$5*
1,1,$1+$1,$6,$7*
1,1,$1+$1,$8,$9*
0 Add four rect primitives between the rounded corners*
20,1,$1+$1,$2,$3,$4,$5,0*
20,1,$1+$1,$4,$5,$6,$7,0*
20,1,$1+$1,$6,$7,$8,$9,0*
20,1,$1+$1,$8,$9,$2,$3,0*%
G04 Aperture macros list end*
%ADD10R,2.000000X1.905000*%
%ADD11O,2.000000X1.905000*%
%ADD12C,5.000000*%
%ADD13RoundRect,0.250000X1.950000X1.000000X-1.950000X1.000000X-1.950000X-1.000000X1.950000X-1.000000X0*%
%ADD14C,9.200000*%
%ADD15R,0.558800X1.460500*%
%ADD16R,3.403600X2.717800*%
%ADD17C,2.000000*%
%ADD18RoundRect,0.200000X0.275000X-0.200000X0.275000X0.200000X-0.275000X0.200000X-0.275000X-0.200000X0*%
%ADD19RoundRect,0.175000X0.175000X0.175000X-0.175000X0.175000X-0.175000X-0.175000X0.175000X-0.175000X0*%
%ADD20RoundRect,0.200000X-0.200000X-0.275000X0.200000X-0.275000X0.200000X0.275000X-0.200000X0.275000X0*%
%ADD21R,5.400000X2.900000*%
%ADD22C,1.600000*%
%ADD23O,1.600000X1.600000*%
%ADD24RoundRect,0.225000X-0.250000X0.225000X-0.250000X-0.225000X0.250000X-0.225000X0.250000X0.225000X0*%
%ADD25R,1.500000X0.650000*%
%ADD26RoundRect,0.225000X0.250000X-0.225000X0.250000X0.225000X-0.250000X0.225000X-0.250000X-0.225000X0*%
%ADD27RoundRect,0.218750X0.218750X0.256250X-0.218750X0.256250X-0.218750X-0.256250X0.218750X-0.256250X0*%
%ADD28C,9.000000*%
%ADD29RoundRect,0.250000X-0.550000X1.500000X-0.550000X-1.500000X0.550000X-1.500000X0.550000X1.500000X0*%
%ADD30R,1.600000X1.600000*%
%ADD31C,2.500000*%
%ADD32RoundRect,0.218750X0.256250X-0.218750X0.256250X0.218750X-0.256250X0.218750X-0.256250X-0.218750X0*%
%ADD33RoundRect,0.218750X-0.218750X-0.256250X0.218750X-0.256250X0.218750X0.256250X-0.218750X0.256250X0*%
%ADD34RoundRect,0.200000X0.200000X0.275000X-0.200000X0.275000X-0.200000X-0.275000X0.200000X-0.275000X0*%
%ADD35RoundRect,0.225000X0.225000X0.250000X-0.225000X0.250000X-0.225000X-0.250000X0.225000X-0.250000X0*%
%ADD36R,1.905000X2.000000*%
%ADD37O,1.905000X2.000000*%
%ADD38RoundRect,0.250000X1.000000X-1.950000X1.000000X1.950000X-1.000000X1.950000X-1.000000X-1.950000X0*%
%ADD39R,3.000000X2.000000*%
%ADD40O,3.000000X2.000000*%
%ADD41RoundRect,0.175000X-0.175000X-0.175000X0.175000X-0.175000X0.175000X0.175000X-0.175000X0.175000X0*%
%ADD42RoundRect,0.250000X-1.950000X-1.000000X1.950000X-1.000000X1.950000X1.000000X-1.950000X1.000000X0*%
%ADD43RoundRect,0.250000X0.550000X-1.500000X0.550000X1.500000X-0.550000X1.500000X-0.550000X-1.500000X0*%
%ADD44RoundRect,0.250000X-1.000000X-0.650000X1.000000X-0.650000X1.000000X0.650000X-1.000000X0.650000X0*%
%ADD45R,2.900000X5.400000*%
%ADD46RoundRect,0.250000X-0.650000X1.000000X-0.650000X-1.000000X0.650000X-1.000000X0.650000X1.000000X0*%
%ADD47RoundRect,0.225000X-0.225000X-0.250000X0.225000X-0.250000X0.225000X0.250000X-0.225000X0.250000X0*%
%ADD48RoundRect,0.250000X0.250000X0.475000X-0.250000X0.475000X-0.250000X-0.475000X0.250000X-0.475000X0*%
%ADD49R,2.000000X3.000000*%
%ADD50O,2.000000X3.000000*%
%ADD51RoundRect,0.250000X0.475000X-0.250000X0.475000X0.250000X-0.475000X0.250000X-0.475000X-0.250000X0*%
%ADD52R,0.650000X1.500000*%
G04 APERTURE END LIST*
D10*
%TO.C,U2*%
X176555000Y-59960000D03*
D11*
X176555000Y-62500000D03*
X176555000Y-65040000D03*
%TD*%
D12*
%TO.C,J1*%
X199796400Y-93192600D03*
%TD*%
D13*
%TO.C,C2*%
X168700000Y-50000000D03*
X160300000Y-50000000D03*
%TD*%
D12*
%TO.C,SensorGnd1*%
X44272200Y-99263200D03*
%TD*%
D14*
%TO.C,H2*%
X40690800Y-40843200D03*
%TD*%
D12*
%TO.C,FlowPin1*%
X71805800Y-98983800D03*
%TD*%
D15*
%TO.C,U9*%
X122671400Y-88309450D03*
X121401400Y-88309450D03*
X120131400Y-88309450D03*
X118861400Y-88309450D03*
X118861400Y-93757750D03*
X120131400Y-93757750D03*
X121401400Y-93757750D03*
X122671400Y-93757750D03*
D16*
X120766400Y-91033600D03*
%TD*%
D17*
%TO.C,RV3*%
X55187200Y-52628000D03*
X57687200Y-52628000D03*
X60187200Y-52628000D03*
%TD*%
D18*
%TO.C,R4*%
X53492400Y-87083500D03*
X53492400Y-85433500D03*
%TD*%
D17*
%TO.C,RV4*%
X74875100Y-52578000D03*
X72375100Y-52578000D03*
X69875100Y-52578000D03*
%TD*%
D19*
%TO.C,D10*%
X60132700Y-71331000D03*
X57982700Y-71331000D03*
%TD*%
D20*
%TO.C,R10*%
X185075000Y-106350000D03*
X186725000Y-106350000D03*
%TD*%
D12*
%TO.C,MotorB1*%
X173736000Y-114833400D03*
%TD*%
D21*
%TO.C,L1*%
X193000000Y-77400000D03*
X193000000Y-67500000D03*
%TD*%
D22*
%TO.C,R2*%
X56337200Y-77266800D03*
D23*
X66497200Y-77266800D03*
%TD*%
D14*
%TO.C,H3*%
X40208200Y-117043200D03*
%TD*%
D20*
%TO.C,R8*%
X127013200Y-114960400D03*
X128663200Y-114960400D03*
%TD*%
D18*
%TO.C,R3*%
X184126404Y-71564461D03*
X184126404Y-69914461D03*
%TD*%
D12*
%TO.C,PressureGnd1*%
X82804000Y-112369600D03*
%TD*%
D24*
%TO.C,C14*%
X61874400Y-66763600D03*
X61874400Y-68313600D03*
%TD*%
D25*
%TO.C,U7*%
X76037400Y-65354200D03*
X76037400Y-64084200D03*
X76037400Y-62814200D03*
X76037400Y-61544200D03*
X70637400Y-61544200D03*
X70637400Y-62814200D03*
X70637400Y-64084200D03*
X70637400Y-65354200D03*
%TD*%
D12*
%TO.C,Sec4*%
X149174200Y-114833400D03*
%TD*%
%TO.C,Pressure1*%
X82880200Y-98958400D03*
%TD*%
D26*
%TO.C,C27*%
X116351600Y-94100650D03*
X116351600Y-92550650D03*
%TD*%
D24*
%TO.C,C24*%
X100892000Y-51545000D03*
X100892000Y-53095000D03*
%TD*%
D27*
%TO.C,D18*%
X168135900Y-107670600D03*
X166560900Y-107670600D03*
%TD*%
D28*
%TO.C,J3*%
X172364400Y-78282800D03*
%TD*%
D29*
%TO.C,C9*%
X142081200Y-102197600D03*
X142081200Y-107797600D03*
%TD*%
D14*
%TO.C,H1*%
X198196200Y-40894000D03*
%TD*%
D30*
%TO.C,A1*%
X107950000Y-79593600D03*
D23*
X110490000Y-79593600D03*
X113030000Y-79593600D03*
X115570000Y-79593600D03*
X118110000Y-79593600D03*
X120650000Y-79593600D03*
X123190000Y-79593600D03*
X125730000Y-79593600D03*
X128270000Y-79593600D03*
X130810000Y-79593600D03*
X133350000Y-79593600D03*
X135890000Y-79593600D03*
X138430000Y-79593600D03*
X140970000Y-79593600D03*
X143510000Y-79593600D03*
X143510000Y-64353600D03*
X140970000Y-64353600D03*
X138430000Y-64353600D03*
X135890000Y-64353600D03*
X133350000Y-64353600D03*
X130810000Y-64353600D03*
X128270000Y-64353600D03*
X125730000Y-64353600D03*
X123190000Y-64353600D03*
X120650000Y-64353600D03*
X118110000Y-64353600D03*
X115570000Y-64353600D03*
X113030000Y-64353600D03*
X110490000Y-64353600D03*
X107950000Y-64353600D03*
%TD*%
D26*
%TO.C,C25*%
X129204000Y-93820400D03*
X129204000Y-92270400D03*
%TD*%
D31*
%TO.C,TP6*%
X75443100Y-46101000D03*
%TD*%
D29*
%TO.C,C1*%
X155808200Y-102197600D03*
X155808200Y-107797600D03*
%TD*%
D32*
%TO.C,D5*%
X53467000Y-90805200D03*
X53467000Y-89230200D03*
%TD*%
D28*
%TO.C,J5*%
X191973200Y-88569800D03*
%TD*%
D33*
%TO.C,D16*%
X113969700Y-116738400D03*
X115544700Y-116738400D03*
%TD*%
D19*
%TO.C,D9*%
X63862900Y-71323200D03*
X61712900Y-71323200D03*
%TD*%
D31*
%TO.C,TP8*%
X61704200Y-45847000D03*
%TD*%
D33*
%TO.C,D8*%
X185128400Y-108300000D03*
X186703400Y-108300000D03*
%TD*%
D24*
%TO.C,R9*%
X78417400Y-63830200D03*
X78417400Y-65380200D03*
%TD*%
D31*
%TO.C,TP7*%
X55989200Y-45847000D03*
%TD*%
D34*
%TO.C,R12*%
X177228000Y-109321600D03*
X175578000Y-109321600D03*
%TD*%
D35*
%TO.C,C19*%
X71912400Y-67224200D03*
X70362400Y-67224200D03*
%TD*%
D36*
%TO.C,U5*%
X100384000Y-55876000D03*
D37*
X97844000Y-55876000D03*
X95304000Y-55876000D03*
%TD*%
D20*
%TO.C,R11*%
X113906800Y-115062000D03*
X115556800Y-115062000D03*
%TD*%
D33*
%TO.C,D6*%
X139623700Y-116789200D03*
X141198700Y-116789200D03*
%TD*%
D12*
%TO.C,Sec3*%
X135407400Y-114833400D03*
%TD*%
%TO.C,Sec2*%
X122732800Y-114833400D03*
%TD*%
D14*
%TO.C,H4*%
X197840600Y-117119400D03*
%TD*%
D33*
%TO.C,D4*%
X153568300Y-116814600D03*
X155143300Y-116814600D03*
%TD*%
D38*
%TO.C,C23*%
X96828000Y-48900000D03*
X96828000Y-40500000D03*
%TD*%
D33*
%TO.C,D1*%
X182549600Y-73660000D03*
X184124600Y-73660000D03*
%TD*%
D10*
%TO.C,U3*%
X176555000Y-42460000D03*
D11*
X176555000Y-45000000D03*
X176555000Y-47540000D03*
%TD*%
D13*
%TO.C,C4*%
X168700000Y-65000000D03*
X160300000Y-65000000D03*
%TD*%
D12*
%TO.C,Sec1*%
X109448600Y-114833400D03*
%TD*%
D39*
%TO.C,F2*%
X85144000Y-39984000D03*
D40*
X85144000Y-43684000D03*
X85144000Y-47984000D03*
X85144000Y-51684000D03*
%TD*%
D41*
%TO.C,D12*%
X74726900Y-69621400D03*
X76876900Y-69621400D03*
%TD*%
D42*
%TO.C,C3*%
X188662200Y-56667400D03*
X197062200Y-56667400D03*
%TD*%
D29*
%TO.C,C30*%
X102420400Y-102197600D03*
X102420400Y-107797600D03*
%TD*%
D26*
%TO.C,C28*%
X102717000Y-94076850D03*
X102717000Y-92526850D03*
%TD*%
D38*
%TO.C,C22*%
X110544000Y-48900000D03*
X110544000Y-40500000D03*
%TD*%
D43*
%TO.C,C7*%
X115595400Y-59442000D03*
X115595400Y-53842000D03*
%TD*%
D29*
%TO.C,C26*%
X129057400Y-102197600D03*
X129057400Y-107797600D03*
%TD*%
D31*
%TO.C,TP5*%
X70744100Y-45974000D03*
%TD*%
D28*
%TO.C,J6*%
X172364400Y-90322400D03*
%TD*%
D44*
%TO.C,D2*%
X162500000Y-41000000D03*
X166500000Y-41000000D03*
%TD*%
D20*
%TO.C,R6*%
X153505400Y-115112800D03*
X155155400Y-115112800D03*
%TD*%
D22*
%TO.C,R5*%
X71805800Y-81503800D03*
D23*
X71805800Y-91663800D03*
%TD*%
D29*
%TO.C,C29*%
X116205000Y-102197600D03*
X116205000Y-107797600D03*
%TD*%
D45*
%TO.C,L2*%
X151950000Y-45500000D03*
X142050000Y-45500000D03*
%TD*%
D20*
%TO.C,R7*%
X139560800Y-115087400D03*
X141210800Y-115087400D03*
%TD*%
D41*
%TO.C,D13*%
X78435300Y-69621400D03*
X80585300Y-69621400D03*
%TD*%
D44*
%TO.C,D3*%
X132250000Y-44650000D03*
X136250000Y-44650000D03*
%TD*%
D46*
%TO.C,D11*%
X182000000Y-87500000D03*
X182000000Y-91500000D03*
%TD*%
D15*
%TO.C,U8*%
X135609000Y-88309450D03*
X134339000Y-88309450D03*
X133069000Y-88309450D03*
X131799000Y-88309450D03*
X131799000Y-93757750D03*
X133069000Y-93757750D03*
X134339000Y-93757750D03*
X135609000Y-93757750D03*
D16*
X133704000Y-91033600D03*
%TD*%
D12*
%TO.C,MotorA1*%
X164617400Y-114833400D03*
%TD*%
D44*
%TO.C,D7*%
X186569600Y-47396400D03*
X190569600Y-47396400D03*
%TD*%
D12*
%TO.C,5VSensors1*%
X56329200Y-99204400D03*
%TD*%
D47*
%TO.C,C20*%
X70423400Y-59385200D03*
X71973400Y-59385200D03*
%TD*%
D33*
%TO.C,D15*%
X127076100Y-116713000D03*
X128651100Y-116713000D03*
%TD*%
D38*
%TO.C,C21*%
X124260000Y-48900000D03*
X124260000Y-40500000D03*
%TD*%
D27*
%TO.C,D17*%
X177139800Y-107619800D03*
X175564800Y-107619800D03*
%TD*%
D48*
%TO.C,C18*%
X76291400Y-59385200D03*
X74391400Y-59385200D03*
%TD*%
D28*
%TO.C,J2*%
X184658000Y-116713000D03*
%TD*%
D15*
%TO.C,U1*%
X162331400Y-88309450D03*
X161061400Y-88309450D03*
X159791400Y-88309450D03*
X158521400Y-88309450D03*
X158521400Y-93757750D03*
X159791400Y-93757750D03*
X161061400Y-93757750D03*
X162331400Y-93757750D03*
D16*
X160426400Y-91033600D03*
%TD*%
D49*
%TO.C,F1*%
X184300000Y-100500000D03*
D50*
X188000000Y-100500000D03*
X192300000Y-100500000D03*
X196000000Y-100500000D03*
%TD*%
D35*
%TO.C,C17*%
X56185200Y-70231000D03*
X54635200Y-70231000D03*
%TD*%
D15*
%TO.C,U4*%
X148412200Y-88309450D03*
X147142200Y-88309450D03*
X145872200Y-88309450D03*
X144602200Y-88309450D03*
X144602200Y-93757750D03*
X145872200Y-93757750D03*
X147142200Y-93757750D03*
X148412200Y-93757750D03*
D16*
X146507200Y-91033600D03*
%TD*%
D51*
%TO.C,C13*%
X57710200Y-60391800D03*
X57710200Y-58491800D03*
%TD*%
D15*
%TO.C,U10*%
X108915200Y-88309450D03*
X107645200Y-88309450D03*
X106375200Y-88309450D03*
X105105200Y-88309450D03*
X105105200Y-93757750D03*
X106375200Y-93757750D03*
X107645200Y-93757750D03*
X108915200Y-93757750D03*
D16*
X107010200Y-91033600D03*
%TD*%
D44*
%TO.C,D14*%
X193986400Y-107010200D03*
X197986400Y-107010200D03*
%TD*%
D26*
%TO.C,C8*%
X142189200Y-93840600D03*
X142189200Y-92290600D03*
%TD*%
D24*
%TO.C,R1*%
X60410200Y-58866800D03*
X60410200Y-60416800D03*
%TD*%
%TO.C,C6*%
X121158000Y-59943400D03*
X121158000Y-61493400D03*
%TD*%
D26*
%TO.C,C5*%
X155890800Y-94161600D03*
X155890800Y-92611600D03*
%TD*%
D34*
%TO.C,R13*%
X168160200Y-109347000D03*
X166510200Y-109347000D03*
%TD*%
D12*
%TO.C,FlowGnd1*%
X71704200Y-112369600D03*
%TD*%
D52*
%TO.C,U6*%
X59890200Y-62866800D03*
X58620200Y-62866800D03*
X57350200Y-62866800D03*
X56080200Y-62866800D03*
X56080200Y-68266800D03*
X57350200Y-68266800D03*
X58620200Y-68266800D03*
X59890200Y-68266800D03*
%TD*%
M02*
