%TF.GenerationSoftware,KiCad,Pcbnew,8.0.6*%
%TF.CreationDate,2025-04-01T16:25:00-06:00*%
%TF.ProjectId,SRX160,53525831-3630-42e6-9b69-6361645f7063,rev?*%
%TF.SameCoordinates,Original*%
%TF.FileFunction,Paste,Top*%
%TF.FilePolarity,Positive*%
%FSLAX46Y46*%
G04 Gerber Fmt 4.6, Leading zero omitted, Abs format (unit mm)*
G04 Created by KiCad (PCBNEW 8.0.6) date 2025-04-01 16:25:00*
%MOMM*%
%LPD*%
G01*
G04 APERTURE LIST*
G04 Aperture macros list*
%AMRoundRect*
0 Rectangle with rounded corners*
0 $1 Rounding radius*
0 $2 $3 $4 $5 $6 $7 $8 $9 X,Y pos of 4 corners*
0 Add a 4 corners polygon primitive as box body*
4,1,4,$2,$3,$4,$5,$6,$7,$8,$9,$2,$3,0*
0 Add four circle primitives for the rounded corners*
1,1,$1+$1,$2,$3*
1,1,$1+$1,$4,$5*
1,1,$1+$1,$6,$7*
1,1,$1+$1,$8,$9*
0 Add four rect primitives between the rounded corners*
20,1,$1+$1,$2,$3,$4,$5,0*
20,1,$1+$1,$4,$5,$6,$7,0*
20,1,$1+$1,$6,$7,$8,$9,0*
20,1,$1+$1,$8,$9,$2,$3,0*%
G04 Aperture macros list end*
%ADD10C,0.000000*%
%ADD11RoundRect,0.250000X1.950000X1.000000X-1.950000X1.000000X-1.950000X-1.000000X1.950000X-1.000000X0*%
%ADD12R,0.558800X1.460500*%
%ADD13RoundRect,0.200000X0.275000X-0.200000X0.275000X0.200000X-0.275000X0.200000X-0.275000X-0.200000X0*%
%ADD14RoundRect,0.175000X0.175000X0.175000X-0.175000X0.175000X-0.175000X-0.175000X0.175000X-0.175000X0*%
%ADD15RoundRect,0.200000X-0.200000X-0.275000X0.200000X-0.275000X0.200000X0.275000X-0.200000X0.275000X0*%
%ADD16R,5.400000X2.900000*%
%ADD17RoundRect,0.225000X-0.250000X0.225000X-0.250000X-0.225000X0.250000X-0.225000X0.250000X0.225000X0*%
%ADD18R,1.500000X0.650000*%
%ADD19RoundRect,0.225000X0.250000X-0.225000X0.250000X0.225000X-0.250000X0.225000X-0.250000X-0.225000X0*%
%ADD20RoundRect,0.218750X0.218750X0.256250X-0.218750X0.256250X-0.218750X-0.256250X0.218750X-0.256250X0*%
%ADD21RoundRect,0.250000X-0.550000X1.500000X-0.550000X-1.500000X0.550000X-1.500000X0.550000X1.500000X0*%
%ADD22RoundRect,0.218750X0.256250X-0.218750X0.256250X0.218750X-0.256250X0.218750X-0.256250X-0.218750X0*%
%ADD23RoundRect,0.218750X-0.218750X-0.256250X0.218750X-0.256250X0.218750X0.256250X-0.218750X0.256250X0*%
%ADD24RoundRect,0.200000X0.200000X0.275000X-0.200000X0.275000X-0.200000X-0.275000X0.200000X-0.275000X0*%
%ADD25RoundRect,0.225000X0.225000X0.250000X-0.225000X0.250000X-0.225000X-0.250000X0.225000X-0.250000X0*%
%ADD26RoundRect,0.250000X1.000000X-1.950000X1.000000X1.950000X-1.000000X1.950000X-1.000000X-1.950000X0*%
%ADD27RoundRect,0.175000X-0.175000X-0.175000X0.175000X-0.175000X0.175000X0.175000X-0.175000X0.175000X0*%
%ADD28RoundRect,0.250000X-1.950000X-1.000000X1.950000X-1.000000X1.950000X1.000000X-1.950000X1.000000X0*%
%ADD29RoundRect,0.250000X0.550000X-1.500000X0.550000X1.500000X-0.550000X1.500000X-0.550000X-1.500000X0*%
%ADD30RoundRect,0.250000X-1.000000X-0.650000X1.000000X-0.650000X1.000000X0.650000X-1.000000X0.650000X0*%
%ADD31R,2.900000X5.400000*%
%ADD32RoundRect,0.250000X-0.650000X1.000000X-0.650000X-1.000000X0.650000X-1.000000X0.650000X1.000000X0*%
%ADD33RoundRect,0.225000X-0.225000X-0.250000X0.225000X-0.250000X0.225000X0.250000X-0.225000X0.250000X0*%
%ADD34RoundRect,0.250000X0.250000X0.475000X-0.250000X0.475000X-0.250000X-0.475000X0.250000X-0.475000X0*%
%ADD35RoundRect,0.250000X0.475000X-0.250000X0.475000X0.250000X-0.475000X0.250000X-0.475000X-0.250000X0*%
%ADD36R,0.650000X1.500000*%
G04 APERTURE END LIST*
D10*
%TO.C,U9*%
G36*
X120666400Y-90933600D02*
G01*
X119164600Y-90933600D01*
X119164600Y-89774700D01*
X120666400Y-89774700D01*
X120666400Y-90933600D01*
G37*
G36*
X120666400Y-92292500D02*
G01*
X119164600Y-92292500D01*
X119164600Y-91133600D01*
X120666400Y-91133600D01*
X120666400Y-92292500D01*
G37*
G36*
X122368200Y-90933600D02*
G01*
X120866400Y-90933600D01*
X120866400Y-89774700D01*
X122368200Y-89774700D01*
X122368200Y-90933600D01*
G37*
G36*
X122368200Y-92292500D02*
G01*
X120866400Y-92292500D01*
X120866400Y-91133600D01*
X122368200Y-91133600D01*
X122368200Y-92292500D01*
G37*
%TO.C,U8*%
G36*
X133604000Y-90933600D02*
G01*
X132102200Y-90933600D01*
X132102200Y-89774700D01*
X133604000Y-89774700D01*
X133604000Y-90933600D01*
G37*
G36*
X133604000Y-92292500D02*
G01*
X132102200Y-92292500D01*
X132102200Y-91133600D01*
X133604000Y-91133600D01*
X133604000Y-92292500D01*
G37*
G36*
X135305800Y-90933600D02*
G01*
X133804000Y-90933600D01*
X133804000Y-89774700D01*
X135305800Y-89774700D01*
X135305800Y-90933600D01*
G37*
G36*
X135305800Y-92292500D02*
G01*
X133804000Y-92292500D01*
X133804000Y-91133600D01*
X135305800Y-91133600D01*
X135305800Y-92292500D01*
G37*
%TO.C,U1*%
G36*
X160326400Y-90933600D02*
G01*
X158824600Y-90933600D01*
X158824600Y-89774700D01*
X160326400Y-89774700D01*
X160326400Y-90933600D01*
G37*
G36*
X160326400Y-92292500D02*
G01*
X158824600Y-92292500D01*
X158824600Y-91133600D01*
X160326400Y-91133600D01*
X160326400Y-92292500D01*
G37*
G36*
X162028200Y-90933600D02*
G01*
X160526400Y-90933600D01*
X160526400Y-89774700D01*
X162028200Y-89774700D01*
X162028200Y-90933600D01*
G37*
G36*
X162028200Y-92292500D02*
G01*
X160526400Y-92292500D01*
X160526400Y-91133600D01*
X162028200Y-91133600D01*
X162028200Y-92292500D01*
G37*
%TO.C,U4*%
G36*
X146407200Y-90933600D02*
G01*
X144905400Y-90933600D01*
X144905400Y-89774700D01*
X146407200Y-89774700D01*
X146407200Y-90933600D01*
G37*
G36*
X146407200Y-92292500D02*
G01*
X144905400Y-92292500D01*
X144905400Y-91133600D01*
X146407200Y-91133600D01*
X146407200Y-92292500D01*
G37*
G36*
X148109000Y-90933600D02*
G01*
X146607200Y-90933600D01*
X146607200Y-89774700D01*
X148109000Y-89774700D01*
X148109000Y-90933600D01*
G37*
G36*
X148109000Y-92292500D02*
G01*
X146607200Y-92292500D01*
X146607200Y-91133600D01*
X148109000Y-91133600D01*
X148109000Y-92292500D01*
G37*
%TO.C,U10*%
G36*
X106910200Y-90933600D02*
G01*
X105408400Y-90933600D01*
X105408400Y-89774700D01*
X106910200Y-89774700D01*
X106910200Y-90933600D01*
G37*
G36*
X106910200Y-92292500D02*
G01*
X105408400Y-92292500D01*
X105408400Y-91133600D01*
X106910200Y-91133600D01*
X106910200Y-92292500D01*
G37*
G36*
X108612000Y-90933600D02*
G01*
X107110200Y-90933600D01*
X107110200Y-89774700D01*
X108612000Y-89774700D01*
X108612000Y-90933600D01*
G37*
G36*
X108612000Y-92292500D02*
G01*
X107110200Y-92292500D01*
X107110200Y-91133600D01*
X108612000Y-91133600D01*
X108612000Y-92292500D01*
G37*
%TD*%
D11*
%TO.C,C2*%
X168700000Y-50000000D03*
X160300000Y-50000000D03*
%TD*%
D12*
%TO.C,U9*%
X122671400Y-88309450D03*
X121401400Y-88309450D03*
X120131400Y-88309450D03*
X118861400Y-88309450D03*
X118861400Y-93757750D03*
X120131400Y-93757750D03*
X121401400Y-93757750D03*
X122671400Y-93757750D03*
%TD*%
D13*
%TO.C,R4*%
X53492400Y-87083500D03*
X53492400Y-85433500D03*
%TD*%
D14*
%TO.C,D10*%
X60132700Y-71331000D03*
X57982700Y-71331000D03*
%TD*%
D15*
%TO.C,R10*%
X185075000Y-106350000D03*
X186725000Y-106350000D03*
%TD*%
D16*
%TO.C,L1*%
X193000000Y-77400000D03*
X193000000Y-67500000D03*
%TD*%
D15*
%TO.C,R8*%
X127013200Y-114960400D03*
X128663200Y-114960400D03*
%TD*%
D13*
%TO.C,R3*%
X184126404Y-71564461D03*
X184126404Y-69914461D03*
%TD*%
D17*
%TO.C,C14*%
X61874400Y-66763600D03*
X61874400Y-68313600D03*
%TD*%
D18*
%TO.C,U7*%
X76037400Y-65354200D03*
X76037400Y-64084200D03*
X76037400Y-62814200D03*
X76037400Y-61544200D03*
X70637400Y-61544200D03*
X70637400Y-62814200D03*
X70637400Y-64084200D03*
X70637400Y-65354200D03*
%TD*%
D19*
%TO.C,C27*%
X116351600Y-94100650D03*
X116351600Y-92550650D03*
%TD*%
D17*
%TO.C,C24*%
X100892000Y-51545000D03*
X100892000Y-53095000D03*
%TD*%
D20*
%TO.C,D18*%
X168135900Y-107670600D03*
X166560900Y-107670600D03*
%TD*%
D21*
%TO.C,C9*%
X142081200Y-102197600D03*
X142081200Y-107797600D03*
%TD*%
D19*
%TO.C,C25*%
X129204000Y-93820400D03*
X129204000Y-92270400D03*
%TD*%
D21*
%TO.C,C1*%
X155808200Y-102197600D03*
X155808200Y-107797600D03*
%TD*%
D22*
%TO.C,D5*%
X53467000Y-90805200D03*
X53467000Y-89230200D03*
%TD*%
D23*
%TO.C,D16*%
X113969700Y-116738400D03*
X115544700Y-116738400D03*
%TD*%
D14*
%TO.C,D9*%
X63862900Y-71323200D03*
X61712900Y-71323200D03*
%TD*%
D23*
%TO.C,D8*%
X185128400Y-108300000D03*
X186703400Y-108300000D03*
%TD*%
D17*
%TO.C,R9*%
X78417400Y-63830200D03*
X78417400Y-65380200D03*
%TD*%
D24*
%TO.C,R12*%
X177228000Y-109321600D03*
X175578000Y-109321600D03*
%TD*%
D25*
%TO.C,C19*%
X71912400Y-67224200D03*
X70362400Y-67224200D03*
%TD*%
D15*
%TO.C,R11*%
X113906800Y-115062000D03*
X115556800Y-115062000D03*
%TD*%
D23*
%TO.C,D6*%
X139623700Y-116789200D03*
X141198700Y-116789200D03*
%TD*%
%TO.C,D4*%
X153568300Y-116814600D03*
X155143300Y-116814600D03*
%TD*%
D26*
%TO.C,C23*%
X96828000Y-48900000D03*
X96828000Y-40500000D03*
%TD*%
D23*
%TO.C,D1*%
X182549600Y-73660000D03*
X184124600Y-73660000D03*
%TD*%
D11*
%TO.C,C4*%
X168700000Y-65000000D03*
X160300000Y-65000000D03*
%TD*%
D27*
%TO.C,D12*%
X74726900Y-69621400D03*
X76876900Y-69621400D03*
%TD*%
D28*
%TO.C,C3*%
X188662200Y-56667400D03*
X197062200Y-56667400D03*
%TD*%
D21*
%TO.C,C30*%
X102420400Y-102197600D03*
X102420400Y-107797600D03*
%TD*%
D19*
%TO.C,C28*%
X102717000Y-94076850D03*
X102717000Y-92526850D03*
%TD*%
D26*
%TO.C,C22*%
X110544000Y-48900000D03*
X110544000Y-40500000D03*
%TD*%
D29*
%TO.C,C7*%
X115595400Y-59442000D03*
X115595400Y-53842000D03*
%TD*%
D21*
%TO.C,C26*%
X129057400Y-102197600D03*
X129057400Y-107797600D03*
%TD*%
D30*
%TO.C,D2*%
X162500000Y-41000000D03*
X166500000Y-41000000D03*
%TD*%
D15*
%TO.C,R6*%
X153505400Y-115112800D03*
X155155400Y-115112800D03*
%TD*%
D21*
%TO.C,C29*%
X116205000Y-102197600D03*
X116205000Y-107797600D03*
%TD*%
D31*
%TO.C,L2*%
X151950000Y-45500000D03*
X142050000Y-45500000D03*
%TD*%
D15*
%TO.C,R7*%
X139560800Y-115087400D03*
X141210800Y-115087400D03*
%TD*%
D27*
%TO.C,D13*%
X78435300Y-69621400D03*
X80585300Y-69621400D03*
%TD*%
D30*
%TO.C,D3*%
X132250000Y-44650000D03*
X136250000Y-44650000D03*
%TD*%
D32*
%TO.C,D11*%
X182000000Y-87500000D03*
X182000000Y-91500000D03*
%TD*%
D12*
%TO.C,U8*%
X135609000Y-88309450D03*
X134339000Y-88309450D03*
X133069000Y-88309450D03*
X131799000Y-88309450D03*
X131799000Y-93757750D03*
X133069000Y-93757750D03*
X134339000Y-93757750D03*
X135609000Y-93757750D03*
%TD*%
D30*
%TO.C,D7*%
X186569600Y-47396400D03*
X190569600Y-47396400D03*
%TD*%
D33*
%TO.C,C20*%
X70423400Y-59385200D03*
X71973400Y-59385200D03*
%TD*%
D23*
%TO.C,D15*%
X127076100Y-116713000D03*
X128651100Y-116713000D03*
%TD*%
D26*
%TO.C,C21*%
X124260000Y-48900000D03*
X124260000Y-40500000D03*
%TD*%
D20*
%TO.C,D17*%
X177139800Y-107619800D03*
X175564800Y-107619800D03*
%TD*%
D34*
%TO.C,C18*%
X76291400Y-59385200D03*
X74391400Y-59385200D03*
%TD*%
D12*
%TO.C,U1*%
X162331400Y-88309450D03*
X161061400Y-88309450D03*
X159791400Y-88309450D03*
X158521400Y-88309450D03*
X158521400Y-93757750D03*
X159791400Y-93757750D03*
X161061400Y-93757750D03*
X162331400Y-93757750D03*
%TD*%
D25*
%TO.C,C17*%
X56185200Y-70231000D03*
X54635200Y-70231000D03*
%TD*%
D12*
%TO.C,U4*%
X148412200Y-88309450D03*
X147142200Y-88309450D03*
X145872200Y-88309450D03*
X144602200Y-88309450D03*
X144602200Y-93757750D03*
X145872200Y-93757750D03*
X147142200Y-93757750D03*
X148412200Y-93757750D03*
%TD*%
D35*
%TO.C,C13*%
X57710200Y-60391800D03*
X57710200Y-58491800D03*
%TD*%
D12*
%TO.C,U10*%
X108915200Y-88309450D03*
X107645200Y-88309450D03*
X106375200Y-88309450D03*
X105105200Y-88309450D03*
X105105200Y-93757750D03*
X106375200Y-93757750D03*
X107645200Y-93757750D03*
X108915200Y-93757750D03*
%TD*%
D30*
%TO.C,D14*%
X193986400Y-107010200D03*
X197986400Y-107010200D03*
%TD*%
D19*
%TO.C,C8*%
X142189200Y-93840600D03*
X142189200Y-92290600D03*
%TD*%
D17*
%TO.C,R1*%
X60410200Y-58866800D03*
X60410200Y-60416800D03*
%TD*%
%TO.C,C6*%
X121158000Y-59943400D03*
X121158000Y-61493400D03*
%TD*%
D19*
%TO.C,C5*%
X155890800Y-94161600D03*
X155890800Y-92611600D03*
%TD*%
D24*
%TO.C,R13*%
X168160200Y-109347000D03*
X166510200Y-109347000D03*
%TD*%
D36*
%TO.C,U6*%
X59890200Y-62866800D03*
X58620200Y-62866800D03*
X57350200Y-62866800D03*
X56080200Y-62866800D03*
X56080200Y-68266800D03*
X57350200Y-68266800D03*
X58620200Y-68266800D03*
X59890200Y-68266800D03*
%TD*%
M02*
