%TF.GenerationSoftware,KiCad,Pcbnew,7.0.9*%
%TF.CreationDate,2024-11-07T18:52:40-06:00*%
%TF.ProjectId,RC17,52433137-2e6b-4696-9361-645f70636258,rev?*%
%TF.SameCoordinates,Original*%
%TF.FileFunction,Copper,L1,Top*%
%TF.FilePolarity,Positive*%
%FSLAX46Y46*%
G04 Gerber Fmt 4.6, Leading zero omitted, Abs format (unit mm)*
G04 Created by KiCad (PCBNEW 7.0.9) date 2024-11-07 18:52:40*
%MOMM*%
%LPD*%
G01*
G04 APERTURE LIST*
G04 Aperture macros list*
%AMRoundRect*
0 Rectangle with rounded corners*
0 $1 Rounding radius*
0 $2 $3 $4 $5 $6 $7 $8 $9 X,Y pos of 4 corners*
0 Add a 4 corners polygon primitive as box body*
4,1,4,$2,$3,$4,$5,$6,$7,$8,$9,$2,$3,0*
0 Add four circle primitives for the rounded corners*
1,1,$1+$1,$2,$3*
1,1,$1+$1,$4,$5*
1,1,$1+$1,$6,$7*
1,1,$1+$1,$8,$9*
0 Add four rect primitives between the rounded corners*
20,1,$1+$1,$2,$3,$4,$5,0*
20,1,$1+$1,$4,$5,$6,$7,0*
20,1,$1+$1,$6,$7,$8,$9,0*
20,1,$1+$1,$8,$9,$2,$3,0*%
G04 Aperture macros list end*
%TA.AperFunction,SMDPad,CuDef*%
%ADD10RoundRect,0.225000X0.375000X-0.225000X0.375000X0.225000X-0.375000X0.225000X-0.375000X-0.225000X0*%
%TD*%
%TA.AperFunction,SMDPad,CuDef*%
%ADD11RoundRect,0.225000X-0.375000X0.225000X-0.375000X-0.225000X0.375000X-0.225000X0.375000X0.225000X0*%
%TD*%
%TA.AperFunction,SMDPad,CuDef*%
%ADD12RoundRect,0.200000X-0.200000X-0.275000X0.200000X-0.275000X0.200000X0.275000X-0.200000X0.275000X0*%
%TD*%
%TA.AperFunction,ComponentPad*%
%ADD13C,2.000000*%
%TD*%
%TA.AperFunction,ComponentPad*%
%ADD14R,1.905000X2.000000*%
%TD*%
%TA.AperFunction,ComponentPad*%
%ADD15O,1.905000X2.000000*%
%TD*%
%TA.AperFunction,SMDPad,CuDef*%
%ADD16RoundRect,0.225000X0.225000X0.250000X-0.225000X0.250000X-0.225000X-0.250000X0.225000X-0.250000X0*%
%TD*%
%TA.AperFunction,SMDPad,CuDef*%
%ADD17RoundRect,0.250000X-1.950000X-1.000000X1.950000X-1.000000X1.950000X1.000000X-1.950000X1.000000X0*%
%TD*%
%TA.AperFunction,SMDPad,CuDef*%
%ADD18RoundRect,0.250000X0.550000X-1.500000X0.550000X1.500000X-0.550000X1.500000X-0.550000X-1.500000X0*%
%TD*%
%TA.AperFunction,SMDPad,CuDef*%
%ADD19RoundRect,0.150000X-0.150000X0.825000X-0.150000X-0.825000X0.150000X-0.825000X0.150000X0.825000X0*%
%TD*%
%TA.AperFunction,SMDPad,CuDef*%
%ADD20RoundRect,0.250000X-0.475000X0.250000X-0.475000X-0.250000X0.475000X-0.250000X0.475000X0.250000X0*%
%TD*%
%TA.AperFunction,SMDPad,CuDef*%
%ADD21R,0.558800X1.460500*%
%TD*%
%TA.AperFunction,SMDPad,CuDef*%
%ADD22R,3.403600X2.717800*%
%TD*%
%TA.AperFunction,SMDPad,CuDef*%
%ADD23RoundRect,0.200000X-0.275000X0.200000X-0.275000X-0.200000X0.275000X-0.200000X0.275000X0.200000X0*%
%TD*%
%TA.AperFunction,SMDPad,CuDef*%
%ADD24R,2.000000X1.500000*%
%TD*%
%TA.AperFunction,SMDPad,CuDef*%
%ADD25R,2.000000X3.800000*%
%TD*%
%TA.AperFunction,SMDPad,CuDef*%
%ADD26R,1.800000X1.800000*%
%TD*%
%TA.AperFunction,SMDPad,CuDef*%
%ADD27R,5.400000X2.900000*%
%TD*%
%TA.AperFunction,SMDPad,CuDef*%
%ADD28RoundRect,0.200000X0.275000X-0.200000X0.275000X0.200000X-0.275000X0.200000X-0.275000X-0.200000X0*%
%TD*%
%TA.AperFunction,SMDPad,CuDef*%
%ADD29RoundRect,0.225000X-0.250000X0.225000X-0.250000X-0.225000X0.250000X-0.225000X0.250000X0.225000X0*%
%TD*%
%TA.AperFunction,SMDPad,CuDef*%
%ADD30R,0.650000X1.500000*%
%TD*%
%TA.AperFunction,SMDPad,CuDef*%
%ADD31R,1.300000X1.500000*%
%TD*%
%TA.AperFunction,ComponentPad*%
%ADD32C,2.625000*%
%TD*%
%TA.AperFunction,ComponentPad*%
%ADD33C,4.395000*%
%TD*%
%TA.AperFunction,ComponentPad*%
%ADD34C,2.500000*%
%TD*%
%TA.AperFunction,SMDPad,CuDef*%
%ADD35R,1.500000X0.450000*%
%TD*%
%TA.AperFunction,ComponentPad*%
%ADD36O,1.100000X2.000000*%
%TD*%
%TA.AperFunction,ComponentPad*%
%ADD37O,1.100000X2.200000*%
%TD*%
%TA.AperFunction,ComponentPad*%
%ADD38C,9.000000*%
%TD*%
%TA.AperFunction,SMDPad,CuDef*%
%ADD39RoundRect,0.225000X0.250000X-0.225000X0.250000X0.225000X-0.250000X0.225000X-0.250000X-0.225000X0*%
%TD*%
%TA.AperFunction,SMDPad,CuDef*%
%ADD40R,1.050000X3.210000*%
%TD*%
%TA.AperFunction,SMDPad,CuDef*%
%ADD41R,10.530000X8.460000*%
%TD*%
%TA.AperFunction,SMDPad,CuDef*%
%ADD42RoundRect,0.218750X0.256250X-0.218750X0.256250X0.218750X-0.256250X0.218750X-0.256250X-0.218750X0*%
%TD*%
%TA.AperFunction,ComponentPad*%
%ADD43R,3.000000X2.000000*%
%TD*%
%TA.AperFunction,ComponentPad*%
%ADD44O,3.000000X2.000000*%
%TD*%
%TA.AperFunction,SMDPad,CuDef*%
%ADD45R,0.900000X2.000000*%
%TD*%
%TA.AperFunction,SMDPad,CuDef*%
%ADD46R,2.000000X0.900000*%
%TD*%
%TA.AperFunction,SMDPad,CuDef*%
%ADD47R,1.330000X1.330000*%
%TD*%
%TA.AperFunction,ComponentPad*%
%ADD48C,0.762000*%
%TD*%
%TA.AperFunction,SMDPad,CuDef*%
%ADD49RoundRect,0.150000X-0.150000X0.587500X-0.150000X-0.587500X0.150000X-0.587500X0.150000X0.587500X0*%
%TD*%
%TA.AperFunction,SMDPad,CuDef*%
%ADD50RoundRect,0.250000X1.000000X-1.950000X1.000000X1.950000X-1.000000X1.950000X-1.000000X-1.950000X0*%
%TD*%
%TA.AperFunction,ComponentPad*%
%ADD51R,1.700000X1.700000*%
%TD*%
%TA.AperFunction,ComponentPad*%
%ADD52O,1.700000X1.700000*%
%TD*%
%TA.AperFunction,SMDPad,CuDef*%
%ADD53RoundRect,1.025000X-1.025000X-1.125000X1.025000X-1.125000X1.025000X1.125000X-1.025000X1.125000X0*%
%TD*%
%TA.AperFunction,SMDPad,CuDef*%
%ADD54R,4.100000X4.300000*%
%TD*%
%TA.AperFunction,SMDPad,CuDef*%
%ADD55RoundRect,0.250000X0.475000X-0.250000X0.475000X0.250000X-0.475000X0.250000X-0.475000X-0.250000X0*%
%TD*%
%TA.AperFunction,SMDPad,CuDef*%
%ADD56R,2.900000X5.400000*%
%TD*%
%TA.AperFunction,SMDPad,CuDef*%
%ADD57RoundRect,0.150000X-0.875000X-0.150000X0.875000X-0.150000X0.875000X0.150000X-0.875000X0.150000X0*%
%TD*%
%TA.AperFunction,ViaPad*%
%ADD58C,0.800000*%
%TD*%
%TA.AperFunction,Conductor*%
%ADD59C,0.508000*%
%TD*%
%TA.AperFunction,Conductor*%
%ADD60C,1.270000*%
%TD*%
%TA.AperFunction,Conductor*%
%ADD61C,2.032000*%
%TD*%
%TA.AperFunction,Conductor*%
%ADD62C,0.254000*%
%TD*%
%TA.AperFunction,Conductor*%
%ADD63C,1.371600*%
%TD*%
%TA.AperFunction,Conductor*%
%ADD64C,1.016000*%
%TD*%
%TA.AperFunction,Conductor*%
%ADD65C,3.048000*%
%TD*%
%TA.AperFunction,Conductor*%
%ADD66C,1.524000*%
%TD*%
G04 APERTURE END LIST*
D10*
%TO.P,D12,1,K*%
%TO.N,+3.3V*%
X37525000Y-54150000D03*
%TO.P,D12,2,A*%
%TO.N,Net-(D12-A)*%
X37525000Y-50850000D03*
%TD*%
D11*
%TO.P,D13,1,K*%
%TO.N,Net-(D12-A)*%
X44000000Y-50895000D03*
%TO.P,D13,2,A*%
%TO.N,GND*%
X44000000Y-54195000D03*
%TD*%
%TO.P,D10,1,K*%
%TO.N,Net-(D10-K)*%
X30875000Y-64825000D03*
%TO.P,D10,2,A*%
%TO.N,GND*%
X30875000Y-68125000D03*
%TD*%
D10*
%TO.P,D9,1,K*%
%TO.N,+3.3V*%
X35052000Y-68083800D03*
%TO.P,D9,2,A*%
%TO.N,Net-(D10-K)*%
X35052000Y-64783800D03*
%TD*%
D12*
%TO.P,R2,2*%
%TO.N,Net-(U1-~{RESET})*%
X102250000Y-63150000D03*
%TO.P,R2,1*%
%TO.N,+3.3V*%
X100600000Y-63150000D03*
%TD*%
D13*
%TO.P,RV4,1,1*%
%TO.N,Net-(U7B--)*%
X36525200Y-41605200D03*
%TO.P,RV4,2,2*%
X36525200Y-39105200D03*
%TO.P,RV4,3,3*%
%TO.N,Net-(U7A-+)*%
X36525200Y-36605200D03*
%TD*%
%TO.P,RV3,1,1*%
%TO.N,Net-(U6B--)*%
X26822400Y-41605200D03*
%TO.P,RV3,2,2*%
X26822400Y-39105200D03*
%TO.P,RV3,3,3*%
%TO.N,Net-(U6A-+)*%
X26822400Y-36605200D03*
%TD*%
%TO.P,RV2,1,1*%
%TO.N,PressureSensor*%
X41452800Y-86944800D03*
%TO.P,RV2,2,2*%
X41452800Y-84444800D03*
%TO.P,RV2,3,3*%
%TO.N,Net-(R11-Pad2)*%
X41452800Y-81944800D03*
%TD*%
%TO.P,RV1,1,1*%
%TO.N,Net-(J3-Pin_3)*%
X33349800Y-86995600D03*
%TO.P,RV1,2,2*%
X33349800Y-84495600D03*
%TO.P,RV1,3,3*%
%TO.N,Net-(R7-Pad2)*%
X33349800Y-81995600D03*
%TD*%
D14*
%TO.P,U5,1,VI*%
%TO.N,Net-(U5-VI)*%
X168372500Y-62615000D03*
D15*
%TO.P,U5,2,GND*%
%TO.N,GND*%
X165832500Y-62615000D03*
%TO.P,U5,3,VO*%
%TO.N,Net-(U5-VO)*%
X163292500Y-62615000D03*
%TD*%
D16*
%TO.P,C24,1*%
%TO.N,Net-(U5-VO)*%
X166607500Y-84175000D03*
%TO.P,C24,2*%
%TO.N,GND*%
X165057500Y-84175000D03*
%TD*%
D17*
%TO.P,C23,1*%
%TO.N,Net-(U5-VO)*%
X161750000Y-74730000D03*
%TO.P,C23,2*%
%TO.N,GND*%
X170150000Y-74730000D03*
%TD*%
%TO.P,C22,1*%
%TO.N,Net-(U5-VI)*%
X161750000Y-52390000D03*
%TO.P,C22,2*%
%TO.N,GND*%
X170150000Y-52390000D03*
%TD*%
%TO.P,C21,1*%
%TO.N,Net-(U5-VI)*%
X161750000Y-38175000D03*
%TO.P,C21,2*%
%TO.N,GND*%
X170150000Y-38175000D03*
%TD*%
D18*
%TO.P,C34,1*%
%TO.N,+12V*%
X133654800Y-71983600D03*
%TO.P,C34,2*%
%TO.N,GND*%
X133654800Y-66383600D03*
%TD*%
D19*
%TO.P,U3,1,GND*%
%TO.N,GND*%
X73020000Y-52700000D03*
%TO.P,U3,2,TXD*%
%TO.N,uC_RX*%
X71750000Y-52700000D03*
%TO.P,U3,3,RXD*%
%TO.N,uC_TX*%
X70480000Y-52700000D03*
%TO.P,U3,4,V3*%
%TO.N,+3.3V*%
X69210000Y-52700000D03*
%TO.P,U3,5,UD+*%
%TO.N,Net-(J1-D+)*%
X67940000Y-52700000D03*
%TO.P,U3,6,UD-*%
%TO.N,Net-(J1-D-)*%
X66670000Y-52700000D03*
%TO.P,U3,7,NC*%
%TO.N,unconnected-(U3-NC-Pad7)*%
X65400000Y-52700000D03*
%TO.P,U3,8,NC*%
%TO.N,unconnected-(U3-NC-Pad8)*%
X64130000Y-52700000D03*
%TO.P,U3,9,~{CTS}*%
%TO.N,unconnected-(U3-~{CTS}-Pad9)*%
X64130000Y-57650000D03*
%TO.P,U3,10,~{DSR}*%
%TO.N,unconnected-(U3-~{DSR}-Pad10)*%
X65400000Y-57650000D03*
%TO.P,U3,11,~{RI}*%
%TO.N,unconnected-(U3-~{RI}-Pad11)*%
X66670000Y-57650000D03*
%TO.P,U3,12,~{DCD}*%
%TO.N,unconnected-(U3-~{DCD}-Pad12)*%
X67940000Y-57650000D03*
%TO.P,U3,13,~{DTR}*%
%TO.N,Net-(Q1-G)*%
X69210000Y-57650000D03*
%TO.P,U3,14,~{RTS}*%
%TO.N,Net-(Q1-S)*%
X70480000Y-57650000D03*
%TO.P,U3,15,R232*%
%TO.N,unconnected-(U3-R232-Pad15)*%
X71750000Y-57650000D03*
%TO.P,U3,16,VCC*%
%TO.N,+3.3V*%
X73020000Y-57650000D03*
%TD*%
D18*
%TO.P,C35,1*%
%TO.N,+12V*%
X144780000Y-71995600D03*
%TO.P,C35,2*%
%TO.N,GND*%
X144780000Y-66395600D03*
%TD*%
D20*
%TO.P,C7,1*%
%TO.N,+5V*%
X83186600Y-41499400D03*
%TO.P,C7,2*%
%TO.N,GND*%
X83186600Y-43399400D03*
%TD*%
D21*
%TO.P,U9,1,IPROPI*%
%TO.N,GND*%
X93472000Y-78981300D03*
%TO.P,U9,2,IN2*%
%TO.N,Net-(U1-GPB6)*%
X92202000Y-78981300D03*
%TO.P,U9,3,IN1*%
%TO.N,Net-(U1-GPB7)*%
X90932000Y-78981300D03*
%TO.P,U9,4,VREF*%
%TO.N,+3.3V*%
X89662000Y-78981300D03*
%TO.P,U9,5,VM*%
%TO.N,+12V*%
X89662000Y-84429600D03*
%TO.P,U9,6,OUT1*%
%TO.N,S5*%
X90932000Y-84429600D03*
%TO.P,U9,7,GND*%
%TO.N,GND*%
X92202000Y-84429600D03*
%TO.P,U9,8,OUT2*%
%TO.N,S6*%
X93472000Y-84429600D03*
D22*
%TO.P,U9,9,EPAD*%
%TO.N,GND*%
X91567000Y-81705450D03*
%TD*%
D23*
%TO.P,R11,1*%
%TO.N,Net-(J12-Pin_1)*%
X39481400Y-76193400D03*
%TO.P,R11,2*%
%TO.N,Net-(R11-Pad2)*%
X39481400Y-77843400D03*
%TD*%
D24*
%TO.P,IC1,1,ADJ/GND*%
%TO.N,GND*%
X83311600Y-34174400D03*
%TO.P,IC1,2,OUTPUT*%
%TO.N,+3.3V*%
X83311600Y-36474400D03*
%TO.P,IC1,3,INPUT*%
%TO.N,+5V*%
X83311600Y-38774400D03*
D25*
%TO.P,IC1,4,VOUT*%
%TO.N,unconnected-(IC1-VOUT-Pad4)*%
X89611600Y-36474400D03*
%TD*%
D26*
%TO.P,D6,1,K*%
%TO.N,WorkSwitch*%
X54832000Y-90424000D03*
%TO.P,D6,2,A*%
%TO.N,Net-(D6-A)*%
X50832000Y-90424000D03*
%TD*%
D27*
%TO.P,L1,1,1*%
%TO.N,Net-(IC2-Output)*%
X113792000Y-26647600D03*
%TO.P,L1,2,2*%
%TO.N,+5V*%
X113792000Y-36547600D03*
%TD*%
D23*
%TO.P,R3,1*%
%TO.N,Net-(D1-A)*%
X89421200Y-26822400D03*
%TO.P,R3,2*%
%TO.N,+5V*%
X89421200Y-28472400D03*
%TD*%
D28*
%TO.P,R4,1*%
%TO.N,+3.3V*%
X79502000Y-33184600D03*
%TO.P,R4,2*%
%TO.N,uC_EN*%
X79502000Y-31534600D03*
%TD*%
D29*
%TO.P,C27,1*%
%TO.N,+12V*%
X85242400Y-83502200D03*
%TO.P,C27,2*%
%TO.N,GND*%
X85242400Y-85052200D03*
%TD*%
%TO.P,C14,1*%
%TO.N,GND*%
X31475000Y-56425000D03*
%TO.P,C14,2*%
%TO.N,+3.3V*%
X31475000Y-57975000D03*
%TD*%
D30*
%TO.P,U7,1*%
%TO.N,Net-(U7A--)*%
X44492400Y-38445400D03*
%TO.P,U7,2,-*%
X43222400Y-38445400D03*
%TO.P,U7,3,+*%
%TO.N,Net-(U7A-+)*%
X41952400Y-38445400D03*
%TO.P,U7,4,V-*%
%TO.N,GND*%
X40682400Y-38445400D03*
%TO.P,U7,5,+*%
%TO.N,Net-(D12-A)*%
X40682400Y-43845400D03*
%TO.P,U7,6,-*%
%TO.N,Net-(U7B--)*%
X41952400Y-43845400D03*
%TO.P,U7,7*%
X43222400Y-43845400D03*
%TO.P,U7,8,V+*%
%TO.N,+3.3V*%
X44492400Y-43845400D03*
%TD*%
D28*
%TO.P,R7,1*%
%TO.N,Net-(J3-Pin_1)*%
X28702000Y-83796600D03*
%TO.P,R7,2*%
%TO.N,Net-(R7-Pad2)*%
X28702000Y-82146600D03*
%TD*%
D29*
%TO.P,C11,1*%
%TO.N,+3.3V*%
X78950000Y-27225000D03*
%TO.P,C11,2*%
%TO.N,GND*%
X78950000Y-28775000D03*
%TD*%
D31*
%TO.P,U16,1*%
%TO.N,Net-(R13-Pad2)*%
X58115200Y-97297200D03*
%TO.P,U16,2*%
%TO.N,Net-(D6-A)*%
X58115200Y-94757200D03*
%TO.P,U16,3*%
%TO.N,GND*%
X49115200Y-94757200D03*
%TO.P,U16,4*%
%TO.N,WorkSwitchPin*%
X49115200Y-97297200D03*
%TD*%
D18*
%TO.P,C16,1*%
%TO.N,+12V*%
X63858800Y-71829566D03*
%TO.P,C16,2*%
%TO.N,GND*%
X63858800Y-66229566D03*
%TD*%
D32*
%TO.P,J2,1,1*%
%TO.N,S2*%
X78000000Y-94457200D03*
%TO.P,J2,2,2*%
%TO.N,S3*%
X82000000Y-94457200D03*
%TO.P,J2,3,3*%
%TO.N,S4*%
X86000000Y-94457200D03*
%TO.P,J2,4,4*%
%TO.N,S5*%
X90000000Y-94457200D03*
%TO.P,J2,5,5*%
%TO.N,S6*%
X94000000Y-94457200D03*
%TO.P,J2,6,6*%
%TO.N,S7*%
X98000000Y-94457200D03*
%TO.P,J2,7,7*%
%TO.N,S8*%
X102000000Y-94457200D03*
%TO.P,J2,8,8*%
%TO.N,S9*%
X106000000Y-94457200D03*
%TO.P,J2,9,9*%
%TO.N,S1*%
X80000000Y-98457200D03*
%TO.P,J2,10,10*%
%TO.N,PressureSensor*%
X84000000Y-98457200D03*
%TO.P,J2,11,11*%
%TO.N,WorkSwitch*%
X88000000Y-98457200D03*
%TO.P,J2,12,12*%
%TO.N,GND*%
X92000000Y-98457200D03*
%TO.P,J2,13,13*%
%TO.N,S16*%
X96000000Y-98457200D03*
%TO.P,J2,14,14*%
%TO.N,S10*%
X100000000Y-98457200D03*
%TO.P,J2,15,15*%
%TO.N,S11*%
X104000000Y-98457200D03*
%TO.P,J2,16,16*%
%TO.N,M1B*%
X78000000Y-102457200D03*
%TO.P,J2,17,17*%
%TO.N,M1A*%
X82000000Y-102457200D03*
%TO.P,J2,18,18*%
%TO.N,+5VA*%
X86000000Y-102457200D03*
%TO.P,J2,19,19*%
%TO.N,FlowSensor*%
X90000000Y-102457200D03*
%TO.P,J2,20,20*%
%TO.N,S15*%
X94000000Y-102457200D03*
%TO.P,J2,21,21*%
%TO.N,S12*%
X98000000Y-102457200D03*
%TO.P,J2,22,22*%
%TO.N,S14*%
X102000000Y-102457200D03*
%TO.P,J2,23,23*%
%TO.N,S13*%
X106000000Y-102457200D03*
D33*
%TO.P,J2,MH1,MH1*%
%TO.N,unconnected-(J2-PadMH1)*%
X71500000Y-98957200D03*
%TO.P,J2,MH2,MH2*%
%TO.N,unconnected-(J2-PadMH2)*%
X112500000Y-98957200D03*
%TD*%
D29*
%TO.P,C32,1*%
%TO.N,+12V*%
X135839200Y-83603800D03*
%TO.P,C32,2*%
%TO.N,GND*%
X135839200Y-85153800D03*
%TD*%
D21*
%TO.P,U12,1,IPROPI*%
%TO.N,GND*%
X156794200Y-79013050D03*
%TO.P,U12,2,IN2*%
%TO.N,Net-(U1-GPA7)*%
X155524200Y-79013050D03*
%TO.P,U12,3,IN1*%
%TO.N,Net-(U1-GPA6)*%
X154254200Y-79013050D03*
%TO.P,U12,4,VREF*%
%TO.N,+3.3V*%
X152984200Y-79013050D03*
%TO.P,U12,5,VM*%
%TO.N,+12V*%
X152984200Y-84461350D03*
%TO.P,U12,6,OUT1*%
%TO.N,S15*%
X154254200Y-84461350D03*
%TO.P,U12,7,GND*%
%TO.N,GND*%
X155524200Y-84461350D03*
%TO.P,U12,8,OUT2*%
%TO.N,S16*%
X156794200Y-84461350D03*
D22*
%TO.P,U12,9,EPAD*%
%TO.N,GND*%
X154889200Y-81737200D03*
%TD*%
D29*
%TO.P,C33,1*%
%TO.N,+12V*%
X148285200Y-83756200D03*
%TO.P,C33,2*%
%TO.N,GND*%
X148285200Y-85306200D03*
%TD*%
%TO.P,C37,1*%
%TO.N,+12V*%
X123088400Y-83705400D03*
%TO.P,C37,2*%
%TO.N,GND*%
X123088400Y-85255400D03*
%TD*%
%TO.P,C36,1*%
%TO.N,+12V*%
X110896400Y-83807000D03*
%TO.P,C36,2*%
%TO.N,GND*%
X110896400Y-85357000D03*
%TD*%
D21*
%TO.P,U11,1,IPROPI*%
%TO.N,GND*%
X144145000Y-79165450D03*
%TO.P,U11,2,IN2*%
%TO.N,Net-(U1-GPA5)*%
X142875000Y-79165450D03*
%TO.P,U11,3,IN1*%
%TO.N,Net-(U1-GPA4)*%
X141605000Y-79165450D03*
%TO.P,U11,4,VREF*%
%TO.N,+3.3V*%
X140335000Y-79165450D03*
%TO.P,U11,5,VM*%
%TO.N,+12V*%
X140335000Y-84613750D03*
%TO.P,U11,6,OUT1*%
%TO.N,S13*%
X141605000Y-84613750D03*
%TO.P,U11,7,GND*%
%TO.N,GND*%
X142875000Y-84613750D03*
%TO.P,U11,8,OUT2*%
%TO.N,S14*%
X144145000Y-84613750D03*
D22*
%TO.P,U11,9,EPAD*%
%TO.N,GND*%
X142240000Y-81889600D03*
%TD*%
D29*
%TO.P,C25,1*%
%TO.N,+12V*%
X74879200Y-83705400D03*
%TO.P,C25,2*%
%TO.N,GND*%
X74879200Y-85255400D03*
%TD*%
D34*
%TO.P,TP3,1,1*%
%TO.N,GND*%
X26466800Y-71948000D03*
%TD*%
%TO.P,TP6,1,1*%
%TO.N,Net-(U7A-+)*%
X49885600Y-25806400D03*
%TD*%
D35*
%TO.P,J1,1,VBUS*%
%TO.N,Net-(D5-A)*%
X58895000Y-53125000D03*
%TO.P,J1,2,D-*%
%TO.N,Net-(J1-D-)*%
X58895000Y-53775000D03*
%TO.P,J1,3,D+*%
%TO.N,Net-(J1-D+)*%
X58895000Y-54425000D03*
%TO.P,J1,4,ID*%
%TO.N,unconnected-(J1-ID-Pad4)*%
X58895000Y-55075000D03*
%TO.P,J1,5,GND*%
%TO.N,GND*%
X58895000Y-55725000D03*
D36*
%TO.P,J1,S1,SHIELD*%
X59145000Y-51625000D03*
D37*
%TO.P,J1,S2,SHIELD*%
X59145000Y-57225000D03*
%TO.P,J1,S3,SHIELD*%
X56995000Y-54425000D03*
%TD*%
D38*
%TO.P,J5,1,Pin_1*%
%TO.N,Net-(J5-Pin_1)*%
X140150000Y-55875000D03*
%TD*%
D21*
%TO.P,U17,1,IPROPI*%
%TO.N,GND*%
X58521600Y-78930500D03*
%TO.P,U17,2,IN2*%
%TO.N,M1_IN2*%
X57251600Y-78930500D03*
%TO.P,U17,3,IN1*%
%TO.N,M1_IN1*%
X55981600Y-78930500D03*
%TO.P,U17,4,VREF*%
%TO.N,+3.3V*%
X54711600Y-78930500D03*
%TO.P,U17,5,VM*%
%TO.N,+12V*%
X54711600Y-84378800D03*
%TO.P,U17,6,OUT1*%
%TO.N,M1A*%
X55981600Y-84378800D03*
%TO.P,U17,7,GND*%
%TO.N,GND*%
X57251600Y-84378800D03*
%TO.P,U17,8,OUT2*%
%TO.N,M1B*%
X58521600Y-84378800D03*
D22*
%TO.P,U17,9,EPAD*%
%TO.N,GND*%
X56616600Y-81654650D03*
%TD*%
D16*
%TO.P,C5,1*%
%TO.N,+3.3V*%
X79629600Y-36271200D03*
%TO.P,C5,2*%
%TO.N,GND*%
X78079600Y-36271200D03*
%TD*%
D20*
%TO.P,C8,1*%
%TO.N,Net-(D3-K)*%
X141289400Y-28393050D03*
%TO.P,C8,2*%
%TO.N,GND*%
X141289400Y-30293050D03*
%TD*%
D34*
%TO.P,TP8,1,1*%
%TO.N,Net-(U6A-+)*%
X34899600Y-25755600D03*
%TD*%
D23*
%TO.P,R5,1*%
%TO.N,+3.3V*%
X82250000Y-55050000D03*
%TO.P,R5,2*%
%TO.N,SCL*%
X82250000Y-56700000D03*
%TD*%
D39*
%TO.P,R9,1*%
%TO.N,PressurePin*%
X49123600Y-41262600D03*
%TO.P,R9,2*%
%TO.N,Net-(U7A--)*%
X49123600Y-39712600D03*
%TD*%
D34*
%TO.P,TP7,1,1*%
%TO.N,Net-(U6B--)*%
X28600400Y-25806400D03*
%TD*%
D29*
%TO.P,C19,1*%
%TO.N,GND*%
X46362400Y-42570400D03*
%TO.P,C19,2*%
%TO.N,+3.3V*%
X46362400Y-44120400D03*
%TD*%
D28*
%TO.P,R13,1*%
%TO.N,+5VA*%
X58125000Y-101350000D03*
%TO.P,R13,2*%
%TO.N,Net-(R13-Pad2)*%
X58125000Y-99700000D03*
%TD*%
D23*
%TO.P,R6,1*%
%TO.N,+3.3V*%
X79425000Y-55050000D03*
%TO.P,R6,2*%
%TO.N,SDA*%
X79425000Y-56700000D03*
%TD*%
D40*
%TO.P,IC2,1,VIN*%
%TO.N,Net-(D3-K)*%
X137415800Y-28627800D03*
%TO.P,IC2,2,Output*%
%TO.N,Net-(IC2-Output)*%
X135715800Y-28627800D03*
%TO.P,IC2,3,GND*%
%TO.N,GND*%
X134015800Y-28627800D03*
%TO.P,IC2,4,Feedback*%
%TO.N,+5V*%
X132315800Y-28627800D03*
%TO.P,IC2,5,On/Off*%
%TO.N,GND*%
X130615800Y-28627800D03*
D41*
%TO.P,IC2,6,GND_1*%
X134015800Y-38257800D03*
%TD*%
D26*
%TO.P,D5,1,K*%
%TO.N,+5V*%
X83525000Y-49225000D03*
%TO.P,D5,2,A*%
%TO.N,Net-(D5-A)*%
X79525000Y-49225000D03*
%TD*%
D21*
%TO.P,U14,1,IPROPI*%
%TO.N,GND*%
X131445000Y-79114650D03*
%TO.P,U14,2,IN2*%
%TO.N,Net-(U1-GPA3)*%
X130175000Y-79114650D03*
%TO.P,U14,3,IN1*%
%TO.N,Net-(U1-GPA2)*%
X128905000Y-79114650D03*
%TO.P,U14,4,VREF*%
%TO.N,+3.3V*%
X127635000Y-79114650D03*
%TO.P,U14,5,VM*%
%TO.N,+12V*%
X127635000Y-84562950D03*
%TO.P,U14,6,OUT1*%
%TO.N,S11*%
X128905000Y-84562950D03*
%TO.P,U14,7,GND*%
%TO.N,GND*%
X130175000Y-84562950D03*
%TO.P,U14,8,OUT2*%
%TO.N,S12*%
X131445000Y-84562950D03*
D22*
%TO.P,U14,9,EPAD*%
%TO.N,GND*%
X129540000Y-81838800D03*
%TD*%
D18*
%TO.P,C39,1*%
%TO.N,+12V*%
X122732800Y-71894000D03*
%TO.P,C39,2*%
%TO.N,GND*%
X122732800Y-66294000D03*
%TD*%
D21*
%TO.P,U13,1,IPROPI*%
%TO.N,GND*%
X118745000Y-79063850D03*
%TO.P,U13,2,IN2*%
%TO.N,Net-(U1-GPA1)*%
X117475000Y-79063850D03*
%TO.P,U13,3,IN1*%
%TO.N,Net-(U1-GPA0)*%
X116205000Y-79063850D03*
%TO.P,U13,4,VREF*%
%TO.N,+3.3V*%
X114935000Y-79063850D03*
%TO.P,U13,5,VM*%
%TO.N,+12V*%
X114935000Y-84512150D03*
%TO.P,U13,6,OUT1*%
%TO.N,S9*%
X116205000Y-84512150D03*
%TO.P,U13,7,GND*%
%TO.N,GND*%
X117475000Y-84512150D03*
%TO.P,U13,8,OUT2*%
%TO.N,S10*%
X118745000Y-84512150D03*
D22*
%TO.P,U13,9,EPAD*%
%TO.N,GND*%
X116840000Y-81788000D03*
%TD*%
D29*
%TO.P,C9,1*%
%TO.N,+3.3V*%
X76200000Y-27225000D03*
%TO.P,C9,2*%
%TO.N,GND*%
X76200000Y-28775000D03*
%TD*%
%TO.P,C3,1*%
%TO.N,+3.3V*%
X76600000Y-55100000D03*
%TO.P,C3,2*%
%TO.N,GND*%
X76600000Y-56650000D03*
%TD*%
D26*
%TO.P,D4,1,K*%
%TO.N,Net-(D4-K)*%
X130556000Y-50933600D03*
%TO.P,D4,2,A*%
%TO.N,+12V*%
X130556000Y-54933600D03*
%TD*%
D28*
%TO.P,R12,1*%
%TO.N,GND*%
X43675000Y-77825000D03*
%TO.P,R12,2*%
%TO.N,Net-(J12-Pin_1)*%
X43675000Y-76175000D03*
%TD*%
D29*
%TO.P,C15,1*%
%TO.N,+12V*%
X63119200Y-83675800D03*
%TO.P,C15,2*%
%TO.N,GND*%
X63119200Y-85225800D03*
%TD*%
D42*
%TO.P,D1,1,K*%
%TO.N,GND*%
X84721200Y-28397400D03*
%TO.P,D1,2,A*%
%TO.N,Net-(D1-A)*%
X84721200Y-26822400D03*
%TD*%
D29*
%TO.P,C31,1*%
%TO.N,+3.3V*%
X85075000Y-55100000D03*
%TO.P,C31,2*%
%TO.N,GND*%
X85075000Y-56650000D03*
%TD*%
%TO.P,C40,1*%
%TO.N,+12V*%
X51866800Y-84365800D03*
%TO.P,C40,2*%
%TO.N,GND*%
X51866800Y-85915800D03*
%TD*%
D43*
%TO.P,F2,1*%
%TO.N,+5VA*%
X166277500Y-101455000D03*
D44*
X166277500Y-97755000D03*
%TO.P,F2,2*%
%TO.N,Net-(U5-VO)*%
X166277500Y-93455000D03*
X166277500Y-89755000D03*
%TD*%
D18*
%TO.P,C30,1*%
%TO.N,+12V*%
X98552000Y-71792400D03*
%TO.P,C30,2*%
%TO.N,GND*%
X98552000Y-66192400D03*
%TD*%
D20*
%TO.P,C4,1*%
%TO.N,uC_EN*%
X58930000Y-60675000D03*
%TO.P,C4,2*%
%TO.N,GND*%
X58930000Y-62575000D03*
%TD*%
D45*
%TO.P,U15,1,GND*%
%TO.N,GND*%
X72136000Y-28024000D03*
%TO.P,U15,2,3V3*%
%TO.N,+3.3V*%
X70866000Y-28024000D03*
%TO.P,U15,3,EN*%
%TO.N,uC_EN*%
X69596000Y-28024000D03*
%TO.P,U15,4,SENSOR_VP*%
%TO.N,unconnected-(U15-SENSOR_VP-Pad4)*%
X68326000Y-28024000D03*
%TO.P,U15,5,SENSOR_VN*%
%TO.N,unconnected-(U15-SENSOR_VN-Pad5)*%
X67056000Y-28024000D03*
%TO.P,U15,6,I034*%
%TO.N,unconnected-(U15-I034-Pad6)*%
X65786000Y-28024000D03*
%TO.P,U15,7,I035*%
%TO.N,unconnected-(U15-I035-Pad7)*%
X64516000Y-28024000D03*
%TO.P,U15,8,I032*%
%TO.N,unconnected-(U15-I032-Pad8)*%
X63246000Y-28024000D03*
%TO.P,U15,9,I033*%
%TO.N,unconnected-(U15-I033-Pad9)*%
X61976000Y-28024000D03*
%TO.P,U15,10,I025*%
%TO.N,unconnected-(U15-I025-Pad10)*%
X60706000Y-28024000D03*
%TO.P,U15,11,I026*%
%TO.N,unconnected-(U15-I026-Pad11)*%
X59436000Y-28024000D03*
%TO.P,U15,12,IO27*%
%TO.N,unconnected-(U15-IO27-Pad12)*%
X58166000Y-28024000D03*
%TO.P,U15,13,IO14*%
%TO.N,unconnected-(U15-IO14-Pad13)*%
X56896000Y-28024000D03*
%TO.P,U15,14,IO12*%
%TO.N,unconnected-(U15-IO12-Pad14)*%
X55626000Y-28024000D03*
D46*
%TO.P,U15,15,GND*%
%TO.N,GND*%
X54626000Y-30809000D03*
%TO.P,U15,16,IO13*%
%TO.N,FlowPin*%
X54626000Y-32079000D03*
%TO.P,U15,17,SHD/SD2*%
%TO.N,unconnected-(U15-SHD{slash}SD2-Pad17)*%
X54626000Y-33349000D03*
%TO.P,U15,18,SWP/SD3*%
%TO.N,unconnected-(U15-SWP{slash}SD3-Pad18)*%
X54626000Y-34619000D03*
%TO.P,U15,19,SCS/CMD*%
%TO.N,unconnected-(U15-SCS{slash}CMD-Pad19)*%
X54626000Y-35889000D03*
%TO.P,U15,20,SCL/CLK*%
%TO.N,unconnected-(U15-SCL{slash}CLK-Pad20)*%
X54626000Y-37159000D03*
%TO.P,U15,21,SDO/SD0*%
%TO.N,unconnected-(U15-SDO{slash}SD0-Pad21)*%
X54626000Y-38429000D03*
%TO.P,U15,22,SD1/SD1*%
%TO.N,unconnected-(U15-SD1{slash}SD1-Pad22)*%
X54626000Y-39699000D03*
%TO.P,U15,23,IO15*%
%TO.N,PressurePin*%
X54626000Y-40969000D03*
%TO.P,U15,24,IO2*%
%TO.N,WorkSwitchPin*%
X54626000Y-42239000D03*
D45*
%TO.P,U15,25,IO0*%
%TO.N,Net-(Q2-D)*%
X55626000Y-45024000D03*
%TO.P,U15,26,IO4*%
%TO.N,unconnected-(U15-IO4-Pad26)*%
X56896000Y-45024000D03*
%TO.P,U15,27,IO16*%
%TO.N,unconnected-(U15-IO16-Pad27)*%
X58166000Y-45024000D03*
%TO.P,U15,28,IO17*%
%TO.N,M1_IN1*%
X59436000Y-45024000D03*
%TO.P,U15,29,IO5*%
%TO.N,M1_IN2*%
X60706000Y-45024000D03*
%TO.P,U15,30,IO18*%
%TO.N,unconnected-(U15-IO18-Pad30)*%
X61976000Y-45024000D03*
%TO.P,U15,31,IO19*%
%TO.N,unconnected-(U15-IO19-Pad31)*%
X63246000Y-45024000D03*
%TO.P,U15,32*%
%TO.N,N/C*%
X64516000Y-45024000D03*
%TO.P,U15,33,IO21*%
%TO.N,SDA*%
X65786000Y-45024000D03*
%TO.P,U15,34,RXD0*%
%TO.N,uC_RX*%
X67056000Y-45024000D03*
%TO.P,U15,35,TXD0*%
%TO.N,uC_TX*%
X68326000Y-45024000D03*
%TO.P,U15,36,IO22*%
%TO.N,SCL*%
X69596000Y-45024000D03*
%TO.P,U15,37,IO23*%
%TO.N,unconnected-(U15-IO23-Pad37)*%
X70866000Y-45024000D03*
%TO.P,U15,38,GND*%
%TO.N,GND*%
X72136000Y-45024000D03*
D47*
%TO.P,U15,G.1,GND*%
X66471000Y-37359000D03*
%TO.P,U15,G.2,GND*%
X66471000Y-35524000D03*
%TO.P,U15,G.4,GND*%
X66471000Y-33689000D03*
%TO.P,U15,G.5,GND*%
X64636000Y-37359000D03*
%TO.P,U15,G.6,GND*%
X64636000Y-35524000D03*
%TO.P,U15,G.7,GND*%
X64636000Y-33689000D03*
%TO.P,U15,G.8,GND*%
X62801000Y-37359000D03*
%TO.P,U15,G.9,GND*%
X62801000Y-35524000D03*
%TO.P,U15,G.10,GND*%
X62801000Y-33689000D03*
D48*
%TO.P,U15,G.11,GND*%
X66471000Y-36441500D03*
%TO.P,U15,G.12,GND*%
X66471000Y-34606500D03*
%TO.P,U15,G.13,GND*%
X65553500Y-37359000D03*
%TO.P,U15,G.14,GND*%
X65553500Y-35524000D03*
%TO.P,U15,G.15,GND*%
X65553500Y-33689000D03*
%TO.P,U15,G.16,GND*%
X64636000Y-36441500D03*
%TO.P,U15,G.17,GND*%
X64636000Y-34606500D03*
%TO.P,U15,G.18,GND*%
X63718500Y-37359000D03*
%TO.P,U15,G.19,GND*%
X63718500Y-35524000D03*
%TO.P,U15,G.20,GND*%
X63718500Y-33689000D03*
%TO.P,U15,G.21,GND*%
X62801000Y-36441500D03*
%TO.P,U15,G.22,GND*%
X62801000Y-34606500D03*
%TD*%
D18*
%TO.P,C38,1*%
%TO.N,+12V*%
X110083600Y-71684800D03*
%TO.P,C38,2*%
%TO.N,GND*%
X110083600Y-66084800D03*
%TD*%
%TO.P,C26,1*%
%TO.N,+12V*%
X75133200Y-71690800D03*
%TO.P,C26,2*%
%TO.N,GND*%
X75133200Y-66090800D03*
%TD*%
D34*
%TO.P,TP5,1,1*%
%TO.N,Net-(U7B--)*%
X43586400Y-25806400D03*
%TD*%
D38*
%TO.P,J6,1,Pin_1*%
%TO.N,GND*%
X113588800Y-46228000D03*
%TD*%
D49*
%TO.P,Q1,1,G*%
%TO.N,Net-(Q1-G)*%
X65295000Y-60512500D03*
%TO.P,Q1,2,S*%
%TO.N,Net-(Q1-S)*%
X63395000Y-60512500D03*
%TO.P,Q1,3,D*%
%TO.N,uC_EN*%
X64345000Y-62387500D03*
%TD*%
D50*
%TO.P,C12,1*%
%TO.N,+5V*%
X98958400Y-36559600D03*
%TO.P,C12,2*%
%TO.N,GND*%
X98958400Y-28159600D03*
%TD*%
D18*
%TO.P,C29,1*%
%TO.N,+12V*%
X86715600Y-71684800D03*
%TO.P,C29,2*%
%TO.N,GND*%
X86715600Y-66084800D03*
%TD*%
D34*
%TO.P,TP1,1,1*%
%TO.N,Net-(J12-Pin_1)*%
X40538400Y-58536800D03*
%TD*%
D29*
%TO.P,C28,1*%
%TO.N,+12V*%
X98044000Y-83756200D03*
%TO.P,C28,2*%
%TO.N,GND*%
X98044000Y-85306200D03*
%TD*%
D18*
%TO.P,C41,1*%
%TO.N,+12V*%
X51765200Y-71538400D03*
%TO.P,C41,2*%
%TO.N,GND*%
X51765200Y-65938400D03*
%TD*%
D51*
%TO.P,J4,1,Pin_1*%
%TO.N,Net-(J3-Pin_1)*%
X31343600Y-76723200D03*
D52*
%TO.P,J4,2,Pin_2*%
%TO.N,Net-(D10-K)*%
X33883600Y-76723200D03*
%TD*%
D53*
%TO.P,D3,1,K*%
%TO.N,Net-(D3-K)*%
X124206000Y-50205200D03*
D54*
%TO.P,D3,2,A*%
%TO.N,+12V*%
X124206000Y-58405200D03*
%TD*%
D21*
%TO.P,U8,1,IPROPI*%
%TO.N,GND*%
X81788000Y-78879700D03*
%TO.P,U8,2,IN2*%
%TO.N,Net-(U1-GPB3)*%
X80518000Y-78879700D03*
%TO.P,U8,3,IN1*%
%TO.N,Net-(U1-GPB2)*%
X79248000Y-78879700D03*
%TO.P,U8,4,VREF*%
%TO.N,+3.3V*%
X77978000Y-78879700D03*
%TO.P,U8,5,VM*%
%TO.N,+12V*%
X77978000Y-84328000D03*
%TO.P,U8,6,OUT1*%
%TO.N,S3*%
X79248000Y-84328000D03*
%TO.P,U8,7,GND*%
%TO.N,GND*%
X80518000Y-84328000D03*
%TO.P,U8,8,OUT2*%
%TO.N,S4*%
X81788000Y-84328000D03*
D22*
%TO.P,U8,9,EPAD*%
%TO.N,GND*%
X79883000Y-81603850D03*
%TD*%
D26*
%TO.P,D7,1*%
%TO.N,Net-(U5-VI)*%
X156975000Y-31325000D03*
%TO.P,D7,2*%
%TO.N,GND*%
X156975000Y-27325000D03*
%TD*%
D21*
%TO.P,U4,1,IPROPI*%
%TO.N,GND*%
X70256400Y-78930500D03*
%TO.P,U4,2,IN2*%
%TO.N,Net-(U1-GPB1)*%
X68986400Y-78930500D03*
%TO.P,U4,3,IN1*%
%TO.N,Net-(U1-GPB0)*%
X67716400Y-78930500D03*
%TO.P,U4,4,VREF*%
%TO.N,+3.3V*%
X66446400Y-78930500D03*
%TO.P,U4,5,VM*%
%TO.N,+12V*%
X66446400Y-84378800D03*
%TO.P,U4,6,OUT1*%
%TO.N,S1*%
X67716400Y-84378800D03*
%TO.P,U4,7,GND*%
%TO.N,GND*%
X68986400Y-84378800D03*
%TO.P,U4,8,OUT2*%
%TO.N,S2*%
X70256400Y-84378800D03*
D22*
%TO.P,U4,9,EPAD*%
%TO.N,GND*%
X68351400Y-81654650D03*
%TD*%
D29*
%TO.P,C20,1*%
%TO.N,Net-(D12-A)*%
X40637400Y-46145400D03*
%TO.P,C20,2*%
%TO.N,GND*%
X40637400Y-47695400D03*
%TD*%
%TO.P,C6,1*%
%TO.N,uC_EN*%
X77470000Y-31571600D03*
%TO.P,C6,2*%
%TO.N,GND*%
X77470000Y-33121600D03*
%TD*%
D49*
%TO.P,Q2,1,G*%
%TO.N,Net-(Q1-S)*%
X71120000Y-60525000D03*
%TO.P,Q2,2,S*%
%TO.N,Net-(Q1-G)*%
X69220000Y-60525000D03*
%TO.P,Q2,3,D*%
%TO.N,Net-(Q2-D)*%
X70170000Y-62400000D03*
%TD*%
D26*
%TO.P,D2,1*%
%TO.N,Net-(IC2-Output)*%
X123799600Y-26295600D03*
%TO.P,D2,2*%
%TO.N,GND*%
X123799600Y-30295600D03*
%TD*%
D55*
%TO.P,C18,1*%
%TO.N,Net-(U7A-+)*%
X41910000Y-36372800D03*
%TO.P,C18,2*%
%TO.N,GND*%
X41910000Y-34472800D03*
%TD*%
D56*
%TO.P,L2,1,1*%
%TO.N,Net-(D4-K)*%
X147100000Y-44700000D03*
%TO.P,L2,2,2*%
%TO.N,Net-(U5-VI)*%
X157000000Y-44700000D03*
%TD*%
D51*
%TO.P,J3,1,Pin_1*%
%TO.N,Net-(J3-Pin_1)*%
X28250000Y-95225000D03*
D52*
%TO.P,J3,2,Pin_2*%
%TO.N,FlowSensor*%
X30790000Y-95225000D03*
%TO.P,J3,3,Pin_3*%
%TO.N,Net-(J3-Pin_3)*%
X33330000Y-95225000D03*
%TO.P,J3,4,Pin_4*%
%TO.N,+5VA*%
X35870000Y-95225000D03*
%TD*%
D57*
%TO.P,U1,28,GPA7*%
%TO.N,Net-(U1-GPA7)*%
X97975000Y-45195000D03*
%TO.P,U1,27,GPA6*%
%TO.N,Net-(U1-GPA6)*%
X97975000Y-46465000D03*
%TO.P,U1,26,GPA5*%
%TO.N,Net-(U1-GPA5)*%
X97975000Y-47735000D03*
%TO.P,U1,25,GPA4*%
%TO.N,Net-(U1-GPA4)*%
X97975000Y-49005000D03*
%TO.P,U1,24,GPA3*%
%TO.N,Net-(U1-GPA3)*%
X97975000Y-50275000D03*
%TO.P,U1,23,GPA2*%
%TO.N,Net-(U1-GPA2)*%
X97975000Y-51545000D03*
%TO.P,U1,22,GPA1*%
%TO.N,Net-(U1-GPA1)*%
X97975000Y-52815000D03*
%TO.P,U1,21,GPA0*%
%TO.N,Net-(U1-GPA0)*%
X97975000Y-54085000D03*
%TO.P,U1,20,INTA*%
%TO.N,unconnected-(U1-INTA-Pad20)*%
X97975000Y-55355000D03*
%TO.P,U1,19,INTB*%
%TO.N,unconnected-(U1-INTB-Pad19)*%
X97975000Y-56625000D03*
%TO.P,U1,18,~{RESET}*%
%TO.N,Net-(U1-~{RESET})*%
X97975000Y-57895000D03*
%TO.P,U1,17,A2*%
%TO.N,GND*%
X97975000Y-59165000D03*
%TO.P,U1,16,A1*%
X97975000Y-60435000D03*
%TO.P,U1,15,A0*%
X97975000Y-61705000D03*
%TO.P,U1,14,NC*%
%TO.N,unconnected-(U1-NC-Pad14)*%
X88675000Y-61705000D03*
%TO.P,U1,13,SDA*%
%TO.N,SDA*%
X88675000Y-60435000D03*
%TO.P,U1,12,SCK*%
%TO.N,SCL*%
X88675000Y-59165000D03*
%TO.P,U1,11,NC*%
%TO.N,unconnected-(U1-NC-Pad11)*%
X88675000Y-57895000D03*
%TO.P,U1,10,VSS*%
%TO.N,GND*%
X88675000Y-56625000D03*
%TO.P,U1,9,VDD*%
%TO.N,+3.3V*%
X88675000Y-55355000D03*
%TO.P,U1,8,GPB7*%
%TO.N,Net-(U1-GPB7)*%
X88675000Y-54085000D03*
%TO.P,U1,7,GPB6*%
%TO.N,Net-(U1-GPB6)*%
X88675000Y-52815000D03*
%TO.P,U1,6,GPB5*%
%TO.N,Net-(U1-GPB5)*%
X88675000Y-51545000D03*
%TO.P,U1,5,GPB4*%
%TO.N,Net-(U1-GPB4)*%
X88675000Y-50275000D03*
%TO.P,U1,4,GPB3*%
%TO.N,Net-(U1-GPB3)*%
X88675000Y-49005000D03*
%TO.P,U1,3,GPB2*%
%TO.N,Net-(U1-GPB2)*%
X88675000Y-47735000D03*
%TO.P,U1,2,GPB1*%
%TO.N,Net-(U1-GPB1)*%
X88675000Y-46465000D03*
%TO.P,U1,1,GPB0*%
%TO.N,Net-(U1-GPB0)*%
X88675000Y-45195000D03*
%TD*%
D43*
%TO.P,F1,1*%
%TO.N,+12V*%
X153568400Y-73660000D03*
D44*
X153568400Y-69960000D03*
%TO.P,F1,2*%
%TO.N,Net-(J5-Pin_1)*%
X153568400Y-65660000D03*
X153568400Y-61960000D03*
%TD*%
D34*
%TO.P,TP2,1,1*%
%TO.N,GND*%
X40487600Y-64988400D03*
%TD*%
D29*
%TO.P,C17,1*%
%TO.N,Net-(D10-K)*%
X25650000Y-59925000D03*
%TO.P,C17,2*%
%TO.N,GND*%
X25650000Y-61475000D03*
%TD*%
D51*
%TO.P,J12,1,Pin_1*%
%TO.N,Net-(J12-Pin_1)*%
X40350000Y-72775000D03*
D52*
%TO.P,J12,2,Pin_2*%
%TO.N,Net-(D12-A)*%
X42890000Y-72775000D03*
%TD*%
D55*
%TO.P,C13,1*%
%TO.N,Net-(U6A-+)*%
X27375000Y-49800000D03*
%TO.P,C13,2*%
%TO.N,GND*%
X27375000Y-47900000D03*
%TD*%
D21*
%TO.P,U10,1,IPROPI*%
%TO.N,GND*%
X106095800Y-79114650D03*
%TO.P,U10,2,IN2*%
%TO.N,Net-(U1-GPB4)*%
X104825800Y-79114650D03*
%TO.P,U10,3,IN1*%
%TO.N,Net-(U1-GPB5)*%
X103555800Y-79114650D03*
%TO.P,U10,4,VREF*%
%TO.N,+3.3V*%
X102285800Y-79114650D03*
%TO.P,U10,5,VM*%
%TO.N,+12V*%
X102285800Y-84562950D03*
%TO.P,U10,6,OUT1*%
%TO.N,S7*%
X103555800Y-84562950D03*
%TO.P,U10,7,GND*%
%TO.N,GND*%
X104825800Y-84562950D03*
%TO.P,U10,8,OUT2*%
%TO.N,S8*%
X106095800Y-84562950D03*
D22*
%TO.P,U10,9,EPAD*%
%TO.N,GND*%
X104190800Y-81838800D03*
%TD*%
D50*
%TO.P,C10,1*%
%TO.N,Net-(D3-K)*%
X148336000Y-35204400D03*
%TO.P,C10,2*%
%TO.N,GND*%
X148336000Y-26804400D03*
%TD*%
D34*
%TO.P,TP4,1,1*%
%TO.N,Net-(J3-Pin_1)*%
X26416000Y-65750400D03*
%TD*%
D29*
%TO.P,R1,1*%
%TO.N,FlowPin*%
X30075000Y-48275000D03*
%TO.P,R1,2*%
%TO.N,Net-(U6A--)*%
X30075000Y-49825000D03*
%TD*%
D28*
%TO.P,R8,1*%
%TO.N,GND*%
X25603200Y-83847400D03*
%TO.P,R8,2*%
%TO.N,Net-(J3-Pin_1)*%
X25603200Y-82197400D03*
%TD*%
D30*
%TO.P,U6,1*%
%TO.N,Net-(U6A--)*%
X29555000Y-52275000D03*
%TO.P,U6,2,-*%
X28285000Y-52275000D03*
%TO.P,U6,3,+*%
%TO.N,Net-(U6A-+)*%
X27015000Y-52275000D03*
%TO.P,U6,4,V-*%
%TO.N,GND*%
X25745000Y-52275000D03*
%TO.P,U6,5,+*%
%TO.N,Net-(D10-K)*%
X25745000Y-57675000D03*
%TO.P,U6,6,-*%
%TO.N,Net-(U6B--)*%
X27015000Y-57675000D03*
%TO.P,U6,7*%
X28285000Y-57675000D03*
%TO.P,U6,8,V+*%
%TO.N,+3.3V*%
X29555000Y-57675000D03*
%TD*%
D58*
%TO.N,GND*%
X163525000Y-84225000D03*
X172250000Y-77875000D03*
X172100000Y-55325000D03*
X172100000Y-41450000D03*
%TO.N,+5VA*%
X136325000Y-106300000D03*
%TO.N,uC_EN*%
X55050000Y-47125000D03*
X74400000Y-29650000D03*
%TO.N,GND*%
X154025600Y-81076800D03*
X99060000Y-24434800D03*
X68351400Y-81654650D03*
X110831381Y-86969776D03*
X67310000Y-80975200D03*
X74300000Y-27575000D03*
X79883000Y-81603850D03*
X51651231Y-62927695D03*
X79044800Y-80975200D03*
X31525000Y-54725000D03*
X142240000Y-81889600D03*
X77495000Y-34646600D03*
X84925000Y-58225000D03*
X52225000Y-30775000D03*
X57505600Y-82346800D03*
X53376705Y-86943133D03*
X90779600Y-81026000D03*
X135805391Y-86768091D03*
X79044798Y-30124400D03*
X47548800Y-93827600D03*
X83236600Y-32049400D03*
X69327632Y-86442712D03*
X44000000Y-55875000D03*
X115976400Y-82448400D03*
X121500000Y-85250000D03*
X91567000Y-81705450D03*
X130403600Y-82525000D03*
X130590400Y-25928800D03*
X79044800Y-82296000D03*
X141274800Y-81229200D03*
X72175000Y-47075000D03*
X137040190Y-43771390D03*
X69342000Y-82296000D03*
X104190800Y-81838800D03*
X56825000Y-61175000D03*
X106125000Y-77000000D03*
X130352800Y-81178400D03*
X46456481Y-40867030D03*
X148461000Y-23279400D03*
X133815800Y-44139550D03*
X76375000Y-86975000D03*
X90728800Y-82400000D03*
X155250000Y-86450000D03*
X55829200Y-82346800D03*
X75014648Y-62786952D03*
X131700000Y-63786000D03*
X80873600Y-82296000D03*
X27400000Y-46075000D03*
X88526021Y-64475874D03*
X55778400Y-81026000D03*
X143154400Y-82550000D03*
X84671200Y-29947400D03*
X80822800Y-80924400D03*
X154889200Y-81737200D03*
X105206800Y-81178400D03*
X82534885Y-44812029D03*
X123799598Y-32485148D03*
X57556400Y-81026000D03*
X157127400Y-23838600D03*
X74325000Y-53675000D03*
X115976400Y-81076800D03*
X116840002Y-81788000D03*
X66147809Y-64616617D03*
X92557600Y-82346800D03*
X71454422Y-77341301D03*
X25575000Y-85350000D03*
X58324580Y-85999045D03*
X131550000Y-77050000D03*
X78028800Y-37642800D03*
X67462400Y-82325000D03*
X92456000Y-80975200D03*
X142475000Y-65075000D03*
X156850000Y-77075000D03*
X145288002Y-77774800D03*
X61519377Y-84380542D03*
X142716545Y-86752373D03*
X141339400Y-32218050D03*
X141325600Y-82600800D03*
X82651348Y-77216196D03*
X93475000Y-76925000D03*
X27113879Y-62607750D03*
X56616600Y-81654650D03*
X105105200Y-82550000D03*
X133390400Y-25803800D03*
X43868798Y-34472800D03*
X81220837Y-86116918D03*
X155752800Y-82397600D03*
X117460000Y-86406802D03*
X129540000Y-81838800D03*
X30825000Y-69700000D03*
X103276400Y-81127600D03*
X97945534Y-86875947D03*
X109800000Y-63125000D03*
X69342000Y-80975200D03*
X155854400Y-81026000D03*
X130145598Y-86303738D03*
X76464026Y-58201937D03*
X40622256Y-49310711D03*
X117703600Y-82499200D03*
X92396503Y-86318934D03*
X44452896Y-79274559D03*
X104674571Y-86527105D03*
X103428800Y-82550000D03*
X118850000Y-76875000D03*
X59381760Y-77153643D03*
X128625600Y-82550000D03*
X120050000Y-65155000D03*
X128625600Y-81178400D03*
X143154400Y-81280000D03*
X129690800Y-44189550D03*
X147346356Y-86893197D03*
X86575000Y-86425000D03*
X154025600Y-82397600D03*
X117754400Y-81127600D03*
X100271903Y-60387763D03*
X76200000Y-30073600D03*
X96500000Y-64625000D03*
%TO.N,+3.3V*%
X88489600Y-79122478D03*
X151225000Y-79100000D03*
X139000000Y-79050000D03*
X37125000Y-67050000D03*
X76907200Y-79221765D03*
X113575000Y-79075000D03*
X69050000Y-67975000D03*
X40875000Y-53125000D03*
X46337400Y-45570400D03*
X65632800Y-79243786D03*
X53539200Y-78874323D03*
X126325000Y-79075000D03*
X100950000Y-79075000D03*
%TO.N,Net-(D5-A)*%
X64875000Y-49050000D03*
X73975000Y-49050000D03*
%TO.N,WorkSwitch*%
X58572735Y-93186816D03*
%TO.N,M1_IN2*%
X60775000Y-49475000D03*
X57675000Y-77250000D03*
%TO.N,M1_IN1*%
X59325000Y-49450000D03*
X55975000Y-76975000D03*
%TO.N,SCL*%
X78500000Y-53325000D03*
X80900000Y-56300000D03*
%TO.N,SDA*%
X77950000Y-56225000D03*
X68225000Y-50800000D03*
%TO.N,S12*%
X115039400Y-96089100D03*
%TO.N,S16*%
X146825000Y-94025000D03*
%TO.N,Net-(U1-GPB0)*%
X68965374Y-77115374D03*
X83191437Y-53720719D03*
%TO.N,Net-(U1-GPB1)*%
X70000000Y-77275000D03*
X84350000Y-53775000D03*
%TO.N,Net-(U1-GPB2)*%
X85850000Y-53750000D03*
X79325000Y-76775000D03*
%TO.N,Net-(U1-GPB3)*%
X81000000Y-76800000D03*
X86874657Y-53748086D03*
%TO.N,Net-(U1-GPB4)*%
X94133615Y-54065217D03*
X104625000Y-76925000D03*
%TO.N,Net-(U1-GPB5)*%
X92725000Y-54000000D03*
X103025000Y-77075000D03*
%TO.N,Net-(U1-GPB6)*%
X92225000Y-76825000D03*
X91506672Y-54098558D03*
%TO.N,Net-(U1-GPB7)*%
X90775000Y-76925000D03*
X90277950Y-54107665D03*
%TO.N,Net-(U1-GPA0)*%
X103925000Y-67850000D03*
X115900000Y-76725000D03*
%TO.N,Net-(U1-GPA1)*%
X105732528Y-67579078D03*
X117525000Y-76825000D03*
%TO.N,Net-(U1-GPA2)*%
X116550000Y-68000000D03*
X128050000Y-77300000D03*
%TO.N,Net-(U1-GPA3)*%
X129725000Y-76825000D03*
X117750000Y-68175000D03*
%TO.N,Net-(U1-GPA4)*%
X140625000Y-76975000D03*
X127400000Y-67475000D03*
%TO.N,Net-(U1-GPA5)*%
X129000000Y-66577449D03*
X142685775Y-77114225D03*
%TO.N,Net-(U1-GPA6)*%
X128850000Y-64925000D03*
X153225000Y-77325000D03*
%TO.N,Net-(U1-GPA7)*%
X155475000Y-77250000D03*
X129850000Y-64250000D03*
%TD*%
D59*
%TO.N,Net-(D12-A)*%
X40637400Y-43890400D02*
X40682400Y-43845400D01*
X40637400Y-46145400D02*
X40637400Y-43890400D01*
%TO.N,Net-(D10-K)*%
X32891200Y-64783800D02*
X32850000Y-64825000D01*
X35052000Y-64783800D02*
X32891200Y-64783800D01*
X32850000Y-64825000D02*
X32900000Y-64875000D01*
X30875000Y-64825000D02*
X32850000Y-64825000D01*
X32900000Y-64875000D02*
X32900000Y-75739600D01*
X32900000Y-63325000D02*
X32900000Y-64875000D01*
X29500000Y-59925000D02*
X32900000Y-63325000D01*
X32900000Y-75739600D02*
X33883600Y-76723200D01*
X25650000Y-59925000D02*
X29500000Y-59925000D01*
%TO.N,GND*%
X30875000Y-69650000D02*
X30825000Y-69700000D01*
X30875000Y-68125000D02*
X30875000Y-69650000D01*
%TO.N,+3.3V*%
X36091200Y-68083800D02*
X37125000Y-67050000D01*
X35052000Y-68083800D02*
X36091200Y-68083800D01*
%TO.N,Net-(J3-Pin_1)*%
X26416000Y-68266000D02*
X26416000Y-65750400D01*
X30100000Y-71950000D02*
X26416000Y-68266000D01*
X30100000Y-75479600D02*
X30100000Y-71950000D01*
X31343600Y-76723200D02*
X30100000Y-75479600D01*
%TO.N,GND*%
X44000000Y-54195000D02*
X44000000Y-55875000D01*
%TO.N,+3.3V*%
X39850000Y-54150000D02*
X40875000Y-53125000D01*
X37525000Y-54150000D02*
X39850000Y-54150000D01*
X33700000Y-57975000D02*
X37525000Y-54150000D01*
X31475000Y-57975000D02*
X33700000Y-57975000D01*
%TO.N,Net-(D12-A)*%
X42280800Y-50850000D02*
X42380800Y-50750000D01*
X37525000Y-50850000D02*
X42280800Y-50850000D01*
X42525800Y-50895000D02*
X42380800Y-50750000D01*
X42380800Y-50750000D02*
X42380800Y-47888800D01*
X42380800Y-70819200D02*
X42380800Y-50750000D01*
X44000000Y-50895000D02*
X42525800Y-50895000D01*
X42380800Y-47888800D02*
X40637400Y-46145400D01*
X42350000Y-70850000D02*
X42380800Y-70819200D01*
X42350000Y-71525000D02*
X42350000Y-70850000D01*
X42890000Y-72215000D02*
X42275000Y-71600000D01*
X42890000Y-72775000D02*
X42890000Y-72215000D01*
X42275000Y-71600000D02*
X42350000Y-71525000D01*
%TO.N,Net-(U1-~{RESET})*%
X102250000Y-59425000D02*
X100720000Y-57895000D01*
X102250000Y-63150000D02*
X102250000Y-59425000D01*
X100720000Y-57895000D02*
X97975000Y-57895000D01*
%TO.N,+3.3V*%
X97536658Y-63150000D02*
X100600000Y-63150000D01*
X89741658Y-55355000D02*
X97536658Y-63150000D01*
X88675000Y-55355000D02*
X89741658Y-55355000D01*
D60*
%TO.N,GND*%
X98501200Y-66404800D02*
X96721400Y-64625000D01*
X96721400Y-64625000D02*
X96500000Y-64625000D01*
D59*
%TO.N,Net-(U1-GPB6)*%
X90223114Y-52815000D02*
X91506672Y-54098558D01*
X88675000Y-52815000D02*
X90223114Y-52815000D01*
%TO.N,GND*%
X86525000Y-56625000D02*
X88675000Y-56625000D01*
X84925000Y-58225000D02*
X86525000Y-56625000D01*
D60*
%TO.N,Net-(U5-VI)*%
X161750000Y-36100000D02*
X156975000Y-31325000D01*
X161750000Y-38175000D02*
X161750000Y-36100000D01*
D61*
%TO.N,S15*%
X130911818Y-106074700D02*
X150897118Y-86089400D01*
%TO.N,S14*%
X144370400Y-86320400D02*
X144370400Y-84613750D01*
X144650000Y-86600000D02*
X144370400Y-86320400D01*
X144650000Y-87175000D02*
X144650000Y-86600000D01*
X129450000Y-102375000D02*
X144650000Y-87175000D01*
D60*
%TO.N,S13*%
X140970000Y-87020400D02*
X140970000Y-86681653D01*
D59*
%TO.N,GND*%
X142860000Y-86608918D02*
X142716545Y-86752373D01*
X142860000Y-84524150D02*
X142860000Y-86608918D01*
D60*
%TO.N,S13*%
X140970000Y-86681653D02*
X141605000Y-86046653D01*
X141605000Y-86046653D02*
X141605000Y-84613750D01*
%TO.N,S14*%
X127220300Y-104604700D02*
X129450000Y-102375000D01*
X126987565Y-104604700D02*
X127220300Y-104604700D01*
%TO.N,Net-(U5-VI)*%
X157000000Y-44700000D02*
X157000000Y-42925000D01*
X157000000Y-42925000D02*
X161750000Y-38175000D01*
%TO.N,GND*%
X170150000Y-39500000D02*
X172100000Y-41450000D01*
X170150000Y-38175000D02*
X170150000Y-39500000D01*
X170150000Y-53375000D02*
X172100000Y-55325000D01*
X170150000Y-52390000D02*
X170150000Y-53375000D01*
X170150000Y-75775000D02*
X172250000Y-77875000D01*
X170150000Y-74730000D02*
X170150000Y-75775000D01*
X165057500Y-84175000D02*
X163575000Y-84175000D01*
X163575000Y-84175000D02*
X163525000Y-84225000D01*
D61*
%TO.N,Net-(D3-K)*%
X124206000Y-48055201D02*
X126062201Y-46199000D01*
X124206000Y-50205200D02*
X124206000Y-48055201D01*
D60*
%TO.N,GND*%
X137040190Y-41282190D02*
X137040190Y-43771390D01*
X134015800Y-38257800D02*
X137040190Y-41282190D01*
D61*
%TO.N,Net-(D3-K)*%
X126062201Y-46199000D02*
X139476000Y-46199000D01*
X139476000Y-46199000D02*
X142225000Y-43450000D01*
X142225000Y-43450000D02*
X142225000Y-38500000D01*
X142225000Y-38500000D02*
X145520600Y-35204400D01*
X145520600Y-35204400D02*
X148336000Y-35204400D01*
D60*
%TO.N,Net-(D4-K)*%
X130556000Y-50933600D02*
X133439600Y-48050000D01*
X133439600Y-48050000D02*
X143750000Y-48050000D01*
X143750000Y-48050000D02*
X147100000Y-44700000D01*
%TO.N,Net-(U5-VI)*%
X161750000Y-52390000D02*
X161750000Y-38175000D01*
X168372500Y-59012500D02*
X161750000Y-52390000D01*
X168372500Y-62615000D02*
X168372500Y-59012500D01*
%TO.N,Net-(U5-VO)*%
X163292500Y-73187500D02*
X163292500Y-62615000D01*
X161750000Y-74730000D02*
X163292500Y-73187500D01*
X166607500Y-79587500D02*
X161750000Y-74730000D01*
X166607500Y-84175000D02*
X166607500Y-79587500D01*
X166607500Y-89425000D02*
X166607500Y-84175000D01*
X166277500Y-89755000D02*
X166607500Y-89425000D01*
X166277500Y-93455000D02*
X166277500Y-89755000D01*
%TO.N,+5VA*%
X166277500Y-103072500D02*
X163050000Y-106300000D01*
X136325000Y-106300000D02*
X163050000Y-106300000D01*
X166277500Y-101455000D02*
X166277500Y-103072500D01*
X166277500Y-97755000D02*
X166277500Y-101455000D01*
D61*
%TO.N,S16*%
X157019600Y-85219600D02*
X157019600Y-84461350D01*
X157700000Y-85900000D02*
X157019600Y-85219600D01*
X157700000Y-88075000D02*
X157700000Y-85900000D01*
X151750000Y-94025000D02*
X157700000Y-88075000D01*
X146825000Y-94025000D02*
X151750000Y-94025000D01*
D59*
%TO.N,+5VA*%
X80080394Y-106455700D02*
X80086094Y-106450000D01*
X80086094Y-106450000D02*
X82007200Y-106450000D01*
X72059288Y-106422800D02*
X72092188Y-106455700D01*
X72092188Y-106455700D02*
X80080394Y-106455700D01*
X58904100Y-106422800D02*
X72059288Y-106422800D01*
X82007200Y-106450000D02*
X86000000Y-102457200D01*
X58175000Y-105693700D02*
X58904100Y-106422800D01*
%TO.N,FlowSensor*%
X85293500Y-107163700D02*
X90000000Y-102457200D01*
X30790000Y-97150000D02*
X40803700Y-107163700D01*
X30790000Y-95225000D02*
X30790000Y-97150000D01*
X40803700Y-107163700D02*
X85293500Y-107163700D01*
D62*
%TO.N,uC_EN*%
X55050000Y-47125000D02*
X55050000Y-47075000D01*
D59*
X76321600Y-31571600D02*
X74400000Y-29650000D01*
D62*
X58930000Y-60675000D02*
X54500000Y-56245000D01*
X55050000Y-47075000D02*
X55050000Y-47075000D01*
X54500000Y-56245000D02*
X54500000Y-48500000D01*
D59*
X77470000Y-31571600D02*
X76321600Y-31571600D01*
D62*
X60642500Y-62387500D02*
X58930000Y-60675000D01*
D59*
X77507000Y-31534600D02*
X77470000Y-31571600D01*
D62*
X55000000Y-47125000D02*
X55050000Y-47125000D01*
X54500000Y-48500000D02*
X54500000Y-47625000D01*
D59*
X70154000Y-29679000D02*
X69596000Y-29121000D01*
X79502000Y-31534600D02*
X77507000Y-31534600D01*
D62*
X64345000Y-62387500D02*
X60642500Y-62387500D01*
D59*
X74371000Y-29679000D02*
X70154000Y-29679000D01*
X69596000Y-29121000D02*
X69596000Y-28024000D01*
X74400000Y-29650000D02*
X74371000Y-29679000D01*
D62*
X54500000Y-47625000D02*
X55000000Y-47125000D01*
D59*
%TO.N,GND*%
X43868800Y-34472800D02*
X43932200Y-34536200D01*
X131455000Y-77145000D02*
X131550000Y-77050000D01*
X25745000Y-52275000D02*
X25745000Y-52988000D01*
D63*
X97978400Y-85296600D02*
X98000000Y-85296600D01*
D60*
X86766400Y-66235495D02*
X88526021Y-64475874D01*
X129690800Y-44189550D02*
X129690800Y-42582800D01*
D59*
X82651348Y-78032034D02*
X81753932Y-78929450D01*
X25650000Y-61475000D02*
X25981129Y-61475000D01*
X71454422Y-77785628D02*
X70256600Y-78983450D01*
D60*
X62364635Y-85225800D02*
X61519377Y-84380542D01*
D59*
X106105000Y-79075850D02*
X106105000Y-77020000D01*
X27400000Y-46075000D02*
X27400000Y-47875000D01*
D63*
X148278400Y-85296600D02*
X148300000Y-85296600D01*
D59*
X118780000Y-79075850D02*
X118780000Y-76945000D01*
X25603200Y-83847400D02*
X25603200Y-85321800D01*
D60*
X86766400Y-66258400D02*
X86766400Y-66235495D01*
D59*
X46456481Y-42476319D02*
X46362400Y-42570400D01*
D64*
X52259000Y-30809000D02*
X52225000Y-30775000D01*
D60*
X143459400Y-65075000D02*
X142475000Y-65075000D01*
D63*
X147346356Y-86228644D02*
X148278400Y-85296600D01*
D60*
X75099732Y-62872036D02*
X75014648Y-62786952D01*
D59*
X73020000Y-52700000D02*
X73995000Y-53675000D01*
D63*
X74796600Y-85296600D02*
X74775000Y-85296600D01*
D59*
X25745000Y-52988000D02*
X29182000Y-56425000D01*
X76200000Y-28775000D02*
X76200000Y-30073600D01*
X69327632Y-86442712D02*
X68986600Y-86101680D01*
X78950000Y-28775000D02*
X78950000Y-30029602D01*
X43675000Y-77825000D02*
X43675000Y-78496663D01*
D60*
X98958400Y-24536400D02*
X99060000Y-24434800D01*
D63*
X110831381Y-85443619D02*
X110878400Y-85396600D01*
D59*
X155535000Y-86165000D02*
X155250000Y-86450000D01*
D60*
X51766400Y-63042864D02*
X51651231Y-62927695D01*
X52911533Y-86943133D02*
X51892400Y-85924000D01*
D59*
X27400000Y-47875000D02*
X27375000Y-47900000D01*
X130185000Y-86264336D02*
X130145598Y-86303738D01*
D60*
X110101200Y-66404800D02*
X110101200Y-63426200D01*
D59*
X40682400Y-39158400D02*
X44094400Y-42570400D01*
D60*
X156975000Y-27325000D02*
X156975000Y-23991000D01*
X134015800Y-26429200D02*
X133390400Y-25803800D01*
D64*
X78028800Y-36322000D02*
X78079600Y-36271200D01*
D59*
X56995000Y-53142000D02*
X56995000Y-54425000D01*
X25981129Y-61475000D02*
X27113879Y-62607750D01*
D60*
X144780000Y-66395600D02*
X143459400Y-65075000D01*
D64*
X82534885Y-44051115D02*
X82534885Y-44812029D01*
D60*
X130615800Y-25954200D02*
X130590400Y-25928800D01*
D59*
X104674571Y-84684579D02*
X104674571Y-86527105D01*
X31525000Y-56375000D02*
X31475000Y-56425000D01*
D60*
X86575000Y-86388000D02*
X85215600Y-85028600D01*
X110101200Y-63426200D02*
X109800000Y-63125000D01*
D64*
X72175000Y-47075000D02*
X72175000Y-45063000D01*
D59*
X76600000Y-58065963D02*
X76464026Y-58201937D01*
D64*
X74300000Y-27575000D02*
X72585000Y-27575000D01*
D59*
X59145000Y-55975000D02*
X59145000Y-57225000D01*
X84721200Y-29897400D02*
X84671200Y-29947400D01*
X84721200Y-28397400D02*
X84721200Y-29897400D01*
D63*
X135805391Y-86768091D02*
X135805391Y-85269609D01*
D59*
X80483932Y-85380013D02*
X81220837Y-86116918D01*
X93420600Y-78929450D02*
X93420600Y-76979400D01*
X82651348Y-77216196D02*
X82651348Y-78032034D01*
D63*
X121546600Y-85296600D02*
X123100000Y-85296600D01*
D59*
X92396503Y-86318934D02*
X92150600Y-86073031D01*
D60*
X75099732Y-66258400D02*
X75099732Y-62872036D01*
D59*
X85075000Y-58075000D02*
X84925000Y-58225000D01*
D63*
X110831381Y-86969776D02*
X110831381Y-85443619D01*
D59*
X131455000Y-79075850D02*
X131455000Y-77145000D01*
D63*
X135878400Y-85196600D02*
X135900000Y-85196600D01*
D59*
X77470000Y-34621600D02*
X77495000Y-34646600D01*
D63*
X121500000Y-85250000D02*
X121546600Y-85296600D01*
X110878400Y-85396600D02*
X110900000Y-85396600D01*
D60*
X53376705Y-86943133D02*
X52911533Y-86943133D01*
X133815800Y-44139550D02*
X133815800Y-38457800D01*
D59*
X156805000Y-77120000D02*
X156850000Y-77075000D01*
X49115200Y-94757200D02*
X48185600Y-93827600D01*
X92150600Y-86073031D02*
X92150600Y-84377750D01*
D60*
X83311600Y-32124400D02*
X83236600Y-32049400D01*
D59*
X56995000Y-54425000D02*
X56995000Y-55058000D01*
X40682400Y-38445400D02*
X40682400Y-39158400D01*
D63*
X76375000Y-86975000D02*
X76375000Y-86875000D01*
D60*
X133815800Y-38457800D02*
X134015800Y-38257800D01*
D59*
X31525000Y-54725000D02*
X31525000Y-56375000D01*
D64*
X83236600Y-34099400D02*
X83311600Y-34174400D01*
D59*
X117510000Y-86356802D02*
X117460000Y-86406802D01*
X43675000Y-78496663D02*
X44452896Y-79274559D01*
D60*
X123799600Y-32485146D02*
X123799598Y-32485148D01*
X148461000Y-23279400D02*
X148461000Y-26679400D01*
D63*
X147346356Y-86893197D02*
X147346356Y-86228644D01*
D60*
X63858800Y-66229566D02*
X64534860Y-66229566D01*
D59*
X97975000Y-60435000D02*
X97975000Y-61705000D01*
D64*
X78028800Y-37642800D02*
X78028800Y-36322000D01*
D59*
X57150600Y-84691716D02*
X58324580Y-85865696D01*
X57530000Y-61175000D02*
X58930000Y-62575000D01*
D63*
X76375000Y-86875000D02*
X74796600Y-85296600D01*
D59*
X56995000Y-55058000D02*
X57691000Y-55754000D01*
X104835000Y-84524150D02*
X104674571Y-84684579D01*
X68986600Y-86101680D02*
X68986600Y-84431750D01*
D64*
X83186600Y-43399400D02*
X82534885Y-44051115D01*
D60*
X121299800Y-66404800D02*
X120050000Y-65155000D01*
D59*
X144130000Y-79075850D02*
X145288002Y-77917848D01*
X44094400Y-42570400D02*
X46362400Y-42570400D01*
D60*
X134015800Y-28627800D02*
X134015800Y-26429200D01*
D59*
X58324580Y-85865696D02*
X58324580Y-85999045D01*
X59381760Y-77153643D02*
X59381760Y-77968290D01*
D60*
X130615800Y-28627800D02*
X130615800Y-25954200D01*
D59*
X57150600Y-84377750D02*
X57150600Y-84691716D01*
X40637400Y-49295567D02*
X40622256Y-49310711D01*
X97975000Y-60435000D02*
X100224666Y-60435000D01*
D60*
X51766400Y-66258400D02*
X51766400Y-63042864D01*
D59*
X106105000Y-77020000D02*
X106125000Y-77000000D01*
D60*
X123799600Y-30295600D02*
X123799600Y-32485146D01*
D59*
X76600000Y-56650000D02*
X76600000Y-58065963D01*
X100224666Y-60435000D02*
X100271903Y-60387763D01*
X97975000Y-59165000D02*
X97975000Y-60435000D01*
X25603200Y-85321800D02*
X25575000Y-85350000D01*
X56825000Y-61175000D02*
X57530000Y-61175000D01*
X117510000Y-84524150D02*
X117510000Y-86356802D01*
X130185000Y-84524150D02*
X130185000Y-86264336D01*
X118780000Y-76945000D02*
X118850000Y-76875000D01*
X93420600Y-76979400D02*
X93475000Y-76925000D01*
X80483932Y-84377750D02*
X80483932Y-85380013D01*
D64*
X72585000Y-27575000D02*
X72136000Y-28024000D01*
D60*
X131700000Y-64403600D02*
X131700000Y-63786000D01*
D59*
X58924000Y-55754000D02*
X59145000Y-55975000D01*
X57691000Y-55754000D02*
X58924000Y-55754000D01*
D60*
X129690800Y-42582800D02*
X134015800Y-38257800D01*
X156975000Y-23991000D02*
X157127400Y-23838600D01*
X64534860Y-66229566D02*
X66147809Y-64616617D01*
D63*
X135805391Y-85269609D02*
X135878400Y-85196600D01*
X97945534Y-85329466D02*
X97978400Y-85296600D01*
D59*
X85075000Y-56650000D02*
X85075000Y-58075000D01*
D60*
X98958400Y-28159600D02*
X98958400Y-24536400D01*
X133701200Y-66404800D02*
X131700000Y-64403600D01*
D59*
X59381760Y-77968290D02*
X58420600Y-78929450D01*
D60*
X122801200Y-66404800D02*
X121299800Y-66404800D01*
D59*
X78950000Y-30029602D02*
X79044798Y-30124400D01*
X29182000Y-56425000D02*
X31475000Y-56425000D01*
D64*
X54626000Y-30809000D02*
X52259000Y-30809000D01*
D60*
X63119200Y-85225800D02*
X62364635Y-85225800D01*
X83311600Y-34174400D02*
X83311600Y-32124400D01*
D59*
X156805000Y-79075850D02*
X156805000Y-77120000D01*
X155535000Y-84524150D02*
X155535000Y-86165000D01*
X145288002Y-77917848D02*
X145288002Y-77774800D01*
D60*
X148461000Y-26679400D02*
X148336000Y-26804400D01*
D64*
X72175000Y-45063000D02*
X72136000Y-45024000D01*
D59*
X59145000Y-51625000D02*
X58512000Y-51625000D01*
X58512000Y-51625000D02*
X56995000Y-53142000D01*
D60*
X141289400Y-32168050D02*
X141339400Y-32218050D01*
D59*
X46456481Y-40867030D02*
X46456481Y-42476319D01*
X77470000Y-33121600D02*
X77470000Y-34621600D01*
X71454422Y-77341301D02*
X71454422Y-77785628D01*
X48185600Y-93827600D02*
X47548800Y-93827600D01*
X73995000Y-53675000D02*
X74325000Y-53675000D01*
D63*
X97945534Y-86875947D02*
X97945534Y-85329466D01*
D59*
X40637400Y-47695400D02*
X40637400Y-49295567D01*
X41910000Y-34472800D02*
X43868800Y-34472800D01*
D60*
X141289400Y-30293050D02*
X141289400Y-32168050D01*
X86575000Y-86425000D02*
X86575000Y-86388000D01*
%TO.N,+5V*%
X86918800Y-41499400D02*
X83186600Y-41499400D01*
X131695400Y-31067800D02*
X132315800Y-30447400D01*
X83186600Y-41499400D02*
X83186600Y-38899400D01*
D59*
X89421200Y-28472400D02*
X91795600Y-30846800D01*
D60*
X86918800Y-42398088D02*
X86918800Y-41499400D01*
X98958400Y-36559600D02*
X97857200Y-36559600D01*
X113792000Y-36547600D02*
X124561000Y-36547600D01*
X132315800Y-30447400D02*
X132315800Y-28627800D01*
D59*
X91795600Y-30846800D02*
X91795600Y-41499400D01*
D60*
X130040800Y-31067800D02*
X131695400Y-31067800D01*
X83525000Y-49225000D02*
X83525000Y-45791888D01*
X92917400Y-41499400D02*
X91795600Y-41499400D01*
X83186600Y-38899400D02*
X83311600Y-38774400D01*
X98970400Y-36547600D02*
X98958400Y-36559600D01*
X91795600Y-41499400D02*
X86918800Y-41499400D01*
X124561000Y-36547600D02*
X130040800Y-31067800D01*
X113792000Y-36547600D02*
X98970400Y-36547600D01*
X97857200Y-36559600D02*
X92917400Y-41499400D01*
X83525000Y-45791888D02*
X86918800Y-42398088D01*
D61*
%TO.N,+12V*%
X110083600Y-71684800D02*
X110083600Y-81894600D01*
D60*
X130556000Y-54933600D02*
X130556000Y-57771600D01*
D63*
X126595050Y-83725000D02*
X127394200Y-84524150D01*
D61*
X75133200Y-83140800D02*
X74879200Y-83394800D01*
D63*
X63119200Y-83675800D02*
X65439850Y-83675800D01*
X77040382Y-83725000D02*
X77693132Y-84377750D01*
D65*
X124206000Y-58405200D02*
X131189600Y-58405200D01*
D61*
X51765200Y-83971400D02*
X51866800Y-84073000D01*
X63858800Y-71829566D02*
X63858800Y-82936200D01*
X133654800Y-80261849D02*
X136961976Y-83569025D01*
X148742400Y-83394800D02*
X148793200Y-83394800D01*
X110083600Y-81894600D02*
X112014000Y-83825000D01*
D63*
X74775000Y-83725000D02*
X77040382Y-83725000D01*
X114020050Y-83825000D02*
X114719200Y-84524150D01*
X98000000Y-83725000D02*
X101245050Y-83725000D01*
X65439850Y-83675800D02*
X66195800Y-84431750D01*
X112014000Y-83825000D02*
X114020050Y-83825000D01*
D60*
X51866800Y-84365800D02*
X54498600Y-84365800D01*
D63*
X148300000Y-83725000D02*
X151945050Y-83725000D01*
X86360000Y-83478600D02*
X88460650Y-83478600D01*
D61*
X86715600Y-83123000D02*
X86360000Y-83478600D01*
X75133200Y-71690800D02*
X75133200Y-83140800D01*
D60*
X54498600Y-84365800D02*
X54511600Y-84378800D01*
D61*
X122732800Y-71894000D02*
X122732800Y-83349800D01*
D63*
X135900000Y-83625000D02*
X139170050Y-83625000D01*
D61*
X51765200Y-71538400D02*
X51765200Y-83971400D01*
X133654800Y-71983600D02*
X133654800Y-80261849D01*
D63*
X85215600Y-83478600D02*
X86360000Y-83478600D01*
X110900000Y-83825000D02*
X112014000Y-83825000D01*
D60*
X130556000Y-57771600D02*
X131189600Y-58405200D01*
D63*
X88460650Y-83478600D02*
X89359800Y-84377750D01*
X123100000Y-83725000D02*
X126595050Y-83725000D01*
X151945050Y-83725000D02*
X152744200Y-84524150D01*
D61*
X148742400Y-75958000D02*
X148742400Y-83394800D01*
X86715600Y-71684800D02*
X86715600Y-83123000D01*
X98552000Y-71792400D02*
X98552000Y-83248200D01*
D63*
X101245050Y-83725000D02*
X102044200Y-84524150D01*
X139170050Y-83625000D02*
X140069200Y-84524150D01*
D61*
X144780000Y-71995600D02*
X148742400Y-75958000D01*
D65*
X131189600Y-58405200D02*
X144780000Y-71995600D01*
D61*
%TO.N,Net-(D3-K)*%
X141289400Y-28393050D02*
X137650550Y-28393050D01*
X148336000Y-33004400D02*
X143724650Y-28393050D01*
X143724650Y-28393050D02*
X141289400Y-28393050D01*
X148336000Y-35204400D02*
X148336000Y-33004400D01*
D59*
%TO.N,Net-(U6A-+)*%
X27375000Y-49800000D02*
X28493667Y-48681333D01*
X34036000Y-25755600D02*
X34899600Y-25755600D01*
X28554000Y-48448534D02*
X28554000Y-38336800D01*
X27375000Y-51915000D02*
X27015000Y-52275000D01*
X26822400Y-36605200D02*
X26822400Y-32969200D01*
X27375000Y-49800000D02*
X27375000Y-51915000D01*
X28493667Y-48508867D02*
X28554000Y-48448534D01*
X28493667Y-48681333D02*
X28493667Y-48508867D01*
X28554000Y-38336800D02*
X26822400Y-36605200D01*
X26822400Y-32969200D02*
X34036000Y-25755600D01*
%TO.N,Net-(D10-K)*%
X25650000Y-59925000D02*
X25650000Y-57770000D01*
X25650000Y-57770000D02*
X25745000Y-57675000D01*
%TO.N,Net-(U7A-+)*%
X41952400Y-38445400D02*
X41952400Y-36415200D01*
X36525200Y-36605200D02*
X41677600Y-36605200D01*
X41677600Y-36605200D02*
X41910000Y-36372800D01*
X41952400Y-36415200D02*
X41910000Y-36372800D01*
D64*
%TO.N,+3.3V*%
X82300000Y-55100000D02*
X82250000Y-55050000D01*
X102294150Y-79075000D02*
X102295000Y-79075850D01*
X81076800Y-55050000D02*
X79425000Y-55050000D01*
X54610600Y-78929450D02*
X54555473Y-78874323D01*
X66186264Y-79243786D02*
X65632800Y-79243786D01*
X126325000Y-79075000D02*
X127644150Y-79075000D01*
X70866000Y-26428000D02*
X71044000Y-26250000D01*
D59*
X46362400Y-44120400D02*
X46362400Y-45545400D01*
D64*
X85075000Y-55100000D02*
X82300000Y-55100000D01*
X79629600Y-36271200D02*
X81133000Y-37774600D01*
D59*
X73020000Y-57086658D02*
X69210000Y-53276658D01*
D64*
X81133000Y-37774600D02*
X81133000Y-54993800D01*
X54555473Y-78874323D02*
X53539200Y-78874323D01*
X75225000Y-26250000D02*
X76200000Y-27225000D01*
X79629600Y-36271200D02*
X79629600Y-33312200D01*
X79425000Y-27225000D02*
X78950000Y-27225000D01*
D59*
X29555000Y-57675000D02*
X31175000Y-57675000D01*
X73020000Y-57650000D02*
X73020000Y-57086658D01*
D64*
X81133000Y-54993800D02*
X81076800Y-55050000D01*
X152970850Y-79100000D02*
X152995000Y-79075850D01*
X114969150Y-79075000D02*
X114970000Y-79075850D01*
X66446600Y-78983450D02*
X66186264Y-79243786D01*
X76200000Y-27225000D02*
X78950000Y-27225000D01*
X79629600Y-33312200D02*
X79502000Y-33184600D01*
X151225000Y-79100000D02*
X152970850Y-79100000D01*
X75570000Y-55100000D02*
X73020000Y-57650000D01*
X89417572Y-79122478D02*
X88489600Y-79122478D01*
D59*
X69210000Y-53276658D02*
X69210000Y-52700000D01*
D64*
X71044000Y-26250000D02*
X75225000Y-26250000D01*
X127644150Y-79075000D02*
X127645000Y-79075850D01*
X89610600Y-78929450D02*
X89417572Y-79122478D01*
X81534000Y-31627600D02*
X81534000Y-29334000D01*
X79977000Y-33184600D02*
X81534000Y-31627600D01*
X79811600Y-36224400D02*
X83061600Y-36224400D01*
X113575000Y-79075000D02*
X114969150Y-79075000D01*
X83061600Y-36224400D02*
X83311600Y-36474400D01*
D59*
X46437400Y-44220400D02*
X44767400Y-44120400D01*
X37125000Y-67050000D02*
X37125000Y-63625000D01*
X46362400Y-44120400D02*
X46437400Y-44220400D01*
D64*
X79502000Y-33184600D02*
X79977000Y-33184600D01*
D59*
X46362400Y-45545400D02*
X46337400Y-45570400D01*
D64*
X81534000Y-29334000D02*
X79425000Y-27225000D01*
X70866000Y-28024000D02*
X70866000Y-26428000D01*
X139000000Y-79050000D02*
X140294150Y-79050000D01*
D59*
X31175000Y-57675000D02*
X31475000Y-57975000D01*
D64*
X76600000Y-55100000D02*
X75570000Y-55100000D01*
X77651617Y-79221765D02*
X76907200Y-79221765D01*
X76650000Y-55050000D02*
X76600000Y-55100000D01*
X73020000Y-57650000D02*
X73020000Y-64005000D01*
D59*
X29580000Y-57650000D02*
X29555000Y-57675000D01*
D64*
X79425000Y-55050000D02*
X76650000Y-55050000D01*
X73020000Y-64005000D02*
X69050000Y-67975000D01*
X82250000Y-55050000D02*
X81076800Y-55050000D01*
D59*
X37125000Y-63625000D02*
X31475000Y-57975000D01*
X44767400Y-44120400D02*
X44492400Y-43845400D01*
D64*
X88675000Y-55355000D02*
X85330000Y-55355000D01*
X85330000Y-55355000D02*
X85075000Y-55100000D01*
X100950000Y-79075000D02*
X102294150Y-79075000D01*
X77943932Y-78929450D02*
X77651617Y-79221765D01*
X140294150Y-79050000D02*
X140320000Y-79075850D01*
X79560904Y-36224400D02*
X79811600Y-36224400D01*
D59*
%TO.N,Net-(D1-A)*%
X89421200Y-26822400D02*
X84721200Y-26822400D01*
%TO.N,Net-(D5-A)*%
X79525000Y-49225000D02*
X74150000Y-49225000D01*
X64875000Y-49050000D02*
X60829000Y-53096000D01*
X74150000Y-49225000D02*
X73975000Y-49050000D01*
X60829000Y-53096000D02*
X58924000Y-53096000D01*
D60*
%TO.N,Net-(IC2-Output)*%
X123577600Y-26517600D02*
X113922000Y-26517600D01*
X133889800Y-23926800D02*
X126168400Y-23926800D01*
X113922000Y-26517600D02*
X113792000Y-26647600D01*
X135715800Y-25752800D02*
X133889800Y-23926800D01*
X126168400Y-23926800D02*
X123799600Y-26295600D01*
X123799600Y-26295600D02*
X123577600Y-26517600D01*
X135715800Y-28627800D02*
X135715800Y-25752800D01*
D59*
%TO.N,WorkSwitch*%
X56186816Y-93186816D02*
X58572735Y-93186816D01*
X54832000Y-91832000D02*
X56186816Y-93186816D01*
X54832000Y-90424000D02*
X54832000Y-91832000D01*
D62*
%TO.N,Net-(J1-D-)*%
X58895000Y-53775000D02*
X63551264Y-53775000D01*
X66670000Y-53130000D02*
X66670000Y-52700000D01*
X63551264Y-53775000D02*
X63801264Y-54025000D01*
X65775000Y-54025000D02*
X66670000Y-53130000D01*
X63801264Y-54025000D02*
X65775000Y-54025000D01*
%TO.N,Net-(J1-D+)*%
X58895000Y-54425000D02*
X58949000Y-54479000D01*
X67135999Y-54479000D02*
X67940000Y-53674999D01*
X58949000Y-54479000D02*
X67135999Y-54479000D01*
X67940000Y-53674999D02*
X67940000Y-52700000D01*
D59*
%TO.N,Net-(D6-A)*%
X58115200Y-94757200D02*
X55165200Y-94757200D01*
X55165200Y-94757200D02*
X50832000Y-90424000D01*
%TO.N,+5VA*%
X35870000Y-97150000D02*
X35870000Y-95225000D01*
X58125000Y-105643700D02*
X58175000Y-105693700D01*
X58125000Y-101350000D02*
X58125000Y-105643700D01*
X58175000Y-105693700D02*
X44413700Y-105693700D01*
X44413700Y-105693700D02*
X35870000Y-97150000D01*
D60*
%TO.N,M1B*%
X60299600Y-85953600D02*
X60096400Y-85953600D01*
D61*
X72417018Y-95046800D02*
X69392800Y-95046800D01*
X78000000Y-100629782D02*
X72417018Y-95046800D01*
D60*
X60096400Y-85953600D02*
X58521600Y-84378800D01*
D61*
X78000000Y-102457200D02*
X78000000Y-100629782D01*
X69392800Y-95046800D02*
X60299600Y-85953600D01*
%TO.N,M1A*%
X72701082Y-104985700D02*
X60746675Y-93031293D01*
X79471500Y-104985700D02*
X72701082Y-104985700D01*
X82000000Y-102457200D02*
X79471500Y-104985700D01*
D60*
X55981600Y-86512400D02*
X55981600Y-84378800D01*
D61*
X60746675Y-93031293D02*
X60746675Y-93004675D01*
X57134245Y-89392245D02*
X57134245Y-87665045D01*
D60*
X56134000Y-86664800D02*
X55981600Y-86512400D01*
D61*
X57134245Y-87665045D02*
X56134000Y-86664800D01*
X60746675Y-93004675D02*
X57134245Y-89392245D01*
D60*
%TO.N,S1*%
X67716600Y-86156600D02*
X67716600Y-84378800D01*
D66*
X78624732Y-98457200D02*
X67614800Y-87447268D01*
D60*
X67614800Y-86258400D02*
X67716600Y-86156600D01*
D66*
X80000000Y-98457200D02*
X78624732Y-98457200D01*
X67614800Y-87447268D02*
X67614800Y-86258400D01*
D59*
%TO.N,M1_IN2*%
X57675000Y-77250000D02*
X57675000Y-78405050D01*
X60706000Y-45024000D02*
X60706000Y-49406000D01*
X57675000Y-78405050D02*
X57150600Y-78929450D01*
X60706000Y-49406000D02*
X60775000Y-49475000D01*
D61*
%TO.N,S2*%
X78000000Y-94457200D02*
X78000000Y-91897000D01*
X78000000Y-91897000D02*
X70481800Y-84378800D01*
D59*
%TO.N,M1_IN1*%
X55975000Y-78835050D02*
X55880600Y-78929450D01*
X55975000Y-76975000D02*
X55975000Y-78835050D01*
X59436000Y-49339000D02*
X59325000Y-49450000D01*
X59436000Y-45024000D02*
X59436000Y-49339000D01*
D61*
%TO.N,S3*%
X82000000Y-94457200D02*
X82000000Y-89518400D01*
D60*
X79248000Y-86766400D02*
X79248000Y-84328000D01*
D61*
X82000000Y-89518400D02*
X79248000Y-86766400D01*
%TO.N,S4*%
X86000000Y-94457200D02*
X84687500Y-93144700D01*
X82013400Y-84553400D02*
X82013400Y-84328000D01*
X84687500Y-87227500D02*
X82013400Y-84553400D01*
X84687500Y-93144700D02*
X84687500Y-87227500D01*
D62*
%TO.N,SCL*%
X69596000Y-45024000D02*
X69596000Y-46278000D01*
X84715000Y-59165000D02*
X88675000Y-59165000D01*
X76643000Y-53325000D02*
X78500000Y-53325000D01*
X82250000Y-56700000D02*
X84715000Y-59165000D01*
X82250000Y-56700000D02*
X81300000Y-56700000D01*
X69596000Y-46278000D02*
X76643000Y-53325000D01*
X81300000Y-56700000D02*
X80900000Y-56300000D01*
%TO.N,SDA*%
X79425000Y-56700000D02*
X78425000Y-56700000D01*
X79425000Y-56700000D02*
X83160000Y-60435000D01*
X78425000Y-56700000D02*
X77950000Y-56225000D01*
X65786000Y-45024000D02*
X65786000Y-48361000D01*
X65786000Y-48361000D02*
X68225000Y-50800000D01*
X83160000Y-60435000D02*
X88675000Y-60435000D01*
D60*
%TO.N,S5*%
X90728800Y-86766400D02*
X90932000Y-86563200D01*
X90932000Y-86563200D02*
X90932000Y-84429600D01*
D61*
X90000000Y-87495200D02*
X90728800Y-86766400D01*
X90000000Y-94457200D02*
X90000000Y-87495200D01*
D62*
%TO.N,Net-(Q1-G)*%
X69210000Y-60515000D02*
X69220000Y-60525000D01*
X69210000Y-57650000D02*
X69210000Y-60515000D01*
X69207500Y-60512500D02*
X69220000Y-60525000D01*
X65295000Y-60512500D02*
X69207500Y-60512500D01*
%TO.N,Net-(Q1-S)*%
X70480000Y-56675001D02*
X70480000Y-57650000D01*
X70480000Y-57650000D02*
X70480000Y-59885000D01*
X70480000Y-59885000D02*
X71120000Y-60525000D01*
X63395000Y-60512500D02*
X63395000Y-56731264D01*
X63395000Y-56731264D02*
X63778264Y-56348000D01*
X63778264Y-56348000D02*
X70152999Y-56348000D01*
X70152999Y-56348000D02*
X70480000Y-56675001D01*
%TO.N,Net-(Q2-D)*%
X70170000Y-62400000D02*
X69118000Y-63452000D01*
X53850000Y-59350000D02*
X53850000Y-47225000D01*
X55626000Y-45449000D02*
X55626000Y-45024000D01*
X57952000Y-63452000D02*
X53850000Y-59350000D01*
X69118000Y-63452000D02*
X57952000Y-63452000D01*
X53850000Y-47225000D02*
X55626000Y-45449000D01*
%TO.N,uC_RX*%
X71750000Y-52316264D02*
X71750000Y-52700000D01*
X67056000Y-47622264D02*
X71750000Y-52316264D01*
X67056000Y-45024000D02*
X67056000Y-47622264D01*
%TO.N,uC_TX*%
X72117736Y-54002000D02*
X72393000Y-53726736D01*
X68326000Y-45751000D02*
X68326000Y-45024000D01*
X70480000Y-53674999D02*
X70807001Y-54002000D01*
X72393000Y-53726736D02*
X72393000Y-49818000D01*
X70807001Y-54002000D02*
X72117736Y-54002000D01*
X70480000Y-52700000D02*
X70480000Y-53674999D01*
X72393000Y-49818000D02*
X68326000Y-45751000D01*
D61*
%TO.N,S6*%
X94132400Y-94324800D02*
X94132400Y-84864600D01*
X94132400Y-84864600D02*
X93697400Y-84429600D01*
X94000000Y-94457200D02*
X94132400Y-94324800D01*
D60*
%TO.N,S7*%
X102514400Y-86868000D02*
X103565000Y-85817400D01*
D61*
X98000000Y-91382400D02*
X102514400Y-86868000D01*
X98000000Y-94457200D02*
X98000000Y-91382400D01*
D60*
X103565000Y-85817400D02*
X103565000Y-84562950D01*
D61*
%TO.N,S8*%
X106222800Y-90234400D02*
X106222800Y-89408000D01*
X106321200Y-89309600D02*
X106321200Y-84562950D01*
X102000000Y-94457200D02*
X106222800Y-90234400D01*
X106222800Y-89408000D02*
X106321200Y-89309600D01*
D59*
%TO.N,Net-(J3-Pin_1)*%
X27216600Y-82197400D02*
X27381200Y-82362000D01*
X27419800Y-83796600D02*
X27381200Y-83835200D01*
X27381200Y-83835200D02*
X27381200Y-82362000D01*
X28702000Y-83796600D02*
X27419800Y-83796600D01*
X28250000Y-95225000D02*
X27381200Y-94356200D01*
X27381200Y-94356200D02*
X27381200Y-83835200D01*
X31343600Y-76723200D02*
X31077400Y-76723200D01*
X27381200Y-80685600D02*
X31343600Y-76723200D01*
X25603200Y-82197400D02*
X27216600Y-82197400D01*
X27381200Y-82362000D02*
X27381200Y-80685600D01*
D60*
%TO.N,S9*%
X115109338Y-86712138D02*
X116240000Y-85581476D01*
D61*
X106000000Y-94457200D02*
X107364276Y-94457200D01*
D60*
X116240000Y-85581476D02*
X116240000Y-84512150D01*
D61*
X107364276Y-94457200D02*
X115109338Y-86712138D01*
%TO.N,S10*%
X112014000Y-92964000D02*
X115214400Y-89763600D01*
D60*
X108485003Y-96492997D02*
X112014000Y-92964000D01*
X100962976Y-98457200D02*
X103110476Y-96309700D01*
X103110476Y-96309700D02*
X104815476Y-96309700D01*
X104815476Y-96309700D02*
X105110476Y-96604700D01*
X108485003Y-96604700D02*
X108485003Y-96492997D01*
X105110476Y-96604700D02*
X108485003Y-96604700D01*
D61*
X117195600Y-89763600D02*
X118567200Y-88392000D01*
D60*
X118567200Y-88392000D02*
X118745000Y-88214200D01*
X118745000Y-88214200D02*
X118745000Y-84512150D01*
X100000000Y-98457200D02*
X100962976Y-98457200D01*
D61*
X115214400Y-89763600D02*
X117195600Y-89763600D01*
D60*
%TO.N,S11*%
X108711397Y-98457200D02*
X111880406Y-95288191D01*
X111880406Y-95288191D02*
X113093409Y-95288191D01*
X128915000Y-85816600D02*
X128915000Y-84562950D01*
X115773200Y-92608400D02*
X116433600Y-92608400D01*
X113093409Y-95288191D02*
X115773200Y-92608400D01*
X127914400Y-86817200D02*
X128915000Y-85816600D01*
D61*
X116433600Y-92608400D02*
X122123200Y-92608400D01*
X122123200Y-92608400D02*
X127914400Y-86817200D01*
D60*
X104000000Y-98457200D02*
X108711397Y-98457200D01*
D61*
%TO.N,S12*%
X131670400Y-85340800D02*
X131670400Y-84562950D01*
X122645606Y-96089100D02*
X132435600Y-86299106D01*
X132435600Y-86106000D02*
X131670400Y-85340800D01*
X115039400Y-96089100D02*
X122645606Y-96089100D01*
X132435600Y-86299106D02*
X132435600Y-86106000D01*
D59*
%TO.N,PressureSensor*%
X41452800Y-86944800D02*
X41452800Y-84444800D01*
D61*
%TO.N,S13*%
X123755200Y-102457200D02*
X137718800Y-88493600D01*
X106000000Y-102457200D02*
X123755200Y-102457200D01*
X139192000Y-87020400D02*
X140970000Y-87020400D01*
X137718800Y-88493600D02*
X139192000Y-87020400D01*
D60*
%TO.N,S14*%
X102000000Y-102457200D02*
X104147500Y-104604700D01*
X104147500Y-104604700D02*
X126987565Y-104604700D01*
%TO.N,S15*%
X154265000Y-85617735D02*
X154265000Y-84524150D01*
X97617500Y-106074700D02*
X130911818Y-106074700D01*
X153793335Y-86089400D02*
X154265000Y-85617735D01*
X94000000Y-102457200D02*
X97617500Y-106074700D01*
X150897118Y-86089400D02*
X153793335Y-86089400D01*
D59*
%TO.N,Net-(J3-Pin_3)*%
X33330000Y-95225000D02*
X33375000Y-95180000D01*
X33375000Y-87020800D02*
X33349800Y-86995600D01*
X33375000Y-95180000D02*
X33375000Y-87020800D01*
X33349800Y-86995600D02*
X33349800Y-84495600D01*
%TO.N,FlowPin*%
X30075000Y-48275000D02*
X30075000Y-37050000D01*
X35046000Y-32079000D02*
X54626000Y-32079000D01*
X30075000Y-37050000D02*
X35046000Y-32079000D01*
%TO.N,Net-(U6A--)*%
X30075000Y-51755000D02*
X29555000Y-52275000D01*
X30075000Y-49825000D02*
X30075000Y-51755000D01*
X28285000Y-52275000D02*
X29555000Y-52275000D01*
%TO.N,Net-(U6B--)*%
X24966000Y-43461600D02*
X26822400Y-41605200D01*
X25937000Y-54450000D02*
X24966000Y-53479000D01*
X26822400Y-41605200D02*
X26822400Y-39105200D01*
X24966000Y-53479000D02*
X24966000Y-43461600D01*
X25368400Y-37651200D02*
X25368400Y-29394000D01*
X26822400Y-39105200D02*
X25368400Y-37651200D01*
X28285000Y-57675000D02*
X28285000Y-56785000D01*
X28285000Y-56785000D02*
X25950000Y-54450000D01*
X27015000Y-57675000D02*
X28285000Y-57675000D01*
X25950000Y-54450000D02*
X25937000Y-54450000D01*
X25368400Y-29394000D02*
X28600400Y-26162000D01*
X28600400Y-26162000D02*
X28600400Y-25806400D01*
%TO.N,Net-(R7-Pad2)*%
X28702000Y-82146600D02*
X33198800Y-82146600D01*
X33198800Y-82146600D02*
X33349800Y-81995600D01*
%TO.N,PressurePin*%
X54383200Y-41211800D02*
X54626000Y-40969000D01*
X49174400Y-41211800D02*
X54383200Y-41211800D01*
X49123600Y-41262600D02*
X49174400Y-41211800D01*
%TO.N,Net-(U7A--)*%
X47856400Y-38445400D02*
X49123600Y-39712600D01*
X43222400Y-38445400D02*
X44492400Y-38445400D01*
X44492400Y-38445400D02*
X47856400Y-38445400D01*
%TO.N,Net-(U7B--)*%
X40982200Y-41605200D02*
X36525200Y-41605200D01*
X36525200Y-41605200D02*
X36525200Y-39105200D01*
X43222400Y-43845400D02*
X40982200Y-41605200D01*
X43222400Y-43845400D02*
X41952400Y-43845400D01*
%TO.N,Net-(R11-Pad2)*%
X41452800Y-79814800D02*
X39481400Y-77843400D01*
X41452800Y-81944800D02*
X41452800Y-79814800D01*
%TO.N,Net-(R13-Pad2)*%
X58125000Y-97307000D02*
X58115200Y-97297200D01*
X58125000Y-99700000D02*
X58125000Y-97307000D01*
%TO.N,Net-(U1-GPB0)*%
X67716600Y-78983450D02*
X67716600Y-78364148D01*
X83191437Y-52028850D02*
X83191437Y-53720719D01*
X88675000Y-45195000D02*
X87650001Y-45195000D01*
X87650001Y-45195000D02*
X84879000Y-47966001D01*
X67716600Y-78364148D02*
X68965374Y-77115374D01*
X84879000Y-47966001D02*
X84879000Y-50341287D01*
X84879000Y-50341287D02*
X83191437Y-52028850D01*
%TO.N,Net-(U1-GPB1)*%
X70000000Y-77275000D02*
X70000000Y-77519200D01*
X85592000Y-51956737D02*
X84350000Y-53198737D01*
X84350000Y-53198737D02*
X84350000Y-53775000D01*
X88675000Y-46465000D02*
X87650001Y-46465000D01*
X85592000Y-48523001D02*
X85592000Y-51956737D01*
X87650001Y-46465000D02*
X85592000Y-48523001D01*
X68986600Y-78532600D02*
X68986600Y-78983450D01*
X70000000Y-77519200D02*
X68986600Y-78532600D01*
%TO.N,Net-(U1-GPB2)*%
X87650001Y-47735000D02*
X86300000Y-49085001D01*
X85850000Y-52700000D02*
X85850000Y-53750000D01*
X86300000Y-52250000D02*
X85850000Y-52700000D01*
X86300000Y-49085001D02*
X86300000Y-52250000D01*
X79325000Y-78818382D02*
X79213932Y-78929450D01*
X88675000Y-47735000D02*
X87650001Y-47735000D01*
X79325000Y-76775000D02*
X79325000Y-78818382D01*
%TO.N,Net-(U1-GPB3)*%
X87008000Y-53614743D02*
X86874657Y-53748086D01*
X81000000Y-78413382D02*
X80483932Y-78929450D01*
X87008000Y-49647001D02*
X87008000Y-53614743D01*
X81000000Y-76800000D02*
X81000000Y-78413382D01*
X88675000Y-49005000D02*
X87650001Y-49005000D01*
X87650001Y-49005000D02*
X87008000Y-49647001D01*
%TO.N,Net-(U1-GPB4)*%
X90343398Y-50275000D02*
X94133615Y-54065217D01*
X88675000Y-50275000D02*
X90343398Y-50275000D01*
X104835000Y-79075850D02*
X104835000Y-77135000D01*
X104835000Y-77135000D02*
X104625000Y-76925000D01*
%TO.N,Net-(U1-GPB5)*%
X90270000Y-51545000D02*
X92725000Y-54000000D01*
X103565000Y-77615000D02*
X103025000Y-77075000D01*
X88675000Y-51545000D02*
X90270000Y-51545000D01*
X103565000Y-79075850D02*
X103565000Y-77615000D01*
%TO.N,Net-(U1-GPB6)*%
X92150600Y-76899400D02*
X92225000Y-76825000D01*
X92150600Y-78929450D02*
X92150600Y-76899400D01*
%TO.N,Net-(U1-GPB7)*%
X90255285Y-54085000D02*
X90277950Y-54107665D01*
X90880600Y-78929450D02*
X90880600Y-77030600D01*
X88675000Y-54085000D02*
X90255285Y-54085000D01*
X90880600Y-77030600D02*
X90775000Y-76925000D01*
%TO.N,Net-(U1-GPA0)*%
X103925000Y-67850000D02*
X103950000Y-67850000D01*
X97975000Y-54085000D02*
X98999999Y-54085000D01*
X115900000Y-78758850D02*
X116205000Y-79063850D01*
X98999999Y-54085000D02*
X103875000Y-58960001D01*
X103875000Y-67775000D02*
X103925000Y-67825000D01*
X103925000Y-67825000D02*
X103925000Y-67850000D01*
X103875000Y-58960001D02*
X103875000Y-65225000D01*
X115900000Y-76725000D02*
X115900000Y-78758850D01*
X103950000Y-67850000D02*
X103950000Y-67850000D01*
X103875000Y-65225000D02*
X103875000Y-67775000D01*
%TO.N,Net-(U1-GPA1)*%
X97975000Y-52815000D02*
X98999999Y-52815000D01*
X117525000Y-76825000D02*
X117525000Y-79013850D01*
X98999999Y-52815000D02*
X105732528Y-59547529D01*
X105732528Y-59547529D02*
X105732528Y-67579078D01*
X117525000Y-79013850D02*
X117475000Y-79063850D01*
X105732528Y-67667472D02*
X105732528Y-67579078D01*
%TO.N,Net-(U1-GPA2)*%
X116550000Y-68000000D02*
X116575000Y-68000000D01*
X128905000Y-78155000D02*
X128905000Y-79114650D01*
X97975000Y-51545000D02*
X101695000Y-51545000D01*
X116550000Y-67975000D02*
X116550000Y-68000000D01*
X116575000Y-68000000D02*
X116550000Y-67975000D01*
X116500000Y-66350000D02*
X116500000Y-66525000D01*
X101695000Y-51545000D02*
X115425000Y-65275000D01*
X116500000Y-67925000D02*
X116550000Y-67975000D01*
X116500000Y-66525000D02*
X116500000Y-67925000D01*
X128050000Y-77300000D02*
X128905000Y-78155000D01*
X115425000Y-65275000D02*
X116500000Y-66350000D01*
%TO.N,Net-(U1-GPA3)*%
X101426264Y-50275000D02*
X117700000Y-66548736D01*
X117750000Y-68175000D02*
X117700000Y-68225000D01*
X117700000Y-66548736D02*
X117750000Y-68175000D01*
X97975000Y-50275000D02*
X101426264Y-50275000D01*
X130185000Y-79075850D02*
X130185000Y-77285000D01*
X130185000Y-77285000D02*
X129725000Y-76825000D01*
%TO.N,Net-(U1-GPA4)*%
X140625000Y-76975000D02*
X141605000Y-77955000D01*
X118559676Y-64016000D02*
X123941000Y-64016000D01*
X103548676Y-49005000D02*
X118559676Y-64016000D01*
X97975000Y-49005000D02*
X103548676Y-49005000D01*
X127400000Y-67475000D02*
X127400000Y-67500000D01*
X127400000Y-67500000D02*
X127400000Y-67500000D01*
X123941000Y-64016000D02*
X127400000Y-67475000D01*
X141605000Y-77955000D02*
X141605000Y-79165450D01*
%TO.N,Net-(U1-GPA5)*%
X118852939Y-63308000D02*
X125730551Y-63308000D01*
X142556775Y-78772625D02*
X142556775Y-77243225D01*
X142860000Y-79075850D02*
X142556775Y-78772625D01*
X142556775Y-77243225D02*
X142685775Y-77114225D01*
X125730551Y-63308000D02*
X129000000Y-66577449D01*
X103279940Y-47735000D02*
X118852939Y-63308000D01*
X129050000Y-66627449D02*
X129000000Y-66577449D01*
X97975000Y-47735000D02*
X103279940Y-47735000D01*
%TO.N,Net-(U1-GPA6)*%
X119146202Y-62600000D02*
X126749998Y-62600000D01*
X154265000Y-79075850D02*
X154265000Y-78365000D01*
X128850000Y-64700002D02*
X128850000Y-64925000D01*
X154265000Y-78365000D02*
X153225000Y-77325000D01*
X126749998Y-62600000D02*
X128850000Y-64700002D01*
X97975000Y-46465000D02*
X103011202Y-46465000D01*
X103011202Y-46465000D02*
X119146202Y-62600000D01*
%TO.N,Net-(U1-GPA7)*%
X102742466Y-45195000D02*
X119322466Y-61775000D01*
X155535000Y-79075850D02*
X155535000Y-77310000D01*
X155535000Y-77310000D02*
X155475000Y-77250000D01*
X127275000Y-61775000D02*
X129750000Y-64250000D01*
X97975000Y-45195000D02*
X102742466Y-45195000D01*
X119322466Y-61775000D02*
X127275000Y-61775000D01*
X129750000Y-64250000D02*
X129850000Y-64250000D01*
%TO.N,WorkSwitchPin*%
X45720000Y-93902000D02*
X45720000Y-49596000D01*
X45720000Y-49596000D02*
X53077000Y-42239000D01*
X49115200Y-97297200D02*
X45720000Y-93902000D01*
X53077000Y-42239000D02*
X54626000Y-42239000D01*
%TO.N,Net-(J12-Pin_1)*%
X40350000Y-75118400D02*
X41425000Y-76193400D01*
X40350000Y-72775000D02*
X40350000Y-75118400D01*
X38783600Y-60291600D02*
X40538400Y-58536800D01*
X40350000Y-72775000D02*
X38800000Y-71225000D01*
X43656600Y-76193400D02*
X43675000Y-76175000D01*
X41425000Y-76193400D02*
X43656600Y-76193400D01*
X38800000Y-71225000D02*
X38800000Y-68076000D01*
X38783600Y-68059600D02*
X38783600Y-60291600D01*
X38800000Y-68076000D02*
X38783600Y-68059600D01*
X39481400Y-76193400D02*
X41425000Y-76193400D01*
%TD*%
%TA.AperFunction,Conductor*%
%TO.N,+12V*%
G36*
X68146250Y-68547379D02*
G01*
X68213263Y-68567141D01*
X68241956Y-68592714D01*
X68327747Y-68697252D01*
X68373080Y-68734455D01*
X68482531Y-68824278D01*
X68482537Y-68824281D01*
X68659116Y-68918665D01*
X68659118Y-68918665D01*
X68659121Y-68918667D01*
X68850731Y-68976791D01*
X69050000Y-68996419D01*
X69249269Y-68976791D01*
X69440879Y-68918667D01*
X69617469Y-68824278D01*
X69733465Y-68729083D01*
X69876730Y-68585817D01*
X69938049Y-68552335D01*
X69964551Y-68549501D01*
X103355642Y-68588471D01*
X103422656Y-68608234D01*
X103428380Y-68612153D01*
X103468243Y-68641115D01*
X103468245Y-68641116D01*
X103468248Y-68641118D01*
X103642712Y-68718794D01*
X103829513Y-68758500D01*
X104020487Y-68758500D01*
X104207288Y-68718794D01*
X104381752Y-68641118D01*
X104419792Y-68613479D01*
X104485594Y-68590000D01*
X104492791Y-68589798D01*
X115815389Y-68603013D01*
X115882401Y-68622775D01*
X115907388Y-68644038D01*
X115938747Y-68678866D01*
X116093248Y-68791118D01*
X116267712Y-68868794D01*
X116454513Y-68908500D01*
X116645487Y-68908500D01*
X116832288Y-68868794D01*
X116978342Y-68803766D01*
X117047590Y-68794482D01*
X117110867Y-68824110D01*
X117120927Y-68834075D01*
X117135728Y-68850514D01*
X117138747Y-68853866D01*
X117293248Y-68966118D01*
X117467712Y-69043794D01*
X117654513Y-69083500D01*
X117845487Y-69083500D01*
X118032288Y-69043794D01*
X118206752Y-68966118D01*
X118361253Y-68853866D01*
X118489040Y-68711944D01*
X118514245Y-68668286D01*
X118564809Y-68620072D01*
X118621769Y-68606288D01*
X132904777Y-68622958D01*
X132943631Y-68629252D01*
X132950374Y-68631487D01*
X133054255Y-68642100D01*
X134255344Y-68642099D01*
X134359226Y-68631487D01*
X134360698Y-68630999D01*
X134363944Y-68630477D01*
X134365846Y-68630070D01*
X134365866Y-68630167D01*
X134399847Y-68624703D01*
X144032959Y-68635945D01*
X144071815Y-68642241D01*
X144075574Y-68643487D01*
X144179455Y-68654100D01*
X145380544Y-68654099D01*
X145484426Y-68643487D01*
X145484431Y-68643485D01*
X145491043Y-68642070D01*
X145491168Y-68642656D01*
X145522088Y-68637683D01*
X151964276Y-68645202D01*
X152031291Y-68664965D01*
X152076984Y-68717822D01*
X152086847Y-68786992D01*
X152057748Y-68850514D01*
X152048113Y-68860431D01*
X151961035Y-68940592D01*
X151961026Y-68940602D01*
X151808348Y-69136762D01*
X151808342Y-69136771D01*
X151690035Y-69355385D01*
X151690030Y-69355396D01*
X151609316Y-69590507D01*
X151589376Y-69709999D01*
X151589378Y-69710000D01*
X152843776Y-69710000D01*
X152770855Y-69724505D01*
X152688160Y-69779760D01*
X152632905Y-69862455D01*
X152613502Y-69960000D01*
X152632905Y-70057545D01*
X152688160Y-70140240D01*
X152770855Y-70195495D01*
X152843776Y-70210000D01*
X151589377Y-70210000D01*
X151609316Y-70329492D01*
X151690030Y-70564603D01*
X151690035Y-70564614D01*
X151808342Y-70783228D01*
X151808348Y-70783237D01*
X151961026Y-70979397D01*
X151961035Y-70979407D01*
X152143922Y-71147767D01*
X152143921Y-71147767D01*
X152352032Y-71283732D01*
X152579682Y-71383587D01*
X152820661Y-71444612D01*
X152820669Y-71444614D01*
X153006359Y-71460000D01*
X153318400Y-71460000D01*
X153318400Y-70210000D01*
X153818400Y-70210000D01*
X153818400Y-71460000D01*
X154130441Y-71460000D01*
X154316130Y-71444614D01*
X154316138Y-71444612D01*
X154557117Y-71383587D01*
X154784767Y-71283732D01*
X154992878Y-71147767D01*
X155175764Y-70979407D01*
X155175773Y-70979397D01*
X155328451Y-70783237D01*
X155328457Y-70783228D01*
X155446764Y-70564614D01*
X155446769Y-70564603D01*
X155527483Y-70329492D01*
X155547423Y-70210000D01*
X154293024Y-70210000D01*
X154365945Y-70195495D01*
X154448640Y-70140240D01*
X154503895Y-70057545D01*
X154523298Y-69960000D01*
X154503895Y-69862455D01*
X154448640Y-69779760D01*
X154365945Y-69724505D01*
X154293024Y-69710000D01*
X155547422Y-69710000D01*
X155547423Y-69709999D01*
X155527483Y-69590507D01*
X155446769Y-69355396D01*
X155446764Y-69355385D01*
X155328457Y-69136771D01*
X155328451Y-69136762D01*
X155175773Y-68940602D01*
X155175764Y-68940592D01*
X155092759Y-68864180D01*
X155056768Y-68804293D01*
X155058869Y-68734455D01*
X155098393Y-68676839D01*
X155162793Y-68649738D01*
X155176872Y-68648951D01*
X155951146Y-68649855D01*
X156018161Y-68669618D01*
X156063854Y-68722475D01*
X156075000Y-68773855D01*
X156075000Y-76026075D01*
X156055315Y-76093114D01*
X156002511Y-76138869D01*
X155951076Y-76150075D01*
X141052634Y-76159148D01*
X141002124Y-76148428D01*
X140907289Y-76106206D01*
X140907286Y-76106205D01*
X140720487Y-76066500D01*
X140529513Y-76066500D01*
X140342713Y-76106205D01*
X140342708Y-76106207D01*
X140246705Y-76148950D01*
X140196347Y-76159670D01*
X131768229Y-76164803D01*
X131742372Y-76162093D01*
X131645491Y-76141500D01*
X131645487Y-76141500D01*
X131454513Y-76141500D01*
X131417502Y-76149367D01*
X131356371Y-76162360D01*
X131330668Y-76165069D01*
X130403459Y-76165634D01*
X130336407Y-76145990D01*
X130330498Y-76141952D01*
X130181756Y-76033884D01*
X130142711Y-76016500D01*
X130007288Y-75956206D01*
X130007286Y-75956205D01*
X129820487Y-75916500D01*
X129629513Y-75916500D01*
X129442714Y-75956205D01*
X129268243Y-76033884D01*
X129118363Y-76142779D01*
X129052557Y-76166259D01*
X129045554Y-76166461D01*
X119468806Y-76172294D01*
X119401754Y-76152650D01*
X119395858Y-76148621D01*
X119323617Y-76096135D01*
X119306750Y-76083880D01*
X119172807Y-76024246D01*
X119132288Y-76006206D01*
X119132286Y-76006205D01*
X118945487Y-75966500D01*
X118754513Y-75966500D01*
X118567714Y-76006205D01*
X118393250Y-76083880D01*
X118303115Y-76149367D01*
X118237308Y-76172846D01*
X118230305Y-76173048D01*
X118213676Y-76173058D01*
X118146624Y-76153414D01*
X118140715Y-76149376D01*
X118129875Y-76141500D01*
X117981752Y-76033882D01*
X117807288Y-75956206D01*
X117807286Y-75956205D01*
X117620487Y-75916500D01*
X117429513Y-75916500D01*
X117242714Y-75956205D01*
X117068246Y-76033883D01*
X117023353Y-76066500D01*
X116913946Y-76145990D01*
X116908491Y-76149953D01*
X116906784Y-76147604D01*
X116855104Y-76172308D01*
X116835387Y-76173898D01*
X116681659Y-76173991D01*
X116614608Y-76154347D01*
X116589434Y-76132963D01*
X116511254Y-76046135D01*
X116494390Y-76033882D01*
X116356752Y-75933882D01*
X116182288Y-75856206D01*
X116182286Y-75856205D01*
X115995487Y-75816500D01*
X115804513Y-75816500D01*
X115617714Y-75856205D01*
X115617712Y-75856206D01*
X115449259Y-75931206D01*
X115443246Y-75933883D01*
X115288745Y-76046135D01*
X115209705Y-76133917D01*
X115150218Y-76170565D01*
X115117632Y-76174944D01*
X106543688Y-76180165D01*
X106493178Y-76169445D01*
X106407291Y-76131207D01*
X106407286Y-76131205D01*
X106220487Y-76091500D01*
X106029513Y-76091500D01*
X105842713Y-76131205D01*
X105842708Y-76131207D01*
X105755673Y-76169957D01*
X105705314Y-76180677D01*
X105186958Y-76180992D01*
X105119907Y-76161348D01*
X105114009Y-76157318D01*
X105093998Y-76142779D01*
X105081750Y-76133880D01*
X104947807Y-76074246D01*
X104907288Y-76056206D01*
X104907286Y-76056205D01*
X104720487Y-76016500D01*
X104529513Y-76016500D01*
X104342714Y-76056205D01*
X104168248Y-76133881D01*
X104168247Y-76133882D01*
X104135054Y-76157997D01*
X104069247Y-76181475D01*
X104062248Y-76181677D01*
X103207449Y-76182198D01*
X103181591Y-76179488D01*
X103120489Y-76166500D01*
X103120487Y-76166500D01*
X102929513Y-76166500D01*
X102867357Y-76179711D01*
X102841653Y-76182420D01*
X94046298Y-76187777D01*
X93979246Y-76168133D01*
X93973336Y-76164095D01*
X93969555Y-76161348D01*
X93950639Y-76147604D01*
X93931750Y-76133880D01*
X93797807Y-76074246D01*
X93757288Y-76056206D01*
X93757286Y-76056205D01*
X93570487Y-76016500D01*
X93379513Y-76016500D01*
X93192714Y-76056205D01*
X93018251Y-76133880D01*
X92991227Y-76153513D01*
X92925419Y-76176990D01*
X92857366Y-76161162D01*
X92841604Y-76149823D01*
X92841510Y-76149954D01*
X92836254Y-76146135D01*
X92836253Y-76146134D01*
X92681752Y-76033882D01*
X92507288Y-75956206D01*
X92507286Y-75956205D01*
X92320487Y-75916500D01*
X92129513Y-75916500D01*
X91942714Y-75956205D01*
X91768246Y-76033883D01*
X91613743Y-76146136D01*
X91613743Y-76146137D01*
X91611803Y-76148292D01*
X91610369Y-76149175D01*
X91608918Y-76150482D01*
X91608678Y-76150216D01*
X91552315Y-76184938D01*
X91519732Y-76189316D01*
X91348559Y-76189420D01*
X91281508Y-76169776D01*
X91275599Y-76165738D01*
X91231753Y-76133882D01*
X91231752Y-76133881D01*
X91101131Y-76075726D01*
X91057288Y-76056206D01*
X91057286Y-76056205D01*
X90870487Y-76016500D01*
X90679513Y-76016500D01*
X90492714Y-76056205D01*
X90318250Y-76133880D01*
X90273436Y-76166439D01*
X90207630Y-76189917D01*
X90200629Y-76190119D01*
X81733296Y-76195277D01*
X81666244Y-76175633D01*
X81641070Y-76154249D01*
X81611254Y-76121135D01*
X81590708Y-76106207D01*
X81456752Y-76008882D01*
X81282288Y-75931206D01*
X81282286Y-75931205D01*
X81095487Y-75891500D01*
X80904513Y-75891500D01*
X80717714Y-75931205D01*
X80711699Y-75933883D01*
X80549259Y-76006206D01*
X80543246Y-76008883D01*
X80388747Y-76121134D01*
X80358124Y-76155144D01*
X80298636Y-76191791D01*
X80266050Y-76196170D01*
X80081711Y-76196282D01*
X80014660Y-76176638D01*
X79989487Y-76155255D01*
X79936254Y-76096135D01*
X79930489Y-76091946D01*
X79781752Y-75983882D01*
X79607288Y-75906206D01*
X79607286Y-75906205D01*
X79420487Y-75866500D01*
X79229513Y-75866500D01*
X79042714Y-75906205D01*
X78868246Y-75983883D01*
X78713747Y-76096134D01*
X78659682Y-76156178D01*
X78600194Y-76192825D01*
X78567609Y-76197204D01*
X56508946Y-76210639D01*
X56441894Y-76190995D01*
X56435989Y-76186960D01*
X56431751Y-76183881D01*
X56290817Y-76121134D01*
X56257288Y-76106206D01*
X56257286Y-76106205D01*
X56070487Y-76066500D01*
X55879513Y-76066500D01*
X55692714Y-76106205D01*
X55518246Y-76183882D01*
X55513111Y-76187613D01*
X55447303Y-76211088D01*
X55440308Y-76211290D01*
X49145258Y-76215124D01*
X49078206Y-76195480D01*
X49032419Y-76142704D01*
X49021185Y-76091946D01*
X49012042Y-74707844D01*
X151568400Y-74707844D01*
X151574801Y-74767372D01*
X151574803Y-74767379D01*
X151625045Y-74902086D01*
X151625049Y-74902093D01*
X151711209Y-75017187D01*
X151711212Y-75017190D01*
X151826306Y-75103350D01*
X151826313Y-75103354D01*
X151961020Y-75153596D01*
X151961027Y-75153598D01*
X152020555Y-75159999D01*
X152020572Y-75160000D01*
X153318400Y-75160000D01*
X153318400Y-73910000D01*
X153818400Y-73910000D01*
X153818400Y-75160000D01*
X155116228Y-75160000D01*
X155116244Y-75159999D01*
X155175772Y-75153598D01*
X155175779Y-75153596D01*
X155310486Y-75103354D01*
X155310493Y-75103350D01*
X155425587Y-75017190D01*
X155425590Y-75017187D01*
X155511750Y-74902093D01*
X155511754Y-74902086D01*
X155561996Y-74767379D01*
X155561998Y-74767372D01*
X155568399Y-74707844D01*
X155568400Y-74707827D01*
X155568400Y-73910000D01*
X154293024Y-73910000D01*
X154365945Y-73895495D01*
X154448640Y-73840240D01*
X154503895Y-73757545D01*
X154523298Y-73660000D01*
X154503895Y-73562455D01*
X154448640Y-73479760D01*
X154365945Y-73424505D01*
X154293024Y-73410000D01*
X155568400Y-73410000D01*
X155568400Y-72612172D01*
X155568399Y-72612155D01*
X155561998Y-72552627D01*
X155561996Y-72552620D01*
X155511754Y-72417913D01*
X155511750Y-72417906D01*
X155425590Y-72302812D01*
X155425587Y-72302809D01*
X155310493Y-72216649D01*
X155310486Y-72216645D01*
X155175779Y-72166403D01*
X155175772Y-72166401D01*
X155116244Y-72160000D01*
X153818400Y-72160000D01*
X153818400Y-73410000D01*
X153318400Y-73410000D01*
X153318400Y-72160000D01*
X152020555Y-72160000D01*
X151961027Y-72166401D01*
X151961020Y-72166403D01*
X151826313Y-72216645D01*
X151826306Y-72216649D01*
X151711212Y-72302809D01*
X151711209Y-72302812D01*
X151625049Y-72417906D01*
X151625045Y-72417913D01*
X151574803Y-72552620D01*
X151574801Y-72552627D01*
X151568400Y-72612155D01*
X151568400Y-73410000D01*
X152843776Y-73410000D01*
X152770855Y-73424505D01*
X152688160Y-73479760D01*
X152632905Y-73562455D01*
X152613502Y-73660000D01*
X152632905Y-73757545D01*
X152688160Y-73840240D01*
X152770855Y-73895495D01*
X152843776Y-73910000D01*
X151568400Y-73910000D01*
X151568400Y-74707844D01*
X49012042Y-74707844D01*
X48992757Y-71788400D01*
X50465201Y-71788400D01*
X50465201Y-73088386D01*
X50475694Y-73191097D01*
X50530841Y-73357519D01*
X50530843Y-73357524D01*
X50622884Y-73506745D01*
X50746854Y-73630715D01*
X50896075Y-73722756D01*
X50896080Y-73722758D01*
X51062502Y-73777905D01*
X51062509Y-73777906D01*
X51165219Y-73788399D01*
X51515199Y-73788399D01*
X51515200Y-73788398D01*
X51515200Y-71788400D01*
X52015200Y-71788400D01*
X52015200Y-73788399D01*
X52365172Y-73788399D01*
X52365186Y-73788398D01*
X52467897Y-73777905D01*
X52634319Y-73722758D01*
X52634324Y-73722756D01*
X52783545Y-73630715D01*
X52907515Y-73506745D01*
X52999556Y-73357524D01*
X52999558Y-73357519D01*
X53054705Y-73191097D01*
X53054706Y-73191090D01*
X53065199Y-73088386D01*
X53065200Y-73088373D01*
X53065200Y-72079566D01*
X62558801Y-72079566D01*
X62558801Y-73379552D01*
X62569294Y-73482263D01*
X62624441Y-73648685D01*
X62624443Y-73648690D01*
X62716484Y-73797911D01*
X62840454Y-73921881D01*
X62989675Y-74013922D01*
X62989680Y-74013924D01*
X63156102Y-74069071D01*
X63156109Y-74069072D01*
X63258819Y-74079565D01*
X63608799Y-74079565D01*
X63608800Y-74079564D01*
X63608800Y-72079566D01*
X64108800Y-72079566D01*
X64108800Y-74079565D01*
X64458772Y-74079565D01*
X64458786Y-74079564D01*
X64561497Y-74069071D01*
X64727919Y-74013924D01*
X64727924Y-74013922D01*
X64877145Y-73921881D01*
X65001115Y-73797911D01*
X65093156Y-73648690D01*
X65093158Y-73648685D01*
X65148305Y-73482263D01*
X65148306Y-73482256D01*
X65158799Y-73379552D01*
X65158800Y-73379539D01*
X65158800Y-72079566D01*
X64108800Y-72079566D01*
X63608800Y-72079566D01*
X62558801Y-72079566D01*
X53065200Y-72079566D01*
X53065200Y-71940800D01*
X73833201Y-71940800D01*
X73833201Y-73240786D01*
X73843694Y-73343497D01*
X73898841Y-73509919D01*
X73898843Y-73509924D01*
X73990884Y-73659145D01*
X74114854Y-73783115D01*
X74264075Y-73875156D01*
X74264080Y-73875158D01*
X74430502Y-73930305D01*
X74430509Y-73930306D01*
X74533219Y-73940799D01*
X74883199Y-73940799D01*
X74883200Y-73940798D01*
X74883200Y-71940800D01*
X75383200Y-71940800D01*
X75383200Y-73940799D01*
X75733172Y-73940799D01*
X75733186Y-73940798D01*
X75835897Y-73930305D01*
X76002319Y-73875158D01*
X76002324Y-73875156D01*
X76151545Y-73783115D01*
X76275515Y-73659145D01*
X76367556Y-73509924D01*
X76367558Y-73509919D01*
X76422705Y-73343497D01*
X76422706Y-73343490D01*
X76433199Y-73240786D01*
X76433200Y-73240773D01*
X76433200Y-71940800D01*
X75383200Y-71940800D01*
X74883200Y-71940800D01*
X73833201Y-71940800D01*
X53065200Y-71940800D01*
X53065200Y-71934800D01*
X85415601Y-71934800D01*
X85415601Y-73234786D01*
X85426094Y-73337497D01*
X85481241Y-73503919D01*
X85481243Y-73503924D01*
X85573284Y-73653145D01*
X85697254Y-73777115D01*
X85846475Y-73869156D01*
X85846480Y-73869158D01*
X86012902Y-73924305D01*
X86012909Y-73924306D01*
X86115619Y-73934799D01*
X86465599Y-73934799D01*
X86465600Y-73934798D01*
X86465600Y-71934800D01*
X86965600Y-71934800D01*
X86965600Y-73934799D01*
X87315572Y-73934799D01*
X87315586Y-73934798D01*
X87418297Y-73924305D01*
X87584719Y-73869158D01*
X87584724Y-73869156D01*
X87733945Y-73777115D01*
X87857915Y-73653145D01*
X87949956Y-73503924D01*
X87949958Y-73503919D01*
X88005105Y-73337497D01*
X88005106Y-73337490D01*
X88015599Y-73234786D01*
X88015600Y-73234773D01*
X88015600Y-72042400D01*
X97252001Y-72042400D01*
X97252001Y-73342386D01*
X97262494Y-73445097D01*
X97317641Y-73611519D01*
X97317643Y-73611524D01*
X97409684Y-73760745D01*
X97533654Y-73884715D01*
X97682875Y-73976756D01*
X97682880Y-73976758D01*
X97849302Y-74031905D01*
X97849309Y-74031906D01*
X97952019Y-74042399D01*
X98301999Y-74042399D01*
X98302000Y-74042398D01*
X98302000Y-72042400D01*
X98802000Y-72042400D01*
X98802000Y-74042399D01*
X99151972Y-74042399D01*
X99151986Y-74042398D01*
X99254697Y-74031905D01*
X99421119Y-73976758D01*
X99421124Y-73976756D01*
X99570345Y-73884715D01*
X99694315Y-73760745D01*
X99786356Y-73611524D01*
X99786358Y-73611519D01*
X99841505Y-73445097D01*
X99841506Y-73445090D01*
X99851999Y-73342386D01*
X99852000Y-73342373D01*
X99852000Y-72042400D01*
X98802000Y-72042400D01*
X98302000Y-72042400D01*
X97252001Y-72042400D01*
X88015600Y-72042400D01*
X88015600Y-71934800D01*
X108783601Y-71934800D01*
X108783601Y-73234786D01*
X108794094Y-73337497D01*
X108849241Y-73503919D01*
X108849243Y-73503924D01*
X108941284Y-73653145D01*
X109065254Y-73777115D01*
X109214475Y-73869156D01*
X109214480Y-73869158D01*
X109380902Y-73924305D01*
X109380909Y-73924306D01*
X109483619Y-73934799D01*
X109833599Y-73934799D01*
X109833600Y-73934798D01*
X109833600Y-71934800D01*
X110333600Y-71934800D01*
X110333600Y-73934799D01*
X110683572Y-73934799D01*
X110683586Y-73934798D01*
X110786297Y-73924305D01*
X110952719Y-73869158D01*
X110952724Y-73869156D01*
X111101945Y-73777115D01*
X111225915Y-73653145D01*
X111317956Y-73503924D01*
X111317958Y-73503919D01*
X111373105Y-73337497D01*
X111373106Y-73337490D01*
X111383599Y-73234786D01*
X111383600Y-73234773D01*
X111383600Y-72144000D01*
X121432801Y-72144000D01*
X121432801Y-73443986D01*
X121443294Y-73546697D01*
X121498441Y-73713119D01*
X121498443Y-73713124D01*
X121590484Y-73862345D01*
X121714454Y-73986315D01*
X121863675Y-74078356D01*
X121863680Y-74078358D01*
X122030102Y-74133505D01*
X122030109Y-74133506D01*
X122132819Y-74143999D01*
X122482799Y-74143999D01*
X122482800Y-74143998D01*
X122482800Y-72144000D01*
X122982800Y-72144000D01*
X122982800Y-74143999D01*
X123332772Y-74143999D01*
X123332786Y-74143998D01*
X123435497Y-74133505D01*
X123601919Y-74078358D01*
X123601924Y-74078356D01*
X123751145Y-73986315D01*
X123875115Y-73862345D01*
X123967156Y-73713124D01*
X123967158Y-73713119D01*
X124022305Y-73546697D01*
X124022306Y-73546690D01*
X124032799Y-73443986D01*
X124032800Y-73443973D01*
X124032800Y-72233600D01*
X132354801Y-72233600D01*
X132354801Y-73533586D01*
X132365294Y-73636297D01*
X132420441Y-73802719D01*
X132420443Y-73802724D01*
X132512484Y-73951945D01*
X132636454Y-74075915D01*
X132785675Y-74167956D01*
X132785680Y-74167958D01*
X132952102Y-74223105D01*
X132952109Y-74223106D01*
X133054819Y-74233599D01*
X133404799Y-74233599D01*
X133404800Y-74233598D01*
X133404800Y-72233600D01*
X133904800Y-72233600D01*
X133904800Y-74233599D01*
X134254772Y-74233599D01*
X134254786Y-74233598D01*
X134357497Y-74223105D01*
X134523919Y-74167958D01*
X134523924Y-74167956D01*
X134673145Y-74075915D01*
X134797115Y-73951945D01*
X134889156Y-73802724D01*
X134889158Y-73802719D01*
X134944305Y-73636297D01*
X134944306Y-73636290D01*
X134954799Y-73533586D01*
X134954800Y-73533573D01*
X134954800Y-72245600D01*
X143480001Y-72245600D01*
X143480001Y-73545586D01*
X143490494Y-73648297D01*
X143545641Y-73814719D01*
X143545643Y-73814724D01*
X143637684Y-73963945D01*
X143761654Y-74087915D01*
X143910875Y-74179956D01*
X143910880Y-74179958D01*
X144077302Y-74235105D01*
X144077309Y-74235106D01*
X144180019Y-74245599D01*
X144529999Y-74245599D01*
X144530000Y-74245598D01*
X144530000Y-72245600D01*
X145030000Y-72245600D01*
X145030000Y-74245599D01*
X145379972Y-74245599D01*
X145379986Y-74245598D01*
X145482697Y-74235105D01*
X145649119Y-74179958D01*
X145649124Y-74179956D01*
X145798345Y-74087915D01*
X145922315Y-73963945D01*
X146014356Y-73814724D01*
X146014358Y-73814719D01*
X146069505Y-73648297D01*
X146069506Y-73648290D01*
X146079999Y-73545586D01*
X146080000Y-73545573D01*
X146080000Y-72245600D01*
X145030000Y-72245600D01*
X144530000Y-72245600D01*
X143480001Y-72245600D01*
X134954800Y-72245600D01*
X134954800Y-72233600D01*
X133904800Y-72233600D01*
X133404800Y-72233600D01*
X132354801Y-72233600D01*
X124032800Y-72233600D01*
X124032800Y-72144000D01*
X122982800Y-72144000D01*
X122482800Y-72144000D01*
X121432801Y-72144000D01*
X111383600Y-72144000D01*
X111383600Y-71934800D01*
X110333600Y-71934800D01*
X109833600Y-71934800D01*
X108783601Y-71934800D01*
X88015600Y-71934800D01*
X86965600Y-71934800D01*
X86465600Y-71934800D01*
X85415601Y-71934800D01*
X53065200Y-71934800D01*
X53065200Y-71788400D01*
X52015200Y-71788400D01*
X51515200Y-71788400D01*
X50465201Y-71788400D01*
X48992757Y-71788400D01*
X48992474Y-71745600D01*
X143480000Y-71745600D01*
X144530000Y-71745600D01*
X144530000Y-69745600D01*
X145030000Y-69745600D01*
X145030000Y-71745600D01*
X146079999Y-71745600D01*
X146079999Y-70445628D01*
X146079998Y-70445613D01*
X146069505Y-70342902D01*
X146014358Y-70176480D01*
X146014356Y-70176475D01*
X145922315Y-70027254D01*
X145798345Y-69903284D01*
X145649124Y-69811243D01*
X145649119Y-69811241D01*
X145482697Y-69756094D01*
X145482690Y-69756093D01*
X145379986Y-69745600D01*
X145030000Y-69745600D01*
X144530000Y-69745600D01*
X144180028Y-69745600D01*
X144180012Y-69745601D01*
X144077302Y-69756094D01*
X143910880Y-69811241D01*
X143910875Y-69811243D01*
X143761654Y-69903284D01*
X143637684Y-70027254D01*
X143545643Y-70176475D01*
X143545641Y-70176480D01*
X143490494Y-70342902D01*
X143490493Y-70342909D01*
X143480000Y-70445613D01*
X143480000Y-71745600D01*
X48992474Y-71745600D01*
X48992395Y-71733600D01*
X132354800Y-71733600D01*
X133404800Y-71733600D01*
X133404800Y-69733600D01*
X133904800Y-69733600D01*
X133904800Y-71733600D01*
X134954799Y-71733600D01*
X134954799Y-70433628D01*
X134954798Y-70433613D01*
X134944305Y-70330902D01*
X134889158Y-70164480D01*
X134889156Y-70164475D01*
X134797115Y-70015254D01*
X134673145Y-69891284D01*
X134523924Y-69799243D01*
X134523919Y-69799241D01*
X134357497Y-69744094D01*
X134357490Y-69744093D01*
X134254786Y-69733600D01*
X133904800Y-69733600D01*
X133404800Y-69733600D01*
X133054828Y-69733600D01*
X133054812Y-69733601D01*
X132952102Y-69744094D01*
X132785680Y-69799241D01*
X132785675Y-69799243D01*
X132636454Y-69891284D01*
X132512484Y-70015254D01*
X132420443Y-70164475D01*
X132420441Y-70164480D01*
X132365294Y-70330902D01*
X132365293Y-70330909D01*
X132354800Y-70433613D01*
X132354800Y-71733600D01*
X48992395Y-71733600D01*
X48991803Y-71644000D01*
X121432800Y-71644000D01*
X122482800Y-71644000D01*
X122482800Y-69644000D01*
X122982800Y-69644000D01*
X122982800Y-71644000D01*
X124032799Y-71644000D01*
X124032799Y-70344028D01*
X124032798Y-70344013D01*
X124022305Y-70241302D01*
X123967158Y-70074880D01*
X123967156Y-70074875D01*
X123875115Y-69925654D01*
X123751145Y-69801684D01*
X123601924Y-69709643D01*
X123601919Y-69709641D01*
X123435497Y-69654494D01*
X123435490Y-69654493D01*
X123332786Y-69644000D01*
X122982800Y-69644000D01*
X122482800Y-69644000D01*
X122132828Y-69644000D01*
X122132812Y-69644001D01*
X122030102Y-69654494D01*
X121863680Y-69709641D01*
X121863675Y-69709643D01*
X121714454Y-69801684D01*
X121590484Y-69925654D01*
X121498443Y-70074875D01*
X121498441Y-70074880D01*
X121443294Y-70241302D01*
X121443293Y-70241309D01*
X121432800Y-70344013D01*
X121432800Y-71644000D01*
X48991803Y-71644000D01*
X48991377Y-71579566D01*
X62558800Y-71579566D01*
X63608800Y-71579566D01*
X63608800Y-69579566D01*
X64108800Y-69579566D01*
X64108800Y-71579566D01*
X65158799Y-71579566D01*
X65158799Y-71542400D01*
X97252000Y-71542400D01*
X98302000Y-71542400D01*
X98302000Y-69542400D01*
X98802000Y-69542400D01*
X98802000Y-71542400D01*
X99851999Y-71542400D01*
X99851999Y-71434800D01*
X108783600Y-71434800D01*
X109833600Y-71434800D01*
X109833600Y-69434800D01*
X110333600Y-69434800D01*
X110333600Y-71434800D01*
X111383599Y-71434800D01*
X111383599Y-70134828D01*
X111383598Y-70134813D01*
X111373105Y-70032102D01*
X111317958Y-69865680D01*
X111317956Y-69865675D01*
X111225915Y-69716454D01*
X111101945Y-69592484D01*
X110952724Y-69500443D01*
X110952719Y-69500441D01*
X110786297Y-69445294D01*
X110786290Y-69445293D01*
X110683586Y-69434800D01*
X110333600Y-69434800D01*
X109833600Y-69434800D01*
X109483628Y-69434800D01*
X109483612Y-69434801D01*
X109380902Y-69445294D01*
X109214480Y-69500441D01*
X109214475Y-69500443D01*
X109065254Y-69592484D01*
X108941284Y-69716454D01*
X108849243Y-69865675D01*
X108849241Y-69865680D01*
X108794094Y-70032102D01*
X108794093Y-70032109D01*
X108783600Y-70134813D01*
X108783600Y-71434800D01*
X99851999Y-71434800D01*
X99851999Y-70242428D01*
X99851998Y-70242413D01*
X99841505Y-70139702D01*
X99786358Y-69973280D01*
X99786356Y-69973275D01*
X99694315Y-69824054D01*
X99570345Y-69700084D01*
X99421124Y-69608043D01*
X99421119Y-69608041D01*
X99254697Y-69552894D01*
X99254690Y-69552893D01*
X99151986Y-69542400D01*
X98802000Y-69542400D01*
X98302000Y-69542400D01*
X97952028Y-69542400D01*
X97952012Y-69542401D01*
X97849302Y-69552894D01*
X97682880Y-69608041D01*
X97682875Y-69608043D01*
X97533654Y-69700084D01*
X97409684Y-69824054D01*
X97317643Y-69973275D01*
X97317641Y-69973280D01*
X97262494Y-70139702D01*
X97262493Y-70139709D01*
X97252000Y-70242413D01*
X97252000Y-71542400D01*
X65158799Y-71542400D01*
X65158799Y-71440800D01*
X73833200Y-71440800D01*
X74883200Y-71440800D01*
X74883200Y-69440800D01*
X75383200Y-69440800D01*
X75383200Y-71440800D01*
X76433199Y-71440800D01*
X76433199Y-71434800D01*
X85415600Y-71434800D01*
X86465600Y-71434800D01*
X86465600Y-69434800D01*
X86965600Y-69434800D01*
X86965600Y-71434800D01*
X88015599Y-71434800D01*
X88015599Y-70134828D01*
X88015598Y-70134813D01*
X88005105Y-70032102D01*
X87949958Y-69865680D01*
X87949956Y-69865675D01*
X87857915Y-69716454D01*
X87733945Y-69592484D01*
X87584724Y-69500443D01*
X87584719Y-69500441D01*
X87418297Y-69445294D01*
X87418290Y-69445293D01*
X87315586Y-69434800D01*
X86965600Y-69434800D01*
X86465600Y-69434800D01*
X86115628Y-69434800D01*
X86115612Y-69434801D01*
X86012902Y-69445294D01*
X85846480Y-69500441D01*
X85846475Y-69500443D01*
X85697254Y-69592484D01*
X85573284Y-69716454D01*
X85481243Y-69865675D01*
X85481241Y-69865680D01*
X85426094Y-70032102D01*
X85426093Y-70032109D01*
X85415600Y-70134813D01*
X85415600Y-71434800D01*
X76433199Y-71434800D01*
X76433199Y-70140828D01*
X76433198Y-70140813D01*
X76422705Y-70038102D01*
X76367558Y-69871680D01*
X76367556Y-69871675D01*
X76275515Y-69722454D01*
X76151545Y-69598484D01*
X76002324Y-69506443D01*
X76002319Y-69506441D01*
X75835897Y-69451294D01*
X75835890Y-69451293D01*
X75733186Y-69440800D01*
X75383200Y-69440800D01*
X74883200Y-69440800D01*
X74533228Y-69440800D01*
X74533212Y-69440801D01*
X74430502Y-69451294D01*
X74264080Y-69506441D01*
X74264075Y-69506443D01*
X74114854Y-69598484D01*
X73990884Y-69722454D01*
X73898843Y-69871675D01*
X73898841Y-69871680D01*
X73843694Y-70038102D01*
X73843693Y-70038109D01*
X73833200Y-70140813D01*
X73833200Y-71440800D01*
X65158799Y-71440800D01*
X65158799Y-70279594D01*
X65158798Y-70279579D01*
X65148305Y-70176868D01*
X65093158Y-70010446D01*
X65093156Y-70010441D01*
X65001115Y-69861220D01*
X64877145Y-69737250D01*
X64727924Y-69645209D01*
X64727919Y-69645207D01*
X64561497Y-69590060D01*
X64561490Y-69590059D01*
X64458786Y-69579566D01*
X64108800Y-69579566D01*
X63608800Y-69579566D01*
X63258828Y-69579566D01*
X63258812Y-69579567D01*
X63156102Y-69590060D01*
X62989680Y-69645207D01*
X62989675Y-69645209D01*
X62840454Y-69737250D01*
X62716484Y-69861220D01*
X62624443Y-70010441D01*
X62624441Y-70010446D01*
X62569294Y-70176868D01*
X62569293Y-70176875D01*
X62558800Y-70279579D01*
X62558800Y-71579566D01*
X48991377Y-71579566D01*
X48989454Y-71288400D01*
X50465200Y-71288400D01*
X51515200Y-71288400D01*
X51515200Y-69288400D01*
X52015200Y-69288400D01*
X52015200Y-71288400D01*
X53065199Y-71288400D01*
X53065199Y-69988428D01*
X53065198Y-69988413D01*
X53054705Y-69885702D01*
X52999558Y-69719280D01*
X52999556Y-69719275D01*
X52907515Y-69570054D01*
X52783545Y-69446084D01*
X52634324Y-69354043D01*
X52634319Y-69354041D01*
X52467897Y-69298894D01*
X52467890Y-69298893D01*
X52365186Y-69288400D01*
X52015200Y-69288400D01*
X51515200Y-69288400D01*
X51165228Y-69288400D01*
X51165212Y-69288401D01*
X51062502Y-69298894D01*
X50896080Y-69354041D01*
X50896075Y-69354043D01*
X50746854Y-69446084D01*
X50622884Y-69570054D01*
X50530843Y-69719275D01*
X50530841Y-69719280D01*
X50475694Y-69885702D01*
X50475693Y-69885709D01*
X50465200Y-69988413D01*
X50465200Y-71288400D01*
X48989454Y-71288400D01*
X48972025Y-68649962D01*
X48991266Y-68582796D01*
X49043767Y-68536693D01*
X49096163Y-68525145D01*
X68146250Y-68547379D01*
G37*
%TD.AperFunction*%
%TD*%
%TA.AperFunction,Conductor*%
%TO.N,GND*%
G36*
X132063096Y-80339373D02*
G01*
X132097121Y-80401686D01*
X132100000Y-80428468D01*
X132100000Y-82940386D01*
X132079998Y-83008507D01*
X132026342Y-83055000D01*
X131956068Y-83065104D01*
X131948807Y-83063842D01*
X131854756Y-83044641D01*
X131854754Y-83044640D01*
X131850596Y-83043792D01*
X131787853Y-83010568D01*
X131753033Y-82948696D01*
X131749800Y-82920338D01*
X131749800Y-82092800D01*
X129412000Y-82092800D01*
X129343879Y-82072798D01*
X129297386Y-82019142D01*
X129286000Y-81966800D01*
X129286000Y-81710800D01*
X129306002Y-81642679D01*
X129359658Y-81596186D01*
X129412000Y-81584800D01*
X131749800Y-81584800D01*
X131749800Y-80465094D01*
X131769802Y-80396973D01*
X131823458Y-80350480D01*
X131831768Y-80347038D01*
X131929968Y-80310412D01*
X132000784Y-80305348D01*
X132063096Y-80339373D01*
G37*
%TD.AperFunction*%
%TD*%
%TA.AperFunction,Conductor*%
%TO.N,GND*%
G36*
X119342121Y-80320002D02*
G01*
X119388614Y-80373658D01*
X119400000Y-80426000D01*
X119400000Y-83174000D01*
X119379998Y-83242121D01*
X119326342Y-83288614D01*
X119274000Y-83300000D01*
X119210193Y-83300000D01*
X119166157Y-83292054D01*
X119131764Y-83279225D01*
X119074930Y-83236677D01*
X119050121Y-83170156D01*
X119049800Y-83161171D01*
X119049800Y-82042000D01*
X116712000Y-82042000D01*
X116643879Y-82021998D01*
X116597386Y-81968342D01*
X116586000Y-81916000D01*
X116586000Y-81660000D01*
X116606002Y-81591879D01*
X116659658Y-81545386D01*
X116712000Y-81534000D01*
X119049800Y-81534000D01*
X119049800Y-80426000D01*
X119069802Y-80357879D01*
X119123458Y-80311386D01*
X119175800Y-80300000D01*
X119274000Y-80300000D01*
X119342121Y-80320002D01*
G37*
%TD.AperFunction*%
%TD*%
%TA.AperFunction,Conductor*%
%TO.N,GND*%
G36*
X89185629Y-80180802D02*
G01*
X89273399Y-80213539D01*
X89273401Y-80213539D01*
X89275232Y-80214222D01*
X89332068Y-80256769D01*
X89356879Y-80323289D01*
X89357200Y-80332278D01*
X89357200Y-81451450D01*
X91695000Y-81451450D01*
X91763121Y-81471452D01*
X91809614Y-81525108D01*
X91821000Y-81577450D01*
X91821000Y-81833450D01*
X91800998Y-81901571D01*
X91747342Y-81948064D01*
X91695000Y-81959450D01*
X89357200Y-81959450D01*
X89357200Y-82402297D01*
X89337198Y-82470418D01*
X89283542Y-82516911D01*
X89213268Y-82527015D01*
X89150705Y-82499233D01*
X89138486Y-82489086D01*
X89134269Y-82486737D01*
X89118043Y-82477699D01*
X89110733Y-82472936D01*
X89100206Y-82464987D01*
X89092059Y-82458834D01*
X89085430Y-82455533D01*
X89033370Y-82407261D01*
X89015600Y-82342746D01*
X89015600Y-80298859D01*
X89035602Y-80230738D01*
X89089258Y-80184245D01*
X89159532Y-80174141D01*
X89185629Y-80180802D01*
G37*
%TD.AperFunction*%
%TD*%
%TA.AperFunction,Conductor*%
%TO.N,GND*%
G36*
X152621521Y-80320002D02*
G01*
X152668014Y-80373658D01*
X152679400Y-80426000D01*
X152679400Y-81483200D01*
X157099000Y-81483200D01*
X157099000Y-80426000D01*
X157119002Y-80357879D01*
X157172658Y-80311386D01*
X157225000Y-80300000D01*
X157274000Y-80300000D01*
X157342121Y-80320002D01*
X157388614Y-80373658D01*
X157400000Y-80426000D01*
X157400000Y-82828741D01*
X157379998Y-82896862D01*
X157326342Y-82943355D01*
X157256068Y-82953459D01*
X157248798Y-82952195D01*
X157199798Y-82942192D01*
X157137054Y-82908969D01*
X157102233Y-82847098D01*
X157099000Y-82818738D01*
X157099000Y-81991200D01*
X152679400Y-81991200D01*
X152679400Y-82552555D01*
X152659398Y-82620676D01*
X152605742Y-82667169D01*
X152535468Y-82677273D01*
X152492090Y-82662633D01*
X152464690Y-82647372D01*
X152414910Y-82596750D01*
X152400000Y-82537294D01*
X152400000Y-80426000D01*
X152420002Y-80357879D01*
X152473658Y-80311386D01*
X152526000Y-80300000D01*
X152553400Y-80300000D01*
X152621521Y-80320002D01*
G37*
%TD.AperFunction*%
%TD*%
%TA.AperFunction,Conductor*%
%TO.N,GND*%
G36*
X82357721Y-80173602D02*
G01*
X82404214Y-80227258D01*
X82415600Y-80279600D01*
X82415600Y-82699842D01*
X82395598Y-82767963D01*
X82341942Y-82814456D01*
X82271668Y-82824560D01*
X82264397Y-82823296D01*
X82193597Y-82808842D01*
X82130854Y-82775618D01*
X82096033Y-82713747D01*
X82092800Y-82685388D01*
X82092800Y-81857850D01*
X77673200Y-81857850D01*
X77673200Y-82502383D01*
X77653198Y-82570504D01*
X77599542Y-82616997D01*
X77529268Y-82627101D01*
X77507252Y-82621883D01*
X77507098Y-82621831D01*
X77502688Y-82620353D01*
X77494628Y-82617018D01*
X77485432Y-82612439D01*
X77433370Y-82564167D01*
X77415600Y-82499651D01*
X77415600Y-80364265D01*
X77435602Y-80296144D01*
X77489258Y-80249651D01*
X77541600Y-80238265D01*
X77547200Y-80238265D01*
X77615321Y-80258267D01*
X77661814Y-80311923D01*
X77673200Y-80364265D01*
X77673200Y-81349850D01*
X82092800Y-81349850D01*
X82092800Y-80279600D01*
X82112802Y-80211479D01*
X82166458Y-80164986D01*
X82218800Y-80153600D01*
X82289600Y-80153600D01*
X82357721Y-80173602D01*
G37*
%TD.AperFunction*%
%TD*%
%TA.AperFunction,Conductor*%
%TO.N,Net-(J5-Pin_1)*%
G36*
X139736481Y-49203410D02*
G01*
X139785735Y-49224380D01*
X158148522Y-57042439D01*
X158202492Y-57086811D01*
X158223905Y-57153318D01*
X158223937Y-57158113D01*
X158091165Y-67543185D01*
X158070625Y-67609968D01*
X158017240Y-67655044D01*
X157967175Y-67665600D01*
X149046161Y-67665600D01*
X148979122Y-67645915D01*
X148933367Y-67593111D01*
X148924834Y-67567206D01*
X148919764Y-67543185D01*
X148469566Y-65409999D01*
X151589376Y-65409999D01*
X151589378Y-65410000D01*
X152843776Y-65410000D01*
X152770855Y-65424505D01*
X152688160Y-65479760D01*
X152632905Y-65562455D01*
X152613502Y-65660000D01*
X152632905Y-65757545D01*
X152688160Y-65840240D01*
X152770855Y-65895495D01*
X152843776Y-65910000D01*
X151589377Y-65910000D01*
X151609316Y-66029492D01*
X151690030Y-66264603D01*
X151690035Y-66264614D01*
X151808342Y-66483228D01*
X151808348Y-66483237D01*
X151961026Y-66679397D01*
X151961035Y-66679407D01*
X152143922Y-66847767D01*
X152143921Y-66847767D01*
X152352032Y-66983732D01*
X152579682Y-67083587D01*
X152820661Y-67144612D01*
X152820669Y-67144614D01*
X153006359Y-67160000D01*
X153318400Y-67160000D01*
X153318400Y-65910000D01*
X153818400Y-65910000D01*
X153818400Y-67160000D01*
X154130441Y-67160000D01*
X154316130Y-67144614D01*
X154316138Y-67144612D01*
X154557117Y-67083587D01*
X154784767Y-66983732D01*
X154992878Y-66847767D01*
X155175764Y-66679407D01*
X155175773Y-66679397D01*
X155328451Y-66483237D01*
X155328457Y-66483228D01*
X155446764Y-66264614D01*
X155446769Y-66264603D01*
X155527483Y-66029492D01*
X155547423Y-65910000D01*
X154293024Y-65910000D01*
X154365945Y-65895495D01*
X154448640Y-65840240D01*
X154503895Y-65757545D01*
X154523298Y-65660000D01*
X154503895Y-65562455D01*
X154448640Y-65479760D01*
X154365945Y-65424505D01*
X154293024Y-65410000D01*
X155547422Y-65410000D01*
X155547423Y-65409999D01*
X155527483Y-65290507D01*
X155446769Y-65055396D01*
X155446764Y-65055385D01*
X155328457Y-64836771D01*
X155328451Y-64836762D01*
X155175773Y-64640602D01*
X155175764Y-64640592D01*
X154992877Y-64472232D01*
X154992878Y-64472232D01*
X154784767Y-64336267D01*
X154557117Y-64236412D01*
X154316138Y-64175387D01*
X154316130Y-64175385D01*
X154130441Y-64160000D01*
X153818400Y-64160000D01*
X153818400Y-65410000D01*
X153318400Y-65410000D01*
X153318400Y-64160000D01*
X153006359Y-64160000D01*
X152820669Y-64175385D01*
X152820661Y-64175387D01*
X152579682Y-64236412D01*
X152352032Y-64336267D01*
X152143921Y-64472232D01*
X151961035Y-64640592D01*
X151961026Y-64640602D01*
X151808348Y-64836762D01*
X151808342Y-64836771D01*
X151690035Y-65055385D01*
X151690030Y-65055396D01*
X151609316Y-65290507D01*
X151589376Y-65409999D01*
X148469566Y-65409999D01*
X148325000Y-64725000D01*
X148324999Y-64724999D01*
X137727498Y-61709999D01*
X151589376Y-61709999D01*
X151589378Y-61710000D01*
X152843776Y-61710000D01*
X152770855Y-61724505D01*
X152688160Y-61779760D01*
X152632905Y-61862455D01*
X152613502Y-61960000D01*
X152632905Y-62057545D01*
X152688160Y-62140240D01*
X152770855Y-62195495D01*
X152843776Y-62210000D01*
X151589377Y-62210000D01*
X151609316Y-62329492D01*
X151690030Y-62564603D01*
X151690035Y-62564614D01*
X151808342Y-62783228D01*
X151808348Y-62783237D01*
X151961026Y-62979397D01*
X151961035Y-62979407D01*
X152143922Y-63147767D01*
X152143921Y-63147767D01*
X152352032Y-63283732D01*
X152579682Y-63383587D01*
X152820661Y-63444612D01*
X152820669Y-63444614D01*
X153006359Y-63460000D01*
X153318400Y-63460000D01*
X153318400Y-62210000D01*
X153818400Y-62210000D01*
X153818400Y-63460000D01*
X154130441Y-63460000D01*
X154316130Y-63444614D01*
X154316138Y-63444612D01*
X154557117Y-63383587D01*
X154784767Y-63283732D01*
X154992878Y-63147767D01*
X155175764Y-62979407D01*
X155175773Y-62979397D01*
X155328451Y-62783237D01*
X155328457Y-62783228D01*
X155446764Y-62564614D01*
X155446769Y-62564603D01*
X155527483Y-62329492D01*
X155547423Y-62210000D01*
X154293024Y-62210000D01*
X154365945Y-62195495D01*
X154448640Y-62140240D01*
X154503895Y-62057545D01*
X154523298Y-61960000D01*
X154503895Y-61862455D01*
X154448640Y-61779760D01*
X154365945Y-61724505D01*
X154293024Y-61710000D01*
X155547422Y-61710000D01*
X155547423Y-61709999D01*
X155527483Y-61590507D01*
X155446769Y-61355396D01*
X155446764Y-61355385D01*
X155328457Y-61136771D01*
X155328451Y-61136762D01*
X155175773Y-60940602D01*
X155175764Y-60940592D01*
X154992877Y-60772232D01*
X154992878Y-60772232D01*
X154784767Y-60636267D01*
X154557117Y-60536412D01*
X154316138Y-60475387D01*
X154316130Y-60475385D01*
X154130441Y-60460000D01*
X153818400Y-60460000D01*
X153818400Y-61710000D01*
X153318400Y-61710000D01*
X153318400Y-60460000D01*
X153006359Y-60460000D01*
X152820669Y-60475385D01*
X152820661Y-60475387D01*
X152579682Y-60536412D01*
X152352032Y-60636267D01*
X152143921Y-60772232D01*
X151961035Y-60940592D01*
X151961026Y-60940602D01*
X151808348Y-61136762D01*
X151808342Y-61136771D01*
X151690035Y-61355385D01*
X151690030Y-61355396D01*
X151609316Y-61590507D01*
X151589376Y-61709999D01*
X137727498Y-61709999D01*
X137257131Y-61576179D01*
X137203382Y-61544593D01*
X133602073Y-57943284D01*
X133568588Y-57881961D01*
X133569592Y-57824994D01*
X134066465Y-55875003D01*
X135144960Y-55875003D01*
X135165108Y-56323638D01*
X135165109Y-56323647D01*
X135225393Y-56768686D01*
X135325325Y-57206519D01*
X135464106Y-57633642D01*
X135464109Y-57633650D01*
X135640609Y-58046594D01*
X135640613Y-58046602D01*
X135853433Y-58442087D01*
X135853433Y-58442088D01*
X136100833Y-58816883D01*
X136100834Y-58816884D01*
X136380846Y-59168008D01*
X136380857Y-59168021D01*
X136440765Y-59230680D01*
X138285346Y-57386099D01*
X138369675Y-57491844D01*
X138591049Y-57706233D01*
X138637587Y-57740965D01*
X136795135Y-59583417D01*
X137029403Y-59788093D01*
X137029420Y-59788106D01*
X137392734Y-60052070D01*
X137778270Y-60282417D01*
X137778285Y-60282425D01*
X138182876Y-60477265D01*
X138182892Y-60477271D01*
X138603352Y-60635073D01*
X138603368Y-60635079D01*
X139036266Y-60754551D01*
X139478150Y-60834741D01*
X139925453Y-60874999D01*
X139925457Y-60875000D01*
X140374543Y-60875000D01*
X140374546Y-60874999D01*
X140821849Y-60834741D01*
X141263733Y-60754551D01*
X141696631Y-60635079D01*
X141696647Y-60635073D01*
X142117107Y-60477271D01*
X142117123Y-60477265D01*
X142521714Y-60282425D01*
X142521729Y-60282417D01*
X142907265Y-60052070D01*
X143270579Y-59788106D01*
X143270609Y-59788082D01*
X143504863Y-59583418D01*
X143504863Y-59583417D01*
X141661546Y-57740099D01*
X141823075Y-57602588D01*
X142017289Y-57388736D01*
X143859233Y-59230680D01*
X143919151Y-59168011D01*
X143919154Y-59168008D01*
X144199165Y-58816884D01*
X144199166Y-58816883D01*
X144446566Y-58442088D01*
X144446566Y-58442087D01*
X144659386Y-58046602D01*
X144659390Y-58046594D01*
X144835890Y-57633650D01*
X144835893Y-57633642D01*
X144974674Y-57206519D01*
X145074606Y-56768686D01*
X145134890Y-56323647D01*
X145134891Y-56323638D01*
X145155040Y-55875003D01*
X145155040Y-55874996D01*
X145134891Y-55426361D01*
X145134890Y-55426352D01*
X145074606Y-54981313D01*
X144974674Y-54543480D01*
X144835893Y-54116357D01*
X144835890Y-54116349D01*
X144659390Y-53703405D01*
X144659386Y-53703397D01*
X144446566Y-53307912D01*
X144446566Y-53307911D01*
X144199166Y-52933116D01*
X144199165Y-52933115D01*
X143919153Y-52581991D01*
X143919142Y-52581978D01*
X143859233Y-52519318D01*
X142014652Y-54363899D01*
X141930325Y-54258156D01*
X141708951Y-54043767D01*
X141662410Y-54009033D01*
X143504863Y-52166581D01*
X143270596Y-51961906D01*
X143270579Y-51961893D01*
X142907265Y-51697929D01*
X142521729Y-51467582D01*
X142521714Y-51467574D01*
X142117123Y-51272734D01*
X142117107Y-51272728D01*
X141696647Y-51114926D01*
X141696631Y-51114920D01*
X141263733Y-50995448D01*
X140821849Y-50915258D01*
X140374546Y-50875000D01*
X139925453Y-50875000D01*
X139478150Y-50915258D01*
X139036266Y-50995448D01*
X138603368Y-51114920D01*
X138603352Y-51114926D01*
X138182892Y-51272728D01*
X138182876Y-51272734D01*
X137778285Y-51467574D01*
X137778270Y-51467582D01*
X137392734Y-51697929D01*
X137029420Y-51961893D01*
X137029403Y-51961906D01*
X136795135Y-52166581D01*
X138638454Y-54009900D01*
X138476925Y-54147412D01*
X138282710Y-54361263D01*
X136440765Y-52519319D01*
X136380846Y-52581990D01*
X136100834Y-52933115D01*
X136100833Y-52933116D01*
X135853433Y-53307911D01*
X135853433Y-53307912D01*
X135640613Y-53703397D01*
X135640609Y-53703405D01*
X135464109Y-54116349D01*
X135464106Y-54116357D01*
X135325325Y-54543480D01*
X135225393Y-54981313D01*
X135165109Y-55426352D01*
X135165108Y-55426361D01*
X135144960Y-55874996D01*
X135144960Y-55875003D01*
X134066465Y-55875003D01*
X134840528Y-52837169D01*
X134876157Y-52777068D01*
X134878779Y-52774693D01*
X137146491Y-50780671D01*
X138916392Y-49224380D01*
X138979735Y-49194894D01*
X138998274Y-49193500D01*
X139687907Y-49193500D01*
X139736481Y-49203410D01*
G37*
%TD.AperFunction*%
%TD*%
%TA.AperFunction,Conductor*%
%TO.N,GND*%
G36*
X54319789Y-80161541D02*
G01*
X54322999Y-80162739D01*
X54323000Y-80162739D01*
X54324826Y-80163420D01*
X54381664Y-80205963D01*
X54406478Y-80272482D01*
X54406800Y-80281478D01*
X54406800Y-81400650D01*
X56744600Y-81400650D01*
X56812721Y-81420652D01*
X56859214Y-81474308D01*
X56870600Y-81526650D01*
X56870600Y-81782650D01*
X56850598Y-81850771D01*
X56796942Y-81897264D01*
X56744600Y-81908650D01*
X54406800Y-81908650D01*
X54406800Y-83027600D01*
X54386798Y-83095721D01*
X54333142Y-83142214D01*
X54280800Y-83153600D01*
X54141600Y-83153600D01*
X54073479Y-83133598D01*
X54026986Y-83079942D01*
X54015600Y-83027600D01*
X54015600Y-80279600D01*
X54035602Y-80211479D01*
X54089258Y-80164986D01*
X54141600Y-80153600D01*
X54275764Y-80153600D01*
X54319789Y-80161541D01*
G37*
%TD.AperFunction*%
%TD*%
%TA.AperFunction,Conductor*%
%TO.N,GND*%
G36*
X106663096Y-80358320D02*
G01*
X106697121Y-80420632D01*
X106700000Y-80447415D01*
X106700000Y-82930015D01*
X106679998Y-82998136D01*
X106626342Y-83044629D01*
X106556068Y-83054733D01*
X106548808Y-83053471D01*
X106505556Y-83044641D01*
X106505554Y-83044640D01*
X106501396Y-83043792D01*
X106438653Y-83010568D01*
X106403833Y-82948696D01*
X106400600Y-82920338D01*
X106400600Y-82092800D01*
X101981000Y-82092800D01*
X101981000Y-82553446D01*
X101960998Y-82621567D01*
X101907342Y-82668060D01*
X101837068Y-82678164D01*
X101793690Y-82663524D01*
X101764690Y-82647372D01*
X101714911Y-82596751D01*
X101700000Y-82537294D01*
X101700000Y-80454812D01*
X101720002Y-80386691D01*
X101773658Y-80340198D01*
X101843932Y-80330094D01*
X101870031Y-80336756D01*
X101879260Y-80340198D01*
X101897199Y-80346889D01*
X101897200Y-80346889D01*
X101899031Y-80347572D01*
X101955867Y-80390118D01*
X101980679Y-80456638D01*
X101981000Y-80465628D01*
X101981000Y-81584800D01*
X106400600Y-81584800D01*
X106400600Y-80465094D01*
X106420602Y-80396973D01*
X106474258Y-80350480D01*
X106482568Y-80347038D01*
X106529968Y-80329359D01*
X106600784Y-80324295D01*
X106663096Y-80358320D01*
G37*
%TD.AperFunction*%
%TD*%
%TA.AperFunction,Conductor*%
%TO.N,GND*%
G36*
X65597531Y-33389924D02*
G01*
X65642597Y-33418886D01*
X65658711Y-33435000D01*
X66599000Y-33435000D01*
X66667121Y-33455002D01*
X66713614Y-33508658D01*
X66725000Y-33561000D01*
X66725000Y-34501291D01*
X66741114Y-34517405D01*
X66775140Y-34579717D01*
X66770075Y-34650532D01*
X66741114Y-34695595D01*
X66725000Y-34711708D01*
X66725000Y-36336291D01*
X66741114Y-36352405D01*
X66775140Y-36414717D01*
X66770075Y-36485532D01*
X66741114Y-36530595D01*
X66725000Y-36546708D01*
X66725000Y-37487000D01*
X66704998Y-37555121D01*
X66651342Y-37601614D01*
X66599000Y-37613000D01*
X65658708Y-37613000D01*
X65642595Y-37629114D01*
X65580283Y-37663140D01*
X65509468Y-37658075D01*
X65464405Y-37629114D01*
X65448291Y-37613000D01*
X63823708Y-37613000D01*
X63807595Y-37629114D01*
X63745283Y-37663140D01*
X63674468Y-37658075D01*
X63629405Y-37629114D01*
X63613291Y-37613000D01*
X62673000Y-37613000D01*
X62604879Y-37592998D01*
X62558386Y-37539342D01*
X62547000Y-37487000D01*
X62547000Y-37377837D01*
X63587485Y-37377837D01*
X63618467Y-37445679D01*
X63681209Y-37486000D01*
X63736761Y-37486000D01*
X63790060Y-37470350D01*
X63838901Y-37413985D01*
X63844098Y-37377837D01*
X65422485Y-37377837D01*
X65453467Y-37445679D01*
X65516209Y-37486000D01*
X65571761Y-37486000D01*
X65625060Y-37470350D01*
X65673901Y-37413985D01*
X65684515Y-37340163D01*
X65653533Y-37272321D01*
X65590791Y-37232000D01*
X65535239Y-37232000D01*
X65481940Y-37247650D01*
X65433099Y-37304015D01*
X65422485Y-37377837D01*
X63844098Y-37377837D01*
X63849515Y-37340163D01*
X63818533Y-37272321D01*
X63755791Y-37232000D01*
X63700239Y-37232000D01*
X63646940Y-37247650D01*
X63598099Y-37304015D01*
X63587485Y-37377837D01*
X62547000Y-37377837D01*
X62547000Y-37054709D01*
X63055000Y-37054709D01*
X63055000Y-37105000D01*
X63105290Y-37105000D01*
X63105290Y-37104999D01*
X64331709Y-37104999D01*
X64331710Y-37105000D01*
X64382000Y-37105000D01*
X64382000Y-37054710D01*
X64381999Y-37054709D01*
X64890000Y-37054709D01*
X64890000Y-37105000D01*
X64940290Y-37105000D01*
X64940290Y-37104999D01*
X66166709Y-37104999D01*
X66166710Y-37105000D01*
X66217000Y-37105000D01*
X66217000Y-37054710D01*
X66216999Y-37054709D01*
X66166709Y-37104999D01*
X64940290Y-37104999D01*
X64890000Y-37054709D01*
X64381999Y-37054709D01*
X64331709Y-37104999D01*
X63105290Y-37104999D01*
X63055000Y-37054709D01*
X62547000Y-37054709D01*
X62547000Y-36546710D01*
X62530886Y-36530597D01*
X62496860Y-36468285D01*
X62497428Y-36460337D01*
X62669985Y-36460337D01*
X62700967Y-36528179D01*
X62763709Y-36568500D01*
X62819261Y-36568500D01*
X62872560Y-36552850D01*
X62921401Y-36496485D01*
X62929307Y-36441500D01*
X63160210Y-36441500D01*
X63241203Y-36522492D01*
X63718500Y-36999789D01*
X64257952Y-36460337D01*
X64504985Y-36460337D01*
X64535967Y-36528179D01*
X64598709Y-36568500D01*
X64654261Y-36568500D01*
X64707560Y-36552850D01*
X64756401Y-36496485D01*
X64764307Y-36441500D01*
X64995210Y-36441500D01*
X65076203Y-36522492D01*
X65553500Y-36999789D01*
X66092952Y-36460337D01*
X66339985Y-36460337D01*
X66370967Y-36528179D01*
X66433709Y-36568500D01*
X66489261Y-36568500D01*
X66542560Y-36552850D01*
X66591401Y-36496485D01*
X66602015Y-36422663D01*
X66571033Y-36354821D01*
X66508291Y-36314500D01*
X66452739Y-36314500D01*
X66399440Y-36330150D01*
X66350599Y-36386515D01*
X66339985Y-36460337D01*
X66092952Y-36460337D01*
X66111789Y-36441500D01*
X66030797Y-36360508D01*
X65553500Y-35883210D01*
X65076203Y-36360508D01*
X64995210Y-36441500D01*
X64764307Y-36441500D01*
X64767015Y-36422663D01*
X64736033Y-36354821D01*
X64673291Y-36314500D01*
X64617739Y-36314500D01*
X64564440Y-36330150D01*
X64515599Y-36386515D01*
X64504985Y-36460337D01*
X64257952Y-36460337D01*
X64276789Y-36441500D01*
X64195797Y-36360508D01*
X63718500Y-35883210D01*
X63241203Y-36360508D01*
X63160210Y-36441500D01*
X62929307Y-36441500D01*
X62932015Y-36422663D01*
X62901033Y-36354821D01*
X62838291Y-36314500D01*
X62782739Y-36314500D01*
X62729440Y-36330150D01*
X62680599Y-36386515D01*
X62669985Y-36460337D01*
X62497428Y-36460337D01*
X62501924Y-36397469D01*
X62530886Y-36352403D01*
X62547000Y-36336289D01*
X62547000Y-35778000D01*
X63055000Y-35778000D01*
X63055000Y-35828290D01*
X63105290Y-35778000D01*
X64331709Y-35778000D01*
X64381999Y-35828290D01*
X64382000Y-35828290D01*
X64382000Y-35778000D01*
X64890000Y-35778000D01*
X64890000Y-35828290D01*
X64940290Y-35778000D01*
X66166709Y-35778000D01*
X66216999Y-35828290D01*
X66217000Y-35828290D01*
X66217000Y-35778000D01*
X66166709Y-35778000D01*
X64940290Y-35778000D01*
X64890000Y-35778000D01*
X64382000Y-35778000D01*
X64331709Y-35778000D01*
X63105290Y-35778000D01*
X63055000Y-35778000D01*
X62547000Y-35778000D01*
X62547000Y-35542837D01*
X63587485Y-35542837D01*
X63618467Y-35610679D01*
X63681209Y-35651000D01*
X63736761Y-35651000D01*
X63790060Y-35635350D01*
X63838901Y-35578985D01*
X63844098Y-35542837D01*
X65422485Y-35542837D01*
X65453467Y-35610679D01*
X65516209Y-35651000D01*
X65571761Y-35651000D01*
X65625060Y-35635350D01*
X65673901Y-35578985D01*
X65684515Y-35505163D01*
X65653533Y-35437321D01*
X65590791Y-35397000D01*
X65535239Y-35397000D01*
X65481940Y-35412650D01*
X65433099Y-35469015D01*
X65422485Y-35542837D01*
X63844098Y-35542837D01*
X63849515Y-35505163D01*
X63818533Y-35437321D01*
X63755791Y-35397000D01*
X63700239Y-35397000D01*
X63646940Y-35412650D01*
X63598099Y-35469015D01*
X63587485Y-35542837D01*
X62547000Y-35542837D01*
X62547000Y-35219709D01*
X63055000Y-35219709D01*
X63055000Y-35270000D01*
X63105290Y-35270000D01*
X63105290Y-35269999D01*
X64331709Y-35269999D01*
X64331710Y-35270000D01*
X64382000Y-35270000D01*
X64382000Y-35219710D01*
X64381999Y-35219709D01*
X64890000Y-35219709D01*
X64890000Y-35270000D01*
X64940290Y-35270000D01*
X64940290Y-35269999D01*
X66166709Y-35269999D01*
X66166710Y-35270000D01*
X66217000Y-35270000D01*
X66217000Y-35219710D01*
X66216999Y-35219709D01*
X66166709Y-35269999D01*
X64940290Y-35269999D01*
X64890000Y-35219709D01*
X64381999Y-35219709D01*
X64331709Y-35269999D01*
X63105290Y-35269999D01*
X63055000Y-35219709D01*
X62547000Y-35219709D01*
X62547000Y-34711710D01*
X62530886Y-34695597D01*
X62496860Y-34633285D01*
X62497428Y-34625337D01*
X62669985Y-34625337D01*
X62700967Y-34693179D01*
X62763709Y-34733500D01*
X62819261Y-34733500D01*
X62872560Y-34717850D01*
X62921401Y-34661485D01*
X62929307Y-34606500D01*
X63160210Y-34606500D01*
X63241203Y-34687492D01*
X63718500Y-35164789D01*
X64257952Y-34625337D01*
X64504985Y-34625337D01*
X64535967Y-34693179D01*
X64598709Y-34733500D01*
X64654261Y-34733500D01*
X64707560Y-34717850D01*
X64756401Y-34661485D01*
X64764307Y-34606500D01*
X64995210Y-34606500D01*
X65076203Y-34687492D01*
X65553500Y-35164789D01*
X66092952Y-34625337D01*
X66339985Y-34625337D01*
X66370967Y-34693179D01*
X66433709Y-34733500D01*
X66489261Y-34733500D01*
X66542560Y-34717850D01*
X66591401Y-34661485D01*
X66602015Y-34587663D01*
X66571033Y-34519821D01*
X66508291Y-34479500D01*
X66452739Y-34479500D01*
X66399440Y-34495150D01*
X66350599Y-34551515D01*
X66339985Y-34625337D01*
X66092952Y-34625337D01*
X66111789Y-34606500D01*
X66030797Y-34525508D01*
X65553500Y-34048210D01*
X65076203Y-34525508D01*
X64995210Y-34606500D01*
X64764307Y-34606500D01*
X64767015Y-34587663D01*
X64736033Y-34519821D01*
X64673291Y-34479500D01*
X64617739Y-34479500D01*
X64564440Y-34495150D01*
X64515599Y-34551515D01*
X64504985Y-34625337D01*
X64257952Y-34625337D01*
X64276789Y-34606500D01*
X64195797Y-34525508D01*
X63718500Y-34048210D01*
X63241203Y-34525508D01*
X63160210Y-34606500D01*
X62929307Y-34606500D01*
X62932015Y-34587663D01*
X62901033Y-34519821D01*
X62838291Y-34479500D01*
X62782739Y-34479500D01*
X62729440Y-34495150D01*
X62680599Y-34551515D01*
X62669985Y-34625337D01*
X62497428Y-34625337D01*
X62501924Y-34562469D01*
X62530886Y-34517403D01*
X62547000Y-34501289D01*
X62547000Y-33943000D01*
X63055000Y-33943000D01*
X63055000Y-33993290D01*
X63105290Y-33943000D01*
X64331709Y-33943000D01*
X64381999Y-33993290D01*
X64382000Y-33993290D01*
X64382000Y-33943000D01*
X64890000Y-33943000D01*
X64890000Y-33993290D01*
X64940290Y-33943000D01*
X66166709Y-33943000D01*
X66216999Y-33993290D01*
X66217000Y-33993290D01*
X66217000Y-33943000D01*
X66166709Y-33943000D01*
X64940290Y-33943000D01*
X64890000Y-33943000D01*
X64382000Y-33943000D01*
X64331709Y-33943000D01*
X63105290Y-33943000D01*
X63055000Y-33943000D01*
X62547000Y-33943000D01*
X62547000Y-33707837D01*
X63587485Y-33707837D01*
X63618467Y-33775679D01*
X63681209Y-33816000D01*
X63736761Y-33816000D01*
X63790060Y-33800350D01*
X63838901Y-33743985D01*
X63844098Y-33707837D01*
X65422485Y-33707837D01*
X65453467Y-33775679D01*
X65516209Y-33816000D01*
X65571761Y-33816000D01*
X65625060Y-33800350D01*
X65673901Y-33743985D01*
X65684515Y-33670163D01*
X65653533Y-33602321D01*
X65590791Y-33562000D01*
X65535239Y-33562000D01*
X65481940Y-33577650D01*
X65433099Y-33634015D01*
X65422485Y-33707837D01*
X63844098Y-33707837D01*
X63849515Y-33670163D01*
X63818533Y-33602321D01*
X63755791Y-33562000D01*
X63700239Y-33562000D01*
X63646940Y-33577650D01*
X63598099Y-33634015D01*
X63587485Y-33707837D01*
X62547000Y-33707837D01*
X62547000Y-33561000D01*
X62567002Y-33492879D01*
X62620658Y-33446386D01*
X62673000Y-33435000D01*
X63613289Y-33435000D01*
X63629403Y-33418886D01*
X63691715Y-33384860D01*
X63762531Y-33389924D01*
X63807597Y-33418886D01*
X63823711Y-33435000D01*
X65448289Y-33435000D01*
X65464403Y-33418886D01*
X65526715Y-33384860D01*
X65597531Y-33389924D01*
G37*
%TD.AperFunction*%
%TD*%
%TA.AperFunction,Conductor*%
%TO.N,GND*%
G36*
X66083721Y-80280288D02*
G01*
X66130214Y-80333944D01*
X66141600Y-80386286D01*
X66141600Y-81400650D01*
X68479400Y-81400650D01*
X68547521Y-81420652D01*
X68594014Y-81474308D01*
X68605400Y-81526650D01*
X68605400Y-81782650D01*
X68585398Y-81850771D01*
X68531742Y-81897264D01*
X68479400Y-81908650D01*
X66141600Y-81908650D01*
X66141600Y-82485197D01*
X66121598Y-82553318D01*
X66067942Y-82599811D01*
X65997668Y-82609915D01*
X65954291Y-82595275D01*
X65924318Y-82578581D01*
X65902138Y-82571147D01*
X65894078Y-82567809D01*
X65873129Y-82557378D01*
X65873127Y-82557377D01*
X65807117Y-82538595D01*
X65747071Y-82500713D01*
X65717037Y-82436382D01*
X65715600Y-82417405D01*
X65715600Y-80386286D01*
X65735602Y-80318165D01*
X65789258Y-80271672D01*
X65841600Y-80260286D01*
X66015600Y-80260286D01*
X66083721Y-80280288D01*
G37*
%TD.AperFunction*%
%TD*%
%TA.AperFunction,Conductor*%
%TO.N,GND*%
G36*
X139870025Y-80369202D02*
G01*
X139946399Y-80397689D01*
X139946400Y-80397689D01*
X139948234Y-80398373D01*
X140005069Y-80440920D01*
X140029879Y-80507441D01*
X140030200Y-80516428D01*
X140030200Y-81635600D01*
X142368000Y-81635600D01*
X142436121Y-81655602D01*
X142482614Y-81709258D01*
X142494000Y-81761600D01*
X142494000Y-82017600D01*
X142473998Y-82085721D01*
X142420342Y-82132214D01*
X142368000Y-82143600D01*
X140030200Y-82143600D01*
X140030200Y-82522626D01*
X140010198Y-82590747D01*
X139956542Y-82637240D01*
X139886268Y-82647344D01*
X139842894Y-82632705D01*
X139827446Y-82624101D01*
X139820128Y-82619333D01*
X139801461Y-82605235D01*
X139769836Y-82589488D01*
X139717773Y-82541219D01*
X139700000Y-82476698D01*
X139700000Y-80487260D01*
X139720002Y-80419139D01*
X139773658Y-80372646D01*
X139843932Y-80362542D01*
X139870025Y-80369202D01*
G37*
%TD.AperFunction*%
%TD*%
M02*
