M48
; DRILL file {KiCad 7.0.9} date Thu Nov  7 18:52:40 2024
; FORMAT={-:-/ absolute / inch / decimal}
; #@! TF.CreationDate,2024-11-07T18:52:40-06:00
; #@! TF.GenerationSoftware,Kicad,Pcbnew,7.0.9
; #@! TF.FileFunction,Plated,1,2,PTH
FMAT,2
INCH
; #@! TA.AperFunction,Plated,PTH,ComponentDrill
T1C0.0100
; #@! TA.AperFunction,Plated,PTH,ViaDrill
T2C0.0157
; #@! TA.AperFunction,Plated,PTH,ComponentDrill
T3C0.0197
; #@! TA.AperFunction,Plated,PTH,ComponentDrill
T4C0.0394
; #@! TA.AperFunction,Plated,PTH,ComponentDrill
T5C0.0433
; #@! TA.AperFunction,Plated,PTH,ComponentDrill
T6C0.0472
; #@! TA.AperFunction,Plated,PTH,ComponentDrill
T7C0.0689
; #@! TA.AperFunction,Plated,PTH,ComponentDrill
T8C0.1154
; #@! TA.AperFunction,Plated,PTH,ComponentDrill
T9C0.1890
%
G90
G05
T1
X2.4725Y-1.3625
X2.4725Y-1.4347
X2.5086Y-1.3263
X2.5086Y-1.3986
X2.5086Y-1.4708
X2.5447Y-1.3625
X2.5447Y-1.4347
X2.5808Y-1.3263
X2.5808Y-1.3986
X2.5808Y-1.4708
X2.617Y-1.3625
X2.617Y-1.4347
T2
X1.0069Y-3.3602
X1.0675Y-2.4649
X1.0787Y-1.814
X1.2136Y-2.7441
X1.2411Y-2.1545
X1.4616Y-2.6398
X1.5993Y-1.9414
X1.6093Y-2.0915
X1.7271Y-1.3572
X1.7323Y-2.1998
X1.7501Y-3.121
X1.8243Y-1.7941
X1.829Y-1.6089
X1.872Y-3.694
X2.0335Y-2.4775
X2.0561Y-1.2116
X2.1014Y-3.423
X2.1078Y-3.1053
X2.1673Y-1.8553
X2.196Y-3.19
X2.198Y-3.242
X2.2037Y-3.0305
X2.229Y-3.2147
X2.2372Y-2.4085
X2.264Y-3.242
X2.266Y-3.19
X2.2707Y-3.0413
X2.2962Y-3.3858
X2.306Y-3.6688
X2.3356Y-1.9469
X2.3379Y-3.0375
X2.3927Y-1.9478
X2.422Y-3.3221
X2.5541Y-1.9311
X2.584Y-3.1198
X2.6042Y-2.544
X2.65Y-3.188
X2.656Y-3.2411
X2.686Y-2.0
X2.691Y-3.2147
X2.7152Y-3.036
X2.7185Y-2.6762
X2.7294Y-3.4033
X2.73Y-3.188
X2.73Y-3.24
X2.7559Y-3.0423
X2.8132Y-3.0449
X2.8415Y-1.8533
X2.9124Y-1.9311
X2.9252Y-1.0856
X2.9262Y-2.1132
X2.9291Y-1.1673
X2.9533Y-2.4719
X3.0Y-1.184
X3.0069Y-3.4242
X3.0104Y-2.2914
X3.0278Y-3.119
X3.051Y-1.364
X3.0689Y-2.2136
X3.072Y-1.482
X3.0906Y-2.0994
X3.112Y-1.186
X3.112Y-3.188
X3.112Y-3.24
X3.123Y-3.0226
X3.145Y-3.2127
X3.182Y-3.186
X3.184Y-3.24
X3.185Y-2.2165
X3.189Y-3.0236
X3.1977Y-3.3904
X3.2494Y-1.7643
X3.254Y-3.04
X3.2753Y-2.115
X3.277Y-1.2618
X3.3209Y-2.1171
X3.3335Y-1.179
X3.3435Y-2.2923
X3.3799Y-2.1161
X3.4085Y-3.4026
X3.4203Y-2.1161
X3.4838Y-3.1151
X3.4853Y-2.5384
X3.5543Y-2.1302
X3.572Y-3.2441
X3.5738Y-3.0285
X3.574Y-3.19
X3.6026Y-2.1299
X3.605Y-3.2167
X3.6309Y-3.0246
X3.6377Y-3.3984
X3.64Y-3.188
X3.644Y-3.242
X3.6506Y-2.126
X3.6801Y-3.0285
X3.706Y-2.1286
X3.7992Y-2.5443
X3.8561Y-3.4203
X3.9Y-0.962
X3.9477Y-2.3775
X3.9744Y-3.1132
X4.0561Y-3.0344
X4.066Y-3.194
X4.072Y-3.25
X4.0915Y-2.6713
X4.102Y-3.222
X4.1191Y-3.0285
X4.121Y-3.4066
X4.138Y-3.25
X4.142Y-3.196
X4.1627Y-2.6606
X4.1781Y-3.0315
X4.3228Y-2.4852
X4.3634Y-3.424
X4.4715Y-3.1132
X4.5291Y-3.783
X4.563Y-3.0207
X4.566Y-3.192
X4.566Y-3.246
X4.5886Y-2.6772
X4.6Y-3.22
X4.6244Y-3.4018
X4.627Y-3.0246
X4.634Y-3.248
X4.6358Y-2.6841
X4.636Y-3.194
X4.6791Y-3.0266
X4.7264Y-2.5652
X4.7835Y-3.3563
X4.874Y-1.2789
X4.9734Y-3.1132
X5.0157Y-2.6565
X5.0413Y-3.0433
X5.064Y-3.196
X5.064Y-3.25
X5.0728Y-2.5561
X5.0787Y-2.6212
X5.1Y-3.222
X5.1059Y-1.7397
X5.1073Y-3.0246
X5.1122Y-2.5295
X5.1238Y-3.3978
X5.132Y-3.196
X5.134Y-3.249
X5.1414Y-1.0208
X5.1791Y-3.0335
X5.185Y-2.5113
X5.2516Y-1.0159
X5.2683Y-1.7378
X5.3467Y-3.4161
X5.3671Y-4.185
X5.3953Y-1.7233
X5.4724Y-3.1122
X5.5364Y-3.0305
X5.562Y-3.198
X5.564Y-3.252
X5.5645Y-1.2684
X5.6Y-3.224
X5.6093Y-2.562
X5.6176Y-3.036
X5.6188Y-3.4154
X5.636Y-3.2
X5.636Y-3.25
X5.72Y-3.062
X5.7805Y-3.7018
X5.801Y-3.421
X5.8449Y-0.9165
X5.9537Y-3.1142
X6.0325Y-3.0443
X6.064Y-3.192
X6.064Y-3.244
X6.098Y-3.218
X6.1122Y-3.4035
X6.1211Y-3.0413
X6.132Y-3.244
X6.136Y-3.19
X6.1752Y-3.0344
X6.1861Y-0.9385
X6.438Y-3.3159
X6.7756Y-1.6319
X6.7756Y-2.1781
X6.7815Y-3.0659
T4
X1.056Y-1.4411
X1.056Y-1.5396
X1.056Y-1.638
X1.1122Y-3.749
X1.2122Y-3.749
X1.234Y-3.0206
X1.3122Y-3.749
X1.313Y-3.2282
X1.313Y-3.3266
X1.313Y-3.425
X1.334Y-3.0206
X1.4122Y-3.749
X1.438Y-1.4411
X1.438Y-1.5396
X1.438Y-1.638
X1.5886Y-2.8652
X1.632Y-3.2262
X1.632Y-3.3246
X1.632Y-3.423
X1.6886Y-2.8652
T5
X6.4288Y-2.4652
X6.5288Y-2.4652
X6.6288Y-2.4652
T6
X1.04Y-2.5886
X1.042Y-2.8326
X1.126Y-1.016
X1.374Y-1.014
X1.594Y-2.5586
X1.596Y-2.3046
X1.716Y-1.016
X1.964Y-1.016
T7
X3.0709Y-3.7188
X3.0709Y-4.0337
X3.1496Y-3.8763
X3.2283Y-3.7188
X3.2283Y-4.0337
X3.3071Y-3.8763
X3.3858Y-3.7188
X3.3858Y-4.0337
X3.4646Y-3.8763
X3.5433Y-3.7188
X3.5433Y-4.0337
X3.622Y-3.8763
X3.7008Y-3.7188
X3.7008Y-4.0337
X3.7795Y-3.8763
X3.8583Y-3.7188
X3.8583Y-4.0337
X3.937Y-3.8763
X4.0157Y-3.7188
X4.0157Y-4.0337
X4.0945Y-3.8763
X4.1732Y-3.7188
X4.1732Y-4.0337
T8
X2.815Y-3.896
X4.4291Y-3.896
T9
X4.472Y-1.82
X5.5177Y-2.1998
T3
G00X2.2439Y-2.1211
M15
G01X2.2439Y-2.1644
M16
G05
G00X2.3285Y-2.0187
M15
G01X2.3285Y-2.0463
M16
G05
G00X2.3285Y-2.2392
M15
G01X2.3285Y-2.2667
M16
G05
G00X6.0736Y-2.4394
M15
G01X6.0184Y-2.4394
M16
G05
G00X6.0736Y-2.585
M15
G01X6.0184Y-2.585
M16
G05
G00X6.0736Y-2.7543
M15
G01X6.0184Y-2.7543
M16
G05
G00X6.0736Y-2.9
M15
G01X6.0184Y-2.9
M16
G05
G00X6.5739Y-3.5337
M15
G01X6.5188Y-3.5337
M16
G05
G00X6.5739Y-3.6793
M15
G01X6.5188Y-3.6793
M16
G05
G00X6.5739Y-3.8486
M15
G01X6.5188Y-3.8486
M16
G05
G00X6.5739Y-3.9943
M15
G01X6.5188Y-3.9943
M16
G05
T0
M30
