%TF.GenerationSoftware,KiCad,Pcbnew,7.0.9*%
%TF.CreationDate,2024-11-07T18:52:40-06:00*%
%TF.ProjectId,RC17,52433137-2e6b-4696-9361-645f70636258,rev?*%
%TF.SameCoordinates,Original*%
%TF.FileFunction,Paste,Top*%
%TF.FilePolarity,Positive*%
%FSLAX46Y46*%
G04 Gerber Fmt 4.6, Leading zero omitted, Abs format (unit mm)*
G04 Created by KiCad (PCBNEW 7.0.9) date 2024-11-07 18:52:40*
%MOMM*%
%LPD*%
G01*
G04 APERTURE LIST*
G04 Aperture macros list*
%AMRoundRect*
0 Rectangle with rounded corners*
0 $1 Rounding radius*
0 $2 $3 $4 $5 $6 $7 $8 $9 X,Y pos of 4 corners*
0 Add a 4 corners polygon primitive as box body*
4,1,4,$2,$3,$4,$5,$6,$7,$8,$9,$2,$3,0*
0 Add four circle primitives for the rounded corners*
1,1,$1+$1,$2,$3*
1,1,$1+$1,$4,$5*
1,1,$1+$1,$6,$7*
1,1,$1+$1,$8,$9*
0 Add four rect primitives between the rounded corners*
20,1,$1+$1,$2,$3,$4,$5,0*
20,1,$1+$1,$4,$5,$6,$7,0*
20,1,$1+$1,$6,$7,$8,$9,0*
20,1,$1+$1,$8,$9,$2,$3,0*%
G04 Aperture macros list end*
%ADD10C,0.010000*%
%ADD11RoundRect,0.225000X0.375000X-0.225000X0.375000X0.225000X-0.375000X0.225000X-0.375000X-0.225000X0*%
%ADD12RoundRect,0.225000X-0.375000X0.225000X-0.375000X-0.225000X0.375000X-0.225000X0.375000X0.225000X0*%
%ADD13RoundRect,0.200000X-0.200000X-0.275000X0.200000X-0.275000X0.200000X0.275000X-0.200000X0.275000X0*%
%ADD14RoundRect,0.225000X0.225000X0.250000X-0.225000X0.250000X-0.225000X-0.250000X0.225000X-0.250000X0*%
%ADD15RoundRect,0.250000X-1.950000X-1.000000X1.950000X-1.000000X1.950000X1.000000X-1.950000X1.000000X0*%
%ADD16RoundRect,0.250000X0.550000X-1.500000X0.550000X1.500000X-0.550000X1.500000X-0.550000X-1.500000X0*%
%ADD17RoundRect,0.150000X-0.150000X0.825000X-0.150000X-0.825000X0.150000X-0.825000X0.150000X0.825000X0*%
%ADD18RoundRect,0.250000X-0.475000X0.250000X-0.475000X-0.250000X0.475000X-0.250000X0.475000X0.250000X0*%
%ADD19R,0.558800X1.460500*%
%ADD20RoundRect,0.200000X-0.275000X0.200000X-0.275000X-0.200000X0.275000X-0.200000X0.275000X0.200000X0*%
%ADD21R,2.000000X1.500000*%
%ADD22R,2.000000X3.800000*%
%ADD23R,1.800000X1.800000*%
%ADD24R,5.400000X2.900000*%
%ADD25RoundRect,0.200000X0.275000X-0.200000X0.275000X0.200000X-0.275000X0.200000X-0.275000X-0.200000X0*%
%ADD26RoundRect,0.225000X-0.250000X0.225000X-0.250000X-0.225000X0.250000X-0.225000X0.250000X0.225000X0*%
%ADD27R,0.650000X1.500000*%
%ADD28R,1.300000X1.500000*%
%ADD29R,1.500000X0.450000*%
%ADD30RoundRect,0.225000X0.250000X-0.225000X0.250000X0.225000X-0.250000X0.225000X-0.250000X-0.225000X0*%
%ADD31R,1.050000X3.210000*%
%ADD32RoundRect,0.218750X0.256250X-0.218750X0.256250X0.218750X-0.256250X0.218750X-0.256250X-0.218750X0*%
%ADD33R,0.900000X2.000000*%
%ADD34R,2.000000X0.900000*%
%ADD35R,1.330000X1.330000*%
%ADD36RoundRect,0.150000X-0.150000X0.587500X-0.150000X-0.587500X0.150000X-0.587500X0.150000X0.587500X0*%
%ADD37RoundRect,0.250000X1.000000X-1.950000X1.000000X1.950000X-1.000000X1.950000X-1.000000X-1.950000X0*%
%ADD38RoundRect,1.025000X-1.025000X-1.125000X1.025000X-1.125000X1.025000X1.125000X-1.025000X1.125000X0*%
%ADD39R,4.100000X4.300000*%
%ADD40RoundRect,0.250000X0.475000X-0.250000X0.475000X0.250000X-0.475000X0.250000X-0.475000X-0.250000X0*%
%ADD41R,2.900000X5.400000*%
%ADD42RoundRect,0.150000X-0.875000X-0.150000X0.875000X-0.150000X0.875000X0.150000X-0.875000X0.150000X0*%
G04 APERTURE END LIST*
%TO.C,U9*%
G36*
X93168800Y-81605450D02*
G01*
X91667000Y-81605450D01*
X91667000Y-80446550D01*
X93168800Y-80446550D01*
X93168800Y-81605450D01*
G37*
G36*
X91467000Y-81605450D02*
G01*
X89965200Y-81605450D01*
X89965200Y-80446550D01*
X91467000Y-80446550D01*
X91467000Y-81605450D01*
G37*
G36*
X93168800Y-82964350D02*
G01*
X91667000Y-82964350D01*
X91667000Y-81805450D01*
X93168800Y-81805450D01*
X93168800Y-82964350D01*
G37*
G36*
X91467000Y-82964350D02*
G01*
X89965200Y-82964350D01*
X89965200Y-81805450D01*
X91467000Y-81805450D01*
X91467000Y-82964350D01*
G37*
%TO.C,U12*%
G36*
X156491000Y-81637200D02*
G01*
X154989200Y-81637200D01*
X154989200Y-80478300D01*
X156491000Y-80478300D01*
X156491000Y-81637200D01*
G37*
G36*
X154789200Y-81637200D02*
G01*
X153287400Y-81637200D01*
X153287400Y-80478300D01*
X154789200Y-80478300D01*
X154789200Y-81637200D01*
G37*
G36*
X156491000Y-82996100D02*
G01*
X154989200Y-82996100D01*
X154989200Y-81837200D01*
X156491000Y-81837200D01*
X156491000Y-82996100D01*
G37*
G36*
X154789200Y-82996100D02*
G01*
X153287400Y-82996100D01*
X153287400Y-81837200D01*
X154789200Y-81837200D01*
X154789200Y-82996100D01*
G37*
%TO.C,U11*%
G36*
X143841800Y-81789600D02*
G01*
X142340000Y-81789600D01*
X142340000Y-80630700D01*
X143841800Y-80630700D01*
X143841800Y-81789600D01*
G37*
G36*
X142140000Y-81789600D02*
G01*
X140638200Y-81789600D01*
X140638200Y-80630700D01*
X142140000Y-80630700D01*
X142140000Y-81789600D01*
G37*
G36*
X143841800Y-83148500D02*
G01*
X142340000Y-83148500D01*
X142340000Y-81989600D01*
X143841800Y-81989600D01*
X143841800Y-83148500D01*
G37*
G36*
X142140000Y-83148500D02*
G01*
X140638200Y-83148500D01*
X140638200Y-81989600D01*
X142140000Y-81989600D01*
X142140000Y-83148500D01*
G37*
%TO.C,U17*%
G36*
X58218400Y-81554650D02*
G01*
X56716600Y-81554650D01*
X56716600Y-80395750D01*
X58218400Y-80395750D01*
X58218400Y-81554650D01*
G37*
G36*
X56516600Y-81554650D02*
G01*
X55014800Y-81554650D01*
X55014800Y-80395750D01*
X56516600Y-80395750D01*
X56516600Y-81554650D01*
G37*
G36*
X58218400Y-82913550D02*
G01*
X56716600Y-82913550D01*
X56716600Y-81754650D01*
X58218400Y-81754650D01*
X58218400Y-82913550D01*
G37*
G36*
X56516600Y-82913550D02*
G01*
X55014800Y-82913550D01*
X55014800Y-81754650D01*
X56516600Y-81754650D01*
X56516600Y-82913550D01*
G37*
%TO.C,IC2*%
D10*
X138945800Y-35707800D02*
X137525800Y-35707800D01*
X137525800Y-34447800D01*
X138945800Y-34447800D01*
X138945800Y-35707800D01*
G36*
X138945800Y-35707800D02*
G01*
X137525800Y-35707800D01*
X137525800Y-34447800D01*
X138945800Y-34447800D01*
X138945800Y-35707800D01*
G37*
X136835800Y-35707800D02*
X135415800Y-35707800D01*
X135415800Y-34447800D01*
X136835800Y-34447800D01*
X136835800Y-35707800D01*
G36*
X136835800Y-35707800D02*
G01*
X135415800Y-35707800D01*
X135415800Y-34447800D01*
X136835800Y-34447800D01*
X136835800Y-35707800D01*
G37*
X134725800Y-35707800D02*
X133305800Y-35707800D01*
X133305800Y-34447800D01*
X134725800Y-34447800D01*
X134725800Y-35707800D01*
G36*
X134725800Y-35707800D02*
G01*
X133305800Y-35707800D01*
X133305800Y-34447800D01*
X134725800Y-34447800D01*
X134725800Y-35707800D01*
G37*
X132615800Y-35707800D02*
X131195800Y-35707800D01*
X131195800Y-34447800D01*
X132615800Y-34447800D01*
X132615800Y-35707800D01*
G36*
X132615800Y-35707800D02*
G01*
X131195800Y-35707800D01*
X131195800Y-34447800D01*
X132615800Y-34447800D01*
X132615800Y-35707800D01*
G37*
X130505800Y-35707800D02*
X129085800Y-35707800D01*
X129085800Y-34447800D01*
X130505800Y-34447800D01*
X130505800Y-35707800D01*
G36*
X130505800Y-35707800D02*
G01*
X129085800Y-35707800D01*
X129085800Y-34447800D01*
X130505800Y-34447800D01*
X130505800Y-35707800D01*
G37*
X138945800Y-37827800D02*
X137525800Y-37827800D01*
X137525800Y-36567800D01*
X138945800Y-36567800D01*
X138945800Y-37827800D01*
G36*
X138945800Y-37827800D02*
G01*
X137525800Y-37827800D01*
X137525800Y-36567800D01*
X138945800Y-36567800D01*
X138945800Y-37827800D01*
G37*
X136835800Y-37827800D02*
X135415800Y-37827800D01*
X135415800Y-36567800D01*
X136835800Y-36567800D01*
X136835800Y-37827800D01*
G36*
X136835800Y-37827800D02*
G01*
X135415800Y-37827800D01*
X135415800Y-36567800D01*
X136835800Y-36567800D01*
X136835800Y-37827800D01*
G37*
X134725800Y-37827800D02*
X133305800Y-37827800D01*
X133305800Y-36567800D01*
X134725800Y-36567800D01*
X134725800Y-37827800D01*
G36*
X134725800Y-37827800D02*
G01*
X133305800Y-37827800D01*
X133305800Y-36567800D01*
X134725800Y-36567800D01*
X134725800Y-37827800D01*
G37*
X132615800Y-37827800D02*
X131195800Y-37827800D01*
X131195800Y-36567800D01*
X132615800Y-36567800D01*
X132615800Y-37827800D01*
G36*
X132615800Y-37827800D02*
G01*
X131195800Y-37827800D01*
X131195800Y-36567800D01*
X132615800Y-36567800D01*
X132615800Y-37827800D01*
G37*
X130505800Y-37827800D02*
X129085800Y-37827800D01*
X129085800Y-36567800D01*
X130505800Y-36567800D01*
X130505800Y-37827800D01*
G36*
X130505800Y-37827800D02*
G01*
X129085800Y-37827800D01*
X129085800Y-36567800D01*
X130505800Y-36567800D01*
X130505800Y-37827800D01*
G37*
X138945800Y-39947800D02*
X137525800Y-39947800D01*
X137525800Y-38687800D01*
X138945800Y-38687800D01*
X138945800Y-39947800D01*
G36*
X138945800Y-39947800D02*
G01*
X137525800Y-39947800D01*
X137525800Y-38687800D01*
X138945800Y-38687800D01*
X138945800Y-39947800D01*
G37*
X136835800Y-39947800D02*
X135415800Y-39947800D01*
X135415800Y-38687800D01*
X136835800Y-38687800D01*
X136835800Y-39947800D01*
G36*
X136835800Y-39947800D02*
G01*
X135415800Y-39947800D01*
X135415800Y-38687800D01*
X136835800Y-38687800D01*
X136835800Y-39947800D01*
G37*
X134725800Y-39947800D02*
X133305800Y-39947800D01*
X133305800Y-38687800D01*
X134725800Y-38687800D01*
X134725800Y-39947800D01*
G36*
X134725800Y-39947800D02*
G01*
X133305800Y-39947800D01*
X133305800Y-38687800D01*
X134725800Y-38687800D01*
X134725800Y-39947800D01*
G37*
X132615800Y-39947800D02*
X131195800Y-39947800D01*
X131195800Y-38687800D01*
X132615800Y-38687800D01*
X132615800Y-39947800D01*
G36*
X132615800Y-39947800D02*
G01*
X131195800Y-39947800D01*
X131195800Y-38687800D01*
X132615800Y-38687800D01*
X132615800Y-39947800D01*
G37*
X130505800Y-39947800D02*
X129085800Y-39947800D01*
X129085800Y-38687800D01*
X130505800Y-38687800D01*
X130505800Y-39947800D01*
G36*
X130505800Y-39947800D02*
G01*
X129085800Y-39947800D01*
X129085800Y-38687800D01*
X130505800Y-38687800D01*
X130505800Y-39947800D01*
G37*
X138945800Y-42067800D02*
X137525800Y-42067800D01*
X137525800Y-40807800D01*
X138945800Y-40807800D01*
X138945800Y-42067800D01*
G36*
X138945800Y-42067800D02*
G01*
X137525800Y-42067800D01*
X137525800Y-40807800D01*
X138945800Y-40807800D01*
X138945800Y-42067800D01*
G37*
X136835800Y-42067800D02*
X135415800Y-42067800D01*
X135415800Y-40807800D01*
X136835800Y-40807800D01*
X136835800Y-42067800D01*
G36*
X136835800Y-42067800D02*
G01*
X135415800Y-42067800D01*
X135415800Y-40807800D01*
X136835800Y-40807800D01*
X136835800Y-42067800D01*
G37*
X134725800Y-42067800D02*
X133305800Y-42067800D01*
X133305800Y-40807800D01*
X134725800Y-40807800D01*
X134725800Y-42067800D01*
G36*
X134725800Y-42067800D02*
G01*
X133305800Y-42067800D01*
X133305800Y-40807800D01*
X134725800Y-40807800D01*
X134725800Y-42067800D01*
G37*
X132615800Y-42067800D02*
X131195800Y-42067800D01*
X131195800Y-40807800D01*
X132615800Y-40807800D01*
X132615800Y-42067800D01*
G36*
X132615800Y-42067800D02*
G01*
X131195800Y-42067800D01*
X131195800Y-40807800D01*
X132615800Y-40807800D01*
X132615800Y-42067800D01*
G37*
X130505800Y-42067800D02*
X129085800Y-42067800D01*
X129085800Y-40807800D01*
X130505800Y-40807800D01*
X130505800Y-42067800D01*
G36*
X130505800Y-42067800D02*
G01*
X129085800Y-42067800D01*
X129085800Y-40807800D01*
X130505800Y-40807800D01*
X130505800Y-42067800D01*
G37*
%TO.C,U14*%
G36*
X131141800Y-81738800D02*
G01*
X129640000Y-81738800D01*
X129640000Y-80579900D01*
X131141800Y-80579900D01*
X131141800Y-81738800D01*
G37*
G36*
X129440000Y-81738800D02*
G01*
X127938200Y-81738800D01*
X127938200Y-80579900D01*
X129440000Y-80579900D01*
X129440000Y-81738800D01*
G37*
G36*
X131141800Y-83097700D02*
G01*
X129640000Y-83097700D01*
X129640000Y-81938800D01*
X131141800Y-81938800D01*
X131141800Y-83097700D01*
G37*
G36*
X129440000Y-83097700D02*
G01*
X127938200Y-83097700D01*
X127938200Y-81938800D01*
X129440000Y-81938800D01*
X129440000Y-83097700D01*
G37*
%TO.C,U13*%
G36*
X118441800Y-81688000D02*
G01*
X116940000Y-81688000D01*
X116940000Y-80529100D01*
X118441800Y-80529100D01*
X118441800Y-81688000D01*
G37*
G36*
X116740000Y-81688000D02*
G01*
X115238200Y-81688000D01*
X115238200Y-80529100D01*
X116740000Y-80529100D01*
X116740000Y-81688000D01*
G37*
G36*
X118441800Y-83046900D02*
G01*
X116940000Y-83046900D01*
X116940000Y-81888000D01*
X118441800Y-81888000D01*
X118441800Y-83046900D01*
G37*
G36*
X116740000Y-83046900D02*
G01*
X115238200Y-83046900D01*
X115238200Y-81888000D01*
X116740000Y-81888000D01*
X116740000Y-83046900D01*
G37*
%TO.C,U8*%
G36*
X81484800Y-81503850D02*
G01*
X79983000Y-81503850D01*
X79983000Y-80344950D01*
X81484800Y-80344950D01*
X81484800Y-81503850D01*
G37*
G36*
X79783000Y-81503850D02*
G01*
X78281200Y-81503850D01*
X78281200Y-80344950D01*
X79783000Y-80344950D01*
X79783000Y-81503850D01*
G37*
G36*
X81484800Y-82862750D02*
G01*
X79983000Y-82862750D01*
X79983000Y-81703850D01*
X81484800Y-81703850D01*
X81484800Y-82862750D01*
G37*
G36*
X79783000Y-82862750D02*
G01*
X78281200Y-82862750D01*
X78281200Y-81703850D01*
X79783000Y-81703850D01*
X79783000Y-82862750D01*
G37*
%TO.C,U4*%
G36*
X69953200Y-81554650D02*
G01*
X68451400Y-81554650D01*
X68451400Y-80395750D01*
X69953200Y-80395750D01*
X69953200Y-81554650D01*
G37*
G36*
X68251400Y-81554650D02*
G01*
X66749600Y-81554650D01*
X66749600Y-80395750D01*
X68251400Y-80395750D01*
X68251400Y-81554650D01*
G37*
G36*
X69953200Y-82913550D02*
G01*
X68451400Y-82913550D01*
X68451400Y-81754650D01*
X69953200Y-81754650D01*
X69953200Y-82913550D01*
G37*
G36*
X68251400Y-82913550D02*
G01*
X66749600Y-82913550D01*
X66749600Y-81754650D01*
X68251400Y-81754650D01*
X68251400Y-82913550D01*
G37*
%TO.C,U10*%
G36*
X105792600Y-81738800D02*
G01*
X104290800Y-81738800D01*
X104290800Y-80579900D01*
X105792600Y-80579900D01*
X105792600Y-81738800D01*
G37*
G36*
X104090800Y-81738800D02*
G01*
X102589000Y-81738800D01*
X102589000Y-80579900D01*
X104090800Y-80579900D01*
X104090800Y-81738800D01*
G37*
G36*
X105792600Y-83097700D02*
G01*
X104290800Y-83097700D01*
X104290800Y-81938800D01*
X105792600Y-81938800D01*
X105792600Y-83097700D01*
G37*
G36*
X104090800Y-83097700D02*
G01*
X102589000Y-83097700D01*
X102589000Y-81938800D01*
X104090800Y-81938800D01*
X104090800Y-83097700D01*
G37*
%TD*%
D11*
%TO.C,D12*%
X37525000Y-54150000D03*
X37525000Y-50850000D03*
%TD*%
D12*
%TO.C,D13*%
X44000000Y-50895000D03*
X44000000Y-54195000D03*
%TD*%
%TO.C,D10*%
X30875000Y-64825000D03*
X30875000Y-68125000D03*
%TD*%
D11*
%TO.C,D9*%
X35052000Y-68083800D03*
X35052000Y-64783800D03*
%TD*%
D13*
%TO.C,R2*%
X102250000Y-63150000D03*
X100600000Y-63150000D03*
%TD*%
D14*
%TO.C,C24*%
X166607500Y-84175000D03*
X165057500Y-84175000D03*
%TD*%
D15*
%TO.C,C23*%
X161750000Y-74730000D03*
X170150000Y-74730000D03*
%TD*%
%TO.C,C22*%
X161750000Y-52390000D03*
X170150000Y-52390000D03*
%TD*%
%TO.C,C21*%
X161750000Y-38175000D03*
X170150000Y-38175000D03*
%TD*%
D16*
%TO.C,C34*%
X133654800Y-71983600D03*
X133654800Y-66383600D03*
%TD*%
D17*
%TO.C,U3*%
X73020000Y-52700000D03*
X71750000Y-52700000D03*
X70480000Y-52700000D03*
X69210000Y-52700000D03*
X67940000Y-52700000D03*
X66670000Y-52700000D03*
X65400000Y-52700000D03*
X64130000Y-52700000D03*
X64130000Y-57650000D03*
X65400000Y-57650000D03*
X66670000Y-57650000D03*
X67940000Y-57650000D03*
X69210000Y-57650000D03*
X70480000Y-57650000D03*
X71750000Y-57650000D03*
X73020000Y-57650000D03*
%TD*%
D16*
%TO.C,C35*%
X144780000Y-71995600D03*
X144780000Y-66395600D03*
%TD*%
D18*
%TO.C,C7*%
X83186600Y-41499400D03*
X83186600Y-43399400D03*
%TD*%
D19*
%TO.C,U9*%
X93472000Y-78981300D03*
X92202000Y-78981300D03*
X90932000Y-78981300D03*
X89662000Y-78981300D03*
X89662000Y-84429600D03*
X90932000Y-84429600D03*
X92202000Y-84429600D03*
X93472000Y-84429600D03*
%TD*%
D20*
%TO.C,R11*%
X39481400Y-76193400D03*
X39481400Y-77843400D03*
%TD*%
D21*
%TO.C,IC1*%
X83311600Y-34174400D03*
X83311600Y-36474400D03*
X83311600Y-38774400D03*
D22*
X89611600Y-36474400D03*
%TD*%
D23*
%TO.C,D6*%
X54832000Y-90424000D03*
X50832000Y-90424000D03*
%TD*%
D24*
%TO.C,L1*%
X113792000Y-26647600D03*
X113792000Y-36547600D03*
%TD*%
D20*
%TO.C,R3*%
X89421200Y-26822400D03*
X89421200Y-28472400D03*
%TD*%
D25*
%TO.C,R4*%
X79502000Y-33184600D03*
X79502000Y-31534600D03*
%TD*%
D26*
%TO.C,C27*%
X85242400Y-83502200D03*
X85242400Y-85052200D03*
%TD*%
%TO.C,C14*%
X31475000Y-56425000D03*
X31475000Y-57975000D03*
%TD*%
D27*
%TO.C,U7*%
X44492400Y-38445400D03*
X43222400Y-38445400D03*
X41952400Y-38445400D03*
X40682400Y-38445400D03*
X40682400Y-43845400D03*
X41952400Y-43845400D03*
X43222400Y-43845400D03*
X44492400Y-43845400D03*
%TD*%
D25*
%TO.C,R7*%
X28702000Y-83796600D03*
X28702000Y-82146600D03*
%TD*%
D26*
%TO.C,C11*%
X78950000Y-27225000D03*
X78950000Y-28775000D03*
%TD*%
D28*
%TO.C,U16*%
X58115200Y-97297200D03*
X58115200Y-94757200D03*
X49115200Y-94757200D03*
X49115200Y-97297200D03*
%TD*%
D16*
%TO.C,C16*%
X63858800Y-71829566D03*
X63858800Y-66229566D03*
%TD*%
D26*
%TO.C,C32*%
X135839200Y-83603800D03*
X135839200Y-85153800D03*
%TD*%
D19*
%TO.C,U12*%
X156794200Y-79013050D03*
X155524200Y-79013050D03*
X154254200Y-79013050D03*
X152984200Y-79013050D03*
X152984200Y-84461350D03*
X154254200Y-84461350D03*
X155524200Y-84461350D03*
X156794200Y-84461350D03*
%TD*%
D26*
%TO.C,C33*%
X148285200Y-83756200D03*
X148285200Y-85306200D03*
%TD*%
%TO.C,C37*%
X123088400Y-83705400D03*
X123088400Y-85255400D03*
%TD*%
%TO.C,C36*%
X110896400Y-83807000D03*
X110896400Y-85357000D03*
%TD*%
D19*
%TO.C,U11*%
X144145000Y-79165450D03*
X142875000Y-79165450D03*
X141605000Y-79165450D03*
X140335000Y-79165450D03*
X140335000Y-84613750D03*
X141605000Y-84613750D03*
X142875000Y-84613750D03*
X144145000Y-84613750D03*
%TD*%
D26*
%TO.C,C25*%
X74879200Y-83705400D03*
X74879200Y-85255400D03*
%TD*%
D29*
%TO.C,J1*%
X58895000Y-53125000D03*
X58895000Y-53775000D03*
X58895000Y-54425000D03*
X58895000Y-55075000D03*
X58895000Y-55725000D03*
%TD*%
D19*
%TO.C,U17*%
X58521600Y-78930500D03*
X57251600Y-78930500D03*
X55981600Y-78930500D03*
X54711600Y-78930500D03*
X54711600Y-84378800D03*
X55981600Y-84378800D03*
X57251600Y-84378800D03*
X58521600Y-84378800D03*
%TD*%
D14*
%TO.C,C5*%
X79629600Y-36271200D03*
X78079600Y-36271200D03*
%TD*%
D18*
%TO.C,C8*%
X141289400Y-28393050D03*
X141289400Y-30293050D03*
%TD*%
D20*
%TO.C,R5*%
X82250000Y-55050000D03*
X82250000Y-56700000D03*
%TD*%
D30*
%TO.C,R9*%
X49123600Y-41262600D03*
X49123600Y-39712600D03*
%TD*%
D26*
%TO.C,C19*%
X46362400Y-42570400D03*
X46362400Y-44120400D03*
%TD*%
D25*
%TO.C,R13*%
X58125000Y-101350000D03*
X58125000Y-99700000D03*
%TD*%
D20*
%TO.C,R6*%
X79425000Y-55050000D03*
X79425000Y-56700000D03*
%TD*%
D31*
%TO.C,IC2*%
X137415800Y-28627800D03*
X135715800Y-28627800D03*
X134015800Y-28627800D03*
X132315800Y-28627800D03*
X130615800Y-28627800D03*
%TD*%
D23*
%TO.C,D5*%
X83525000Y-49225000D03*
X79525000Y-49225000D03*
%TD*%
D19*
%TO.C,U14*%
X131445000Y-79114650D03*
X130175000Y-79114650D03*
X128905000Y-79114650D03*
X127635000Y-79114650D03*
X127635000Y-84562950D03*
X128905000Y-84562950D03*
X130175000Y-84562950D03*
X131445000Y-84562950D03*
%TD*%
D16*
%TO.C,C39*%
X122732800Y-71894000D03*
X122732800Y-66294000D03*
%TD*%
D19*
%TO.C,U13*%
X118745000Y-79063850D03*
X117475000Y-79063850D03*
X116205000Y-79063850D03*
X114935000Y-79063850D03*
X114935000Y-84512150D03*
X116205000Y-84512150D03*
X117475000Y-84512150D03*
X118745000Y-84512150D03*
%TD*%
D26*
%TO.C,C9*%
X76200000Y-27225000D03*
X76200000Y-28775000D03*
%TD*%
%TO.C,C3*%
X76600000Y-55100000D03*
X76600000Y-56650000D03*
%TD*%
D23*
%TO.C,D4*%
X130556000Y-50933600D03*
X130556000Y-54933600D03*
%TD*%
D25*
%TO.C,R12*%
X43675000Y-77825000D03*
X43675000Y-76175000D03*
%TD*%
D26*
%TO.C,C15*%
X63119200Y-83675800D03*
X63119200Y-85225800D03*
%TD*%
D32*
%TO.C,D1*%
X84721200Y-28397400D03*
X84721200Y-26822400D03*
%TD*%
D26*
%TO.C,C31*%
X85075000Y-55100000D03*
X85075000Y-56650000D03*
%TD*%
%TO.C,C40*%
X51866800Y-84365800D03*
X51866800Y-85915800D03*
%TD*%
D16*
%TO.C,C30*%
X98552000Y-71792400D03*
X98552000Y-66192400D03*
%TD*%
D18*
%TO.C,C4*%
X58930000Y-60675000D03*
X58930000Y-62575000D03*
%TD*%
D33*
%TO.C,U15*%
X72136000Y-28024000D03*
X70866000Y-28024000D03*
X69596000Y-28024000D03*
X68326000Y-28024000D03*
X67056000Y-28024000D03*
X65786000Y-28024000D03*
X64516000Y-28024000D03*
X63246000Y-28024000D03*
X61976000Y-28024000D03*
X60706000Y-28024000D03*
X59436000Y-28024000D03*
X58166000Y-28024000D03*
X56896000Y-28024000D03*
X55626000Y-28024000D03*
D34*
X54626000Y-30809000D03*
X54626000Y-32079000D03*
X54626000Y-33349000D03*
X54626000Y-34619000D03*
X54626000Y-35889000D03*
X54626000Y-37159000D03*
X54626000Y-38429000D03*
X54626000Y-39699000D03*
X54626000Y-40969000D03*
X54626000Y-42239000D03*
D33*
X55626000Y-45024000D03*
X56896000Y-45024000D03*
X58166000Y-45024000D03*
X59436000Y-45024000D03*
X60706000Y-45024000D03*
X61976000Y-45024000D03*
X63246000Y-45024000D03*
X64516000Y-45024000D03*
X65786000Y-45024000D03*
X67056000Y-45024000D03*
X68326000Y-45024000D03*
X69596000Y-45024000D03*
X70866000Y-45024000D03*
X72136000Y-45024000D03*
D35*
X66471000Y-37359000D03*
X66471000Y-35524000D03*
X66471000Y-33689000D03*
X64636000Y-37359000D03*
X64636000Y-35524000D03*
X64636000Y-33689000D03*
X62801000Y-37359000D03*
X62801000Y-35524000D03*
X62801000Y-33689000D03*
%TD*%
D16*
%TO.C,C38*%
X110083600Y-71684800D03*
X110083600Y-66084800D03*
%TD*%
%TO.C,C26*%
X75133200Y-71690800D03*
X75133200Y-66090800D03*
%TD*%
D36*
%TO.C,Q1*%
X65295000Y-60512500D03*
X63395000Y-60512500D03*
X64345000Y-62387500D03*
%TD*%
D37*
%TO.C,C12*%
X98958400Y-36559600D03*
X98958400Y-28159600D03*
%TD*%
D16*
%TO.C,C29*%
X86715600Y-71684800D03*
X86715600Y-66084800D03*
%TD*%
D26*
%TO.C,C28*%
X98044000Y-83756200D03*
X98044000Y-85306200D03*
%TD*%
D16*
%TO.C,C41*%
X51765200Y-71538400D03*
X51765200Y-65938400D03*
%TD*%
D38*
%TO.C,D3*%
X124206000Y-50205200D03*
D39*
X124206000Y-58405200D03*
%TD*%
D19*
%TO.C,U8*%
X81788000Y-78879700D03*
X80518000Y-78879700D03*
X79248000Y-78879700D03*
X77978000Y-78879700D03*
X77978000Y-84328000D03*
X79248000Y-84328000D03*
X80518000Y-84328000D03*
X81788000Y-84328000D03*
%TD*%
D23*
%TO.C,D7*%
X156975000Y-31325000D03*
X156975000Y-27325000D03*
%TD*%
D19*
%TO.C,U4*%
X70256400Y-78930500D03*
X68986400Y-78930500D03*
X67716400Y-78930500D03*
X66446400Y-78930500D03*
X66446400Y-84378800D03*
X67716400Y-84378800D03*
X68986400Y-84378800D03*
X70256400Y-84378800D03*
%TD*%
D26*
%TO.C,C20*%
X40637400Y-46145400D03*
X40637400Y-47695400D03*
%TD*%
%TO.C,C6*%
X77470000Y-31571600D03*
X77470000Y-33121600D03*
%TD*%
D36*
%TO.C,Q2*%
X71120000Y-60525000D03*
X69220000Y-60525000D03*
X70170000Y-62400000D03*
%TD*%
D23*
%TO.C,D2*%
X123799600Y-26295600D03*
X123799600Y-30295600D03*
%TD*%
D40*
%TO.C,C18*%
X41910000Y-36372800D03*
X41910000Y-34472800D03*
%TD*%
D41*
%TO.C,L2*%
X147100000Y-44700000D03*
X157000000Y-44700000D03*
%TD*%
D42*
%TO.C,U1*%
X97975000Y-45195000D03*
X97975000Y-46465000D03*
X97975000Y-47735000D03*
X97975000Y-49005000D03*
X97975000Y-50275000D03*
X97975000Y-51545000D03*
X97975000Y-52815000D03*
X97975000Y-54085000D03*
X97975000Y-55355000D03*
X97975000Y-56625000D03*
X97975000Y-57895000D03*
X97975000Y-59165000D03*
X97975000Y-60435000D03*
X97975000Y-61705000D03*
X88675000Y-61705000D03*
X88675000Y-60435000D03*
X88675000Y-59165000D03*
X88675000Y-57895000D03*
X88675000Y-56625000D03*
X88675000Y-55355000D03*
X88675000Y-54085000D03*
X88675000Y-52815000D03*
X88675000Y-51545000D03*
X88675000Y-50275000D03*
X88675000Y-49005000D03*
X88675000Y-47735000D03*
X88675000Y-46465000D03*
X88675000Y-45195000D03*
%TD*%
D26*
%TO.C,C17*%
X25650000Y-59925000D03*
X25650000Y-61475000D03*
%TD*%
D40*
%TO.C,C13*%
X27375000Y-49800000D03*
X27375000Y-47900000D03*
%TD*%
D19*
%TO.C,U10*%
X106095800Y-79114650D03*
X104825800Y-79114650D03*
X103555800Y-79114650D03*
X102285800Y-79114650D03*
X102285800Y-84562950D03*
X103555800Y-84562950D03*
X104825800Y-84562950D03*
X106095800Y-84562950D03*
%TD*%
D37*
%TO.C,C10*%
X148336000Y-35204400D03*
X148336000Y-26804400D03*
%TD*%
D26*
%TO.C,R1*%
X30075000Y-48275000D03*
X30075000Y-49825000D03*
%TD*%
D25*
%TO.C,R8*%
X25603200Y-83847400D03*
X25603200Y-82197400D03*
%TD*%
D27*
%TO.C,U6*%
X29555000Y-52275000D03*
X28285000Y-52275000D03*
X27015000Y-52275000D03*
X25745000Y-52275000D03*
X25745000Y-57675000D03*
X27015000Y-57675000D03*
X28285000Y-57675000D03*
X29555000Y-57675000D03*
%TD*%
M02*
